<?xml version="1.0" encoding="utf-8"?>
<!-- Generator: Adobe Illustrator 16.0.0, SVG Export Plug-In . SVG Version: 6.00 Build 0)  -->
<!DOCTYPE svg PUBLIC "-//W3C//DTD SVG 1.1//EN" "http://www.w3.org/Graphics/SVG/1.1/DTD/svg11.dtd">
<svg version="1.1" id="Слой_1" xmlns="http://www.w3.org/2000/svg" xmlns:xlink="http://www.w3.org/1999/xlink" x="0px" y="0px"
	 width="30.1px" height="30.005px" viewBox="0 0 30.1 30.005" enable-background="new 0 0 30.1 30.005" xml:space="preserve">
<g>
	<g>
		<path fill="#EEA718" stroke="#B15C1B" stroke-width="0.5289" stroke-miterlimit="10" d="M6.11,16.853
			c-0.587-0.801-1.707-1.242-2.716-1.451c-1.401-0.289-2.199,0.126-2.917,1.203c0.166-0.95,0.289-1.396,0.924-2.052
			c1.174-1.215,2.904-1.635,4.547-1.531c0.551,0.035,1.715-0.042,2.117,0.333c0.447,0.416,0.244,1.455-0.021,1.908
			C7.605,16.016,6.887,16.446,6.11,16.853z"/>
		<g>
			<g>
				<g>
					<path fill="#B15D1C" d="M0.27,16.64l0.293,0.215c0.008-0.018-0.335,0.464-0.113,0.977c0.092,0.239,0.289,0.439,0.45,0.514
						c0.165,0.08,0.29,0.071,0.29,0.07C1.174,18.4,1.484,18.487,1.768,18.18c0.106-0.148,0.224-0.386,0.114-0.631
						c-0.079-0.234-0.324-0.462-0.602-0.386c-0.272,0.055-0.454,0.384-0.311,0.638c0.122,0.265,0.51,0.275,0.612,0.042
						c0.122-0.218-0.07-0.445-0.215-0.438c-0.151-0.002-0.204,0.1-0.207,0.089c0.004,0.011,0.046-0.095,0.206-0.104
						c0.151-0.017,0.387,0.206,0.269,0.474c-0.089,0.284-0.579,0.325-0.757,0.005c-0.215-0.29-0.026-0.765,0.337-0.873
						c0.375-0.141,0.756,0.137,0.89,0.44c0.178,0.318,0.06,0.678-0.08,0.916c-0.355,0.468-0.831,0.419-0.807,0.427
						c0,0-0.193,0.022-0.447-0.095c-0.256-0.113-0.515-0.374-0.65-0.701c-0.139-0.326-0.126-0.695-0.044-0.946
						C0.148,16.778,0.282,16.645,0.27,16.64z"/>
				</g>
			</g>
		</g>
	</g>
	<g>
		<defs>
			<path id="XMLID_677_" d="M16.654,14.613c-0.949-0.108-1.385,0.956-2.277,1.264c-1.323,0.456-3.636,0.437-4.564,1.662
				c-0.702,0.927-0.581,2.572-0.086,3.562c0.444,0.888,1.04,1.674,1.772,2.33c4.7,4.209,9.775,6.263,16.109,5.339
				c-0.041-0.188-0.09-0.484-0.194-0.645c0.665,0.141,1.423,0.42,1.948,0.881c-0.172-0.385-0.2-0.883-0.136-1.351
				c-2.349,0.716-4.854-1.873-6.192-3.355c-0.833-0.922-1.701-1.807-2.377-2.807c-0.903-1.337-1.514-2.94-2.381-4.333
				C18.018,16.746,17.049,14.658,16.654,14.613z"/>
		</defs>
		<use xlink:href="#XMLID_677_"  overflow="visible" fill="#FCC016"/>
		<clipPath id="XMLID_2_">
			<use xlink:href="#XMLID_677_"  overflow="visible"/>
		</clipPath>
		<g clip-path="url(#XMLID_2_)">
			<path fill="#EEA718" d="M29.351,29.012c0,0-4.212-0.09-8.334-1.523c-4.122-1.434-8.758-8.532-8.758-8.532
				s-3.292,1.221-2.708,2.307c0,0,4.712,5.817,7.4,7.52c2.688,1.701,8.636,0.855,8.636,0.855L29.351,29.012z"/>
			<g>
				<g>
					<path fill="#AF632F" d="M13.964,25.904c0,0-0.158-0.16-0.435-0.439c-0.269-0.288-0.652-0.7-1.113-1.194
						c-0.447-0.506-0.98-1.087-1.526-1.733c-0.273-0.322-0.555-0.655-0.842-0.994l-0.213-0.256l-0.106-0.129l-0.022-0.077
						c-0.031-0.133,0.004-0.296,0.14-0.45c0.522-0.618,1.393-1.009,2.137-1.342l0.196-0.082v0v0l0.043,0.063
						c0.117,0.169,0.23,0.334,0.342,0.495c0.229,0.316,0.446,0.614,0.646,0.89c0.813,1.093,1.406,1.782,1.406,1.782
						s0.662,0.815,1.777,1.93c1.122,1.079,2.696,2.586,4.731,3.269c1.013,0.267,2.026,0.533,2.976,0.783
						c0.968,0.154,1.872,0.298,2.646,0.421c0.78,0.068,1.431,0.125,1.886,0.165c0.457,0.018,0.718,0.028,0.718,0.028
						s-0.262-0.017-0.721-0.046c-0.457-0.051-1.108-0.125-1.891-0.213c-0.774-0.143-1.676-0.309-2.643-0.488
						c-0.942-0.273-1.948-0.566-2.953-0.858c-1.957-0.732-3.477-2.261-4.562-3.363c-1.076-1.138-1.713-1.968-1.713-1.968
						c0,0-0.583-0.684-1.387-1.768c-0.197-0.273-0.412-0.569-0.638-0.882c-0.113-0.166-0.23-0.335-0.349-0.508
						c-0.061-0.073-0.104-0.197-0.18-0.224l-0.287,0.11l-0.296,0.124c-0.773,0.369-1.645,0.71-2.278,1.527
						c-0.137,0.21-0.254,0.546-0.1,0.835c0.171,0.273,0.294,0.376,0.444,0.569c0.288,0.34,0.572,0.674,0.847,0.998
						c0.55,0.647,1.084,1.232,1.537,1.739c0.464,0.497,0.851,0.911,1.121,1.201c0.281,0.281,0.441,0.441,0.441,0.441
						c0,0,0.729,0.753,1.931,1.779c0.63,0.465,1.353,1.103,2.332,1.392c0.951,0.313,2.006,0.44,3.053,0.493
						c2.097,0.087,4.197-0.106,5.728-0.435c1.542-0.274,2.569-0.457,2.569-0.457s-1.038,0.158-2.594,0.396
						c-1.547,0.292-3.655,0.43-5.74,0.289c-1.039-0.079-2.081-0.238-2.987-0.576c-0.917-0.311-1.593-0.941-2.199-1.422
						C14.67,26.678,13.964,25.904,13.964,25.904z"/>
				</g>
			</g>
		</g>
		<use xlink:href="#XMLID_677_"  overflow="visible" fill="none" stroke="#B15C1B" stroke-width="0.5289" stroke-miterlimit="10"/>
	</g>
	<g>
		<path fill="#FFE6B1" stroke="#B15C1B" stroke-width="0.5289" stroke-miterlimit="10" d="M14.659,18.668
			c-2.617,0.96-5.367,2.621-5.451,5.773c-0.059,2.242,1.337,3.638,3.215,4.615c-1.527-0.127-2.783-0.459-3.982-1.363
			c-3.021-2.279-4.073-6.329-3.642-9.952c0.121-1.016,0.321-2.495,0.854-3.383c0.214-0.355,0.407-0.606,0.802-0.762
			c0.178-0.07,1.158-0.256,1.295-0.088c0.22,0.579,1.039,1.364,1.466,1.815c0.834,0.88,2.045,1.512,3.188,1.863
			C13.121,17.407,14.604,17.708,14.659,18.668z"/>
		<g>
			<g>
				<g>
					<path fill="#B15D1C" d="M11.933,29.118l0.387-0.424c0.009-0.015,0.146,0.154,0.426,0.277c0.27,0.134,0.692,0.217,1.078,0.105
						c0.384-0.101,0.71-0.388,0.825-0.635c0.131-0.252,0.114-0.454,0.114-0.454c-0.014,0.021,0.106-0.455-0.34-0.955
						c-0.198-0.239-0.577-0.408-0.966-0.322c-0.395,0.068-0.735,0.47-0.634,0.915c0.072,0.441,0.566,0.772,0.976,0.612
						c0.436-0.161,0.44-0.77,0.107-0.967c-0.315-0.245-0.713,0.029-0.699,0.267c-0.005,0.237,0.141,0.329,0.124,0.333
						c0.018-0.006-0.135-0.083-0.149-0.332c-0.036-0.247,0.373-0.599,0.766-0.347c0.185,0.105,0.313,0.32,0.332,0.565
						c0.024,0.261-0.161,0.5-0.392,0.636c-0.502,0.269-1.192-0.108-1.337-0.671c-0.204-0.578,0.227-1.238,0.765-1.374
						c0.534-0.188,1.094,0.014,1.415,0.311c0.332,0.287,0.474,0.645,0.547,0.888c0.063,0.252,0.056,0.404,0.056,0.404
						c0,0,0.035,0.301-0.155,0.705c-0.182,0.409-0.634,0.811-1.178,0.965c-0.544,0.164-1.123,0.053-1.492-0.127
						C12.127,29.324,11.943,29.102,11.933,29.118z"/>
				</g>
			</g>
		</g>
	</g>
	<g>
		<path fill="#FFE6B1" stroke="#B15C1B" stroke-width="0.5289" stroke-miterlimit="10" d="M16.853,17.226
			c-1.118-2.554-1.336-4.45,0.882-6.691c1.578-1.595,3.553-1.553,5.557-0.873c-1.147-1.014-2.256-1.691-3.74-1.931
			c-3.736-0.604-7.387,1.438-9.705,4.257c-0.65,0.79-1.578,1.958-1.852,2.957C7.886,15.344,7.839,15.657,8,16.05
			c0.073,0.177,0.617,1.013,0.832,0.997c0.571-0.242,1.705-0.193,2.326-0.197c1.213-0.007,1.39-1.347,2.433-0.766
			C14.245,16.45,16.121,17.851,16.853,17.226z"/>
		<g>
			<g>
				<g>
					<path fill="#B15D1C" d="M22.917,9.815l0.161-0.551c-0.008,0.017,0.274,0.06,0.613,0.294c0.342,0.219,0.734,0.647,0.881,1.188
						c0.155,0.537,0.061,1.123-0.181,1.493c-0.233,0.373-0.501,0.506-0.501,0.506c0.019-0.025-0.548,0.426-1.416,0.185
						c-0.424-0.101-0.885-0.475-1.018-1.015c-0.17-0.523,0.149-1.223,0.732-1.357c0.546-0.175,1.196,0.206,1.241,0.742
						c-0.005,0.253-0.087,0.524-0.314,0.627c-0.202,0.11-0.438,0.107-0.609,0.014c-0.382-0.189-0.295-0.661-0.099-0.737
						c0.19-0.099,0.315-0.02,0.312-0.036c0.004,0.015-0.128-0.05-0.297,0.056c-0.172,0.086-0.213,0.502,0.117,0.635
						c0.145,0.072,0.346,0.053,0.499-0.038c0.168-0.095,0.217-0.292,0.21-0.486c-0.05-0.403-0.554-0.657-0.957-0.512
						c-0.418,0.125-0.597,0.593-0.467,0.96c0.104,0.374,0.439,0.61,0.731,0.673c0.313,0.081,0.576,0.009,0.743-0.042
						c0.168-0.064,0.247-0.127,0.247-0.127c0,0,0.186-0.084,0.343-0.326c0.162-0.224,0.246-0.651,0.138-1.039
						c-0.1-0.395-0.39-0.719-0.647-0.884C23.127,9.86,22.909,9.832,22.917,9.815z"/>
				</g>
			</g>
		</g>
	</g>
	<g>
		<path fill="#FFE6B1" stroke="#B15C1B" stroke-width="0.5007" stroke-miterlimit="10" d="M14.961,18.726
			c1.205-0.864,2.998-0.973,4.527-0.801c2.123,0.239,3.141,1.71,3.662,3.572c0.204-1.426,0.157-2.629-0.439-3.855
			c-1.105-2.269-3.365-3.664-5.746-4.278c-0.798-0.206-2.414-0.854-3.158-0.509c-0.827,0.383-1.02,1.953-0.854,2.718
			C13.227,16.845,14.046,17.789,14.961,18.726z"/>
		<g>
			<g>
				<g>
					<path fill="#B15D1C" d="M22.833,21.296l0.516-0.17c-0.02,0.002,0.105,0.25,0.092,0.644c0.002,0.389-0.146,0.914-0.485,1.311
						c-0.334,0.4-0.809,0.655-1.219,0.708c-0.203,0.023-0.373,0.014-0.49-0.012c-0.119-0.012-0.182-0.042-0.182-0.042
						c0.005-0.011-0.147-0.026-0.353-0.171c-0.211-0.125-0.486-0.389-0.618-0.789c-0.159-0.395-0.079-0.954,0.267-1.335
						c0.314-0.391,0.986-0.576,1.442-0.239c0.112,0.082,0.216,0.166,0.265,0.297c0.071,0.115,0.124,0.234,0.119,0.373
						c0.036,0.269-0.114,0.509-0.281,0.675c-0.196,0.129-0.439,0.239-0.651,0.133c-0.207-0.074-0.342-0.264-0.356-0.447
						c-0.042-0.396,0.36-0.581,0.531-0.496c0.188,0.077,0.194,0.221,0.205,0.208c-0.009,0.013-0.031-0.128-0.21-0.186
						c-0.162-0.066-0.505,0.132-0.443,0.455c0.029,0.334,0.516,0.503,0.8,0.211c0.311-0.264,0.222-0.784-0.113-0.988
						c-0.323-0.213-0.786-0.084-1.007,0.22c-0.243,0.287-0.261,0.673-0.155,0.927c0.242,0.562,0.703,0.617,0.679,0.622
						c0,0,0.172,0.082,0.447,0.049c0.266-0.022,0.644-0.209,0.894-0.506c0.259-0.295,0.373-0.69,0.372-0.977
						C22.912,21.48,22.813,21.299,22.833,21.296z"/>
				</g>
			</g>
		</g>
	</g>
	<g>
		<defs>
			<path id="XMLID_676_" d="M15.087,13.86c-0.196-0.494-0.514-0.946-0.802-1.423c-0.294-0.486-3.609-6.499-4.197-8.09
				C9.5,2.755,9.165,1.296,7.948,0.589C6.73-0.118,5.01-0.074,3.96,2.313C2.912,4.7,3.29,9.386,4.338,12.348
				c1.037,2.928,3.469,5.812,3.524,5.878c0.897,1.062,3.41,1.282,4.565,0.587c0.221-0.133,0.755-0.232,1.039-0.232
				c0.283,0,0.681-0.157,0.681-0.157s0.219-1.154,0.345-1.486c0.333-0.881,0.609-0.845,0.754-1.794
				C15.32,14.667,15.242,14.25,15.087,13.86z"/>
		</defs>
		<use xlink:href="#XMLID_676_"  overflow="visible" fill="#FFEBC4"/>
		<clipPath id="XMLID_3_">
			<use xlink:href="#XMLID_676_"  overflow="visible"/>
		</clipPath>
		<g clip-path="url(#XMLID_3_)">
			<path fill="#EED49D" d="M13.467,18.582c0,0-4.751-3.285-6.765-7.706C4.687,6.455,4.938,1.888,5.862,0.031
				c0,0-3.283,0.656-3.367,5.077c-0.084,4.421,2.396,9.966,4.663,12.221c0,0,3.02,2.182,3.355,2.148
				C10.85,19.443,13.467,18.582,13.467,18.582z"/>
		</g>
		<use xlink:href="#XMLID_676_"  overflow="visible" fill="none" stroke="#B15C1B" stroke-width="0.3814" stroke-miterlimit="10"/>
	</g>
</g>
</svg>
