<?xml version="1.0" encoding="utf-8"?>
<!-- Generator: Adobe Illustrator 16.0.0, SVG Export Plug-In . SVG Version: 6.00 Build 0)  -->
<!DOCTYPE svg PUBLIC "-//W3C//DTD SVG 1.1//EN" "http://www.w3.org/Graphics/SVG/1.1/DTD/svg11.dtd">
<svg version="1.1" id="Слой_1" xmlns="http://www.w3.org/2000/svg" xmlns:xlink="http://www.w3.org/1999/xlink" x="0px" y="0px"
	 width="33.026px" height="33.025px" viewBox="0 0 33.026 33.025" enable-background="new 0 0 33.026 33.025" xml:space="preserve">
<g>
	<circle fill="#E52620" cx="16.513" cy="16.514" r="16.513"/>
	<g>
		<path fill="#E0B807" d="M9.726,21.697c-0.11,0-0.466,0.037-0.466-0.146c0-0.344,0.943-1.568,0.943-2.965
			c0-0.553-0.526-0.76-1.078-0.76c-1.115,0-2.892,0.195-2.892,1.592c0,0.969,0.796,2.01,0.796,2.195
			c0,0.072-0.074,0.084-0.233,0.084H5.045c-0.625,0-0.796-1.102-0.796-2.695c0-5.244,3.64-7.684,4.178-7.684
			c0.405,0,3.566,1.752,3.566,7.439c0,3.271-0.527,2.939-0.895,2.939H9.726z M6.503,16.258c0,0.146,0.086,0.232,0.233,0.232
			c0.22,0,1.409-0.318,2.487-0.318c0.43,0,0.626-0.063,0.626-0.404c0-0.76-0.907-2.354-1.373-2.354
			C7.814,13.414,6.503,15.363,6.503,16.258z"/>
		<path fill="#E0B807" d="M18.511,21.697c-0.845,0-0.085-0.758-1.998-4.631c-0.16-0.332-1.238-2.391-1.63-2.391
			c-0.307,0-0.221,1.336-0.221,1.582c0,3.455,0.502,4.705,0.502,5.33c0,0.16-0.233,0.109-0.343,0.109h-1.14
			c-0.307,0-0.674,0.234-0.674-4.361c0-6.055,0.638-5.834,0.846-5.834h0.968c0.465,0,1.396,0.98,3.688,5.221
			c0.037,0.063,0.098,0.221,0.208,0.221c0.123,0,0.098-0.527,0.098-0.699c0-2.291-0.625-4.324-0.625-4.607
			c0-0.172,0.27-0.135,0.502-0.135h0.932c0.27,0,0.846-0.221,0.846,5.834c0,4.596-0.368,4.361-0.674,4.361H18.511z"/>
		<path fill="#E0B807" d="M28.189,11.502c0.49,0,0.588,0.172,0.588,0.65c0,3.859-3.235,4.656-3.235,8.529
			c0,0.27,0.073,0.525,0.073,0.783s-0.38,0.232-0.563,0.232H23.63c-0.33,0-0.379-0.465-0.379-0.711c0-1.469,0.821-2.535,0.821-2.953
			c0-0.428-2.794-2.352-2.794-5.6c0-0.918,0.172-0.932,0.723-0.932h0.98c0.233,0,0.698-0.023,0.698,0.318
			c0,0.1-0.109,0.748-0.109,0.957c0,1.752,1.201,3.332,1.568,3.332c0.355,0,1.752-1.936,1.752-3.395c0-0.391-0.11-0.906-0.11-1.004
			c0-0.258,0.319-0.209,0.49-0.209H28.189z"/>
	</g>
</g>
</svg>
