<?xml version="1.0" encoding="utf-8"?>
<!-- Generator: Adobe Illustrator 16.0.0, SVG Export Plug-In . SVG Version: 6.00 Build 0)  -->
<!DOCTYPE svg PUBLIC "-//W3C//DTD SVG 1.1//EN" "http://www.w3.org/Graphics/SVG/1.1/DTD/svg11.dtd">
<svg version="1.1" id="Слой_1" xmlns="http://www.w3.org/2000/svg" xmlns:xlink="http://www.w3.org/1999/xlink" x="0px" y="0px"
	 width="38.391px" height="30.399px" viewBox="0 0 38.391 30.399" enable-background="new 0 0 38.391 30.399" xml:space="preserve">
<g>
	<g>
		<g>
			<g>
				<path fill="#422515" d="M5.537,22.071l0.142-0.149c0,0,0.066,0.076,0.181,0.209c0.057,0.067,0.125,0.149,0.204,0.243
					c0.06,0.107,0.128,0.228,0.202,0.359c0.273,0.532,0.414,1.376,0.155,2.147C6.177,25.646,5.58,26.284,5.004,26.5
					c-0.145,0.047-0.277,0.09-0.395,0.128c-0.123,0.015-0.229,0.028-0.317,0.04c-0.176,0.032-0.278-0.004-0.277,0.004
					c0.002-0.012-0.219,0.019-0.576-0.103c-0.341-0.117-0.869-0.348-1.204-0.912c-0.342-0.536-0.395-1.411,0.108-2.049
					c0.444-0.687,1.566-0.842,2.189-0.229c0.31,0.288,0.455,0.752,0.335,1.152c-0.095,0.399-0.435,0.745-0.835,0.776
					c-0.381,0.04-0.785-0.151-0.928-0.491c-0.15-0.342,0.024-0.724,0.283-0.878c0.273-0.165,0.605-0.046,0.742,0.153
					c0.146,0.211,0.067,0.461-0.054,0.582c-0.133,0.133-0.294,0.094-0.378,0.078c-0.078-0.05-0.12-0.077-0.12-0.077
					c-0.016-0.03,0.187,0.228,0.489-0.005c0.116-0.119,0.19-0.36,0.051-0.561c-0.131-0.19-0.448-0.303-0.706-0.149
					c-0.246,0.143-0.41,0.507-0.268,0.823c0.128,0.313,0.503,0.497,0.856,0.466c0.369-0.023,0.685-0.344,0.777-0.709
					c0.112-0.37-0.012-0.791-0.288-1.06c-0.571-0.575-1.591-0.439-2.004,0.172c-0.472,0.575-0.433,1.378-0.134,1.861
					c0.291,0.509,0.771,0.733,1.075,0.851c0.326,0.102,0.521,0.098,0.521,0.099c0,0,0.386,0.075,0.917-0.132
					c0.532-0.177,1.116-0.752,1.349-1.478c0.252-0.722,0.125-1.517-0.129-2.019c-0.127-0.254-0.259-0.449-0.38-0.565
					C5.598,22.143,5.537,22.071,5.537,22.071z"/>
			</g>
		</g>
	</g>
	<g>
		<g>
			<g>
				<path fill="#422515" d="M34.971,14.803l0.136-0.012c0.021-0.006-0.002,0.256,0.162,0.591c0.149,0.334,0.498,0.726,0.965,0.897
					c0.46,0.178,0.992,0.137,1.307-0.05c0.159-0.093,0.276-0.189,0.347-0.271c0.082-0.07,0.103-0.132,0.107-0.128
					c-0.007-0.004,0.094-0.094,0.175-0.306c0.077-0.201,0.176-0.543,0.044-0.911c-0.115-0.362-0.5-0.728-0.996-0.742
					c-0.492-0.062-1.003,0.397-0.963,0.937c0.012,0.532,0.736,0.912,1.118,0.524c0.172-0.167,0.243-0.441,0.136-0.647
					c-0.105-0.213-0.365-0.282-0.549-0.219c-0.195,0.067-0.275,0.283-0.232,0.438c0.045,0.164,0.208,0.231,0.324,0.22
					c0.262-0.061,0.211-0.288,0.22-0.265c-0.01-0.023,0.048,0.203-0.217,0.271c-0.116,0.014-0.285-0.049-0.337-0.217
					c-0.05-0.158,0.025-0.385,0.227-0.464c0.191-0.076,0.466-0.009,0.584,0.211c0.122,0.214,0.062,0.504-0.113,0.693
					c-0.399,0.425-1.177,0.067-1.227-0.514c-0.073-0.575,0.461-1.099,0.997-1.06c0.534-0.012,0.976,0.366,1.119,0.755
					c0.276,0.836-0.196,1.358-0.17,1.334c0,0-0.133,0.251-0.491,0.458c-0.346,0.22-0.928,0.287-1.433,0.093
					c-0.513-0.181-0.897-0.605-1.062-0.97C34.97,15.081,34.991,14.796,34.971,14.803z"/>
			</g>
		</g>
	</g>
	<g>
		<g>
			<g>
				<g>
					<g>
						<g>
							<path fill="#422515" d="M5.148,4.654L5.18,4.975c0,0-0.353,0.023-0.637,0.269C4.256,5.466,3.99,5.766,3.99,5.766
								C4.004,5.71,3.385,6.541,2.42,6.419C2.177,6.334,2.077,6.083,2.083,5.879C2.102,5.65,2.329,5.531,2.482,5.556
								c0.162,0.024,0.233,0.173,0.216,0.257C2.695,5.902,2.693,5.952,2.693,5.952S2.69,5.903,2.685,5.816
								C2.692,5.73,2.61,5.613,2.481,5.606c-0.13-0.011-0.301,0.11-0.295,0.276c0.013,0.155,0.105,0.344,0.271,0.378
								c0.346,0.048,0.727-0.185,0.945-0.355c0.212-0.179,0.344-0.35,0.344-0.35s0.259-0.297,0.597-0.564
								c0.167-0.135,0.372-0.229,0.531-0.284C5.038,4.675,5.148,4.654,5.148,4.654z"/>
						</g>
					</g>
				</g>
				<g>
					<g>
						<g>
							<path fill="#422515" d="M2.808,7.493l0.027,0.322c0,0-0.281,0.025-0.522,0.15C2.079,8.093,1.893,8.337,1.91,8.309
								C1.892,8.285,1.601,8.862,1.146,9.366C1.026,9.484,0.886,9.59,0.73,9.638C0.571,9.686,0.42,9.641,0.31,9.592
								C0.096,9.468,0.007,9.327,0,9.335c0.004-0.009,0.115,0.12,0.328,0.21c0.222,0.101,0.515-0.025,0.693-0.28
								C1.375,8.767,1.603,8.144,1.63,8.149c0.013-0.022,0.21-0.285,0.521-0.462C2.463,7.521,2.808,7.493,2.808,7.493z"/>
						</g>
					</g>
				</g>
				<g>
					<g>
						<g>
							<path fill="#422515" d="M1.664,10.975l0.172,0.273c0.005,0.007-0.126,0.088-0.229,0.217
								c-0.105,0.125-0.188,0.284-0.188,0.284c0,0-0.057,0.07-0.136,0.196c-0.08,0.121-0.189,0.291-0.317,0.447
								c-0.128,0.159-0.297,0.283-0.434,0.336c-0.142,0.034-0.236,0.056-0.236,0.056c0-0.001,0.383-0.119,0.534-0.479
								c0.086-0.164,0.154-0.341,0.208-0.478C1.088,11.693,1.134,11.6,1.134,11.6c0,0,0.087-0.172,0.22-0.335
								C1.479,11.102,1.672,10.979,1.664,10.975z"/>
						</g>
					</g>
				</g>
				<g>
					<g>
						<g>
							<path fill="#422515" d="M1.279,14.483l0.113,0.303c0,0-0.324,0.125-0.515,0.455c-0.208,0.306-0.261,0.677-0.261,0.677
								c0.01-0.006-0.074,0.2-0.011,0.46c0.068,0.292,0.221,0.696,0.331,1.106c0.103,0.405,0.203,0.861,0.031,1.156
								c-0.213,0.264-0.479,0.167-0.462,0.193c-0.019-0.02,0.255,0.033,0.417-0.216c0.127-0.269,0.002-0.693-0.137-1.074
								c-0.145-0.39-0.328-0.761-0.437-1.074c-0.123-0.353-0.04-0.58-0.055-0.58c0,0,0.057-0.446,0.307-0.817
								c0.113-0.19,0.281-0.348,0.419-0.451C1.168,14.53,1.279,14.483,1.279,14.483z"/>
						</g>
					</g>
				</g>
				<g>
					<g>
						<g>
							<path fill="#422515" d="M19.642,4.492l0.087-0.312c-0.015,0.022,0.368,0.091,0.63,0.347c0.15,0.108,0.254,0.249,0.332,0.353
								c0.083,0.103,0.128,0.173,0.128,0.173s0.083,0.154,0.208,0.386c0.132,0.228,0.258,0.557,0.486,0.788
								c0.198,0.273,0.664,0.195,0.684-0.098c0.04-0.261-0.09-0.421-0.078-0.42c-0.014,0.002,0.136,0.138,0.128,0.424
								c0.003,0.139-0.114,0.319-0.299,0.358c-0.176,0.056-0.398-0.011-0.534-0.136c-0.296-0.238-0.459-0.559-0.61-0.76
								c-0.146-0.209-0.244-0.349-0.244-0.349s-0.043-0.071-0.117-0.16c-0.072-0.093-0.163-0.223-0.286-0.307
								c-0.106-0.11-0.24-0.174-0.346-0.211C19.71,4.522,19.642,4.492,19.642,4.492z"/>
						</g>
					</g>
				</g>
				<g>
					<g>
						<g>
							<path fill="#422515" d="M21.694,9.471l0.061-0.317c0,0,0.084,0.028,0.209,0.07c0.12,0.057,0.256,0.161,0.366,0.276
								c0.206,0.242,0.375,0.432,0.375,0.432c0.004-0.005,0.082,0.108,0.254,0.195c0.185,0.087,0.504,0.194,0.619-0.055
								c0.106-0.247,0.011-0.583-0.13-0.749c-0.078-0.094-0.194-0.076-0.248-0.03c-0.047,0.051-0.075,0.081-0.075,0.081
								s0.024-0.033,0.065-0.091c0.044-0.056,0.185-0.096,0.289,0.001c0.177,0.17,0.334,0.482,0.251,0.836
								c-0.043,0.187-0.247,0.316-0.42,0.326c-0.169,0.006-0.312-0.028-0.43-0.061c-0.257-0.082-0.386-0.211-0.386-0.211
								s-0.058-0.057-0.138-0.145c-0.071-0.083-0.165-0.194-0.259-0.304C21.921,9.509,21.694,9.472,21.694,9.471z"/>
						</g>
					</g>
				</g>
				<g>
					<g>
						<g>
							<path fill="#422515" d="M11.436,1.085l-0.158,0.282c0,0-0.183-0.068-0.367-0.135c-0.185-0.061-0.391-0.031-0.388-0.043
								c0,0.006-0.103-0.031-0.264-0.028c-0.162,0.001-0.407,0.047-0.655-0.027C9.35,1.063,9.196,0.809,9.224,0.63
								c0.067-0.178,0.225-0.162,0.205-0.182C9.45,0.459,9.293,0.492,9.274,0.635c0.002,0.135,0.173,0.334,0.36,0.341
								c0.194,0.025,0.406-0.046,0.579-0.083c0.176-0.039,0.303-0.02,0.302-0.027c-0.002,0.012,0.243-0.016,0.471,0.051
								C11.211,1.002,11.436,1.085,11.436,1.085z"/>
						</g>
					</g>
				</g>
				<g>
					<g>
						<g>
							<path fill="#422515" d="M13.529,25.082l-0.127-0.297c0,0,0.277-0.126,0.588-0.16c0.312-0.054,0.633,0.071,0.633,0.071
								c0,0,0.177,0.061,0.342,0.271c0.194,0.244,0.135,0.564,0.286,0.774c0.123,0.175,0.555-0.179,0.389-0.346
								c-0.084-0.083-0.197-0.029-0.246,0.008c-0.049,0.046-0.077,0.073-0.077,0.073s0.024-0.03,0.068-0.083
								c0.042-0.042,0.161-0.125,0.286-0.037c0.124,0.093,0.067,0.31-0.043,0.406c-0.055,0.054-0.122,0.1-0.19,0.148
								c-0.101,0.029-0.21,0.03-0.293-0.05c-0.245-0.264-0.249-0.629-0.376-0.707c-0.127-0.128-0.252-0.155-0.253-0.155
								c0,0-0.219-0.096-0.481-0.054C13.776,24.971,13.529,25.082,13.529,25.082z"/>
						</g>
					</g>
				</g>
			</g>
			<path fill="#603914" stroke="#412413" stroke-width="0.2765" stroke-miterlimit="10" d="M16.201,1.295
				c-0.03-0.369-0.498-0.941-0.498-0.941s-0.651,0.436-1.314,0.467C8.907-0.006,3.093,4.424,1.456,10.699
				c-1.727,6.623,1.241,12.787,6.972,14.283c5.731,1.494,12.137-2.385,13.864-9.008C23.926,9.713,21.333,3.242,16.201,1.295z"/>
			<path opacity="0.5" fill="#412413" d="M15.775,21.018c-4.886,0.199-8.716-3.955-8.946-9.602C6.628,6.492,9.598,1.955,13.6,0.74
				C8.36,0.426,3.015,4.725,1.456,10.699c-1.727,6.623,1.241,12.787,6.972,14.283c4.894,1.275,10.277-1.369,12.822-6.291
				C19.734,20.076,17.822,20.934,15.775,21.018z"/>
			<g>
				<g>
					<path fill="none" stroke="#2E170E" stroke-width="0.2765" stroke-miterlimit="10" d="M4.388,23.645"/>
				</g>
			</g>
			<g>
				<defs>
					<path id="XMLID_414_" d="M16.201,1.295c-0.03-0.369-0.498-0.941-0.498-0.941s-0.651,0.436-1.314,0.467
						C8.907-0.006,3.093,4.424,1.456,10.699c-1.727,6.623,1.241,12.787,6.972,14.283c5.731,1.494,12.137-2.385,13.864-9.008
						C23.926,9.713,21.333,3.242,16.201,1.295z"/>
				</defs>
				<clipPath id="XMLID_2_">
					<use xlink:href="#XMLID_414_"  overflow="visible"/>
				</clipPath>
				<g clip-path="url(#XMLID_2_)">
					<g>
						<g>
							<g>
								<path fill="#402619" d="M18.501,8.484c0,0-0.064-0.877-0.167-1.763c-0.064-0.443-0.121-0.878-0.195-1.217
									c-0.075-0.334-0.145-0.548-0.145-0.548s-0.317-1.008-0.954-1.85c-0.313-0.417-0.742-0.772-1.135-0.867
									c-0.393-0.095-0.65,0.019-0.649,0.002c-0.003,0.016,0.271-0.068,0.633,0.063c0.363,0.13,0.726,0.504,0.982,0.933
									c0.519,0.868,0.72,1.865,0.72,1.865s0.065,0.206,0.135,0.518c0.063,0.31,0.126,0.748,0.185,1.177
									c0.101,0.866,0.166,1.749,0.166,1.749c0,0,0.111,1.019,0.355,2.023c0.224,1.01,0.68,1.934,0.68,1.934
									s-0.358-0.972-0.471-1.986C18.506,9.508,18.501,8.484,18.501,8.484z"/>
							</g>
						</g>
					</g>
					<g>
						<g>
							<g>
								<path fill="#402619" d="M6.761,12.855c0,0,0.019-0.097,0.05-0.266c0.041-0.167,0.055-0.417,0.167-0.692
									c0.212-0.552,0.403-1.323,0.746-2.034c0.626-1.456,1.52-2.764,1.519-2.764c0,0,0.059-0.098,0.161-0.27
									C9.498,6.65,9.661,6.417,9.876,6.152c0.429-0.531,0.934-1.305,1.62-1.914c0.662-0.623,1.419-1.176,2.078-1.351
									c0.678-0.205,1.085,0.152,1.075,0.131c0.011,0.025-0.38-0.367-1.098-0.195c-0.693,0.145-1.5,0.67-2.214,1.27
									c-0.739,0.585-1.298,1.347-1.772,1.868C9.081,6.479,8.883,6.913,8.863,6.899c0,0-0.216,0.342-0.54,0.854
									c-0.348,0.499-0.64,1.26-1.01,1.978c-0.341,0.732-0.547,1.522-0.76,2.09c-0.114,0.283-0.121,0.543-0.167,0.714
									c-0.033,0.174-0.052,0.274-0.052,0.274s-0.075,0.462-0.188,1.155c-0.025,0.698-0.097,1.632-0.049,2.558
									c0.072,0.927,0.121,1.852,0.278,2.532c0.121,0.683,0.202,1.138,0.202,1.138s-0.055-0.462-0.137-1.154
									c-0.118-0.688-0.11-1.618-0.13-2.542c0.014-0.922,0.128-1.842,0.202-2.524C6.661,13.302,6.761,12.855,6.761,12.855z"/>
							</g>
						</g>
					</g>
					<g>
						<g>
							<g>
								<path fill="#402619" d="M7.185,7.641c0,0,0.107-0.26,0.334-0.613c0.225-0.354,0.478-0.856,0.832-1.289
									C8.517,5.515,8.684,5.292,8.84,5.082c0.167-0.2,0.341-0.372,0.48-0.526c0.284-0.306,0.474-0.51,0.474-0.51
									s0.238-0.216,0.594-0.541c0.353-0.329,0.845-0.764,1.402-1.072c0.542-0.32,1.222-0.466,1.63-0.188
									c0.401,0.256,0.519,0.598,0.531,0.582c-0.016,0.016-0.096-0.335-0.499-0.641c-0.416-0.335-1.181-0.231-1.773,0.063
									c-0.618,0.281-1.15,0.686-1.543,0.995c-0.2,0.153-0.366,0.281-0.482,0.37C9.536,3.701,9.476,3.759,9.476,3.759
									S9.279,3.97,8.984,4.287c-0.312,0.303-0.665,0.757-1,1.227C7.619,5.961,7.363,6.479,7.13,6.842
									C6.896,7.206,6.789,7.474,6.79,7.474c0,0-0.133,0.304-0.332,0.76C6.261,8.689,6.066,9.325,5.869,9.952
									c-0.149,0.644-0.328,1.278-0.374,1.771c-0.07,0.487-0.117,0.813-0.117,0.813s0.073-0.322,0.184-0.805
									c0.085-0.487,0.317-1.106,0.515-1.729c0.251-0.605,0.488-1.215,0.722-1.645C7.03,7.927,7.185,7.641,7.185,7.641z"/>
							</g>
						</g>
					</g>
					<g>
						<g>
							<g>
								<path fill="#422515" d="M10.128,25.551l-0.145-0.406c0,0,0.184-0.082,0.458-0.204c0.266-0.136,0.616-0.342,0.901-0.625
									c0.158-0.125,0.285-0.282,0.403-0.429c0.128-0.14,0.227-0.287,0.303-0.418c0.17-0.252,0.254-0.438,0.255-0.438
									c0,0,0.219-0.37,0.447-0.984c0.217-0.617,0.417-1.479,0.511-2.36c0.204-1.765,0.042-3.554,0.042-3.554
									s0.268,1.761,0.173,3.55c-0.041,0.893-0.186,1.785-0.371,2.44c-0.195,0.653-0.402,1.066-0.402,1.066
									c0,0-0.388,0.815-1.054,1.43c-0.32,0.316-0.713,0.553-1.01,0.706C10.333,25.459,10.128,25.551,10.128,25.551z"/>
							</g>
						</g>
					</g>
					<g>
						<g>
							<g>
								<path fill="#422515" d="M11.72,25.739l-0.012-0.431c0,0,0.059-0.012,0.162-0.032c0.101-0.029,0.255-0.026,0.422-0.095
									c0.329-0.148,0.756-0.416,1.066-0.835c0.336-0.386,0.584-0.856,0.764-1.204c0.176-0.353,0.275-0.599,0.275-0.599
									c0,0,0.258-0.499,0.47-1.313c0.113-0.404,0.273-0.871,0.395-1.383c0.09-0.521,0.187-1.077,0.283-1.633
									c0.106-0.556,0.109-1.125,0.166-1.653c0.053-0.529,0.08-1.025,0.07-1.45c0.007-0.852,0.012-1.419,0.012-1.419
									s0.022,0.564,0.055,1.411c0.029,0.424,0.028,0.918-0.001,1.448c-0.03,0.529-0.01,1.099-0.085,1.661
									c-0.07,0.563-0.141,1.127-0.207,1.655c-0.09,0.525-0.235,1.005-0.33,1.423c-0.179,0.841-0.411,1.37-0.411,1.37
									s-0.115,0.253-0.287,0.632c-0.191,0.371-0.451,0.871-0.822,1.308c-0.336,0.462-0.841,0.801-1.251,0.979
									c-0.205,0.089-0.404,0.092-0.53,0.125C11.794,25.726,11.72,25.739,11.72,25.739z"/>
							</g>
						</g>
					</g>
					<g>
						<g>
							<g>
								<path fill="#422515" d="M9.167,24.988l-0.25,0.352c0,0-0.156-0.138-0.391-0.344c-0.212-0.228-0.455-0.567-0.62-0.942
									c-0.332-0.753-0.374-1.555-0.374-1.555c0,0-0.035-0.419-0.001-1.038c0.035-0.619,0.155-1.431,0.327-2.228
									c0.17-0.798,0.387-1.582,0.555-2.167c0.17-0.585,0.284-0.975,0.284-0.975s-0.087,0.394-0.218,0.985
									c-0.128,0.591-0.291,1.38-0.407,2.174c-0.117,0.794-0.185,1.592-0.178,2.187c0.004,0.595,0.062,0.982,0.061,0.982
									c0,0,0.037,0.77,0.336,1.445c0.149,0.336,0.358,0.631,0.541,0.828C9.032,24.87,9.167,24.988,9.167,24.988z"/>
							</g>
						</g>
					</g>
					<g>
						<g>
							<g>
								<path fill="#422515" d="M5.859,23.853l-0.27,0.337c0,0-0.188-0.175-0.47-0.436c-0.26-0.281-0.58-0.679-0.838-1.113
									c-0.523-0.867-0.827-1.825-0.827-1.825c0,0-0.164-0.502-0.32-1.273c-0.143-0.773-0.261-1.815-0.242-2.857
									c0.01-1.042,0.159-2.076,0.355-2.827c0.109-0.373,0.199-0.683,0.293-0.889c0.083-0.209,0.131-0.329,0.131-0.329
									s-0.042,0.121-0.113,0.333c-0.083,0.208-0.157,0.52-0.244,0.893c-0.156,0.751-0.25,1.773-0.208,2.792
									c0.034,1.02,0.197,2.027,0.373,2.767c0.188,0.737,0.367,1.208,0.367,1.208c0,0,0.291,0.937,0.791,1.766
									c0.248,0.415,0.547,0.788,0.788,1.051C5.685,23.692,5.859,23.853,5.859,23.853z"/>
							</g>
						</g>
					</g>
					<g>
						<g>
							<g>
								<path fill="#422515" d="M4.143,22.59l-0.34,0.265c0,0-0.088-0.132-0.221-0.331c-0.13-0.2-0.322-0.457-0.447-0.748
									c-0.305-0.558-0.498-1.157-0.498-1.157c0,0-0.117-0.312-0.213-0.798c-0.121-0.479-0.222-1.13-0.29-1.779
									c-0.144-1.302-0.073-2.601-0.073-2.601s0.038,1.294,0.283,2.555c0.119,0.629,0.268,1.252,0.422,1.704
									c0.131,0.459,0.264,0.747,0.264,0.747c0,0,0.186,0.585,0.479,1.117c0.12,0.281,0.301,0.523,0.425,0.712
									C4.06,22.465,4.143,22.59,4.143,22.59z"/>
							</g>
						</g>
					</g>
					<g>
						<g>
							<g>
								<path fill="#402619" d="M20.17,7.409c0,0-0.031-0.14-0.105-0.341c-0.072-0.203-0.168-0.473-0.264-0.742
									c-0.12-0.261-0.24-0.522-0.331-0.718c-0.085-0.198-0.173-0.315-0.173-0.315s-0.333-0.58-0.792-1.062
									c-0.201-0.264-0.467-0.466-0.647-0.634c-0.184-0.164-0.307-0.272-0.307-0.272s0.115,0.119,0.286,0.299
									c0.167,0.183,0.413,0.403,0.591,0.682c0.192,0.266,0.393,0.523,0.497,0.748c0.117,0.215,0.195,0.358,0.195,0.358
									c-0.006,0.003,0.086,0.112,0.167,0.307c0.087,0.191,0.205,0.446,0.321,0.701c0.094,0.265,0.188,0.53,0.259,0.729
									c0.071,0.199,0.103,0.337,0.103,0.337s0.213,0.616,0.376,1.251c0.166,0.634,0.331,1.269,0.331,1.269
									s-0.114-0.651-0.228-1.301C20.336,8.053,20.17,7.409,20.17,7.409z"/>
							</g>
						</g>
					</g>
					<g>
						<g>
							<g>
								<path fill="#402619" d="M15.587,5.452c0,0-0.009-0.275-0.018-0.55c-0.025-0.275-0.05-0.551-0.05-0.551
									s-0.021-0.078-0.051-0.196c-0.035-0.116-0.061-0.274-0.136-0.422c-0.098-0.314-0.355-0.538-0.338-0.543
									c-0.013,0.009,0.197,0.264,0.238,0.58c0.069,0.303,0.076,0.617,0.076,0.617c0,0,0.024,0.268,0.048,0.535
									c0.008,0.271,0.017,0.541,0.017,0.541l0.085,1.259L15.587,5.452z"/>
							</g>
						</g>
					</g>
					<g>
						<g>
							<g>
								<path fill="#422515" d="M16.771,16.807H16.34c0,0-0.001-0.65-0.002-1.301c0.004-0.326-0.002-0.65-0.027-0.889
									c-0.018-0.24-0.029-0.4-0.029-0.4s-0.01-0.339-0.024-0.849c-0.022-0.51-0.142-1.19-0.199-1.88
									c-0.067-0.688-0.054-1.389,0.042-1.897c0.077-0.513,0.256-0.818,0.235-0.823c0.021,0.005-0.131,0.319-0.168,0.827
									c-0.055,0.503-0.017,1.182,0.102,1.85c0.108,0.669,0.276,1.333,0.344,1.846c0.056,0.516,0.094,0.86,0.094,0.86
									s0.012,0.167,0.03,0.418c0.026,0.252,0.036,0.584,0.031,0.914C16.769,16.145,16.771,16.807,16.771,16.807z"/>
							</g>
						</g>
					</g>
				</g>
				<path opacity="0.5" clip-path="url(#XMLID_2_)" fill="#412413" d="M18.082,23.365c-1.304,0-2.999-0.334-3.661-1.932
					c-0.059-0.127-1.301-2.859,1.144-6.053c0.025-0.037,1.641-2.398,3.719-2.398c0.078,0,0.156,0.004,0.235,0.01l0.122,0.012
					l2.243-2.123l2.216,0.861l0.209,0.316l0.137,0.006c1.508,0.074,5.606,0.408,6.443,1.055l0.039,0.029l0.047,0.016
					c0.484,0.148,1.286,0.543,1.375,0.963c0.04,0.188-0.075,0.4-0.341,0.635c-0.236,0.234-0.932,0.824-1.5,0.926l-1.34-0.195
					L29,15.662l-0.525-0.131l-0.384,0.863h-0.348l-0.068,0.17c-0.188,0.473-0.778,1.775-1.248,2.127l-0.04,0.029l-0.026,0.043
					c-0.02,0.031-2.057,3.127-7.096,4.508c0,0,0,0,0,0C19.262,23.271,18.759,23.365,18.082,23.365z"/>
				
					<use xlink:href="#XMLID_414_"  overflow="visible" fill="none" stroke="#412413" stroke-width="0.5289" stroke-miterlimit="10"/>
			</g>
		</g>
		<g>
			<g>
				<g>
					<g>
						<g>
							<path fill="#422515" d="M36.069,17.877l-0.207,0.059c0.009,0.001-0.047-0.199-0.025-0.389
								c0.016-0.195,0.077-0.365,0.077-0.366c-0.014-0.008,0.174-0.343,0.239-0.69c0.073-0.365-0.193-0.688-0.179-0.688
								c-0.019,0.001,0.299,0.276,0.286,0.69c-0.016,0.395-0.157,0.742-0.139,0.741c0,0-0.059,0.167-0.07,0.328
								C36.032,17.723,36.079,17.875,36.069,17.877z"/>
						</g>
					</g>
				</g>
				<g>
					<g>
						<g>
							<path fill="#422515" d="M36.076,19.2l0.102-0.05l0.153,0.766c0,0,0.048,0.394,0.174,0.765
								c0.064,0.17,0.164,0.388,0.324,0.362c0.146-0.033,0.198-0.147,0.206-0.133c-0.012-0.013-0.039,0.104-0.198,0.165
								c-0.197,0.054-0.337-0.183-0.428-0.346c-0.183-0.366-0.285-0.756-0.285-0.756s-0.04-0.189-0.079-0.379
								c-0.017-0.095-0.034-0.189-0.047-0.26c-0.006-0.034-0.011-0.062-0.014-0.082l0-0.005l0-0.001
								C36.044,19.215,36.076,19.2,36.076,19.2z"/>
						</g>
					</g>
				</g>
				<g>
					<g>
						<g>
							<path fill="#422515" d="M35.72,22.139l0.215,0.016c0.018-0.002-0.013,0.158,0.099,0.301c0.097,0.142,0.242,0.284,0.242,0.284
								c-0.021,0.011,0.323,0.289,0.43,0.734c0.052,0.2-0.009,0.482-0.193,0.506c-0.161,0.011-0.239-0.082-0.242-0.069
								c-0.001-0.011,0.097,0.066,0.232,0.037c0.141-0.031,0.167-0.273,0.1-0.443c-0.126-0.355-0.497-0.605-0.478-0.612
								c0,0-0.141-0.134-0.269-0.314C35.71,22.399,35.731,22.13,35.72,22.139z"/>
						</g>
					</g>
				</g>
				<g>
					<g>
						<g>
							<path fill="#422515" d="M33.952,25.564l0.119-0.169c0,0,0.008,0.005,0.024,0.016c0.011,0.016,0.01-0.014,0.037,0.046
								c0.024,0.065-0.012,0.127-0.014,0.122c-0.045,0.063-0.081,0.084-0.131,0.131c-0.108,0.067-0.152,0.202-0.237,0.352
								c-0.071,0.145-0.164,0.281-0.2,0.396c-0.027,0.119-0.045,0.198-0.045,0.198c0.023-0.018-0.284,0.685-0.138,1.359
								c0.045,0.16,0.21,0.242,0.369,0.215c0.159-0.03,0.226-0.202,0.224-0.331c0.01-0.12-0.068-0.281-0.158-0.21
								c-0.064,0.05-0.078,0.101-0.082,0.098c0.005,0.003,0.012-0.048,0.079-0.105c0.089-0.087,0.199,0.086,0.195,0.214
								c0.013,0.131-0.038,0.337-0.235,0.399c-0.173,0.054-0.413-0.034-0.487-0.23c-0.139-0.367-0.075-0.735-0.065-0.997
								c0.053-0.27,0.088-0.45,0.088-0.45s0.02-0.087,0.05-0.217c0.033-0.129,0.138-0.279,0.215-0.439
								c0.08-0.146,0.165-0.338,0.285-0.413c0.045-0.038,0.093-0.084,0.09-0.083C33.928,25.609,33.97,25.552,33.952,25.564z"/>
						</g>
					</g>
				</g>
				<g>
					<g>
						<g>
							<path fill="#422515" d="M18.037,27.245l0.063-0.088c-0.005,0.003,0.102,0.081,0.167,0.19c0.068,0.12,0.047,0.253,0.047,0.253
								c0.024,0-0.073,0.29-0.319,0.386c-0.238,0.112-0.485,0.015-0.481,0.024c0,0,0.251,0.056,0.454-0.07
								c0.209-0.117,0.26-0.353,0.24-0.348c0,0,0.018-0.102-0.034-0.193C18.122,27.314,18.031,27.248,18.037,27.245z"/>
						</g>
					</g>
				</g>
			</g>
			<g>
				<path fill="#603914" stroke="#412413" stroke-width="0.2765" stroke-miterlimit="10" d="M35.167,14.836
					c-0.007,0.01-0.015,0.018-0.022,0.025c0.015,0.047,0.03,0.092,0.04,0.139c0.074,0.348,0.029,0.875-0.598,1.432
					c-0.156,0.152-1.075,1.023-2.004,1.156L32.504,17.6l-1.072-0.156l-0.209,0.211l-0.313-0.08l-0.326,0.734h-0.336
					c-0.254,0.58-0.764,1.631-1.314,2.105c-0.37,0.533-2.596,3.475-7.639,4.855l-0.039,0.01c-0.024,0.004-0.599,0.115-1.383,0.115
					c-2.227,0-3.818-0.875-4.483-2.463c-0.023-0.051-0.086-0.197-0.159-0.424c0.581,2.227,2.039,4.316,4.201,5.777
					c5.236,3.537,11.264,1.16,12.443-0.219C34.869,24.564,37.689,22.318,35.167,14.836z"/>
			</g>
			<g>
				<path opacity="0.8" fill="#412413" d="M30.825,27.283c-2.804,1.375-6.107,0.389-7.379-2.205c-0.076-0.154-0.142-0.311-0.2-0.471
					c-0.598,0.244-1.248,0.469-1.953,0.662l-0.039,0.01c-0.024,0.004-0.599,0.115-1.383,0.115c-2.227,0-3.818-0.875-4.483-2.463
					c-0.023-0.051-0.086-0.197-0.159-0.424c0.581,2.227,2.039,4.316,4.201,5.777c5.236,3.537,11.264,1.16,12.443-0.219
					c0.384-0.447,0.764-0.875,1.131-1.297c0.47-0.836,0.897-1.707,0.953-2.678c0.061-1.078,0.101-2.18,0.071-3.26
					c0.021,0.727-0.311,1.4-0.311,2.166c0,0.982-0.174,1.775-0.77,2.555C32.387,26.285,31.653,26.877,30.825,27.283z"/>
			</g>
			<g>
				<defs>
					<path id="SVGID_1_" d="M35.167,14.611c-0.007,0.01-0.015,0.242-0.022,0.25c0.015,0.047,0.03,0.092,0.04,0.139
						c0.074,0.348,0.029,0.875-0.598,1.432c-0.156,0.152-1.075,1.023-2.004,1.156L32.504,17.6l-1.072-0.156l-0.209,0.211
						l-0.313-0.08l-0.326,0.734h-0.336c-0.254,0.58-0.764,1.631-1.314,2.105c-0.37,0.533-2.596,3.475-7.639,4.855l-0.039,0.01
						c-0.024,0.004-0.599,0.115-1.383,0.115c-2.227,0-3.818-0.875-4.483-2.463c-0.023-0.051-0.086-0.197-0.159-0.424
						c0.581,2.227,2.039,4.316,4.201,5.777c5.236,3.537,11.264,1.16,12.443-0.219C34.869,24.564,37.689,22.092,35.167,14.611z"/>
				</defs>
				<clipPath id="SVGID_2_">
					<use xlink:href="#SVGID_1_"  overflow="visible"/>
				</clipPath>
				<g clip-path="url(#SVGID_2_)">
					<g>
						<g>
							<g>
								<g>
									<path fill="#3D1219" d="M30.534,17.635h0.431c0,0,0.01,0.144,0.026,0.36c0.001,0.217,0.062,0.504,0.118,0.791
										c0.131,0.572,0.334,1.139,0.333,1.139c0,0,0.09,0.306,0.226,0.764c0.13,0.462,0.32,1.083,0.387,1.732
										c0.092,0.644,0.018,1.3-0.12,1.758c-0.051,0.235-0.134,0.417-0.184,0.547c-0.05,0.129-0.079,0.204-0.079,0.204
										s0.022-0.076,0.062-0.208c0.038-0.133,0.104-0.318,0.135-0.553c0.098-0.46,0.114-1.094-0.023-1.7
										c-0.112-0.61-0.346-1.197-0.511-1.638c-0.173-0.444-0.289-0.74-0.289-0.74c0,0-0.208-0.582-0.354-1.196
										c-0.061-0.311-0.128-0.62-0.131-0.862C30.544,17.794,30.534,17.635,30.534,17.635z"/>
								</g>
							</g>
						</g>
						<g>
							<g>
								<g>
									<path fill="#3D1219" d="M32.658,27.119l-0.179-0.12c0,0,0.412-0.58,0.752-1.184c0.147-0.313,0.294-0.625,0.328-0.882
										c0.066-0.249,0.092-0.417,0.082-0.419c0,0,0.005-0.091,0.015-0.25c0.003-0.16,0.041-0.386,0.014-0.665
										c-0.033-0.547-0.043-1.319,0.047-2.055c0.045-0.372,0.041-0.74,0.027-1.086c-0.053-0.343-0.116-0.662-0.237-0.917
										c-0.085-0.268-0.223-0.46-0.297-0.605c-0.08-0.143-0.125-0.224-0.125-0.224s0.048,0.079,0.132,0.218
										c0.078,0.142,0.224,0.328,0.319,0.593c0.276,0.498,0.343,1.274,0.289,2.011c-0.061,0.744-0.032,1.464,0.023,2.027
										c0.036,0.277,0.015,0.515,0.013,0.68c-0.004,0.166-0.006,0.26-0.006,0.26s-0.002,0.045-0.005,0.125
										c-0.018,0.079-0.044,0.191-0.076,0.327c-0.04,0.279-0.185,0.616-0.347,0.947C33.074,26.538,32.659,27.119,32.658,27.119z"
										/>
								</g>
							</g>
						</g>
						<g>
							<g>
								<g>
									<path fill="#3D1219" d="M31.437,28.173l-0.039,0.212c0,0-0.554-0.116-0.986-0.46c-0.222-0.162-0.403-0.365-0.528-0.527
										c-0.128-0.159-0.168-0.306-0.175-0.299c0,0-0.037-0.066-0.08-0.185c-0.021-0.123-0.08-0.299-0.097-0.508
										c-0.045-0.42-0.067-0.965-0.145-1.512c-0.068-0.545-0.226-1.078-0.435-1.436c-0.199-0.365-0.42-0.547-0.407-0.557
										c-0.013,0.01,0.215,0.18,0.433,0.536c0.228,0.348,0.416,0.881,0.512,1.426c0.104,0.541,0.155,1.095,0.217,1.494
										c0.021,0.204,0.087,0.353,0.109,0.467c0.034,0.108,0.078,0.157,0.074,0.16c0.007-0.003,0.042,0.116,0.151,0.268
										c0.119,0.149,0.283,0.343,0.491,0.494C30.935,28.07,31.437,28.173,31.437,28.173z"/>
								</g>
							</g>
						</g>
						<g>
							<g>
								<g>
									<path fill="#3D1219" d="M23.893,24.176l0.212-0.04c0.023-0.008,0.075,0.392,0.299,0.729
										c0.103,0.172,0.201,0.347,0.31,0.455c0.098,0.116,0.164,0.192,0.164,0.192c0,0,0.125,0.174,0.363,0.393
										c0.221,0.235,0.56,0.506,0.911,0.76c0.7,0.522,1.531,0.819,1.531,0.819c0,0-0.843-0.244-1.581-0.724
										c-0.369-0.232-0.729-0.484-0.971-0.71c-0.257-0.208-0.399-0.379-0.4-0.379c0,0-0.069-0.082-0.173-0.204
										c-0.114-0.114-0.226-0.299-0.335-0.486C23.979,24.621,23.915,24.164,23.893,24.176z"/>
								</g>
							</g>
						</g>
						<g>
							<g>
								<g>
									<path fill="#3D1219" d="M30.293,29.005v0.216c0,0-0.686-0.029-1.371-0.057c-0.683-0.054-1.363-0.144-1.363-0.144
										s-0.089-0.012-0.246-0.033c-0.155-0.034-0.375-0.101-0.639-0.172c-0.541-0.103-1.195-0.441-1.815-0.808
										c-0.289-0.217-0.577-0.435-0.848-0.638c-0.236-0.242-0.456-0.468-0.645-0.661c-0.196-0.186-0.33-0.367-0.424-0.493
										c-0.095-0.125-0.149-0.195-0.149-0.195s0.057,0.068,0.156,0.188c0.098,0.121,0.235,0.295,0.437,0.472
										c0.194,0.184,0.419,0.399,0.662,0.629c0.273,0.19,0.564,0.394,0.855,0.597c0.619,0.337,1.262,0.647,1.789,0.726
										c0.256,0.061,0.47,0.112,0.62,0.147c0.155,0.015,0.244,0.024,0.244,0.024s0.682,0.088,1.366,0.145
										C29.607,28.977,30.293,29.005,30.293,29.005z"/>
								</g>
							</g>
						</g>
						<g>
							<g>
								<g>
									<path fill="#3D1219" d="M28.817,29.585l-0.006,0.216l-2.138-0.183c0.002-0.02-0.286,0.012-0.695-0.122
										c-0.205-0.058-0.444-0.125-0.701-0.198c-0.247-0.098-0.501-0.228-0.759-0.344c-0.27-0.096-0.473-0.311-0.693-0.453
										c-0.106-0.079-0.209-0.154-0.307-0.226c-0.08-0.091-0.156-0.177-0.226-0.256c-0.275-0.318-0.458-0.531-0.458-0.531
										s0.192,0.202,0.479,0.504c0.072,0.075,0.149,0.156,0.232,0.242c0.1,0.066,0.205,0.135,0.313,0.207
										c0.225,0.127,0.426,0.331,0.696,0.412c0.256,0.103,0.512,0.206,0.752,0.302c0.252,0.058,0.487,0.112,0.689,0.159
										c0.397,0.117,0.688,0.07,0.685,0.09L28.817,29.585z"/>
								</g>
							</g>
						</g>
						<g>
							<g>
								<g>
									<path fill="#3D1219" d="M16.454,24.502l0.082-0.082c0,0,0.058,0.125,0.144,0.313c0.045,0.091,0.087,0.21,0.152,0.315
										c0.074,0.095,0.154,0.196,0.233,0.296c0.292,0.421,0.73,0.746,0.711,0.758c0,0,0.044,0.054,0.137,0.132
										c0.093,0.077,0.225,0.187,0.384,0.319c0.306,0.28,0.772,0.585,1.231,0.899c0.954,0.58,1.907,1.159,1.907,1.159
										s-0.976-0.53-1.952-1.061c-0.967-0.55-1.836-1.273-1.836-1.274c0.014-0.017-0.42-0.337-0.745-0.791
										c-0.085-0.109-0.17-0.218-0.25-0.32c-0.07-0.105-0.1-0.212-0.143-0.299c-0.038-0.088-0.07-0.162-0.092-0.214
										c-0.011-0.026-0.02-0.046-0.025-0.06c-0.003-0.007-0.005-0.013-0.007-0.016l-0.002-0.004l0-0.001v0
										C16.431,24.525,16.454,24.502,16.454,24.502z"/>
								</g>
							</g>
						</g>
						<g>
							<g>
								<g>
									<path fill="#3D1219" d="M34.859,15.45l0.212,0.038c0,0-0.083,0.54-0.01,1.091c0.076,0.548,0.201,1.098,0.201,1.098
										s0.048,0.294,0.12,0.736c0.098,0.438,0.107,1.041,0.131,1.636c-0.083,0.593-0.126,1.191-0.316,1.603
										c-0.145,0.42-0.242,0.701-0.242,0.701s0.083-0.283,0.208-0.706c0.17-0.413,0.185-1.006,0.243-1.585
										c-0.053-0.584-0.082-1.166-0.199-1.595c-0.09-0.431-0.15-0.718-0.15-0.718s-0.126-0.557-0.209-1.13
										C34.771,16.039,34.859,15.45,34.859,15.45z"/>
								</g>
							</g>
						</g>
					</g>
					<g>
						<g>
							<g>
								<path fill="#422515" d="M30.783,17.607h0.431c0,0,0.01,0.144,0.026,0.36c0.001,0.217,0.062,0.504,0.118,0.791
									c0.131,0.572,0.333,1.139,0.333,1.139s0.09,0.305,0.226,0.764c0.131,0.462,0.321,1.083,0.387,1.732
									c0.092,0.643,0.018,1.299-0.12,1.757c-0.051,0.235-0.134,0.417-0.184,0.548c-0.05,0.129-0.079,0.203-0.079,0.203
									s0.022-0.076,0.062-0.208c0.038-0.133,0.104-0.318,0.135-0.553c0.098-0.46,0.114-1.093-0.023-1.699
									c-0.112-0.61-0.347-1.197-0.511-1.638c-0.173-0.444-0.289-0.74-0.289-0.74s-0.209-0.581-0.354-1.195
									c-0.061-0.311-0.128-0.62-0.131-0.862C30.793,17.767,30.783,17.607,30.783,17.607z"/>
							</g>
						</g>
					</g>
					<g>
						<g>
							<g>
								<path fill="#422515" d="M32.908,27.091l-0.18-0.119c0,0,0.412-0.581,0.752-1.185c0.147-0.312,0.294-0.625,0.328-0.882
									c0.066-0.248,0.092-0.417,0.082-0.419c0,0,0.005-0.091,0.015-0.25c0.003-0.16,0.041-0.386,0.014-0.665
									c-0.033-0.548-0.043-1.319,0.047-2.055c0.045-0.373,0.041-0.741,0.027-1.087c-0.052-0.343-0.116-0.662-0.237-0.917
									c-0.085-0.268-0.223-0.459-0.297-0.605c-0.08-0.143-0.125-0.224-0.125-0.224s0.048,0.079,0.133,0.218
									c0.078,0.142,0.224,0.328,0.318,0.593c0.277,0.497,0.344,1.273,0.29,2.011c-0.06,0.745-0.032,1.464,0.023,2.027
									c0.036,0.277,0.015,0.515,0.013,0.68c-0.004,0.166-0.006,0.26-0.006,0.26s-0.002,0.046-0.005,0.125
									c-0.018,0.079-0.044,0.191-0.076,0.327c-0.04,0.279-0.185,0.616-0.347,0.947C33.323,26.51,32.908,27.091,32.908,27.091z"/>
							</g>
						</g>
					</g>
					<g>
						<g>
							<g>
								<path fill="#422515" d="M31.686,28.146l-0.039,0.212c0,0-0.554-0.115-0.986-0.46c-0.222-0.162-0.403-0.365-0.528-0.527
									c-0.128-0.159-0.168-0.305-0.175-0.299c0,0-0.037-0.066-0.08-0.185c-0.021-0.123-0.08-0.299-0.097-0.508
									c-0.045-0.42-0.067-0.965-0.144-1.512c-0.068-0.545-0.226-1.077-0.435-1.436c-0.199-0.364-0.42-0.547-0.407-0.557
									c-0.013,0.01,0.215,0.18,0.433,0.536c0.228,0.349,0.416,0.881,0.511,1.426c0.104,0.541,0.156,1.095,0.217,1.494
									c0.021,0.204,0.087,0.354,0.11,0.467c0.034,0.109,0.078,0.157,0.074,0.16c0.006-0.003,0.041,0.116,0.15,0.268
									c0.119,0.15,0.283,0.343,0.491,0.494C31.184,28.042,31.686,28.146,31.686,28.146z"/>
							</g>
						</g>
					</g>
					<g>
						<g>
							<g>
								<path fill="#422515" d="M24.142,24.147l0.212-0.04c0.023-0.008,0.075,0.393,0.299,0.729c0.103,0.172,0.201,0.347,0.31,0.455
									c0.098,0.116,0.164,0.193,0.164,0.193s0.124,0.174,0.363,0.393c0.222,0.235,0.56,0.507,0.911,0.76
									c0.701,0.522,1.531,0.819,1.531,0.82c0,0-0.843-0.244-1.581-0.725c-0.369-0.232-0.73-0.485-0.971-0.71
									c-0.257-0.208-0.399-0.379-0.4-0.379c0,0-0.069-0.082-0.173-0.204c-0.114-0.115-0.226-0.3-0.335-0.487
									C24.228,24.592,24.164,24.134,24.142,24.147z"/>
							</g>
						</g>
					</g>
					<g>
						<g>
							<g>
								<path fill="#422515" d="M30.542,28.978v0.216c0,0-0.686-0.029-1.371-0.058c-0.683-0.054-1.363-0.144-1.363-0.144
									s-0.089-0.012-0.246-0.033c-0.156-0.035-0.375-0.101-0.639-0.172c-0.541-0.103-1.196-0.441-1.815-0.808
									c-0.289-0.217-0.577-0.435-0.848-0.638c-0.236-0.242-0.456-0.468-0.645-0.661c-0.197-0.186-0.331-0.367-0.424-0.493
									c-0.095-0.124-0.15-0.195-0.15-0.195s0.057,0.068,0.156,0.188c0.098,0.121,0.235,0.294,0.438,0.472
									c0.194,0.184,0.419,0.399,0.662,0.629c0.273,0.19,0.564,0.394,0.855,0.597c0.619,0.337,1.262,0.647,1.789,0.727
									c0.256,0.061,0.47,0.112,0.62,0.147c0.155,0.015,0.244,0.024,0.244,0.024s0.682,0.088,1.366,0.145
									C29.856,28.95,30.542,28.978,30.542,28.978z"/>
							</g>
						</g>
					</g>
					<g>
						<g>
							<g>
								<path fill="#422515" d="M29.066,29.558l-0.006,0.216l-2.138-0.183c0.002-0.02-0.286,0.012-0.695-0.122
									c-0.205-0.058-0.444-0.125-0.701-0.198c-0.247-0.098-0.501-0.228-0.759-0.344c-0.27-0.096-0.473-0.311-0.693-0.453
									c-0.106-0.079-0.209-0.154-0.307-0.226c-0.08-0.091-0.156-0.177-0.226-0.256c-0.275-0.318-0.458-0.531-0.458-0.531
									s0.192,0.202,0.479,0.504c0.072,0.075,0.149,0.156,0.232,0.242c0.1,0.066,0.205,0.135,0.313,0.207
									c0.225,0.127,0.426,0.331,0.696,0.412c0.256,0.103,0.512,0.206,0.752,0.302c0.252,0.058,0.487,0.112,0.689,0.159
									c0.397,0.117,0.688,0.07,0.685,0.09L29.066,29.558z"/>
							</g>
						</g>
					</g>
					<g>
						<g>
							<g>
								<path fill="#422515" d="M16.703,24.475l0.084-0.081c0,0,0.057,0.125,0.143,0.312c0.045,0.091,0.086,0.21,0.151,0.314
									c0.074,0.095,0.154,0.196,0.233,0.297c0.292,0.421,0.73,0.745,0.711,0.758c0,0,0.045,0.054,0.137,0.132
									c0.093,0.077,0.226,0.187,0.385,0.319c0.306,0.28,0.771,0.585,1.231,0.899c0.954,0.58,1.907,1.159,1.907,1.159
									s-0.976-0.53-1.952-1.061c-0.967-0.55-1.835-1.273-1.835-1.274c0.014-0.017-0.42-0.337-0.746-0.791
									c-0.085-0.109-0.17-0.218-0.25-0.32c-0.07-0.104-0.1-0.212-0.143-0.3c-0.039-0.089-0.071-0.163-0.093-0.215
									c-0.011-0.026-0.02-0.046-0.026-0.061c-0.003-0.007-0.005-0.012-0.007-0.016l-0.001-0.004l0-0.001l0,0
									C16.679,24.498,16.703,24.475,16.703,24.475z"/>
							</g>
						</g>
					</g>
					<g>
						<g>
							<g>
								<path fill="#422515" d="M35.108,15.422l0.212,0.038c0,0-0.083,0.539-0.01,1.091c0.077,0.548,0.201,1.098,0.201,1.098
									s0.048,0.294,0.12,0.736c0.098,0.438,0.107,1.041,0.131,1.636c-0.083,0.593-0.126,1.191-0.316,1.603
									c-0.145,0.42-0.242,0.701-0.242,0.701s0.083-0.283,0.208-0.706c0.17-0.413,0.185-1.006,0.243-1.585
									c-0.053-0.584-0.082-1.166-0.199-1.595c-0.09-0.431-0.15-0.718-0.15-0.718s-0.126-0.557-0.209-1.13
									C35.021,16.012,35.108,15.422,35.108,15.422z"/>
							</g>
						</g>
					</g>
				</g>
				<use xlink:href="#SVGID_1_"  overflow="visible" fill="none" stroke="#412413" stroke-width="0.5289" stroke-miterlimit="10"/>
			</g>
			<g>
				<path fill="#754D24" d="M19.871,25.527c-2.283,0-3.918-0.904-4.605-2.544c-0.158-0.344-1.479-3.498,1.273-7.106
					c0.455-0.668,2.108-2.828,4.443-2.828c0.108-0.046,0.132-0.055,0.164-0.055l2.205-2.154l2.816,1.111l0.206,0.295l0.267,0.014
					c1.595,0.085,5.33,0.283,6.729,0.997l0.116,0.035c0.564,0.177,1.739,0.545,1.938,1.471c0.077,0.36-0.058,1.158-0.745,1.768
					c-0.174,0.17-1.116,1.051-2.073,1.188l-0.117,0.012l-1.006-0.146l-0.216,0.217l-0.278-0.071l-0.316,0.711h-0.336
					c-0.27,0.605-0.77,1.604-1.314,2.073c-0.377,0.551-2.626,3.497-7.69,4.883C21.119,25.438,20.573,25.527,19.871,25.527z"/>
				<path fill="#412413" d="M23.38,10.994l2.737,1.08l0.183,0.301c1.358,0.076,5.528,0.246,7.006,1
					c0.421,0.141,1.784,0.48,1.984,1.416c0.074,0.346-0.076,1.084-0.703,1.641c-0.156,0.152-1.075,1.023-2.004,1.156L32.504,17.6
					l-1.072-0.156l-0.209,0.211l-0.313-0.08l-0.326,0.734h-0.336c-0.254,0.58-0.764,1.631-1.314,2.105
					c-0.37,0.533-2.596,3.475-7.639,4.855l-0.039,0.01c-0.024,0.004-0.599,0.115-1.383,0.115c-2.227,0-3.818-0.875-4.483-2.463
					c-0.126-0.275-1.464-3.408,1.256-6.975c0.167-0.244,1.854-2.775,4.338-2.775c0.018,0,0.146-0.055,0.164-0.055L23.38,10.994
					 M23.32,10.686l-0.123,0.117l-2.19,2.09c-0.011,0.004-0.023,0.009-0.037,0.014l-0.029,0.011
					c-2.378,0.024-4.05,2.207-4.507,2.878c-2.799,3.67-1.449,6.892-1.286,7.247c0.705,1.685,2.383,2.617,4.723,2.617
					c0.713,0,1.269-0.09,1.422-0.118l0.009-0.001l0.055-0.013c5.04-1.38,7.322-4.292,7.774-4.935c0.51-0.455,0.97-1.317,1.288-2.019
					h0.165h0.172l0.07-0.157l0.235-0.53l0.097,0.025l0.146,0.037l0.106-0.107l0.116-0.117l0.94,0.137l0.039,0.005l0.038-0.005
					l0.079-0.012c0.971-0.139,1.892-0.976,2.15-1.229c0.641-0.568,0.881-1.397,0.777-1.885c-0.214-1.001-1.485-1.399-2.027-1.57
					l-0.132-0.042c-1.387-0.71-5.006-0.903-6.746-0.995l-0.191-0.01l-0.11-0.182l-0.046-0.076l-0.083-0.033l-2.737-1.08
					L23.32,10.686L23.32,10.686z"/>
			</g>
			<path fill="#765D24" d="M19.843,25.146c-2.167,0-3.714-0.846-4.355-2.379c-0.155-0.338-1.417-3.355,1.238-6.838
				c0.446-0.652,2.029-2.721,4.228-2.721c0.034,0,0.063-0.01,0.129-0.035c0.023-0.01,0.047-0.018,0.061-0.021h0.055l0.014-0.035
				l2.17-2.072l2.612,1.029l0.196,0.324l0.412,0.021c1.577,0.086,5.268,0.283,6.613,0.967c0.083,0.029,1.596,0.547,1.807,1.531
				c0.065,0.311,0.023,0.787-0.555,1.299c-0.108,0.107-1.033,0.996-1.933,1.123l-0.059,0.01l-1.121-0.164l-0.203,0.203l-0.351-0.086
				l-0.336,0.756h-0.337l-0.037,0.084c-0.25,0.572-0.748,1.6-1.278,2.055l-0.013,0.012l-0.01,0.016
				c-0.39,0.563-2.583,3.438-7.563,4.801l-0.034,0.008C21.176,25.037,20.611,25.146,19.843,25.146z"/>
			<path fill="#FAC699" stroke="#412413" stroke-width="0.2765" stroke-miterlimit="10" d="M21.299,13.414l2.317-2.193l2.497,0.973
				l0.185,0.275c0,0,5.599,0.277,6.704,1.129c0,0,2.627,0.807,1.153,2.098c0,0-0.899,0.898-1.705,1.014l-1.268-0.186l-0.184,0.186
				l-0.46-0.115l-0.369,0.83h-0.346c0,0-0.714,1.797-1.359,2.281c0,0-2.074,3.248-7.373,4.699c0,0-4.078,0.807-5.253-2.027
				c0,0-1.429-2.996,1.198-6.428C17.036,15.949,18.879,13.207,21.299,13.414z"/>
			<path fill="#FFFFFF" d="M19.721,23.984c-1.305,0-3-0.334-3.661-1.932C16,21.926,14.759,19.195,17.203,16
				c0.026-0.037,1.642-2.398,3.719-2.398c0.078,0,0.156,0.004,0.235,0.01l0.121,0.012l2.243-2.123l2.217,0.861l0.209,0.314
				l0.137,0.008c1.508,0.074,5.606,0.408,6.443,1.055l0.039,0.029l0.047,0.014c0.484,0.15,1.286,0.545,1.375,0.965
				c0.04,0.188-0.075,0.4-0.341,0.635c-0.237,0.234-0.932,0.824-1.5,0.926l-1.34-0.195l-0.169,0.17l-0.525-0.133l-0.384,0.865
				h-0.348l-0.068,0.17c-0.188,0.473-0.778,1.775-1.248,2.127l-0.039,0.029L28,19.383c-0.02,0.029-2.057,3.127-7.096,4.508
				c0,0,0,0,0,0C20.901,23.891,20.398,23.984,19.721,23.984z"/>
			<g>
				<defs>
					<path id="XMLID_413_" d="M29.822,16.771c-0.195,0.111-0.395,0.201-0.464,0.236c-0.323,0.164-0.608,0.42-0.901,0.631
						c-0.125,0.092-0.508,0.217-0.504,0.357c-0.073-0.045-0.138-0.117-0.156-0.197c-0.266,0.396-0.639,0.605-1.016,0.869
						c-0.166,0.115-0.31,0.26-0.483,0.367c-0.625,0.395-1.051,1.07-1.642,1.545c-0.333,0.266-0.695,0.502-1.063,0.717
						c-0.506,0.295-1.082,0.58-1.649,0.734c0,0-2.051,0.553-2.765,0c0,0-0.507-0.529-0.507-0.877v-0.459l-0.323-0.668
						c0,0-0.115-1.014,0.208-1.359c0,0,0.829-1.453,0.852-2.236l0.253-0.438c0,0,2.975-0.76,4.414-2.719l1.004,0.783
						c0.083,0.012,0.167,0.023,0.251,0.033c1.184,0.152,2.375,0.258,3.567,0.314c0.796,0.039,1.635-0.057,2.422,0.027
						c0.552,0.059,1.162,0.66,0.835,1.24c-0.116,0.205-0.371,0.318-0.577,0.396c-0.262,0.1-0.367,0.104-0.623-0.004
						c-0.229,0.338-0.339,0.236-0.716,0.209C30.359,16.42,30.095,16.617,29.822,16.771z"/>
				</defs>
				<use xlink:href="#XMLID_413_"  overflow="visible" fill="#FBF5BB"/>
				<clipPath id="XMLID_3_">
					<use xlink:href="#XMLID_413_"  overflow="visible"/>
				</clipPath>
				<path clip-path="url(#XMLID_3_)" fill="#C69C6D" d="M20.46,14.998c-1.195,1.059-2.256,2.057-2.381,3.742
					c-0.1,1.346-0.015,3.299,1.36,4.01c-0.551-1.102-0.792-1.926-0.205-3.096c0.423-0.844,1.333-1.479,2.092-1.992
					c0.743-0.502,2.538-0.953,2.583-2.043c0.017,0.971,1.48,0.172,1.91,0.059c0.957-0.248,2.286-0.193,2.948,0.645
					c0.663,0.838-1.526,3.744-2.434,4.637c0.578-1.967,3.318-2.598,5.044-2.941c0.752-0.15,1.547-0.654,1.953-1.361
					c0.649-1.129-0.451-1.711-1.366-2.186c-1.148-0.596-2.616-0.801-3.893-0.672c-1.144,0.117-1.901,0.242-2.933-0.375
					c-0.859-0.514-1.551-0.92-2.562-0.463C21.629,13.389,21.2,14.342,20.46,14.998z"/>
				
					<use xlink:href="#XMLID_413_"  overflow="visible" fill="none" stroke="#412413" stroke-width="0.2765" stroke-miterlimit="10"/>
			</g>
			<g>
				<g>
					<g>
						<g>
							<path fill="#422515" d="M27.209,21.22l-0.211-0.045c0,0,0.042-0.501,0.009-0.504c0,0,0.005-0.274-0.057-0.554
								c-0.047-0.28-0.112-0.56-0.112-0.56s0.115,0.259,0.214,0.527c0.114,0.263,0.167,0.557,0.167,0.557
								C27.256,20.636,27.209,21.22,27.209,21.22z"/>
						</g>
					</g>
				</g>
				<g>
					<g>
						<g>
							<path fill="#422515" d="M25.249,22.704l-0.158-0.146c-0.008-0.008,0.071-0.074,0.1-0.192
								c0.046-0.105,0.048-0.237,0.053-0.234c0,0,0.058-0.259,0.075-0.536c0.012-0.277,0.023-0.555,0.023-0.555
								s0.042,0.273,0.083,0.547c0.036,0.276,0.032,0.565,0.032,0.565c-0.007,0-0.006,0.139-0.063,0.28
								C25.363,22.576,25.238,22.703,25.249,22.704z"/>
						</g>
					</g>
				</g>
				<g>
					<g>
						<g>
							<path fill="#422515" d="M24.293,23.217l-0.183-0.114c0,0,0.19-0.35,0.171-0.356c0,0,0.11-0.182,0.153-0.396
								c0.057-0.208,0.046-0.437,0.055-0.437c-0.009,0,0.056,0.217,0.052,0.445c0.009,0.231-0.057,0.456-0.057,0.456
								C24.504,22.825,24.293,23.217,24.293,23.217z"/>
						</g>
					</g>
				</g>
				<g>
					<g>
						<g>
							<polygon fill="#422515" points="21.149,13.519 21.264,13.336 21.55,13.582 22.052,14.176 21.417,13.75 							"/>
						</g>
					</g>
				</g>
				<g>
					<g>
						<g>
							<path fill="#422515" d="M18.75,14.148l0.215,0.008c0.006-0.001-0.013,0.13,0.102,0.226c0.104,0.1,0.263,0.156,0.263,0.156
								s0.315,0.15,0.674,0.226c0.355,0.08,0.718,0.136,0.718,0.136s-0.362-0.002-0.729-0.03c-0.366-0.021-0.736-0.131-0.736-0.13
								c0,0-0.179-0.057-0.333-0.199C18.743,14.403,18.748,14.139,18.75,14.148z"/>
						</g>
					</g>
				</g>
				<g>
					<g>
						<g>
							<path fill="#422515" d="M18.248,14.626l0.203-0.072c0.01-0.004,0.026,0.078,0.103,0.136c0.061,0.067,0.164,0.105,0.16,0.108
								c0,0,0.185,0.12,0.407,0.203c0.224,0.077,0.448,0.154,0.448,0.154s-0.235-0.024-0.471-0.049
								c-0.236-0.031-0.476-0.114-0.476-0.114c0.002-0.006-0.115-0.044-0.211-0.142C18.302,14.771,18.253,14.617,18.248,14.626z"/>
						</g>
					</g>
				</g>
				<g>
					<g>
						<g>
							<path fill="#422515" d="M15.902,17.919l0.14-0.081c0.011-0.01,0.079,0.135,0.222,0.213c0.126,0.098,0.296,0.135,0.292,0.141
								c0,0,0.331,0.126,0.693,0.179c0.36,0.055,0.728,0.07,0.728,0.07s-0.363,0.026-0.73,0.011
								c-0.183-0.01-0.368-0.023-0.505-0.053c-0.139-0.02-0.229-0.052-0.229-0.052c0.002-0.008-0.18-0.043-0.335-0.159
								C16.009,18.099,15.91,17.907,15.902,17.919z"/>
						</g>
					</g>
				</g>
				<g>
					<g>
						<g>
							<path fill="#422515" d="M15.737,18.473l0.109-0.118c0,0,0.377,0.225,0.397,0.196c0,0,0.225,0.098,0.477,0.142
								c0.247,0.058,0.499,0.099,0.499,0.099s-0.252-0.001-0.506-0.019c-0.255-0.003-0.512-0.067-0.512-0.067
								c0.001-0.008-0.127-0.014-0.238-0.095C15.851,18.542,15.737,18.473,15.737,18.473z"/>
						</g>
					</g>
				</g>
				<g>
					<g>
						<g>
							<path fill="#422515" d="M32.795,13.497l0.184,0.112c0-0.014-0.139,0.188-0.315,0.232c-0.169,0.082-0.34,0.092-0.34,0.101
								c0,0-0.364,0.031-0.717,0.008c-0.354-0.019-0.699-0.087-0.699-0.087s0.348,0.014,0.693-0.021
								c0.346-0.03,0.673-0.109,0.673-0.109c-0.005-0.007,0.166-0.022,0.299-0.088C32.731,13.598,32.781,13.487,32.795,13.497z"/>
						</g>
					</g>
				</g>
				<g>
					<g>
						<g>
							<path fill="#422515" d="M33.228,13.682l0.149,0.062c-0.005-0.005-0.049,0.114-0.139,0.189
								c-0.085,0.086-0.192,0.122-0.192,0.122c0.001,0.01-0.227,0.062-0.444,0.052c-0.217-0.006-0.429-0.034-0.429-0.034
								s0.214-0.012,0.42-0.046c0.208-0.032,0.391-0.11,0.384-0.118c-0.003-0.003,0.09-0.03,0.149-0.093
								C33.194,13.762,33.221,13.678,33.228,13.682z"/>
						</g>
					</g>
				</g>
				<g>
					<g>
						<g>
							<path fill="#422515" d="M19.048,21.966l0.215-0.011c-0.011-0.013-0.002,0.224-0.131,0.343
								c-0.1,0.148-0.241,0.223-0.236,0.232c0,0-0.291,0.17-0.596,0.273c-0.305,0.111-0.621,0.159-0.621,0.159
								s0.301-0.1,0.574-0.255c0.277-0.149,0.508-0.343,0.508-0.343c-0.009-0.004,0.126-0.083,0.196-0.19
								C19.058,22.072,19.028,21.965,19.048,21.966z"/>
						</g>
					</g>
				</g>
				<g>
					<g>
						<g>
							<path fill="#422515" d="M24.957,14.12l-0.037-0.212c0,0,0.515-0.146,0.506-0.175c0,0,0.279-0.083,0.524-0.25
								c0.26-0.141,0.463-0.371,0.472-0.361c-0.008-0.011-0.168,0.252-0.404,0.444c-0.219,0.214-0.495,0.357-0.495,0.357
								C25.538,13.952,24.957,14.12,24.957,14.12z"/>
						</g>
					</g>
				</g>
				<g>
					<g>
						<g>
							<path fill="#422515" d="M15.611,18.875l0.132-0.094c0,0,0.103,0.113,0.113,0.102c0.001-0.004,0.054,0.07,0.143,0.104
								c0.083,0.046,0.187,0.051,0.186,0.056c0.001-0.006-0.097,0.032-0.202,0.023c-0.108,0.004-0.212-0.047-0.212-0.047
								C15.762,19.035,15.611,18.875,15.611,18.875z"/>
						</g>
					</g>
				</g>
			</g>
			<g>
				<g>
					<g>
						<path fill="#422515" d="M16.126,1.267l0.208,0.057c-0.005-0.006-0.039,0.133-0.127,0.219c-0.079,0.1-0.186,0.148-0.184,0.152
							c0,0-0.228,0.098-0.457,0.105c-0.232,0.02-0.439-0.068-0.439-0.067c0,0,0.217,0.032,0.418-0.038
							c0.203-0.06,0.36-0.18,0.36-0.18c-0.004-0.003,0.087-0.043,0.136-0.112C16.106,1.343,16.117,1.264,16.126,1.267z"/>
					</g>
				</g>
			</g>
		</g>
	</g>
</g>
</svg>
