<?xml version="1.0" encoding="utf-8"?>
<!-- Generator: Adobe Illustrator 16.0.0, SVG Export Plug-In . SVG Version: 6.00 Build 0)  -->
<!DOCTYPE svg PUBLIC "-//W3C//DTD SVG 1.1//EN" "http://www.w3.org/Graphics/SVG/1.1/DTD/svg11.dtd">
<svg version="1.1" id="Слой_1" xmlns="http://www.w3.org/2000/svg" xmlns:xlink="http://www.w3.org/1999/xlink" x="0px" y="0px"
	 width="37.304px" height="33.666px" viewBox="0 0 37.304 33.666" enable-background="new 0 0 37.304 33.666" xml:space="preserve">
<g>
	<g>
		<g>
			<g>
				
					<ellipse transform="matrix(0.8632 -0.5048 0.5048 0.8632 -12.4683 14.0022)" fill="#D7DB2D" cx="19.606" cy="30.011" rx="2.385" ry="1.754"/>
				<g>
					<g>
						<path fill="#115529" d="M19.238,31.728c0,0-0.23,0.028-0.558-0.021c-0.327-0.041-0.76-0.23-0.96-0.605
							c-0.211-0.364-0.171-0.832-0.037-1.136c0.124-0.309,0.263-0.493,0.264-0.493c0,0,0.129-0.231,0.426-0.506
							c0.295-0.268,0.758-0.58,1.292-0.715c0.529-0.146,1.104-0.088,1.472,0.108c0.363,0.206,0.497,0.473,0.51,0.459
							c-0.014,0.014-0.12-0.266-0.481-0.517c-0.365-0.239-0.973-0.356-1.556-0.248c-0.586,0.097-1.121,0.392-1.477,0.668
							c-0.174,0.145-0.319,0.269-0.399,0.378c-0.087,0.103-0.137,0.161-0.137,0.161s-0.161,0.215-0.304,0.592
							c-0.148,0.363-0.223,0.978,0.09,1.478c0.298,0.503,0.865,0.744,1.258,0.783c0.4,0.054,0.665,0.016,0.665,0.016
							s0.311-0.026,0.729-0.2c0.413-0.175,0.932-0.494,1.306-0.957c0.383-0.453,0.585-1.042,0.559-1.486
							c-0.037-0.447-0.233-0.686-0.214-0.691c-0.018,0.004,0.154,0.264,0.151,0.696c-0.014,0.43-0.259,0.967-0.656,1.357
							c-0.391,0.399-0.899,0.645-1.284,0.764c-0.196,0.053-0.358,0.096-0.476,0.097C19.304,31.721,19.238,31.728,19.238,31.728z"/>
					</g>
				</g>
			</g>
			<g>
				
					<ellipse transform="matrix(0.8631 -0.505 0.505 0.8631 -12.9159 13.1248)" fill="#D7DB2D" cx="17.755" cy="30.39" rx="2.385" ry="1.754"/>
				<g>
					<g>
						<path fill="#115529" d="M17.387,32.106c0,0-0.23,0.028-0.559-0.021c-0.327-0.04-0.76-0.229-0.96-0.604
							c-0.211-0.365-0.171-0.833-0.036-1.137c0.124-0.309,0.263-0.493,0.263-0.493s0.129-0.231,0.426-0.506
							c0.296-0.268,0.759-0.58,1.292-0.715c0.529-0.146,1.104-0.088,1.472,0.107c0.363,0.206,0.497,0.473,0.51,0.459
							c-0.014,0.014-0.12-0.266-0.482-0.517c-0.365-0.239-0.973-0.356-1.556-0.247c-0.586,0.097-1.121,0.392-1.477,0.667
							c-0.174,0.145-0.319,0.269-0.398,0.378c-0.087,0.103-0.137,0.161-0.137,0.161c0,0-0.161,0.215-0.304,0.592
							c-0.148,0.363-0.223,0.978,0.089,1.478c0.299,0.504,0.866,0.743,1.258,0.783c0.4,0.055,0.665,0.016,0.665,0.016
							c0,0,0.311-0.026,0.729-0.199c0.413-0.175,0.932-0.494,1.306-0.957c0.383-0.453,0.585-1.042,0.559-1.486
							c-0.037-0.447-0.233-0.686-0.214-0.691c-0.018,0.004,0.154,0.264,0.151,0.696c-0.014,0.43-0.259,0.967-0.657,1.357
							c-0.391,0.399-0.899,0.645-1.283,0.764c-0.196,0.052-0.358,0.096-0.476,0.097C17.453,32.1,17.387,32.106,17.387,32.106z"/>
					</g>
				</g>
			</g>
			<g>
				
					<ellipse transform="matrix(0.8631 -0.505 0.505 0.8631 -13.3605 12.2421)" fill="#D7DB2D" cx="15.904" cy="30.769" rx="2.385" ry="1.755"/>
				<g>
					<g>
						<path fill="#115529" d="M15.535,32.485c0,0-0.229,0.028-0.558-0.021c-0.327-0.041-0.76-0.23-0.959-0.605
							c-0.211-0.365-0.171-0.833-0.037-1.136c0.124-0.31,0.264-0.493,0.264-0.493s0.129-0.231,0.426-0.506
							c0.295-0.268,0.758-0.58,1.292-0.714c0.529-0.146,1.104-0.088,1.471,0.108c0.364,0.206,0.497,0.473,0.51,0.459
							c-0.014,0.014-0.12-0.266-0.482-0.517c-0.365-0.239-0.973-0.356-1.556-0.248c-0.586,0.096-1.122,0.391-1.477,0.667
							c-0.174,0.145-0.319,0.269-0.399,0.378c-0.087,0.103-0.137,0.161-0.137,0.161c0,0-0.162,0.215-0.305,0.592
							c-0.148,0.363-0.223,0.978,0.089,1.479c0.297,0.504,0.866,0.744,1.258,0.783c0.4,0.055,0.665,0.016,0.665,0.016
							c0,0,0.311-0.026,0.729-0.199c0.413-0.175,0.932-0.494,1.307-0.957c0.383-0.453,0.585-1.042,0.559-1.486
							c-0.037-0.447-0.232-0.686-0.213-0.691c-0.018,0.004,0.153,0.265,0.15,0.696c-0.014,0.43-0.26,0.968-0.657,1.357
							c-0.391,0.399-0.899,0.645-1.284,0.764c-0.196,0.053-0.358,0.096-0.476,0.097C15.601,32.479,15.535,32.485,15.535,32.485z"/>
					</g>
				</g>
			</g>
			<g>
				
					<ellipse transform="matrix(0.8632 -0.5049 0.5049 0.8632 -13.8031 11.3565)" fill="#D7DB2D" cx="14.053" cy="31.147" rx="2.385" ry="1.754"/>
				<g>
					<g>
						<path fill="#115529" d="M13.684,32.864c0,0-0.229,0.028-0.558-0.021c-0.327-0.041-0.76-0.23-0.96-0.605
							c-0.211-0.365-0.171-0.833-0.037-1.136c0.124-0.309,0.264-0.493,0.264-0.493c0,0,0.129-0.231,0.426-0.506
							c0.295-0.268,0.758-0.58,1.292-0.715c0.528-0.146,1.104-0.088,1.471,0.107c0.364,0.206,0.497,0.473,0.51,0.459
							c-0.014,0.014-0.12-0.266-0.482-0.517c-0.365-0.239-0.973-0.356-1.556-0.247c-0.587,0.096-1.122,0.391-1.477,0.667
							c-0.174,0.145-0.319,0.269-0.399,0.378c-0.087,0.102-0.137,0.161-0.137,0.161c0,0-0.162,0.214-0.305,0.592
							c-0.148,0.363-0.223,0.979,0.09,1.478c0.298,0.504,0.866,0.744,1.258,0.784c0.4,0.054,0.665,0.016,0.665,0.016
							s0.311-0.026,0.729-0.199c0.413-0.175,0.932-0.494,1.306-0.957c0.383-0.454,0.585-1.043,0.559-1.486
							c-0.037-0.447-0.232-0.686-0.213-0.691c-0.018,0.004,0.153,0.265,0.15,0.696c-0.015,0.43-0.26,0.968-0.657,1.357
							c-0.391,0.4-0.899,0.645-1.284,0.764c-0.196,0.053-0.358,0.096-0.476,0.097C13.75,32.857,13.684,32.864,13.684,32.864z"/>
					</g>
				</g>
			</g>
			<g>
				
					<ellipse transform="matrix(0.9656 -0.2601 0.2601 0.9656 -7.7795 4.2581)" fill="#D7DB2D" cx="12.201" cy="31.526" rx="2.384" ry="1.754"/>
				<g>
					<g>
						<path fill="#115529" d="M11.394,33.085c0,0-0.229-0.033-0.533-0.167c-0.305-0.125-0.672-0.421-0.767-0.836
							c-0.108-0.408,0.054-0.848,0.264-1.106c0.2-0.266,0.383-0.406,0.383-0.406s0.186-0.189,0.544-0.376
							c0.356-0.181,0.884-0.36,1.435-0.35c0.548-0.002,1.088,0.205,1.391,0.491c0.296,0.294,0.354,0.587,0.371,0.578
							c-0.017,0.009-0.045-0.289-0.328-0.626c-0.289-0.327-0.845-0.599-1.436-0.647c-0.591-0.061-1.185,0.083-1.601,0.255
							c-0.206,0.094-0.378,0.176-0.484,0.26c-0.111,0.076-0.174,0.119-0.174,0.119c0,0-0.212,0.165-0.449,0.491
							c-0.239,0.311-0.472,0.886-0.302,1.45c0.154,0.564,0.639,0.946,1.007,1.087c0.372,0.158,0.637,0.19,0.637,0.19
							s0.307,0.056,0.756-0.001c0.444-0.061,1.028-0.231,1.512-0.579c0.488-0.337,0.838-0.853,0.93-1.287
							c0.082-0.441-0.045-0.723-0.025-0.723c-0.019-0.001,0.079,0.295-0.037,0.711c-0.126,0.411-0.504,0.866-0.99,1.137
							c-0.482,0.283-1.038,0.385-1.44,0.4c-0.203-0.001-0.37-0.001-0.484-0.032C11.459,33.096,11.394,33.085,11.394,33.085z"/>
					</g>
				</g>
			</g>
		</g>
		<g>
			<g>
				<path fill="#D7DB2D" d="M12.631,27.97c0.661,2.037-0.246,4.154-2.023,4.734c-1.779,0.574-3.758-0.61-4.418-2.646
					c-0.661-2.04,0.246-4.157,2.025-4.733C9.994,24.749,11.971,25.933,12.631,27.97z"/>
				<g>
					<g>
						<path fill="#115529" d="M6.3,26.642c0,0-0.257,0.387-0.431,1.052c-0.152,0.664-0.169,1.592,0.11,2.458
							c0.285,0.866,0.86,1.6,1.378,2.039c0.279,0.198,0.494,0.389,0.687,0.457c0.181,0.086,0.284,0.135,0.284,0.135
							c0.004-0.012,0.111,0.08,0.342,0.12c0.228,0.044,0.545,0.155,0.947,0.127c0.788,0.023,1.859-0.386,2.486-1.223
							c0.654-0.814,0.836-1.875,0.784-2.617c-0.007-0.38-0.083-0.684-0.146-0.895c-0.055-0.211-0.086-0.333-0.086-0.333
							s0.024,0.124,0.067,0.339c0.052,0.214,0.108,0.521,0.093,0.897c0.009,0.738-0.241,1.757-0.904,2.478
							c-0.641,0.744-1.631,1.035-2.324,0.962c-0.704-0.047-1.118-0.3-1.118-0.3c0,0-0.38-0.142-0.853-0.529
							c-0.455-0.401-0.957-1.063-1.212-1.845c-0.249-0.785-0.215-1.618-0.073-2.205c0.1-0.285,0.15-0.538,0.255-0.683
							c0.084-0.154,0.133-0.242,0.133-0.242c0,0,0.196-0.44,0.742-0.875c0.525-0.447,1.488-0.773,2.427-0.538
							c0.943,0.203,1.725,0.879,2.139,1.476c0.227,0.292,0.357,0.571,0.438,0.771c0.089,0.197,0.141,0.309,0.141,0.309
							s-0.045-0.116-0.123-0.318c-0.07-0.208-0.187-0.497-0.401-0.809c-0.389-0.631-1.154-1.384-2.16-1.658
							c-0.998-0.309-2.106-0.005-2.729,0.482C6.546,26.146,6.3,26.642,6.3,26.642z"/>
					</g>
				</g>
			</g>
			<g>
				<path fill="#D7DB2D" d="M9.403,26.964c0.626,1.952-0.265,3.981-1.989,4.537c-1.726,0.55-3.633-0.585-4.258-2.538
					c-0.626-1.955,0.266-3.983,1.991-4.536C6.873,23.876,8.778,25.012,9.403,26.964z"/>
				<g>
					<g>
						<path fill="#115529" d="M3.284,25.673c0,0-0.254,0.37-0.427,1.01c-0.154,0.638-0.18,1.535,0.088,2.373
							c0.272,0.837,0.83,1.544,1.332,1.965c0.269,0.191,0.479,0.372,0.665,0.438c0.175,0.083,0.274,0.13,0.274,0.13
							c0.004-0.011,0.107,0.077,0.331,0.113c0.219,0.043,0.526,0.146,0.913,0.119c0.759,0.02,1.791-0.369,2.405-1.168
							c0.639-0.777,0.827-1.797,0.781-2.513c-0.005-0.366-0.075-0.659-0.136-0.862c-0.052-0.204-0.082-0.32-0.082-0.32
							s0.023,0.119,0.063,0.327c0.05,0.206,0.1,0.502,0.083,0.864c0.002,0.71-0.252,1.688-0.899,2.372
							c-0.626,0.707-1.578,0.979-2.243,0.911c-0.677-0.044-1.075-0.285-1.075-0.285s-0.367-0.133-0.821-0.504
							c-0.438-0.382-0.922-1.018-1.165-1.769c-0.237-0.754-0.196-1.554-0.053-2.115c0.098-0.273,0.151-0.514,0.252-0.652
							c0.083-0.147,0.13-0.231,0.13-0.231c0.009,0.007,0.029-0.115,0.164-0.257c0.126-0.146,0.278-0.388,0.558-0.577
							c0.508-0.424,1.433-0.736,2.337-0.515c0.908,0.19,1.664,0.835,2.063,1.408c0.219,0.281,0.345,0.548,0.422,0.742
							c0.086,0.189,0.135,0.297,0.135,0.297s-0.042-0.112-0.118-0.307c-0.066-0.201-0.178-0.479-0.384-0.779
							c-0.375-0.608-1.116-1.329-2.085-1.591c-0.962-0.293-2.028-0.006-2.634,0.457C3.529,25.199,3.284,25.673,3.284,25.673z"/>
					</g>
				</g>
			</g>
			<g>
				<path fill="#D7DB2D" d="M8.546,24.373c0.591,1.867-0.285,3.808-1.956,4.338c-1.672,0.526-3.507-0.561-4.099-2.428
					c-0.592-1.87,0.285-3.81,1.957-4.337C6.121,21.418,7.955,22.505,8.546,24.373z"/>
				<g>
					<g>
						<path fill="#115529" d="M2.64,23.119c0,0-0.251,0.352-0.423,0.968c-0.158,0.613-0.191,1.478,0.065,2.286
							c0.259,0.809,0.799,1.49,1.285,1.893c0.258,0.185,0.464,0.355,0.642,0.418c0.168,0.079,0.265,0.125,0.265,0.125
							c0.003-0.009,0.104,0.071,0.319,0.106c0.211,0.042,0.507,0.137,0.879,0.111c0.73,0.015,1.723-0.352,2.323-1.113
							c0.624-0.74,0.817-1.719,0.778-2.409c-0.002-0.352-0.067-0.634-0.126-0.83c-0.049-0.196-0.077-0.309-0.077-0.309
							s0.021,0.115,0.058,0.315c0.047,0.198,0.092,0.483,0.073,0.831c-0.004,0.683-0.264,1.618-0.894,2.265
							c-0.61,0.67-1.525,0.922-2.163,0.859c-0.649-0.042-1.031-0.271-1.032-0.271c0,0-0.353-0.125-0.788-0.48
							c-0.422-0.363-0.888-0.971-1.117-1.691c-0.225-0.723-0.177-1.49-0.033-2.025c0.094-0.262,0.152-0.489,0.25-0.621
							c0.081-0.14,0.126-0.22,0.126-0.22c0.007,0.005,0.032-0.108,0.161-0.244c0.122-0.14,0.272-0.368,0.541-0.548
							c0.492-0.401,1.378-0.698,2.246-0.492c0.872,0.178,1.603,0.791,1.988,1.34c0.21,0.27,0.332,0.526,0.406,0.712
							c0.083,0.182,0.129,0.286,0.129,0.286s-0.041-0.107-0.112-0.295c-0.062-0.193-0.17-0.46-0.368-0.749
							c-0.36-0.584-1.076-1.274-2.01-1.523c-0.926-0.279-1.951-0.007-2.539,0.43C2.883,22.667,2.64,23.118,2.64,23.119z"/>
					</g>
				</g>
			</g>
			<g>
				<path fill="#D7DB2D" d="M9.295,21.456c0.557,1.783-0.304,3.635-1.921,4.14c-1.618,0.501-3.382-0.537-3.938-2.319
					c-0.558-1.785,0.304-3.637,1.922-4.14C6.976,18.635,8.739,19.673,9.295,21.456z"/>
				<g>
					<g>
						<path fill="#115529" d="M3.601,20.239c0,0-0.248,0.335-0.419,0.926c-0.161,0.587-0.202,1.421,0.042,2.201
							c0.245,0.78,0.769,1.435,1.239,1.819c0.248,0.179,0.449,0.338,0.62,0.399c0.163,0.076,0.255,0.119,0.255,0.119
							c0.002-0.007,0.102,0.066,0.308,0.099c0.204,0.042,0.489,0.128,0.846,0.104c0.702,0.011,1.654-0.334,2.24-1.058
							c0.608-0.704,0.807-1.642,0.775-2.305c0-0.338-0.06-0.609-0.116-0.797c-0.046-0.188-0.073-0.296-0.073-0.296
							s0.02,0.11,0.054,0.302c0.045,0.19,0.084,0.465,0.063,0.798c-0.012,0.655-0.276,1.547-0.889,2.159
							c-0.595,0.632-1.471,0.867-2.082,0.807c-0.622-0.04-0.989-0.256-0.989-0.256c0,0-0.339-0.116-0.756-0.456
							c-0.405-0.344-0.854-0.924-1.069-1.615c-0.213-0.692-0.159-1.426-0.013-1.935c0.091-0.25,0.152-0.466,0.247-0.591
							c0.078-0.133,0.123-0.209,0.123-0.209c0.005,0.004,0.033-0.102,0.158-0.23c0.116-0.134,0.265-0.349,0.523-0.519
							c0.475-0.379,1.323-0.662,2.156-0.47c0.836,0.165,1.542,0.747,1.912,1.272c0.202,0.258,0.32,0.503,0.39,0.682
							c0.079,0.175,0.124,0.275,0.124,0.275S9.232,21.36,9.165,21.18c-0.058-0.186-0.163-0.442-0.352-0.72
							c-0.346-0.561-1.038-1.22-1.935-1.455c-0.891-0.264-1.873-0.008-2.444,0.404C3.843,19.808,3.601,20.238,3.601,20.239z"/>
					</g>
				</g>
			</g>
			<g>
				<path fill="#D7DB2D" d="M10.884,18.922c0.522,1.698-0.323,3.462-1.887,3.942c-1.564,0.477-3.257-0.512-3.779-2.21
					c-0.523-1.7,0.323-3.463,1.888-3.941C8.671,16.235,10.363,17.225,10.884,18.922z"/>
				<g>
					<g>
						<path fill="#115529" d="M5.403,17.743c0,0-0.244,0.317-0.415,0.884c-0.164,0.562-0.213,1.365,0.019,2.115
							c0.232,0.751,0.739,1.38,1.193,1.746c0.238,0.173,0.433,0.322,0.598,0.38c0.156,0.072,0.245,0.113,0.245,0.113
							s0.099,0.06,0.297,0.092c0.195,0.041,0.47,0.119,0.813,0.096c0.673,0.007,1.585-0.318,2.157-1.004
							c0.592-0.667,0.797-1.564,0.773-2.2c0.002-0.324-0.052-0.585-0.106-0.765c-0.044-0.181-0.069-0.284-0.069-0.284
							s0.018,0.105,0.05,0.29c0.042,0.183,0.077,0.446,0.053,0.765c-0.019,0.627-0.287,1.477-0.883,2.052
							c-0.579,0.595-1.417,0.812-2.001,0.756c-0.594-0.038-0.946-0.241-0.946-0.241c0,0-0.326-0.107-0.724-0.431
							c-0.389-0.325-0.819-0.878-1.022-1.538c-0.201-0.661-0.14-1.361,0.007-1.845c0.146-0.492,0.379-0.75,0.364-0.758
							c0,0,0.035-0.095,0.155-0.217c0.111-0.129,0.257-0.329,0.506-0.491c0.458-0.356,1.268-0.625,2.065-0.448
							c0.801,0.152,1.48,0.702,1.837,1.205c0.194,0.247,0.308,0.48,0.373,0.653c0.075,0.167,0.118,0.263,0.118,0.263
							s-0.037-0.099-0.1-0.272c-0.054-0.179-0.155-0.423-0.335-0.689c-0.332-0.538-0.999-1.166-1.86-1.388
							c-0.855-0.249-1.794-0.008-2.348,0.378C5.644,17.334,5.403,17.743,5.403,17.743z"/>
					</g>
				</g>
			</g>
			<g>
				<path fill="#D7DB2D" d="M12.572,16.469c0.487,1.614-0.342,3.29-1.853,3.744c-1.512,0.453-3.132-0.488-3.62-2.102
					c-0.488-1.615,0.342-3.289,1.854-3.743C10.464,13.915,12.084,14.855,12.572,16.469z"/>
				<g>
					<g>
						<path fill="#115529" d="M7.304,15.327c0,0-0.05,0.08-0.137,0.22c-0.102,0.133-0.172,0.359-0.274,0.621
							c-0.167,0.536-0.226,1.308-0.006,2.029c0.219,0.723,0.709,1.326,1.147,1.673c0.441,0.358,0.821,0.453,0.812,0.469
							c0,0,0.096,0.055,0.286,0.084c0.187,0.04,0.451,0.11,0.779,0.088c0.645,0.003,1.517-0.301,2.075-0.949
							c0.576-0.63,0.787-1.485,0.77-2.094c0.005-0.311-0.043-0.561-0.095-0.733c-0.041-0.173-0.064-0.272-0.064-0.272
							s0.017,0.101,0.045,0.278c0.04,0.175,0.069,0.427,0.042,0.732c-0.026,0.6-0.299,1.406-0.878,1.945
							c-0.563,0.558-1.363,0.756-1.92,0.705c-0.567-0.036-0.903-0.226-0.903-0.227c0,0-0.312-0.1-0.692-0.407
							c-0.373-0.306-0.785-0.832-0.974-1.46c-0.188-0.63-0.121-1.297,0.028-1.753c0.145-0.467,0.375-0.708,0.358-0.717
							c0,0,0.037-0.088,0.151-0.204c0.106-0.123,0.25-0.309,0.488-0.462c0.442-0.334,1.213-0.59,1.975-0.426
							c0.766,0.14,1.419,0.658,1.762,1.137c0.185,0.235,0.295,0.458,0.357,0.623c0.071,0.16,0.112,0.251,0.112,0.251
							s-0.034-0.095-0.095-0.26c-0.05-0.172-0.146-0.405-0.319-0.66c-0.317-0.515-0.96-1.111-1.785-1.32
							c-0.819-0.235-1.717-0.009-2.253,0.353C7.543,14.94,7.304,15.326,7.304,15.327z"/>
					</g>
				</g>
			</g>
			<g>
				<path fill="#D7DB2D" d="M14.01,13.787c0.453,1.529-0.361,3.117-1.819,3.546c-1.458,0.428-3.007-0.463-3.46-1.993
					c-0.453-1.53,0.361-3.116,1.819-3.545S13.557,12.258,14.01,13.787z"/>
				<g>
					<g>
						<path fill="#115529" d="M8.956,12.682c0,0-0.049,0.076-0.134,0.208c-0.099,0.126-0.174,0.339-0.274,0.59
							c-0.17,0.509-0.238,1.25-0.03,1.943c0.206,0.695,0.679,1.272,1.103,1.6c0.423,0.342,0.79,0.426,0.78,0.443
							c0,0,0.093,0.049,0.275,0.078c0.179,0.04,0.432,0.101,0.745,0.08c0.616-0.001,1.448-0.285,1.991-0.896
							c0.56-0.593,0.777-1.407,0.768-1.989c0.007-0.296-0.036-0.536-0.085-0.701c-0.038-0.166-0.06-0.26-0.06-0.26
							s0.015,0.097,0.041,0.266c0.013,0.083,0.028,0.186,0.046,0.302c-0.004,0.118-0.009,0.251-0.014,0.396
							c-0.034,0.573-0.311,1.334-0.872,1.837c-0.546,0.521-1.309,0.702-1.839,0.655c-0.54-0.034-0.861-0.212-0.861-0.212
							c0,0-0.07-0.032-0.191-0.087c-0.13-0.041-0.279-0.164-0.468-0.295c-0.356-0.287-0.751-0.785-0.927-1.383
							c-0.176-0.599-0.102-1.232,0.048-1.662c0.143-0.441,0.37-0.667,0.352-0.676c0,0,0.038-0.082,0.148-0.191
							c0.101-0.117,0.243-0.29,0.47-0.434c0.425-0.313,1.158-0.555,1.885-0.405c0.73,0.127,1.358,0.614,1.687,1.069
							c0.177,0.224,0.283,0.436,0.341,0.593c0.068,0.153,0.106,0.24,0.106,0.24s-0.032-0.09-0.089-0.249
							c-0.046-0.165-0.139-0.387-0.303-0.63c-0.303-0.491-0.921-1.056-1.71-1.252c-0.783-0.22-1.639-0.009-2.157,0.328
							c-0.278,0.149-0.451,0.348-0.584,0.474C9.002,12.585,8.961,12.686,8.956,12.682z"/>
					</g>
				</g>
			</g>
			<g>
				<path fill="#D7DB2D" d="M15.215,11.038c0.418,1.445-0.38,2.944-1.785,3.348c-1.404,0.403-2.882-0.439-3.3-1.884
					c-0.419-1.445,0.38-2.942,1.784-3.347C13.32,8.751,14.797,9.594,15.215,11.038z"/>
				<g>
					<g>
						<path fill="#115529" d="M10.375,9.971c0,0-0.048,0.072-0.131,0.197c-0.096,0.119-0.175,0.319-0.273,0.559
							c-0.173,0.482-0.251,1.192-0.054,1.857c0.191,0.667,0.65,1.219,1.057,1.527c0.406,0.326,0.759,0.4,0.749,0.419
							c0,0,0.09,0.043,0.264,0.07c0.17,0.039,0.413,0.092,0.711,0.072c0.587-0.005,1.379-0.27,1.906-0.842
							c0.543-0.556,0.767-1.328,0.765-1.883c0.01-0.282-0.027-0.511-0.075-0.668c-0.035-0.158-0.055-0.248-0.055-0.248
							s0.013,0.092,0.036,0.253c0.011,0.08,0.025,0.177,0.041,0.289c-0.006,0.112-0.012,0.239-0.019,0.376
							c-0.042,0.545-0.323,1.262-0.866,1.729c-0.529,0.484-1.254,0.648-1.759,0.605c-0.513-0.032-0.818-0.197-0.818-0.198
							c0.007-0.013-0.285-0.083-0.627-0.358c-0.34-0.268-0.717-0.738-0.878-1.305c-0.165-0.567-0.083-1.167,0.067-1.571
							c0.141-0.417,0.364-0.624,0.345-0.634c0,0,0.039-0.075,0.145-0.178c0.097-0.111,0.235-0.271,0.452-0.406
							c0.408-0.291,1.103-0.519,1.795-0.383c0.694,0.115,1.297,0.569,1.612,1.001c0.168,0.213,0.271,0.413,0.325,0.564
							c0.064,0.146,0.101,0.229,0.101,0.229s-0.03-0.086-0.083-0.237c-0.026-0.076-0.059-0.169-0.096-0.275
							c-0.057-0.097-0.121-0.207-0.191-0.327c-0.29-0.468-0.883-1-1.636-1.184c-0.748-0.206-1.561-0.009-2.061,0.302
							c-0.266,0.14-0.438,0.323-0.566,0.442C10.423,9.881,10.375,9.971,10.375,9.971z"/>
					</g>
				</g>
			</g>
			<g>
				
					<ellipse transform="matrix(0.9627 -0.2706 0.2706 0.9627 -1.9054 3.8494)" fill="#D7DB2D" cx="13.006" cy="8.834" rx="2.54" ry="2.558"/>
				<g>
					<g>
						<path fill="#115529" d="M10.826,7.117c0.016,0.008-0.23,0.246-0.4,0.712c-0.177,0.456-0.265,1.134-0.081,1.771
							c0.178,0.64,0.621,1.166,1.013,1.456c0.389,0.31,0.729,0.374,0.717,0.394c0,0,0.087,0.038,0.252,0.063
							c0.162,0.038,0.394,0.083,0.678,0.064c0.558-0.009,1.311-0.254,1.822-0.788c0.526-0.52,0.757-1.249,0.763-1.777
							c-0.002-0.133-0.003-0.255-0.005-0.363c-0.022-0.105-0.042-0.198-0.058-0.273c-0.033-0.15-0.051-0.236-0.051-0.236
							s0.011,0.088,0.032,0.241c0.01,0.076,0.022,0.168,0.036,0.274c-0.007,0.106-0.016,0.227-0.024,0.357
							c-0.05,0.517-0.335,1.189-0.86,1.621c-0.513,0.447-1.199,0.595-1.678,0.556c-0.245-0.001-0.437-0.07-0.571-0.107
							c-0.138-0.03-0.206-0.076-0.206-0.076c0.008-0.015-0.271-0.075-0.595-0.334c-0.324-0.249-0.683-0.691-0.831-1.227
							c-0.152-0.536-0.064-1.101,0.088-1.479c0.139-0.391,0.358-0.581,0.339-0.592c-0.003-0.002,0.041-0.068,0.141-0.165
							c0.091-0.105,0.228-0.251,0.434-0.377c0.391-0.27,1.049-0.485,1.706-0.363c0.659,0.103,1.236,0.525,1.537,0.934
							c0.073,0.105,0.141,0.201,0.2,0.287c0.042,0.096,0.078,0.179,0.108,0.248c0.061,0.138,0.095,0.217,0.095,0.217
							s-0.028-0.082-0.077-0.226c-0.025-0.073-0.055-0.161-0.089-0.262c-0.054-0.092-0.115-0.196-0.181-0.31
							c-0.276-0.444-0.846-0.946-1.562-1.116c-0.712-0.19-1.483-0.009-1.964,0.277c-0.254,0.13-0.423,0.297-0.546,0.41
							C10.876,7.034,10.826,7.117,10.826,7.117z"/>
					</g>
				</g>
			</g>
			<g>
				
					<ellipse transform="matrix(0.9645 -0.2641 0.2641 0.9645 -1.0255 3.6955)" fill="#D7DB2D" cx="13.232" cy="5.662" rx="2.435" ry="2.393"/>
				<g>
					<g>
						<path fill="#115529" d="M11.172,4.028c0.016,0.009-0.226,0.228-0.396,0.668c-0.18,0.429-0.279,1.076-0.106,1.686
							c0.165,0.613,0.592,1.113,0.969,1.384c0.371,0.294,0.697,0.347,0.686,0.369c0,0,0.084,0.031,0.241,0.056
							c0.154,0.037,0.375,0.074,0.644,0.057c0.53-0.013,1.241-0.239,1.737-0.735c0.509-0.482,0.745-1.168,0.76-1.67
							c0.015-0.255-0.01-0.462-0.053-0.604c-0.03-0.143-0.046-0.225-0.046-0.225s0.01,0.083,0.027,0.229
							c0.031,0.144,0.036,0.352,0,0.598c-0.058,0.489-0.347,1.116-0.853,1.512c-0.495,0.411-1.144,0.542-1.597,0.507
							c-0.231-0.002-0.413-0.063-0.54-0.101C12.515,7.73,12.45,7.689,12.45,7.689c0.009-0.016-0.258-0.066-0.564-0.31
							c-0.308-0.23-0.648-0.645-0.783-1.149c-0.14-0.504-0.044-1.035,0.109-1.386c0.137-0.366,0.352-0.539,0.332-0.55
							c-0.003-0.003,0.042-0.062,0.137-0.152c0.087-0.1,0.22-0.232,0.416-0.351c0.374-0.249,0.994-0.451,1.616-0.342
							c0.624,0.091,1.175,0.481,1.463,0.865c0.151,0.191,0.247,0.368,0.292,0.505c0.057,0.131,0.089,0.206,0.089,0.206
							s-0.026-0.078-0.071-0.214c-0.034-0.143-0.116-0.331-0.254-0.542c-0.262-0.421-0.808-0.891-1.489-1.048
							c-0.676-0.177-1.405-0.01-1.867,0.253c-0.243,0.119-0.409,0.272-0.527,0.378C11.223,3.952,11.172,4.028,11.172,4.028z"/>
					</g>
				</g>
			</g>
		</g>
		<path fill="#D7DB2D" d="M7.516,15.789c0.536-0.373,0.674-0.101,1.05,0.459c0.296,0.442,0.749,0.698,1.059,1.117
			c-0.51,0.922-0.541,2.731-1.862,1.46c-0.37-0.356-0.594-0.906-0.917-1.249c-0.401-0.426-0.841-0.188-1.341,0.186
			c1.135-0.231,1.799,1.96,1.877,2.755c0.054,0.54,0.264,1.367-0.387,1.579c-0.48,0.158-1.449-0.497-1.459-0.977
			c-0.39-0.172-0.531-0.957-0.788-1.248c-0.376-0.07-0.679,0.318-0.853,0.449c0.625-0.164,1.211,1.141,1.569,1.578
			c0.562,0.687,1.247,1.257,1.198,2.231c-0.058,1.175-1.08,1.016-1.904,0.606c-0.807-0.401-0.992-1.188-1.643-1.585
			c-0.545,1.311,1.68,2.596,2.416,3.342c0.432,0.438,0.959,1.015,0.735,1.638c-0.214,0.6-1.077,0.793-1.634,0.608
			c0.748,0.458,1.721,0.234,2.502,0.888c0.731,0.61,1.033,2.036-0.271,2.067c0.6,0.279,1.66-0.301,2.425-0.149
			c0.664,0.132,2.049,0.758,1.174,1.622c0.406-0.316,0.943-0.514,1.453-0.567c0.271-0.028,0.73-0.072,0.986,0.013
			c0.223,0.074,0.359,0.419,0.605,0.434c0.473,0.027,1.031-0.881,1.164-1.234c0.288-0.766-0.077-1.082-0.458-1.648
			c-1.743,0.823-4.064-0.057-5.335-1.42c-0.793-0.85-0.909-1.774-0.969-2.907c-0.055-1.05-0.184-2.139-0.08-3.166
			c0.098-0.963,0.197-2.188,0.59-3.072c0.419-0.948,1.124-1.72,1.584-2.627c-0.049-0.051-0.09-0.085-0.131-0.133
			c0.248-0.828,1.363-1.402,1.723-2.297c-0.227-0.216-0.678-0.58-0.995-0.657c-0.427-0.104-0.32-0.02-0.719,0.147
			C9.483,14.2,8.303,14.127,8.74,14.675c-0.48-0.09-0.85,1.259-1.553,1.311"/>
		<g>
			<g>
				<g>
					<path fill="#E00D26" d="M6.288,14.779l0.53-0.147c0,0,0.022,0.132,0.062,0.363c0.015,0.116,0.051,0.256,0.057,0.418
						c-0.008,0.163-0.018,0.348-0.029,0.549c-0.084,0.798-0.593,1.824-1.467,2.447c-0.852,0.638-1.965,0.863-2.762,0.714
						c-0.196-0.045-0.375-0.087-0.535-0.125c-0.15-0.064-0.281-0.121-0.39-0.167c-0.221-0.083-0.318-0.186-0.322-0.178
						c0.012-0.015-0.265-0.123-0.595-0.501c-0.316-0.361-0.781-0.98-0.744-1.875c0.009-0.867,0.678-1.843,1.699-2.129
						c0.984-0.377,2.344,0.158,2.648,1.284c0.155,0.552-0.067,1.169-0.505,1.496c-0.416,0.345-1.02,0.448-1.49,0.232
						c-0.473-0.192-0.792-0.708-0.693-1.175c0.101-0.471,0.563-0.749,0.956-0.716c0.404,0.013,0.707,0.341,0.719,0.653
						c0.008,0.329-0.271,0.517-0.477,0.556c-0.229,0.046-0.375-0.093-0.455-0.162c-0.052-0.101-0.08-0.155-0.08-0.155
						s0.029,0.052,0.083,0.15c0.082,0.064,0.227,0.197,0.443,0.144c0.196-0.042,0.45-0.228,0.436-0.522
						c-0.016-0.28-0.296-0.574-0.657-0.579c-0.353-0.027-0.759,0.238-0.837,0.636c-0.086,0.39,0.196,0.836,0.604,0.999
						c0.403,0.19,0.922,0.083,1.279-0.208c0.37-0.287,0.546-0.784,0.423-1.229c-0.25-0.944-1.402-1.382-2.218-1.068
						c-0.859,0.26-1.415,1.052-1.411,1.733c-0.034,0.688,0.346,1.218,0.598,1.514c0.281,0.3,0.493,0.409,0.493,0.409
						c0,0,0.36,0.305,1.041,0.425c0.661,0.149,1.633-0.022,2.393-0.569c0.766-0.536,1.203-1.413,1.279-2.087
						c0.009-0.17,0.018-0.327,0.025-0.465c-0.001-0.138-0.038-0.256-0.049-0.355C6.306,14.892,6.288,14.779,6.288,14.779z"/>
				</g>
			</g>
		</g>
		<path fill="#3AAA35" stroke="#055629" stroke-width="0.5289" stroke-miterlimit="10" d="M15.033,21.27
			c-1.2,5.26-2.833,4.685-2.833,4.685c-0.304-0.524-0.292-1.184-0.175-1.738c0.315-1.498,0.102-3.008,0.764-4.37
			c1.424-2.929,2.589-6.133,3.413-9.302C18.484,1.771,9.357-3.454,3.01,3.442c-3.09,3.362-3.304,7.889-0.479,10.108
			s7.619,1.292,10.709-2.071c0.289-0.314,0.553-0.639,0.791-0.971c-0.354,0.802-0.766,1.563-1.134,2.217
			c-1.188,2.115-2.817,3.985-3.861,6.19c-0.731,1.546-1.238,3.21-1.443,4.924c-0.234,1.959,0.153,4.111,1.632,5.468
			c1.344,1.231,3.6,1.347,5.185,0.504c0.208-0.111,2.015-1.065,1.949-1.417C15.527,26.434,15.033,23.99,15.033,21.27z"/>
		<path fill="#48AE4D" d="M4.52,14.531c1.347,0.037,2.686-0.135,3.968-0.563c2.335-0.779,4.239-2.835,5.052-5.112
			c0.803-2.248,0.795-5.437-1.076-7.182C11.49,0.766,9.336,0.088,8.012,0.416c0.002,0,7.993-1.783,8.549,7.902l-0.656,23.972
			c0,0-8.717-1.265-5.105-16.336C10.799,15.954,13.999,14.784,4.52,14.531z"/>
		<g>
			<g>
				<g>
					<defs>
						<path id="XMLID_737_" d="M19.206,22.838c-0.146-2.711,0.282-5.62,1.762-8.021c0.437-0.708,1.018-1.389,1.71-1.924
							c0.322-1.375-0.242-2.852-1.426-3.781c-1.055-0.829-2.281-1.036-3.664-0.728c-2.266,0.503-3.785,2.399-4.719,4.211
							c-1.305,2.536-1.899,5.41-1.899,8.189c0,7.232,3.833,12.616,8.424,12.616c1.352,0,2.626-0.492,3.755-1.36
							C21.001,30.313,19.424,26.867,19.206,22.838z"/>
					</defs>
					<use xlink:href="#XMLID_737_"  overflow="visible" fill="#D7DB2D"/>
					<clipPath id="XMLID_2_">
						<use xlink:href="#XMLID_737_"  overflow="visible"/>
					</clipPath>
					<path clip-path="url(#XMLID_2_)" fill="#3AAA35" d="M19.753,23.686c-0.146-2.711,0.282-5.62,1.762-8.021
						c0.437-0.708,1.018-1.388,1.71-1.924c0.322-1.375-0.242-2.852-1.426-3.781c-1.055-0.829-2.281-1.035-3.665-0.727
						c-2.265,0.503-3.785,2.399-4.718,4.211c-1.306,2.537-1.9,5.409-1.9,8.189c0,7.232,3.833,12.617,8.426,12.617
						c1.351,0,2.625-0.492,3.754-1.359C21.548,31.16,19.971,27.715,19.753,23.686z"/>
					<path clip-path="url(#XMLID_2_)" fill="#48AE4D" d="M24.874,22.892c0.093-1.012,0.235-2.023,0.514-3.002
						c0.27-0.942,0.763-1.708,1.159-2.586c0.378-0.834,0.53-1.443,0.128-2.281c-0.399-0.835-0.882-1.722-1.646-2.278
						c-0.671-0.488-1.479-0.846-1.98-1.521c-0.375-0.503-0.618-1.056-1.041-1.507c-0.319-0.342-0.655-0.834-1.146-0.913
						c0.721,0.353,1.055,1.675,0.979,2.392c-0.111,1.033-1.119,1.586-1.854,2.161c-1.053,0.824-1.803,1.981-2.338,3.191
						c-0.823,1.865-1.127,3.896-1.109,5.895c0.016,1.716,0.25,3.442,0.782,5.076c0.274,0.843,0.63,1.66,1.077,2.427
						c0.394,0.673,0.961,1.295,0.158,1.944c-0.343,0.278-0.848,0.272-1.277,0.295c-0.883,0.048-1.854-0.417-2.522-0.967
						c1.28,1.234,2.623,2.177,4.438,2.415c0.979,0.127,2.102,0.226,3.074,0.129c1.158-0.115,2.369,0.04,3.403-0.602
						c0.429-0.267,1.257-0.733,1.187-1.192c-0.076-0.491-0.574-1.125-0.763-1.604C25.19,28.052,24.646,25.378,24.874,22.892"/>
					
						<use xlink:href="#XMLID_737_"  overflow="visible" fill="none" stroke="#055629" stroke-width="0.5289" stroke-miterlimit="10"/>
				</g>
			</g>
			<g>
				<defs>
					<path id="XMLID_736_" d="M26.752,22.456c0.166-1.794,0.5-3.725,1.527-5.294c-0.013-0.01,0.028-0.019,0.016-0.029
						c0.711-1.295,0.479-2.926-0.508-4.053c-1.109-1.267-3.018-1.584-4.619-0.924c-1.792,0.738-2.937,2.359-3.643,3.957
						c-0.822,1.865-1.126,3.896-1.107,5.895c0.028,3.158,0.82,6.641,3.055,9.159c0.79,0.892,1.824,1.681,3.074,1.958
						c1.64,0.365,3.201-0.327,4.295-1.419C27.409,29.383,26.5,25.195,26.752,22.456"/>
				</defs>
				<use xlink:href="#XMLID_736_"  overflow="visible" fill="#D7DB2D"/>
				<clipPath id="XMLID_3_">
					<use xlink:href="#XMLID_736_"  overflow="visible"/>
				</clipPath>
				<path clip-path="url(#XMLID_3_)" fill="#3AAA35" d="M27.361,23.021c0.166-1.794,0.501-3.725,1.528-5.294
					c-0.013-0.01,0.028-0.018,0.015-0.029c0.712-1.295,0.479-2.926-0.508-4.053c-1.107-1.267-3.018-1.584-4.619-0.924
					c-1.791,0.738-2.936,2.359-3.641,3.957c-0.824,1.864-1.127,3.896-1.109,5.896c0.029,3.157,0.821,6.64,3.055,9.159
					c0.791,0.891,1.824,1.681,3.074,1.959c1.641,0.365,3.201-0.328,4.295-1.421C28.02,29.949,27.109,25.761,27.361,23.021"/>
				
					<use xlink:href="#XMLID_736_"  overflow="visible" fill="none" stroke="#055629" stroke-width="0.5289" stroke-miterlimit="10"/>
			</g>
			<path fill="none" stroke="#010202" stroke-width="0.4056" stroke-miterlimit="10" d="M32.361,21.069"/>
			<path id="XMLID_735_" fill="#D7DB2D" stroke="#055629" stroke-width="0.4228" stroke-miterlimit="10" d="M27.316,19.461
				c0.27-0.88,0.717-1.746,1.082-2.533c0.391-0.844,0.402-1.81,0.084-2.674c-0.15-0.407-0.375-0.793-0.664-1.134
				c-0.41-0.089-0.822-0.041-1.197,0.136c-0.783,0.374-1.266,1.154-1.589,1.868c-0.411,0.908-0.622,1.892-0.747,2.862
				c-0.27,2.105-0.11,4.268,0.306,6.348c0.34,1.7,0.868,3.406,1.752,4.946c0.537,0.937,1.312,2.077,2.478,2.446
				c0.057-0.056-0.365-0.714-0.418-0.821c-0.174-0.358-0.33-0.724-0.473-1.094c-0.309-0.806-0.55-1.631-0.74-2.466
				c-0.365-1.594-0.588-3.26-0.438-4.888C26.775,22.198,27.018,20.436,27.316,19.461z"/>
			<g>
				<g>
					<g>
						<g>
							<path fill="#085729" d="M25.642,14.079l0.13-0.389c-0.009,0.013,0.322,0.111,0.579,0.318c0.276,0.192,0.46,0.458,0.46,0.458
								c0,0,0.104,0.137,0.204,0.365c0.117,0.22,0.22,0.53,0.306,0.838c0.169,0.618,0.269,1.241,0.269,1.241
								c0,0-0.2-0.599-0.457-1.163c-0.13-0.28-0.271-0.554-0.408-0.731c-0.122-0.189-0.227-0.289-0.227-0.29
								c0,0-0.161-0.236-0.387-0.388C25.901,14.167,25.634,14.093,25.642,14.079z"/>
						</g>
					</g>
				</g>
				<g>
					<g>
						<g>
							<path fill="#085729" d="M24.34,16.978l-0.025-0.408c0,0,0.264-0.011,0.522,0.034c0.262,0.04,0.5,0.148,0.501,0.148
								c0,0,0.497,0.27,0.803,0.7c0.326,0.417,0.463,0.908,0.464,0.908c0,0-0.237-0.45-0.608-0.764
								c-0.361-0.33-0.806-0.463-0.806-0.463c0,0-0.2-0.093-0.417-0.125C24.56,16.969,24.34,16.978,24.34,16.978z"/>
						</g>
					</g>
				</g>
				<g>
					<g>
						<g>
							<path fill="#085729" d="M24.175,20.295l-0.222-0.345c0.003,0.011,0.242-0.149,0.513-0.22
								c0.272-0.084,0.554-0.062,0.554-0.062c0,0,0.15,0,0.354,0.083c0.207,0.059,0.462,0.198,0.668,0.379
								c0.217,0.17,0.375,0.397,0.478,0.564c0.09,0.176,0.15,0.293,0.15,0.293c0,0-0.29-0.452-0.738-0.686
								c-0.212-0.124-0.45-0.2-0.626-0.213c-0.175-0.036-0.291-0.013-0.291-0.013c0,0-0.224-0.021-0.437,0.047
								C24.368,20.177,24.179,20.306,24.175,20.295z"/>
						</g>
					</g>
				</g>
				<g>
					<g>
						<g>
							<path fill="#085729" d="M24.582,23.818l-0.374-0.166c0.007,0.015,0.102-0.223,0.288-0.327
								c0.175-0.138,0.365-0.153,0.364-0.165c0.003-0.019,0.4-0.029,0.752,0.052c0.357,0.073,0.68,0.215,0.68,0.215
								s-0.349-0.042-0.688-0.012c-0.342,0.025-0.642,0.124-0.63,0.135c0.009,0.008-0.153,0.024-0.239,0.105
								C24.622,23.716,24.598,23.827,24.582,23.818z"/>
						</g>
					</g>
				</g>
				<g>
					<g>
						<g>
							<path fill="#085729" d="M25.354,26.273l-0.348-0.217c0.005,0.011,0.116-0.183,0.287-0.279
								c0.164-0.121,0.345-0.148,0.343-0.157c0.001-0.017,0.385-0.036,0.724,0.039c0.343,0.068,0.654,0.199,0.654,0.199
								s-0.336-0.031-0.659,0.005c-0.326,0.03-0.607,0.137-0.598,0.146c0.006,0.006-0.142,0.028-0.234,0.105
								C25.414,26.174,25.365,26.281,25.354,26.273z"/>
						</g>
					</g>
				</g>
			</g>
			<path fill="#48AE4D" d="M29.064,21.57c0.148-1.788,0.54-3.601,1.684-4.97c-0.71-0.64-1.295-0.805-1.898-0.86
				c-2.283-0.207-4.006,2.914-4.397,6.823c-0.173,1.728,0.083,3.479,0.536,5.146c0.363,1.342-0.131,2.529-1.365,3.267
				c-1.02,0.609-1.971,0.095-2.752-0.749c0.623,0.471,0.977,1.299,1.697,1.834c1.709,1.268,5.869,1.661,6.287-1.197
				C29.311,27.761,27.68,24.603,29.064,21.57z"/>
			<g>
				<g>
					<defs>
						<path id="XMLID_734_" d="M32.891,17.035c-0.223,2.32,1.471,4.65,1.709,5.944c0.338,1.833-0.448,3.444-1.967,4.747
							c-0.439,0.377-2.123,1.324-2.154,1.389c2.979-6.398,2.435-11.002,1.526-12.377c-0.498-0.795-1.481-1.043-2.156-1.104
							c-2.282-0.207-4.007,2.913-4.397,6.822s1.786,10.772,4.517,10.945c2.039,0.129,5.776-2.012,6.302-7.434
							C36.534,23.226,33.906,19.801,32.891,17.035z"/>
					</defs>
					<use xlink:href="#XMLID_734_"  overflow="visible" fill="#D7DB2D"/>
					<clipPath id="XMLID_4_">
						<use xlink:href="#XMLID_734_"  overflow="visible"/>
					</clipPath>
					<path clip-path="url(#XMLID_4_)" fill="#3AAA35" d="M33.099,17.56c-0.224,2.319,0.149,4.44,0.387,5.733
						c0.339,1.835,0.605,1.897-0.912,3.2c-0.439,0.376-2.06,2.955-2.091,3.021c2.979-6.398,2.967-10.627,2.059-12.003
						c-0.498-0.795-1.482-1.042-2.156-1.104c-2.283-0.207-4.008,2.914-4.398,6.823c-0.391,3.91,1.786,10.772,4.517,10.945
						c2.04,0.13,5.776-2.011,6.302-7.434C37.07,24,34.113,20.326,33.099,17.56z"/>
					
						<use xlink:href="#XMLID_734_"  overflow="visible" fill="none" stroke="#055629" stroke-width="0.3834" stroke-miterlimit="10"/>
				</g>
				<g>
					<g>
						<g>
							<path fill="#085729" d="M30.257,29.226l0.476-0.048c0.013-0.009,0.025,0.336,0.133,0.614
								c0.038,0.156,0.125,0.252,0.177,0.337c0.067,0.059,0.115,0.085,0.114,0.088c0,0,0.08,0.095,0.303,0.1
								c0.22,0.013,0.56-0.098,0.872-0.27c0.63-0.345,1.173-0.854,1.173-0.854s-0.443,0.582-1.034,1.046
								c-0.294,0.229-0.639,0.427-0.964,0.477c-0.326,0.062-0.585-0.078-0.569-0.074c0,0-0.102-0.063-0.234-0.176
								c-0.095-0.13-0.234-0.31-0.281-0.499C30.279,29.593,30.274,29.227,30.257,29.226z"/>
						</g>
					</g>
				</g>
				<g>
					<g>
						<g>
							<path fill="#085729" d="M33.354,17.911l-0.441,0.402c0,0-0.056-0.075-0.153-0.205c-0.048-0.066-0.105-0.146-0.172-0.238
								c-0.046-0.105-0.099-0.224-0.156-0.353c-0.216-0.52-0.211-1.355,0.203-1.993c0.395-0.64,1.058-1.042,1.592-1.181
								c0.535-0.146,0.905-0.097,0.905-0.098c0,0,0.194-0.001,0.521,0.086c0.318,0.088,0.796,0.257,1.197,0.693
								c0.44,0.388,0.653,1.268,0.208,1.893c-0.405,0.617-1.253,0.936-1.977,0.695c-0.357-0.11-0.691-0.331-0.869-0.672
								c-0.179-0.347-0.092-0.777,0.159-1.023c0.495-0.512,1.348-0.403,1.612,0.083c0.152,0.23,0.061,0.522-0.104,0.646
								c-0.14,0.167-0.348,0.179-0.487,0.178c-0.3-0.034-0.396-0.204-0.404-0.186c0.006-0.017,0.114,0.143,0.402,0.161
								c0.134-0.007,0.325-0.028,0.445-0.187c0.147-0.122,0.203-0.373,0.072-0.557c-0.242-0.411-0.998-0.467-1.383-0.029
								c-0.193,0.211-0.248,0.529-0.107,0.78c0.125,0.252,0.421,0.436,0.714,0.511c0.613,0.173,1.263-0.114,1.564-0.583
								c0.3-0.479,0.15-1.031-0.165-1.325c-0.316-0.33-0.705-0.439-0.954-0.514c-0.132-0.022-0.236-0.04-0.306-0.052
								c-0.071-0.006-0.11-0.003-0.11-0.003s-0.3-0.041-0.73,0.062c-0.42,0.093-0.964,0.418-1.276,0.909
								c-0.321,0.487-0.325,1.095-0.168,1.486c0.042,0.098,0.081,0.188,0.115,0.267c0.052,0.07,0.098,0.132,0.136,0.183
								C33.311,17.853,33.354,17.911,33.354,17.911z"/>
						</g>
					</g>
				</g>
				<g>
					<g>
						<g>
							<path fill="#085729" d="M30.5,29.365l-0.034,0.297c-0.253-0.086-0.193-0.352-0.213-0.674
								c0.005-0.335,0.039-0.772,0.084-1.208c0.09-0.871,0.224-1.734,0.224-1.734c0.142-0.815,0.301-1.626,0.484-2.432
								c0.092-0.403,0.189-0.805,0.299-1.204c0.057-0.199,0.113-0.398,0.18-0.595c0.063-0.166,0.153-0.496,0.322-0.605
								c0.173,0.061,0.129,0.499,0.125,0.646c-0.012,0.201-0.032,0.401-0.055,0.6c-0.046,0.398-0.105,0.794-0.168,1.188
								c0.042-0.397,0.078-0.795,0.102-1.193c0.01-0.383,0.066-0.872-0.034-1.038c-0.158,0.179-0.233,0.634-0.336,1.021
								c-0.092,0.396-0.17,0.797-0.244,1.198c-0.146,0.802-0.27,1.608-0.374,2.416c0,0-0.136,0.87-0.226,1.742
								c-0.045,0.436-0.079,0.873-0.084,1.196c0,0.158,0.002,0.296,0.017,0.37c0.005,0.048,0.013,0.043,0.01,0.055
								C30.547,29.352,30.491,29.367,30.5,29.365z"/>
						</g>
					</g>
				</g>
			</g>
		</g>
		<g>
			<circle fill="#48AE4D" cx="10.413" cy="5.917" r="2.401"/>
			<g>
				<g>
					<g>
						<path fill="#136838" d="M8.358,4.335C8.342,4.292,7.649,5.233,7.847,6.323c0.097,0.516,0.324,1.016,0.609,1.296
							c0.25,0.309,0.499,0.431,0.486,0.444c0,0,0.259,0.175,0.693,0.301c0.429,0.141,1.062,0.148,1.608-0.082
							c0.552-0.217,0.987-0.637,1.206-1.007c0.231-0.367,0.266-0.662,0.284-0.653c-0.017-0.008-0.08,0.283-0.339,0.622
							c-0.247,0.342-0.704,0.701-1.23,0.851C10.64,8.252,10.079,8.194,9.719,8.03C9.354,7.881,9.153,7.711,9.153,7.711
							C9.167,7.696,8.95,7.603,8.748,7.333C8.51,7.094,8.32,6.67,8.247,6.235c-0.162-0.921,0.44-1.706,0.449-1.67
							c0,0,0.038-0.052,0.104-0.144C8.868,4.33,9,4.233,9.14,4.096c0.314-0.227,0.811-0.459,1.354-0.458
							C11.035,3.62,11.567,3.84,11.885,4.1c0.336,0.242,0.482,0.496,0.496,0.481c-0.014,0.014-0.136-0.253-0.458-0.534
							c-0.305-0.294-0.843-0.583-1.436-0.615C9.895,3.38,9.309,3.59,8.924,3.829C8.544,4.084,8.358,4.335,8.358,4.335z"/>
					</g>
				</g>
			</g>
			<circle fill="#055629" stroke="#13381E" stroke-width="0.1967" stroke-miterlimit="10" cx="10.154" cy="5.658" r="2.143"/>
			
				<ellipse transform="matrix(0.9676 0.2523 -0.2523 0.9676 1.6003 -2.5042)" fill="#FFFFFF" cx="10.565" cy="4.988" rx="1.046" ry="0.868"/>
			<ellipse fill="#FFFFFF" cx="9.98" cy="5.861" rx="0.441" ry="0.457"/>
		</g>
		<g>
			<path fill="#48AE4D" d="M5.562,5.686C4.908,6.788,3.572,7.213,2.579,6.638C1.585,6.06,1.311,4.698,1.964,3.596
				s1.989-1.527,2.982-0.95C5.939,3.223,6.216,4.584,5.562,5.686z"/>
			<g>
				<g>
					<g>
						<path fill="#136838" d="M3.561,2.234c0,0-0.287,0.034-0.67,0.223C2.516,2.652,2.07,3.02,1.782,3.507
							C1.494,3.994,1.396,4.568,1.415,4.99c0.022,0.212,0.033,0.39,0.081,0.507c0.037,0.12,0.058,0.188,0.058,0.188
							c0,0,0.099,0.329,0.442,0.687c0.328,0.364,0.96,0.677,1.601,0.625c0.641-0.031,1.203-0.373,1.521-0.697
							c0.335-0.317,0.445-0.617,0.463-0.602C5.564,5.682,5.428,5.973,5.071,6.256C4.732,6.547,4.163,6.82,3.578,6.793
							C2.992,6.785,2.48,6.456,2.238,6.126C1.981,5.8,1.929,5.521,1.929,5.521c0,0-0.094-0.219-0.11-0.578
							C1.81,4.588,1.9,4.107,2.146,3.69c0.25-0.416,0.637-0.72,0.953-0.88C3.421,2.65,3.66,2.629,3.66,2.629
							c0,0,0.27-0.084,0.675-0.018c0.402,0.053,0.931,0.333,1.217,0.832c0.301,0.489,0.331,1.108,0.236,1.535
							C5.708,5.416,5.521,5.667,5.542,5.674C5.521,5.666,5.731,5.431,5.851,4.989c0.133-0.43,0.163-1.085-0.127-1.656
							C5.451,2.752,4.858,2.367,4.378,2.27C3.895,2.155,3.561,2.234,3.561,2.234z"/>
					</g>
				</g>
			</g>
			<path fill="#055629" stroke="#13381E" stroke-width="0.1774" stroke-miterlimit="10" d="M5.024,5.25
				c-0.592,0.997-1.76,1.405-2.61,0.911C1.564,5.668,1.354,4.46,1.945,3.463c0.591-0.997,1.759-1.405,2.608-0.911
				C5.404,3.046,5.614,4.253,5.024,5.25z"/>
			<path fill="#FFFFFF" d="M4.389,2.966C4.01,2.832,3.617,3.024,3.514,3.397C3.457,3.609,3.506,3.831,3.625,4.009
				C3.531,4.07,3.465,4.185,3.457,4.322C3.446,4.527,3.574,4.699,3.742,4.706C3.91,4.714,4.056,4.553,4.066,4.348
				c0-0.006-0.002-0.011-0.002-0.018c0.364,0.103,0.727-0.086,0.824-0.444C4.993,3.513,4.768,3.101,4.389,2.966z"/>
		</g>
		<g>
			<g>
				<g>
					<g>
						<path fill="#8EC044" d="M0.685,9.847C0.137,9.461-0.09,8.838,0.181,8.455c0.271-0.383,0.933-0.38,1.481,0.006
							c0.251,0.177,0.435,0.405,0.533,0.636c0.117,0.272-0.029,0.757-0.029,0.757"/>
						<g>
							<g>
								<path fill="#115529" d="M1.625,8.334c0,0-0.328-0.223-0.728-0.248C0.483,8.018,0.134,8.342,0.157,8.349
									c0,0-0.086,0.092-0.135,0.265c-0.051,0.175-0.011,0.411,0.082,0.609c0.189,0.412,0.575,0.632,0.574,0.632
									c0,0-0.361-0.267-0.494-0.671C0.018,8.768,0.279,8.425,0.298,8.46C0.28,8.457,0.535,8.212,0.894,8.267
									C1.24,8.288,1.538,8.491,1.538,8.491S1.629,8.534,1.74,8.638c0.059,0.049,0.126,0.106,0.199,0.168
									c0.054,0.078,0.112,0.162,0.169,0.246c0.209,0.353,0.025,0.813,0.048,0.799C2.129,9.858,2.373,9.437,2.186,9.007
									C2.133,8.91,2.08,8.813,2.03,8.722C1.958,8.647,1.891,8.578,1.833,8.519C1.722,8.391,1.624,8.334,1.625,8.334z"/>
							</g>
						</g>
					</g>
					
						<ellipse transform="matrix(0.8675 0.4975 -0.4975 0.8675 4.7779 0.6995)" fill="#48AE4D" cx="1.076" cy="9.317" rx="0.973" ry="0.597"/>
					<path fill="#055629" d="M1.385,9.2c0.212,0.186,0.243,0.494,0.243,0.494s-0.31,0.009-0.521-0.176
						C0.895,9.334,0.787,9.113,0.863,9.025C0.94,8.937,1.174,9.015,1.385,9.2z"/>
				</g>
				<g>
					<g>
						<path fill="#8EC044" d="M9.51,11.61c0.654-0.146,1.102-0.636,1-1.092c-0.102-0.458-0.715-0.71-1.369-0.563
							c-0.301,0.067-0.558,0.207-0.738,0.382c-0.211,0.207-0.262,0.71-0.262,0.71"/>
						<g>
							<g>
								<path fill="#115529" d="M9.252,10.028c0,0,0.354-0.071,0.68,0.044c0.354,0.09,0.484,0.419,0.469,0.414
									c0.028-0.023,0.128,0.389-0.187,0.699c-0.277,0.314-0.707,0.416-0.707,0.416s0.439-0.051,0.773-0.355
									c0.164-0.146,0.288-0.349,0.312-0.53c0.021-0.18-0.026-0.297-0.025-0.297c0.026,0-0.181-0.425-0.587-0.519
									C9.601,9.77,9.212,9.853,9.212,9.853c0,0-0.111,0.017-0.263,0.089c-0.076,0.032-0.165,0.07-0.26,0.111
									c-0.082,0.063-0.168,0.132-0.255,0.2c-0.341,0.329-0.28,0.81-0.304,0.793c0.016,0.021,0.026-0.48,0.366-0.729
									c0.087-0.055,0.174-0.11,0.256-0.161c0.092-0.027,0.179-0.053,0.253-0.074C9.15,10.03,9.252,10.029,9.252,10.028z"/>
							</g>
						</g>
					</g>
					
						<ellipse transform="matrix(-0.9921 0.1258 -0.1258 -0.9921 20.0102 20.677)" fill="#48AE4D" cx="9.352" cy="10.97" rx="0.972" ry="0.596"/>
					<path fill="#055629" d="M9.111,10.743c-0.266,0.09-0.414,0.363-0.414,0.363s0.283,0.128,0.549,0.039
						c0.267-0.089,0.451-0.252,0.414-0.362C9.624,10.671,9.378,10.654,9.111,10.743z"/>
				</g>
			</g>
		</g>
		<path fill="#48AE4D" d="M31.984,25.266c-0.282,2.233-1.128,3.897-1.506,3.849c-0.378-0.047-0.002-1.79,0.279-4.022
			c0.283-2.232,0.818-4.002,1.195-3.955C32.332,21.185,32.267,23.034,31.984,25.266z"/>
		<path fill="#48AE4D" d="M32.796,17.842c0.185,0.229,0.424,0.435,0.579,0.655c1.414,2.016,2.084,4.635,1.721,7.078
			c-0.176,1.184-0.607,2.333-1.326,3.296c-0.506,0.676-1.627,2.054-2.551,1.696c-0.378-0.147-0.625-0.463-0.733-0.843
			c-0.251-0.884,1.009-1.324,1.654-1.806c1.495-1.117,2.472-2.907,2.37-4.792c-0.115-2.135-1.569-3.872-1.976-5.939
			C32.525,17.438,32.641,17.648,32.796,17.842z"/>
	</g>
	<path fill="#8EC044" d="M15.502,10.709c-1.136,0.763-2.249,2.509-2.546,3.832c-0.39,1.742,0.762,4.137,2.016,1.715
		c0.417-0.804,0.363-1.761,1.029-2.413c0.571-0.559,1.439-0.47,1.851-1.287c0.963-1.913-2.118-3.597-2.482-1.583"/>
	<path fill="#D7DB2D" d="M14.576,21.42c-0.058,1.365,1.904,4.493,2.383,1.854c0.105-0.584-0.119-2.164-0.268-2.78
		c-0.234-0.969-0.732-1.455-1.828-1.299c-0.577,0.983-0.789,2.632,0.109,3.547"/>
	<path fill="#8EC044" d="M13.65,28.826c-1.164-1.575,1.645-2.143,1.719-0.265c0.068,1.736-2.024,1.265-1.852-0.132"/>
	<path fill="#8EC044" d="M21.98,12.825c1.162-0.526,2.381,0.069,1.353,1.226c-0.659,0.742-1.862,0.815-2.162,1.945
		c-0.435,1.639,1.411,4.636,0.017,5.954c-2.041,1.927-2.467-2.059-2.251-3.31c0.256-1.49,1.053-3.588,2.02-4.862
		c0.426-0.561,1.021-0.976,1.554-1.349"/>
	<path fill="none" d="M1.22,21.817c2.16,1.41,4.319,2.821,6.479,4.231"/>
	<path fill="#D7DB2D" d="M24.229,24.33c-0.029-0.281-0.412-0.615-0.797-0.135c-0.325,0.407-0.024,1.109-0.15,1.596
		c-0.28,1.067-1.379,1.716,0.293,2.52c-0.227-0.109,1.677,0.224,1.412,0.286c0.703-0.165,0.591-0.28,0.403-1.093
		c-0.216-0.935-0.988-1.98-1.293-2.909"/>
	<path fill="#8EC044" d="M30.312,15.999c-0.854-0.334-1.507,0.945-1.454,1.719c0.094,1.382,1.69,1.547,1.342,0.02
		c0.559-0.047,1.012,0.066,1.547,0.093c0.258-1.103-1.002-1.81-1.699-2.228"/>
	<path fill="#D7DB2D" d="M30.047,22.743c0.109-0.781-0.493-0.983-1.17-0.773c-0.191,0.682-0.11,1.401-0.314,2.063
		c-0.242,0.79-0.631,1.067-0.631,2.016c0,1.074-0.094,3.348,1.293,3.553c0.408-0.65,0.195-1.238,0.293-1.966
		c0.129-0.945,0.337-0.942,0.83-1.682c0.662-0.994,1.059-2.26,0.331-3.326c-0.312,0.306-0.693,0.216-0.896,0.248"/>
	<path fill="#D7DB2D" d="M14.047,1.717c-2.822-1.157-1.057,3.513,0.8,3.857c2.665,0.494-0.339-3.894-2.122-4.122"/>
	<path fill="#D7DB2D" d="M8.89,25.52c-0.065,0.506,0.286,2.765,1.296,2.221c0.64-0.345-0.442-2.608-0.502-3.146
		c-0.055-0.496,0.37-1.036-0.162-1.425c-0.551-0.402-1.063,0.087-1.264,0.528C7.907,24.46,8.73,25.75,9.154,26.446"/>
</g>
</svg>
