<?xml version="1.0" encoding="utf-8"?>
<!-- Generator: Adobe Illustrator 16.0.0, SVG Export Plug-In . SVG Version: 6.00 Build 0)  -->
<!DOCTYPE svg PUBLIC "-//W3C//DTD SVG 1.1//EN" "http://www.w3.org/Graphics/SVG/1.1/DTD/svg11.dtd">
<svg version="1.1" id="Слой_1" xmlns="http://www.w3.org/2000/svg" xmlns:xlink="http://www.w3.org/1999/xlink" x="0px" y="0px"
	 width="36.688px" height="27.561px" viewBox="0 0 36.688 27.561" enable-background="new 0 0 36.688 27.561" xml:space="preserve">
<g>
	<path id="XMLID_430_" fill="#676767" stroke="#4E4E4E" stroke-width="0.5289" stroke-miterlimit="10" d="M9.096,20.717
		c0,0,5.385,0.273,5.141-5.115c-0.031-0.691-0.269-1.334-0.624-1.896l4.866-1.792l5.289,5.95l-3.482,5.754l-2.248,1.367l-2.072,0.96
		l-1.971-1.199l-2.116,0.219L9.096,20.717z"/>
	<g>
		<defs>
			<path id="XMLID_429_" d="M13.25,24.953l-1.372,0.108l-0.041-3.455c0.434-0.198,1.085-0.45,1.822-0.544
				c1.344-0.173,2.458-0.017,2.491,0.347c0.045,0.518-2.561,0.639-2.955,0.696"/>
		</defs>
		<use xlink:href="#XMLID_429_"  overflow="visible" fill="#4E4E4E"/>
		<clipPath id="XMLID_3_">
			<use xlink:href="#XMLID_429_"  overflow="visible"/>
		</clipPath>
		
			<rect x="12.644" y="18.962" clip-path="url(#XMLID_3_)" fill="#9A9999" stroke="#4E4E4E" stroke-width="0.2645" stroke-miterlimit="10" width="1.193" height="7.226"/>
		
			<rect x="14.481" y="18.614" clip-path="url(#XMLID_3_)" fill="#9A9999" stroke="#4E4E4E" stroke-width="0.2645" stroke-miterlimit="10" width="0.367" height="7.994"/>
		<use xlink:href="#XMLID_429_"  overflow="visible" fill="none" stroke="#4E4E4E" stroke-width="0.2645" stroke-miterlimit="10"/>
	</g>
	<g>
		<defs>
			<polygon id="XMLID_428_" points="7.038,4.608 26.059,0.27 36.217,1.948 35.294,4.728 23.768,14.231 7.921,7.341 			"/>
		</defs>
		<use xlink:href="#XMLID_428_"  overflow="visible" fill="#9A9999"/>
		<clipPath id="XMLID_4_">
			<use xlink:href="#XMLID_428_"  overflow="visible"/>
		</clipPath>
		<polygon clip-path="url(#XMLID_4_)" fill="#CDCCCC" points="7.412,10.677 10.632,12.987 42.938,-2.015 39.401,-4.575 		"/>
		<polygon clip-path="url(#XMLID_4_)" fill="#CDCCCC" points="-1.256,6.207 1.963,8.517 34.27,-6.485 30.732,-9.045 		"/>
		<use xlink:href="#XMLID_428_"  overflow="visible" fill="none" stroke="#4E4E4E" stroke-width="0.5289" stroke-miterlimit="10"/>
	</g>
	<polyline fill="#676767" stroke="#4E4E4E" stroke-width="0.5289" stroke-miterlimit="10" points="17.037,14.705 6.826,11.583 
		6.826,4.729 17.343,7.295 	"/>
	<g>
		<path fill="#CDCCCC" d="M17.006,7.292"/>
		<g>
			<path fill="none" stroke="#AAAAAA" stroke-width="0.7934" stroke-miterlimit="10" d="M17.006,7.292"/>
		</g>
	</g>
	<polyline fill="#9A9999" stroke="#4E4E4E" stroke-width="0.2645" stroke-miterlimit="10" points="17.043,27.41 13.445,25.708 
		13.403,22.28 17.537,23.534 	"/>
	<g>
		<g>
			<path fill="none" stroke="#AAAAAA" stroke-width="0.7934" stroke-miterlimit="10" d="M9.78,5.428"/>
		</g>
	</g>
	<polygon fill="#9A9999" stroke="#4E4E4E" stroke-width="0.2645" stroke-miterlimit="10" points="8.633,20.587 8.633,23.767 
		11.72,25.087 11.641,21.546 	"/>
	<g>
		<g>
			<defs>
				<path id="XMLID_427_" d="M17.105,14.687c1.651,0.074,3.338,1.702,3.396,4.119c0.061,2.467-1.387,4.05-3.37,4.624l0.02,3.74
					l19.269-7.771l-0.046-3.329c-3.317,0.592-6.069-0.314-6.632-2.422c-0.702-2.628,2.265-6.126,6.626-7.812
					c0.001-0.001,0.004-0.001,0.006-0.002V2.095l-19.27,5.15V14.687z"/>
			</defs>
			<use xlink:href="#XMLID_427_"  overflow="visible" fill="#9A9999"/>
			<clipPath id="XMLID_5_">
				<use xlink:href="#XMLID_427_"  overflow="visible"/>
			</clipPath>
			
				<rect x="25.436" y="-3.671" transform="matrix(-0.8148 -0.5798 0.5798 -0.8148 39.8049 44.8074)" clip-path="url(#XMLID_5_)" fill="#808081" width="3.248" height="39.432"/>
			
				<rect x="31.408" y="1.764" transform="matrix(-0.8149 -0.5796 0.5796 -0.8149 46.0491 57.6646)" clip-path="url(#XMLID_5_)" fill="#808081" width="1.647" height="39.432"/>
			<polygon clip-path="url(#XMLID_5_)" fill="#808081" points="7.217,25.196 13.167,28.965 36.024,-3.166 29.468,-7.347 			"/>
			<use xlink:href="#XMLID_427_"  overflow="visible" fill="none" stroke="#4E4E4E" stroke-width="0.5289" stroke-miterlimit="10"/>
		</g>
	</g>
	<path fill="#808081" stroke="#4E4E4E" stroke-width="0.5289" stroke-miterlimit="10" d="M13.454,8.777
		c-1.287,0.386-2.597,0.407-3.905,0.562C8.192,9.5,6.83,9.575,5.47,9.54C4.229,9.508,2.954,9.426,1.741,9.009
		C1.429,8.9,0.434,8.744,0.434,8.744c0.416,1.463,1.599,4.725,8.829,4.725c0,0,6.192-0.012,6.496-0.247l0.09-4.901
		C15.85,8.321,14.053,8.597,13.454,8.777z"/>
	<g>
		<g id="XMLID_425_">
			<path fill="#CDCCCC" d="M15.8,7.966c-0.599,0.267-1.225,0.461-1.85,0.629c-1.345,0.362-2.718,0.597-4.092,0.768
				C8.433,9.541,7,9.647,5.566,9.665C4.258,9.68,2.913,9.655,1.624,9.352C1.227,9.258,0.445,9.11,0.279,8.607
				c-0.18-0.546,0.677-0.951,0.985-1.104C2.39,6.942,7.939,6.164,7.939,6.164L15.8,7.966z"/>
			<g>
				<g>
					<path fill="#4E4D4D" d="M4.625,6.433c0,0-0.605,0.098-1.51,0.292C2.66,6.818,2.14,6.931,1.563,7.12
						c-0.3,0.099-0.577,0.209-0.851,0.387C0.451,7.685,0.113,7.88,0.005,8.356c-0.056,0.521,0.354,0.816,0.641,0.96
						c0.31,0.152,0.622,0.219,0.898,0.285c0.58,0.083,1.122,0.16,1.585,0.226C3.595,9.913,3.98,9.89,4.25,9.901
						c0.271,0.005,0.425,0.008,0.425,0.008s0.178,0,0.491,0c0.313,0.015,0.756-0.032,1.287-0.081
						c1.062-0.113,2.482-0.188,3.885-0.391c1.404-0.212,2.786-0.545,3.807-0.84c1-0.363,1.667-0.605,1.667-0.605
						s-0.68,0.212-1.699,0.53c-1.037,0.247-2.432,0.515-3.843,0.662C8.859,9.316,7.438,9.33,6.382,9.393
						c-0.529,0.03-0.97,0.044-1.278,0.017C4.796,9.396,4.62,9.388,4.62,9.388S4.469,9.385,4.204,9.38
						C3.939,9.376,3.558,9.382,3.117,9.3C2.672,9.235,2.153,9.16,1.598,9.079C1.321,9.015,1.05,8.946,0.827,8.825
						c-0.232-0.113-0.34-0.303-0.294-0.428C0.652,8.066,1.329,7.72,1.798,7.588c0.521-0.16,1.046-0.28,1.49-0.369
						c0.89-0.191,1.494-0.287,1.494-0.287s0.693-0.13,1.732-0.326c0.26-0.045,0.543-0.095,0.841-0.147
						c0.149-0.025,0.303-0.051,0.459-0.078l0.107-0.018c0.014-0.003,0.006-0.002,0.06,0.008l0.241,0.05
						C8.873,6.557,9.564,6.7,10.256,6.844c2.769,0.575,5.537,1.15,5.537,1.15s-2.756-0.706-5.511-1.411
						C9.593,6.407,8.904,6.23,8.258,6.065L8.013,6.002c-0.155-0.029-0.219,0.014-0.3,0.012c-0.159,0.02-0.315,0.039-0.467,0.057
						C6.942,6.111,6.655,6.148,6.39,6.182C5.332,6.333,4.625,6.433,4.625,6.433z"/>
				</g>
			</g>
		</g>
	</g>
</g>
</svg>
