<?xml version="1.0" encoding="utf-8"?>
<!-- Generator: Adobe Illustrator 16.0.0, SVG Export Plug-In . SVG Version: 6.00 Build 0)  -->
<!DOCTYPE svg PUBLIC "-//W3C//DTD SVG 1.1//EN" "http://www.w3.org/Graphics/SVG/1.1/DTD/svg11.dtd">
<svg version="1.1" id="Слой_1" xmlns="http://www.w3.org/2000/svg" xmlns:xlink="http://www.w3.org/1999/xlink" x="0px" y="0px"
	 width="25.793px" height="36.421px" viewBox="0 0 25.793 36.421" enable-background="new 0 0 25.793 36.421" xml:space="preserve">
<g>
	<g>
		<path fill-rule="evenodd" clip-rule="evenodd" fill="#EB5B28" d="M17.715,16.666c-0.377-0.018-0.734-0.078-1.08-0.139
			c-0.137-0.023-0.636-0.1-0.636-0.1l0.146-1.629l0.248,0.016c0.178,0.012,0.357,0.014,0.533,0.014
			c0.438,0.002,0.854,0.002,1.205,0.162c0.323,0.146,0.481,0.486,0.621,0.785c0.053,0.113,0.104,0.227,0.166,0.326l0.192,0.314
			l-0.362,0.07c-0.096,0.018-0.193,0.043-0.291,0.066c-0.221,0.057-0.451,0.113-0.685,0.113H17.715z"/>
		<path fill="#412413" d="M16.376,15.07c0.596,0.039,1.214-0.045,1.649,0.152c0.342,0.154,0.459,0.662,0.675,1.012
			c-0.31,0.061-0.627,0.178-0.928,0.178c-0.016,0-0.03-0.002-0.046-0.002c-0.512-0.021-1.008-0.135-1.452-0.199
			C16.309,15.832,16.338,15.501,16.376,15.07 M15.912,14.527l-0.044,0.496l-0.039,0.439l-0.063,0.701l-0.044,0.48l0.479,0.07
			c0.125,0.02,0.256,0.041,0.391,0.064c0.337,0.059,0.719,0.123,1.112,0.141h0.011l0.058,0.002c0.266,0,0.521-0.064,0.747-0.121
			c0.093-0.023,0.186-0.047,0.277-0.064l0.724-0.141l-0.386-0.627c-0.057-0.092-0.104-0.197-0.152-0.301
			c-0.15-0.322-0.337-0.725-0.745-0.91c-0.403-0.182-0.864-0.184-1.312-0.186c-0.17,0-0.344,0-0.516-0.012L15.912,14.527
			L15.912,14.527z"/>
	</g>
	<g>
		<g>
			<path fill="#055629" d="M14,5.246l-0.25,0.576c0,0-0.094-0.051-0.258-0.141c-0.169-0.084-0.398-0.221-0.632-0.445
				c-0.481-0.418-0.968-1.188-1.046-2.051c-0.09-0.857,0.198-1.717,0.627-2.227c0.204-0.262,0.43-0.42,0.585-0.533
				s0.265-0.143,0.261-0.148c0,0,0.053-0.023,0.15-0.068c0.095-0.055,0.249-0.092,0.444-0.139c0.382-0.09,0.986-0.137,1.616,0.137
				c0.643,0.227,1.27,0.928,1.321,1.785c0.115,0.84-0.495,1.814-1.409,1.951c-0.438,0.078-0.9-0.018-1.252-0.283
				c-0.34-0.271-0.539-0.705-0.496-1.113c0.033-0.4,0.266-0.783,0.613-0.924c0.332-0.158,0.723-0.111,0.969,0.078
				c0.278,0.164,0.359,0.488,0.327,0.723c-0.036,0.246-0.178,0.434-0.341,0.498c-0.326,0.139-0.521-0.014-0.519,0.014
				c-0.004-0.025,0.2,0.111,0.503-0.035c0.296-0.111,0.502-0.799-0.016-1.111C14.98,1.63,14.63,1.599,14.354,1.746
				c-0.292,0.131-0.473,0.449-0.491,0.791c-0.03,0.342,0.147,0.691,0.427,0.898c0.275,0.213,0.678,0.279,1.026,0.211
				c0.742-0.131,1.174-0.9,1.081-1.566c-0.045-0.682-0.555-1.182-1.034-1.363c-1.058-0.367-1.755,0.107-1.729,0.088
				c0,0-0.338,0.115-0.67,0.51c-0.337,0.367-0.595,1.076-0.527,1.771c0.054,0.703,0.446,1.334,0.837,1.676
				c0.189,0.186,0.376,0.299,0.517,0.365C13.924,5.203,14,5.246,14,5.246z"/>
		</g>
		<g>
			<g>
				<path fill="#0F9138" d="M14.229,12.382c-2.918-2.492-2.089-6.111-0.021-7.764c2.026-1.84,5.292-1.717,6.263-1.072
					c-1.845-0.061-4.601,1.119-5.642,3.195c-1.16,1.996-1.773,4.889,0.223,6.402C14.188,12.861,14.227,12.388,14.229,12.382z"/>
				<g>
					<path fill="#055629" d="M16.608,5.042c1.114-0.805,2.5-1.277,3.856-1.293l0.793-0.008l-0.674-0.363
						c-0.82-0.443-1.686-0.486-2.529-0.443c-0.428-0.008-0.841,0.109-1.261,0.164c-0.401,0.139-0.827,0.211-1.204,0.412
						c0,0-0.154,0.078-0.422,0.217c-0.285,0.107-0.6,0.414-1.014,0.713c-0.8,0.633-1.635,1.824-1.846,3.182
						c-0.241,1.357,0.192,2.734,0.783,3.545c0.133,0.215,0.283,0.389,0.42,0.541c0.129,0.158,0.253,0.285,0.365,0.381
						c0.215,0.197,0.338,0.311,0.338,0.311s-0.119-0.119-0.327-0.324c-0.109-0.1-0.228-0.232-0.351-0.396
						c-0.132-0.156-0.273-0.336-0.397-0.555c-0.558-0.83-0.915-2.199-0.624-3.494c0.26-1.307,1.107-2.393,1.9-2.957
						c0.402-0.277,0.716-0.537,0.989-0.629c0.257-0.119,0.403-0.188,0.403-0.188c0.354-0.168,0.746-0.254,1.122-0.369
						c0.392-0.053,0.778-0.156,1.175-0.148c0.775-0.047,1.624,0.031,2.254,0.377l0.119-0.373c-1.506,0.021-2.966,0.523-4.159,1.41
						c-0.651,0.486-1.196,1.119-1.584,1.832c-0.396,0.689-0.702,1.443-0.896,2.221c-0.178,0.777-0.263,1.598-0.082,2.387
						c0.152,0.795,0.63,1.51,1.236,2.027c0.023-0.039,0.048-0.078,0.077-0.135c-0.336-0.145-0.767-0.285-0.842-0.703l0.103,0.271
						l0.201,0.213c0.156,0.113,0.346,0.184,0.521,0.271l-0.002,0.006c-0.619-0.498-1.051-1.215-1.167-1.992
						c-0.146-0.773-0.024-1.57,0.178-2.32C14.529,7.343,15.332,5.906,16.608,5.042z"/>
				</g>
			</g>
			<g>
				<path fill="#3AAA35" d="M14.983,12.582c-2.918-2.492-2.089-6.111-0.02-7.764c2.025-1.842,5.291-1.719,6.263-1.072
					c-1.846-0.063-4.602,1.117-5.641,3.195c-1.161,1.996-2.703,4.449-0.707,5.963C14.016,12.621,14.98,12.585,14.983,12.582z"/>
				<g>
					<path fill="#055629" d="M17.688,5.027c1.056-0.66,2.299-1.078,3.531-1.078h0.827l-0.708-0.373
						c-0.855-0.449-1.76-0.502-2.641-0.439c-0.877,0.076-1.762,0.258-2.554,0.672c0,0-0.149,0.076-0.413,0.211
						c-0.242,0.162-0.577,0.422-0.965,0.738c-0.77,0.645-1.535,1.844-1.719,3.172c-0.225,1.334,0.244,2.672,0.817,3.465
						c0.278,0.404,0.56,0.711,0.773,0.898c0.211,0.195,0.331,0.305,0.331,0.305s-0.117-0.115-0.32-0.318
						c-0.207-0.197-0.477-0.514-0.736-0.93c-0.542-0.811-0.931-2.141-0.661-3.416c0.237-1.281,1.022-2.371,1.78-2.951
						c0.391-0.275,0.701-0.527,0.949-0.652c0.251-0.117,0.395-0.184,0.395-0.184c0.734-0.369,1.561-0.545,2.381-0.605
						c0.81-0.064,1.695,0.021,2.357,0.373l0.119-0.371C19.861,3.544,18.551,4,17.415,4.716c-0.668,0.459-1.296,1.021-1.71,1.729
						c-0.426,0.699-0.795,1.373-1.156,2.096c-0.345,0.717-0.654,1.479-0.705,2.295c-0.016,0.406,0.053,0.82,0.227,1.189
						c0.178,0.371,0.475,0.658,0.752,0.953c0.023-0.037,0.046-0.074,0.074-0.129c-0.119-0.029-0.346-0.119-0.331-0.146
						c0.106-0.07,0.258-0.068,0.438-0.109c-0.184,0.035-0.324,0.016-0.456,0.09c-0.046,0.051,0.065,0.104,0.121,0.131
						c0.068,0.035,0.141,0.059,0.215,0.08l-0.006,0.014c-0.302-0.262-0.58-0.557-0.737-0.924c-0.153-0.365-0.199-0.764-0.167-1.154
						c0.08-0.787,0.416-1.52,0.787-2.217C15.558,7.25,16.273,5.757,17.688,5.027z"/>
				</g>
			</g>
			<g>
				<path fill="#0F9138" d="M12.217,12.382c2.919-2.492,2.09-6.111,0.021-7.764c-2.026-1.84-5.292-1.717-6.263-1.072
					c1.845-0.061,4.601,1.119,5.641,3.195c1.161,1.996,2.135,4.648,0.138,6.162C12.619,12.621,12.221,12.388,12.217,12.382z"/>
				<g>
					<path fill="#055629" d="M9.783,4.519C8.649,3.802,7.34,3.347,5.969,3.345l0.119,0.371c0.668-0.352,1.559-0.439,2.373-0.371
						c0.824,0.066,1.656,0.24,2.391,0.619c0,0,0.143,0.066,0.394,0.182c0.239,0.137,0.556,0.379,0.939,0.66
						c0.749,0.582,1.518,1.676,1.745,2.947c0.261,1.268-0.137,2.582-0.676,3.383c-0.259,0.408-0.526,0.721-0.732,0.916
						c-0.203,0.199-0.318,0.314-0.318,0.314s0.121-0.111,0.333-0.305c0.216-0.188,0.498-0.492,0.776-0.9
						c0.581-0.791,1.037-2.135,0.813-3.473c-0.189-1.338-0.979-2.531-1.756-3.176c-0.403-0.305-0.72-0.596-0.985-0.73
						c-0.264-0.137-0.414-0.215-0.414-0.215c-0.785-0.385-1.65-0.572-2.516-0.629C7.592,2.884,6.704,2.931,5.863,3.378L5.165,3.748
						L5.982,3.75c1.271,0.004,2.554,0.445,3.632,1.143c1.351,0.793,2.139,2.244,2.756,3.686c0.292,0.729,0.488,1.508,0.437,2.289
						c-0.045,0.785-0.45,1.518-1.076,2.006l-0.298,0.234l0.339-0.15c0.138-0.061,0.279-0.109,0.406-0.199
						c0.056-0.043,0.139-0.104,0.152-0.186c0.027-0.08-0.031-0.166-0.096-0.203c0.063,0.041,0.113,0.127,0.084,0.201
						c-0.021,0.076-0.098,0.127-0.156,0.166c-0.127,0.08-0.27,0.119-0.407,0.172l-0.033,0.012l0.028-0.021
						c0.654-0.467,1.107-1.217,1.184-2.035c0.082-0.813-0.096-1.631-0.369-2.393c-0.276-0.77-0.631-1.486-1.063-2.189
						C11.093,5.558,10.458,4.99,9.783,4.519z"/>
				</g>
			</g>
			<g>
				<path fill="#3AAA35" d="M11.463,12.582c2.919-2.492,2.09-6.111,0.021-7.764C9.458,2.976,6.192,3.099,5.221,3.746
					c1.846-0.063,4.602,1.117,5.641,3.195c1.161,1.996,2.191,4.889,0.195,6.4C11.921,13.06,11.467,12.585,11.463,12.582z"/>
				<g>
					<path fill="#055629" d="M9.267,4.871C8.082,4.052,6.679,3.554,5.215,3.542l0.119,0.371c0.645-0.348,1.51-0.43,2.301-0.373
						c0.406-0.01,0.799,0.109,1.198,0.16C9.21,3.839,9.621,3.896,9.97,4.099c0,0,0.146,0.066,0.399,0.186
						c0.271,0.092,0.564,0.379,0.969,0.643c0.771,0.576,1.58,1.662,1.828,2.953c0.27,1.281-0.103,2.621-0.653,3.434
						c-0.122,0.215-0.265,0.391-0.394,0.545c-0.121,0.16-0.24,0.289-0.348,0.387c-0.205,0.203-0.323,0.318-0.323,0.318
						s0.123-0.111,0.338-0.309c0.112-0.094,0.236-0.219,0.365-0.377c0.138-0.15,0.286-0.324,0.42-0.537
						c0.592-0.805,1.026-2.176,0.788-3.529c-0.205-1.355-1.043-2.549-1.845-3.18c-0.411-0.307-0.729-0.605-1.015-0.717
						c-0.269-0.137-0.422-0.217-0.422-0.217C9.699,3.507,9.279,3.425,8.879,3.294c-0.418-0.055-0.83-0.17-1.254-0.162
						c-0.84-0.041-1.7,0.002-2.516,0.443L4.438,3.939l0.791,0.01C6.583,3.964,7.967,4.435,9.08,5.24
						c1.281,0.863,2.034,2.324,2.615,3.771c0.259,0.736,0.451,1.516,0.386,2.291c-0.042,0.779-0.431,1.52-1.05,2.006l-0.308,0.244
						l0.351-0.154c0.169-0.074,0.348-0.146,0.467-0.305c0.135-0.162,0.064-0.402-0.061-0.527c0.119,0.135,0.17,0.367,0.037,0.51
						c-0.119,0.143-0.295,0.203-0.459,0.273l-0.004-0.01c0.65-0.469,1.086-1.227,1.158-2.039c0.092-0.809-0.074-1.623-0.318-2.391
						c-0.257-0.766-0.593-1.508-1.001-2.203C10.518,5.968,9.91,5.378,9.267,4.871z"/>
				</g>
			</g>
			<g>
				<path fill="#0F9138" d="M14.398,18.968c-4.365-3.727-3.125-9.139-0.031-11.611c3.03-2.754,7.914-2.566,9.367-1.602
					c-2.76-0.094-6.881,1.67-8.438,4.777c-1.735,2.984-0.904,7.311,2.082,9.574C16.085,19.683,14.393,18.976,14.398,18.968z"/>
				<g>
					<path fill="#055629" d="M17.109,8.541c1.82-1.576,4.211-2.576,6.617-2.582l0.771-0.002l-0.651-0.371
						c-1.09-0.621-2.286-0.674-3.441-0.656c-1.168-0.004-2.313,0.275-3.416,0.641c0,0-0.062,0.021-0.178,0.061
						c-0.11,0.057-0.272,0.137-0.479,0.24c-0.205,0.104-0.455,0.23-0.741,0.373c-0.278,0.158-0.55,0.402-0.868,0.631
						c-1.303,0.869-2.668,2.648-3.079,4.713c-0.46,2.057,0.119,4.219,1.026,5.477c0.108,0.16,0.212,0.316,0.311,0.463
						c0.115,0.135,0.224,0.262,0.326,0.381c0.2,0.244,0.385,0.447,0.558,0.594c0.331,0.309,0.519,0.484,0.519,0.484
						s-0.185-0.182-0.51-0.498c-0.17-0.152-0.349-0.361-0.543-0.609c-0.211-0.236-0.418-0.527-0.615-0.861
						c-0.873-1.279-1.377-3.436-0.861-5.432c0.469-2.016,1.848-3.674,3.14-4.484c0.593-0.488,1.184-0.73,1.585-0.918
						c0.394-0.205,0.645-0.26,0.645-0.26c0.53-0.146,1.043-0.365,1.596-0.422l0.817-0.133l0.827-0.035
						c1.082-0.016,2.256,0.066,3.158,0.59l0.119-0.371c-2.587,0.012-5.055,1.07-6.98,2.748c0,0-0.179,0.195-0.488,0.537
						c-0.143,0.182-0.367,0.359-0.528,0.641c-0.169,0.271-0.358,0.58-0.566,0.916c-0.175,0.354-0.336,0.752-0.521,1.162
						c-0.139,0.43-0.214,0.904-0.329,1.383c-0.011,0.49-0.069,1-0.031,1.514c0.034,0.254,0.069,0.512,0.103,0.77l0.053,0.387
						l0.115,0.375c0.154,0.5,0.289,1.006,0.556,1.449c0.116,0.229,0.232,0.455,0.347,0.678c0.151,0.201,0.301,0.398,0.448,0.594
						c0.151,0.189,0.282,0.395,0.444,0.563c0.146,0.131,0.287,0.258,0.426,0.383c0.108,0.098,0.254,0.221,0.338,0.307
						c-0.142-0.047-0.279-0.094-0.41-0.137c-0.247-0.078-0.597-0.209-0.893-0.318c-0.293-0.111-0.549-0.209-0.76-0.289
						c-0.432-0.188-0.612-0.211-0.664-0.244c0.049-0.018,0.91,0.398,2.434,0.959c0.202,0.074,0.412,0.15,0.631,0.229
						c-0.164-0.154-0.334-0.314-0.508-0.48c-0.173-0.162-0.35-0.33-0.531-0.502c-0.148-0.176-0.278-0.377-0.423-0.57
						c-0.138-0.197-0.292-0.391-0.423-0.6c-0.106-0.223-0.215-0.449-0.324-0.678c-0.254-0.441-0.359-0.949-0.504-1.439
						c-0.165-0.486-0.141-1.012-0.221-1.506c0.001-0.5,0.04-0.996,0.088-1.467c0.131-0.457,0.193-0.92,0.364-1.32
						c0.194-0.391,0.343-0.777,0.539-1.102c0.207-0.318,0.397-0.611,0.565-0.869c0.186-0.246,0.391-0.426,0.535-0.59
						c0.152-0.162,0.271-0.287,0.353-0.373C17.053,8.572,17.113,8.542,17.109,8.541z"/>
				</g>
			</g>
			<g>
				<path fill="#3AAA35" d="M15.526,19.265c-4.365-3.729-3.125-9.141-0.03-11.611c3.029-2.754,7.913-2.568,9.365-1.604
					c-2.759-0.092-6.881,1.672-8.436,4.777c-1.736,2.986-0.905,7.313,2.08,9.574C17.213,19.98,15.521,19.271,15.526,19.265z"/>
				<g>
					<path fill="#055629" d="M18.238,8.835c1.818-1.574,4.21-2.574,6.616-2.582l0.771-0.002L24.974,5.88
						c-1.091-0.619-2.286-0.672-3.441-0.656c-1.168-0.002-2.312,0.277-3.415,0.643c0,0-0.063,0.021-0.179,0.061
						c-0.11,0.057-0.272,0.137-0.478,0.24c-0.206,0.104-0.455,0.229-0.742,0.373c-0.277,0.158-0.55,0.4-0.868,0.631
						c-1.302,0.869-2.668,2.648-3.079,4.713c-0.461,2.057,0.119,4.217,1.027,5.475c0.107,0.162,0.211,0.316,0.31,0.463
						c0.115,0.135,0.224,0.262,0.327,0.383c0.199,0.244,0.384,0.447,0.557,0.594c0.331,0.307,0.52,0.482,0.52,0.482
						s-0.186-0.182-0.51-0.498c-0.17-0.15-0.35-0.361-0.544-0.609c-0.21-0.236-0.417-0.525-0.614-0.861
						c-0.873-1.279-1.377-3.434-0.863-5.432c0.469-2.016,1.85-3.672,3.141-4.482c0.594-0.488,1.184-0.73,1.586-0.918
						c0.393-0.207,0.644-0.26,0.644-0.26c0.53-0.148,1.043-0.367,1.597-0.422l0.816-0.135l0.826-0.035
						c1.082-0.016,2.257,0.068,3.159,0.592l0.119-0.373c-2.587,0.012-5.055,1.072-6.981,2.75c0,0-0.178,0.195-0.487,0.537
						c-0.143,0.18-0.368,0.359-0.528,0.639c-0.169,0.273-0.359,0.582-0.566,0.918c-0.175,0.354-0.336,0.75-0.52,1.162
						c-0.139,0.428-0.215,0.904-0.33,1.381c-0.011,0.492-0.068,1.002-0.031,1.514c0.034,0.256,0.068,0.512,0.104,0.771l0.053,0.387
						l0.115,0.375c0.152,0.498,0.288,1.004,0.555,1.447c0.117,0.229,0.232,0.455,0.348,0.68c0.15,0.199,0.301,0.398,0.447,0.594
						c0.152,0.189,0.282,0.393,0.445,0.561c0.145,0.131,0.287,0.258,0.425,0.383c0.108,0.1,0.253,0.221,0.338,0.307
						c-0.142-0.047-0.278-0.092-0.409-0.137c-0.248-0.078-0.598-0.207-0.894-0.318c-0.293-0.111-0.549-0.209-0.759-0.289
						c-0.432-0.186-0.613-0.209-0.665-0.242c0.05-0.02,0.91,0.396,2.433,0.959c0.203,0.072,0.414,0.148,0.632,0.229
						c-0.164-0.156-0.334-0.316-0.508-0.48c-0.173-0.164-0.351-0.332-0.531-0.502c-0.149-0.178-0.278-0.379-0.423-0.572
						c-0.138-0.197-0.291-0.389-0.422-0.598c-0.107-0.225-0.216-0.451-0.326-0.678c-0.254-0.441-0.358-0.949-0.504-1.439
						c-0.164-0.488-0.14-1.012-0.219-1.506c0-0.5,0.039-0.996,0.088-1.467c0.131-0.459,0.193-0.92,0.363-1.32
						c0.194-0.391,0.343-0.777,0.539-1.104c0.207-0.318,0.396-0.609,0.565-0.867c0.185-0.246,0.39-0.426,0.535-0.592
						c0.151-0.16,0.271-0.287,0.353-0.373C18.18,8.867,18.241,8.839,18.238,8.835z"/>
				</g>
			</g>
			<g>
				<path fill="#0F9138" d="M11.389,18.968c4.365-3.727,3.125-9.139,0.031-11.611C8.389,4.603,3.506,4.791,2.053,5.755
					c2.76-0.094,6.881,1.67,8.437,4.777c1.735,2.984,0.905,7.311-2.081,9.574C9.701,19.683,11.395,18.976,11.389,18.968z"/>
				<g>
					<path fill="#055629" d="M8.948,8.24C7.039,6.593,4.6,5.564,2.047,5.552l0.119,0.371c0.916-0.527,2.107-0.615,3.206-0.588
						c1.124-0.004,2.226,0.27,3.284,0.617c0,0,0.06,0.02,0.172,0.055c0.106,0.051,0.263,0.125,0.461,0.221
						c0.199,0.094,0.441,0.209,0.718,0.34c0.271,0.145,0.535,0.375,0.847,0.588c1.279,0.814,2.619,2.482,3.068,4.48
						c0.49,1.984-0.021,4.111-0.891,5.373c-0.104,0.162-0.202,0.316-0.297,0.465c-0.11,0.135-0.215,0.264-0.314,0.385
						c-0.192,0.246-0.371,0.451-0.54,0.602c-0.321,0.313-0.506,0.492-0.506,0.492s0.19-0.176,0.521-0.484
						c0.174-0.145,0.358-0.35,0.56-0.592c0.217-0.232,0.432-0.516,0.638-0.846c0.91-1.258,1.487-3.424,1.017-5.486
						c-0.418-2.072-1.809-3.84-3.117-4.713c-0.323-0.225-0.584-0.49-0.881-0.621C9.824,6.064,9.574,5.937,9.367,5.832
						C8.961,5.607,8.702,5.542,8.702,5.542C8.15,5.388,7.614,5.162,7.041,5.103L6.192,4.964L5.333,4.927
						C4.194,4.921,3.016,4.97,1.941,5.585L1.294,5.955l0.767,0.004C4.499,5.964,6.917,6.996,8.75,8.601c0,0,0.172,0.182,0.475,0.502
						c0.139,0.168,0.359,0.334,0.518,0.598c0.166,0.256,0.354,0.547,0.56,0.863c0.174,0.334,0.335,0.711,0.522,1.102
						c0.141,0.406,0.222,0.857,0.345,1.314c0.019,0.471,0.087,0.961,0.062,1.457l-0.084,0.748l-0.041,0.377L11,15.927
						c-0.139,0.488-0.258,0.984-0.51,1.422c-0.108,0.227-0.217,0.449-0.323,0.67c-0.144,0.199-0.286,0.396-0.425,0.59
						c-0.145,0.189-0.268,0.393-0.424,0.561c-0.196,0.184-0.389,0.365-0.575,0.541c-0.194,0.188-0.438,0.398-0.561,0.535
						c0.251-0.09,0.493-0.178,0.727-0.262c0.483-0.17,0.795-0.295,1.084-0.41c0.291-0.117,0.544-0.221,0.753-0.305
						c0.414-0.15,0.676-0.324,0.66-0.314c0,0-0.06,0.035-0.172,0.098c-0.127,0.064-0.285,0.115-0.498,0.201
						c-0.412,0.16-1.053,0.404-1.739,0.633c-0.159,0.053-0.326,0.107-0.498,0.164c0.144-0.129,0.292-0.262,0.445-0.398
						c0.154-0.139,0.313-0.281,0.476-0.426c0.156-0.174,0.292-0.373,0.443-0.564c0.145-0.197,0.307-0.389,0.445-0.598
						c0.115-0.223,0.231-0.451,0.349-0.678c0.271-0.445,0.393-0.957,0.554-1.455c0.182-0.494,0.174-1.031,0.268-1.539
						c0.014-0.514-0.012-1.027-0.051-1.518c-0.119-0.477-0.176-0.963-0.341-1.383c-0.188-0.412-0.335-0.82-0.53-1.164
						C10.35,9.99,10.159,9.679,9.99,9.404C9.804,9.142,9.596,8.949,9.447,8.771C9.293,8.597,9.17,8.46,9.088,8.369
						C9.006,8.273,8.945,8.244,8.948,8.24z"/>
				</g>
			</g>
			<g>
				<path fill="#3AAA35" d="M10.261,19.265c4.364-3.729,3.124-9.141,0.03-11.611C7.262,4.9,2.377,5.085,0.926,6.05
					c2.759-0.092,6.881,1.672,8.436,4.777c1.736,2.986,0.905,7.313-2.081,9.574C8.574,19.98,10.266,19.271,10.261,19.265z"/>
				<g>
					<path fill="#055629" d="M7.82,8.537C5.911,6.89,3.472,5.859,0.918,5.847L1.037,6.22c0.917-0.529,2.109-0.615,3.207-0.588
						C5.367,5.628,6.47,5.9,7.527,6.25c0,0,0.06,0.018,0.172,0.055C7.806,6.355,7.962,6.429,8.16,6.523
						c0.199,0.096,0.441,0.209,0.718,0.342c0.271,0.145,0.535,0.373,0.847,0.588c1.279,0.814,2.62,2.48,3.07,4.48
						c0.49,1.984-0.023,4.109-0.893,5.371c-0.103,0.162-0.201,0.318-0.295,0.465c-0.111,0.135-0.217,0.264-0.315,0.385
						c-0.192,0.246-0.371,0.451-0.54,0.602c-0.322,0.313-0.506,0.492-0.506,0.492s0.189-0.176,0.521-0.482
						c0.174-0.146,0.357-0.35,0.559-0.594c0.218-0.23,0.432-0.516,0.639-0.846c0.91-1.258,1.487-3.424,1.017-5.486
						C12.563,9.767,11.172,8,9.863,7.128c-0.604-0.521-1.209-0.793-1.625-1C7.832,5.902,7.573,5.839,7.573,5.839
						C7.021,5.683,6.485,5.458,5.912,5.4L5.063,5.261L4.205,5.224C3.066,5.218,1.888,5.267,0.813,5.88L0.166,6.251l0.766,0.002
						c2.439,0.008,4.857,1.039,6.691,2.645c0,0,0.172,0.182,0.474,0.5c0.139,0.17,0.36,0.334,0.518,0.598
						c0.167,0.258,0.354,0.549,0.56,0.865c0.174,0.334,0.336,0.709,0.523,1.1c0.141,0.408,0.221,0.859,0.344,1.316
						c0.019,0.471,0.088,0.961,0.062,1.455l-0.084,0.748l-0.042,0.379l-0.104,0.365c-0.139,0.488-0.259,0.984-0.51,1.422
						c-0.109,0.225-0.217,0.449-0.324,0.67c-0.144,0.199-0.285,0.395-0.426,0.588c-0.145,0.189-0.268,0.395-0.423,0.563
						c-0.196,0.184-0.389,0.363-0.575,0.539c-0.195,0.188-0.438,0.4-0.561,0.537c0.252-0.092,0.494-0.178,0.727-0.262
						c0.484-0.17,0.795-0.295,1.084-0.41c0.291-0.119,0.545-0.221,0.754-0.307c0.412-0.152,0.675-0.32,0.66-0.313
						c0,0-0.06,0.033-0.172,0.098c-0.128,0.063-0.285,0.115-0.499,0.201c-0.411,0.158-1.053,0.404-1.739,0.633
						c-0.16,0.053-0.326,0.107-0.498,0.164c0.144-0.129,0.292-0.262,0.445-0.398c0.154-0.139,0.313-0.281,0.476-0.426
						c0.155-0.176,0.292-0.375,0.443-0.566c0.146-0.195,0.306-0.387,0.444-0.596c0.115-0.225,0.232-0.451,0.35-0.68
						c0.271-0.443,0.393-0.955,0.555-1.453c0.18-0.496,0.172-1.031,0.267-1.539c0.014-0.514-0.013-1.027-0.05-1.518
						c-0.12-0.479-0.176-0.963-0.342-1.383c-0.188-0.412-0.334-0.82-0.529-1.164c-0.207-0.34-0.398-0.648-0.566-0.924
						C8.676,9.439,8.469,9.244,8.32,9.066c-0.155-0.172-0.277-0.309-0.36-0.4C7.879,8.57,7.817,8.541,7.82,8.537z"/>
				</g>
			</g>
			<g>
				<path fill="#0F9138" d="M14.398,23.058c-4.365-3.729-3.125-9.141-0.031-11.613c3.03-2.754,7.914-2.566,9.367-1.602
					c-2.76-0.094-6.881,1.672-8.438,4.777c-1.735,2.984-0.904,7.313,2.082,9.574C16.085,23.773,14.393,23.066,14.398,23.058z"/>
				<g>
					<path fill="#055629" d="M17.109,12.628c1.82-1.574,4.211-2.576,6.617-2.582l0.771-0.002l-0.651-0.371
						c-1.09-0.619-2.286-0.672-3.441-0.656c-1.168-0.004-2.313,0.275-3.415,0.641c0,0-0.063,0.021-0.179,0.063
						c-0.11,0.055-0.271,0.135-0.479,0.238c-0.205,0.104-0.455,0.23-0.74,0.375c-0.279,0.156-0.551,0.4-0.869,0.629
						c-1.303,0.869-2.668,2.648-3.079,4.713c-0.46,2.059,0.119,4.219,1.026,5.477c0.108,0.162,0.212,0.316,0.311,0.463
						c0.115,0.135,0.224,0.262,0.326,0.383c0.2,0.244,0.385,0.447,0.558,0.594c0.331,0.307,0.519,0.482,0.519,0.482
						s-0.185-0.182-0.51-0.498c-0.17-0.152-0.349-0.361-0.543-0.609c-0.211-0.236-0.418-0.525-0.615-0.861
						c-0.873-1.279-1.377-3.434-0.861-5.432c0.469-2.016,1.849-3.672,3.14-4.484c0.594-0.488,1.184-0.73,1.585-0.918
						c0.394-0.205,0.645-0.26,0.645-0.26c0.53-0.146,1.043-0.365,1.596-0.42l0.818-0.135l0.826-0.035
						c1.082-0.016,2.256,0.066,3.158,0.59L23.74,9.64c-2.587,0.012-5.055,1.072-6.98,2.75c0,0-0.179,0.193-0.488,0.537
						c-0.143,0.18-0.367,0.359-0.529,0.639c-0.168,0.273-0.357,0.58-0.565,0.918c-0.175,0.352-0.336,0.75-0.521,1.162
						c-0.139,0.428-0.214,0.904-0.329,1.381c-0.011,0.492-0.069,1.002-0.031,1.514c0.034,0.256,0.069,0.512,0.104,0.771l0.052,0.387
						l0.115,0.375c0.154,0.498,0.289,1.004,0.556,1.449c0.116,0.227,0.232,0.453,0.347,0.678c0.151,0.199,0.301,0.398,0.448,0.594
						c0.152,0.189,0.282,0.393,0.444,0.561c0.146,0.131,0.287,0.258,0.426,0.383c0.108,0.1,0.254,0.221,0.338,0.307
						c-0.142-0.047-0.279-0.092-0.41-0.137c-0.247-0.078-0.597-0.207-0.893-0.318c-0.293-0.111-0.549-0.209-0.76-0.289
						c-0.433-0.184-0.611-0.213-0.664-0.242c0.05,0.025,0.229,0.064,0.662,0.262c0.429,0.178,0.99,0.414,1.771,0.697
						c0.201,0.072,0.412,0.148,0.631,0.229c-0.164-0.156-0.334-0.316-0.508-0.48c-0.173-0.164-0.35-0.332-0.531-0.502
						c-0.148-0.178-0.278-0.379-0.422-0.572c-0.139-0.197-0.292-0.389-0.424-0.598c-0.106-0.225-0.215-0.451-0.324-0.678
						c-0.254-0.441-0.359-0.949-0.504-1.439c-0.165-0.488-0.141-1.012-0.221-1.506c0.001-0.5,0.04-0.996,0.088-1.469
						c0.131-0.457,0.193-0.918,0.364-1.318c0.194-0.391,0.343-0.777,0.539-1.104c0.207-0.318,0.397-0.609,0.565-0.869
						c0.186-0.244,0.39-0.424,0.535-0.59c0.152-0.16,0.271-0.287,0.352-0.373C17.053,12.66,17.113,12.632,17.109,12.628z"/>
				</g>
			</g>
			<g>
				<path fill="#3AAA35" d="M12.893,15.904c0.394-1.666,1.346-3.158,2.604-4.162c3.029-2.754,7.913-2.566,9.365-1.604
					c-2.759-0.092-6.881,1.674-8.436,4.777c-1.736,2.986-0.905,7.313,2.08,9.574c-1.293-0.422-2.984-1.129-2.979-1.137"/>
				<g>
					<path fill="#055629" d="M16.529,15.177c0.734-1.521,2.031-2.699,3.504-3.516c1.475-0.811,3.148-1.332,4.821-1.318l0.938,0.006
						l-0.818-0.381L24.285,9.65c-0.234-0.08-0.475-0.119-0.712-0.18c0,0-0.863-0.205-2.156-0.125
						c-1.279,0.066-3.026,0.375-4.509,1.273c-0.396,0.172-0.699,0.496-1.047,0.732c-0.348,0.24-0.646,0.529-0.928,0.816
						c-0.141,0.143-0.293,0.27-0.414,0.42c-0.113,0.156-0.225,0.309-0.334,0.457c-0.222,0.293-0.425,0.574-0.551,0.871
						c-0.143,0.287-0.273,0.549-0.389,0.781c-0.078,0.248-0.145,0.465-0.201,0.643c-0.11,0.355-0.174,0.559-0.174,0.559
						s0.07-0.203,0.191-0.557c0.062-0.176,0.135-0.391,0.221-0.637c0.123-0.229,0.262-0.486,0.413-0.768
						c0.134-0.293,0.349-0.564,0.576-0.852c0.112-0.143,0.227-0.291,0.344-0.443c0.13-0.139,0.282-0.266,0.427-0.402
						c0.286-0.277,0.593-0.549,0.943-0.777c0.354-0.221,0.653-0.537,1.057-0.684c1.483-0.828,3.205-1.084,4.453-1.094
						c1.264-0.031,2.068,0.201,2.068,0.201c0.205,0.057,0.429,0.08,0.619,0.162l0.565,0.26l0.119-0.371
						c-1.794-0.012-3.526,0.539-5.067,1.391c-1.536,0.855-2.901,2.121-3.668,3.74c0,0-0.087,0.199-0.239,0.549
						c-0.19,0.334-0.28,0.877-0.423,1.514c-0.194,1.283-0.045,3.068,0.726,4.617c0.354,0.785,0.89,1.475,1.441,2.051
						c0.107,0.096,0.213,0.189,0.316,0.281c0.075,0.072,0.249,0.205,0.251,0.236c-0.246-0.08-0.478-0.156-0.691-0.227
						c-0.595-0.223-1.091-0.41-1.438-0.539c-0.356-0.154-0.496-0.158-0.55-0.197c0.05,0.033,0.19,0.049,0.546,0.215
						c0.346,0.141,0.84,0.342,1.433,0.584c0.341,0.125,0.71,0.262,1.101,0.404c-0.178-0.201-0.604-0.58-0.895-0.865
						c-0.525-0.588-1.025-1.285-1.348-2.066c-0.703-1.543-0.778-3.283-0.539-4.502c0.076-0.303,0.146-0.58,0.207-0.826
						c0.053-0.248,0.189-0.436,0.254-0.604C16.44,15.365,16.529,15.177,16.529,15.177z"/>
				</g>
			</g>
			<g>
				<path fill="#0F9138" d="M11.389,23.058c4.365-3.729,3.125-9.141,0.031-11.613C8.389,8.691,3.506,8.878,2.053,9.843
					c2.76-0.094,6.881,1.672,8.437,4.777c1.735,2.984,0.905,7.313-2.081,9.574C9.701,23.773,11.395,23.066,11.389,23.058z"/>
				<g>
					<path fill="#055629" d="M8.948,12.33C7.039,10.683,4.6,9.652,2.047,9.64l0.119,0.373c0.916-0.529,2.107-0.615,3.206-0.59
						c1.123-0.004,2.226,0.27,3.283,0.617c0,0,0.06,0.02,0.173,0.055c0.106,0.051,0.262,0.125,0.461,0.221
						c0.199,0.094,0.44,0.209,0.718,0.34c0.271,0.145,0.535,0.375,0.847,0.588c1.279,0.814,2.619,2.482,3.068,4.482
						c0.49,1.982-0.021,4.109-0.891,5.371c-0.104,0.162-0.202,0.318-0.297,0.465c-0.11,0.135-0.215,0.264-0.314,0.385
						c-0.192,0.246-0.371,0.451-0.54,0.602c-0.321,0.313-0.506,0.492-0.506,0.492s0.189-0.176,0.521-0.482
						c0.174-0.146,0.358-0.352,0.56-0.594c0.217-0.23,0.432-0.516,0.638-0.846c0.91-1.258,1.487-3.424,1.017-5.486
						c-0.418-2.072-1.809-3.84-3.117-4.713c-0.604-0.521-1.21-0.793-1.625-0.998C8.96,9.695,8.702,9.63,8.702,9.63
						C8.15,9.476,7.614,9.25,7.041,9.191L6.192,9.052L5.333,9.015C4.194,9.009,3.016,9.058,1.941,9.673l-0.647,0.371l0.767,0.002
						c2.438,0.008,4.856,1.039,6.689,2.643c0,0,0.172,0.184,0.475,0.502c0.139,0.17,0.359,0.334,0.518,0.598
						c0.166,0.258,0.354,0.547,0.561,0.863c0.173,0.334,0.334,0.711,0.521,1.102c0.141,0.406,0.222,0.859,0.345,1.314
						c0.019,0.471,0.087,0.961,0.062,1.457l-0.084,0.748l-0.041,0.377L11,20.017c-0.139,0.486-0.258,0.984-0.51,1.422
						c-0.108,0.225-0.217,0.449-0.323,0.67c-0.144,0.199-0.286,0.395-0.425,0.588c-0.145,0.189-0.268,0.393-0.424,0.561
						c-0.196,0.186-0.389,0.365-0.575,0.541c-0.194,0.188-0.438,0.4-0.561,0.537c0.251-0.09,0.493-0.178,0.727-0.262
						c0.484-0.17,0.795-0.295,1.084-0.41c0.291-0.119,0.544-0.221,0.753-0.307c0.414-0.15,0.676-0.32,0.661-0.313
						c0,0-0.06,0.033-0.173,0.098c-0.127,0.063-0.285,0.115-0.498,0.201c-0.412,0.158-1.053,0.404-1.739,0.633
						c-0.159,0.053-0.326,0.107-0.498,0.164c0.144-0.129,0.292-0.262,0.444-0.398c0.155-0.139,0.314-0.281,0.477-0.426
						c0.156-0.176,0.292-0.375,0.443-0.566c0.145-0.195,0.307-0.387,0.445-0.596c0.115-0.225,0.231-0.451,0.349-0.68
						c0.271-0.443,0.393-0.955,0.554-1.455c0.182-0.494,0.174-1.029,0.268-1.537c0.014-0.514-0.012-1.027-0.05-1.518
						c-0.12-0.479-0.177-0.963-0.341-1.385c-0.189-0.41-0.336-0.818-0.53-1.164c-0.208-0.338-0.398-0.648-0.567-0.922
						c-0.187-0.262-0.395-0.457-0.543-0.635c-0.154-0.174-0.276-0.309-0.359-0.402C9.006,12.363,8.945,12.332,8.948,12.33z"/>
				</g>
			</g>
			<g>
				<path fill="#3AAA35" d="M12.894,15.904c-0.394-1.666-1.345-3.158-2.603-4.162c-3.029-2.754-7.914-2.566-9.365-1.604
					c2.759-0.092,6.881,1.674,8.436,4.777c1.736,2.986,0.905,7.313-2.081,9.574c1.294-0.422,2.985-1.129,2.98-1.137"/>
				<g>
					<path fill="#055629" d="M9.618,14.994c-0.773-1.602-2.142-2.844-3.667-3.688c-1.533-0.84-3.252-1.383-5.033-1.371l0.12,0.373
						l0.599-0.273c0.211-0.072,0.441-0.109,0.661-0.166c0,0,0.805-0.215,2.059-0.172c1.237,0.029,2.948,0.283,4.412,1.119
						c0.392,0.158,0.693,0.467,1.04,0.688c0.349,0.227,0.646,0.504,0.932,0.775c0.141,0.139,0.295,0.26,0.418,0.402
						c0.115,0.15,0.229,0.297,0.339,0.441c0.227,0.281,0.435,0.553,0.566,0.844c0.148,0.279,0.284,0.535,0.405,0.762
						c0.083,0.242,0.156,0.455,0.215,0.629c0.12,0.352,0.188,0.551,0.188,0.551s-0.063-0.203-0.173-0.559
						c-0.055-0.178-0.121-0.395-0.198-0.643c-0.115-0.234-0.245-0.496-0.388-0.783c-0.125-0.299-0.332-0.578-0.552-0.873
						c-0.108-0.148-0.219-0.303-0.333-0.459c-0.126-0.146-0.275-0.277-0.416-0.42c-0.279-0.289-0.582-0.576-0.93-0.818
						c-0.35-0.236-0.648-0.568-1.052-0.732C7.342,9.724,5.589,9.404,4.3,9.351C3,9.275,2.133,9.492,2.133,9.49
						c-0.224,0.063-0.452,0.086-0.67,0.18L0.813,9.97L0,10.347l0.932-0.006c1.687-0.012,3.374,0.518,4.855,1.34
						c1.482,0.828,2.774,2.031,3.501,3.568c0,0,0.088,0.186,0.241,0.514c0.193,0.314,0.286,0.824,0.44,1.426
						c0.216,1.215,0.124,2.938-0.585,4.463c-0.322,0.771-0.826,1.457-1.352,2.035c-0.185,0.174-0.366,0.346-0.544,0.514
						l-0.269,0.252l-0.13,0.123c-0.026,0.029-0.135,0.109-0.03,0.061c0.442-0.16,0.861-0.313,1.247-0.451
						c0.591-0.24,1.082-0.439,1.427-0.578c0.342-0.125,0.561-0.281,0.545-0.266c0.012-0.01-0.208,0.135-0.555,0.25
						c-0.35,0.129-0.85,0.314-1.449,0.537c-0.264,0.086-0.549,0.18-0.85,0.279c0.057-0.07,0.234-0.213,0.341-0.313
						c0.124-0.109,0.25-0.223,0.378-0.336c0.553-0.578,1.086-1.271,1.442-2.059c0.771-1.555,0.914-3.35,0.705-4.637
						c-0.069-0.32-0.134-0.615-0.19-0.875c-0.049-0.264-0.182-0.463-0.244-0.643C9.705,15.195,9.618,14.994,9.618,14.994z"/>
				</g>
			</g>
		</g>
		<ellipse fill-rule="evenodd" clip-rule="evenodd" fill="#010202" cx="14.313" cy="25.701" rx="7.331" ry="9.348"/>
		<g>
			<g>
				<path fill-rule="evenodd" clip-rule="evenodd" fill="#EB5B28" d="M11.148,27.796c-0.355,0-0.685-0.217-1.037-0.68
					c-0.326-0.43-0.658-0.857-1-1.299l-0.814-1.051l0.719,0.061c0.25-0.264,0.484-0.549,0.717-0.826
					c0.323-0.391,0.629-0.758,0.961-1.064c0.143-0.133,0.429-0.143,0.514-0.143c0.18,0,0.311,0.035,0.391,0.107
					c0.344,0.311,0.664,0.682,1.004,1.076c0.246,0.285,0.497,0.578,0.766,0.852L14,24.705l-0.052,0.301
					c-0.012,0.123-0.019,0.203-0.081,0.273l-0.591,0.652c-0.372,0.408-0.743,0.816-1.097,1.234
					C11.816,27.595,11.489,27.794,11.148,27.796z"/>
				<path fill="#412413" d="M11.207,23.003c0.109,0,0.209,0.018,0.25,0.055c0.611,0.549,1.172,1.334,1.841,2
					c0.052-0.01,0.236-0.047,0.444-0.088c-0.016,0.088-0.006,0.141-0.031,0.168c-0.563,0.631-1.148,1.25-1.691,1.893
					c-0.313,0.369-0.594,0.555-0.871,0.555c-0.285,0-0.566-0.197-0.869-0.596c-0.491-0.645-0.992-1.283-1.525-1.975
					c0.188,0.016,0.347,0.029,0.347,0.029s0,0-0.003,0c0.619-0.637,1.152-1.412,1.737-1.953
					C10.896,23.035,11.06,23.003,11.207,23.003 M11.207,22.585c-0.166,0-0.471,0.025-0.657,0.197
					c-0.342,0.316-0.665,0.707-0.979,1.084c-0.208,0.25-0.421,0.506-0.64,0.744l-0.143-0.014l-0.949-0.08l0.524,0.68l-0.18,0.186
					l0.348,0.031l0.413,0.533c0.342,0.441,0.674,0.867,1,1.297c0.39,0.512,0.783,0.762,1.203,0.762c0.402,0,0.791-0.23,1.191-0.705
					c0.352-0.416,0.722-0.822,1.092-1.229c0.198-0.217,0.396-0.436,0.592-0.654c0.11-0.123,0.121-0.264,0.127-0.33l0.103-0.602
					l-0.593,0.072l-0.221,0.045c-0.234-0.246-0.461-0.508-0.68-0.764c-0.344-0.398-0.668-0.775-1.022-1.094
					C11.616,22.638,11.443,22.585,11.207,22.585L11.207,22.585z"/>
			</g>
			<g>
				<path fill-rule="evenodd" clip-rule="evenodd" fill="#EB5B28" d="M16.926,27.791c-0.304,0-0.598-0.152-0.85-0.441
					c-0.437-0.502-0.861-1.01-1.309-1.545l-0.961-1.146l0.911,0.166l2.21-2.191l2.521,2.549l-0.512,0.666
					c-0.354,0.463-0.75,0.98-1.164,1.486C17.527,27.632,17.234,27.791,16.926,27.791z"/>
				<path fill="#412413" d="M16.927,22.929c0.797,0.805,1.502,1.518,2.244,2.27c-0.442,0.57-0.982,1.299-1.56,2.002
					c-0.209,0.254-0.446,0.381-0.686,0.381c-0.238,0-0.477-0.125-0.691-0.371c-0.621-0.713-1.22-1.441-1.892-2.24
					c0.253,0.045,0.435,0.078,0.444,0.08C15.502,24.343,16.154,23.695,16.927,22.929 M16.93,22.335l-0.299,0.295l-1.1,1.092
					l-0.884,0.877l-0.229-0.043l-1.147-0.211l0.751,0.895l0.585,0.697c0.448,0.537,0.874,1.047,1.312,1.549
					c0.371,0.426,0.752,0.516,1.008,0.516c0.26,0,0.647-0.094,1.01-0.535c0.416-0.508,0.813-1.027,1.168-1.492l0.398-0.52
					l0.226-0.289l-0.259-0.262l-2.244-2.27L16.93,22.335L16.93,22.335z"/>
			</g>
			<g>
				<path fill-rule="evenodd" clip-rule="evenodd" fill="#EB5B28" d="M14.047,30.404c-0.321,0-0.633-0.137-0.9-0.393
					c-0.418-0.402-0.83-0.809-1.26-1.234l-1.084-1.066c0,0,0.907,0.145,0.985,0.156c0.263-0.27,0.519-0.604,0.767-0.928
					c0.322-0.422,0.655-0.857,1.01-1.16c0.092-0.078,0.244-0.117,0.453-0.117c0.094,0,0.414,0.012,0.57,0.156
					c0.291,0.268,0.547,0.656,0.795,1.033c0.223,0.336,0.451,0.684,0.687,0.91c0.048,0.047,0.212,0.074,0.331,0.096
					c0.084,0.014,0.166,0.029,0.238,0.049l0.35,0.096l-0.78,0.775c-0.405,0.404-0.821,0.82-1.249,1.229
					C14.686,30.265,14.37,30.404,14.047,30.404z"/>
				<path fill="#412413" d="M14.018,25.871c0.172,0,0.358,0.035,0.429,0.102c0.528,0.486,0.962,1.441,1.478,1.941
					c0.137,0.131,0.447,0.135,0.66,0.193c-0.565,0.559-1.156,1.16-1.77,1.746c-0.238,0.227-0.504,0.34-0.768,0.34
					c-0.262,0-0.523-0.111-0.755-0.334c-0.613-0.588-1.211-1.188-1.873-1.838c0.249,0.039,0.432,0.068,0.442,0.07
					c0.646-0.631,1.209-1.615,1.84-2.152C13.755,25.892,13.881,25.871,14.018,25.871 M14.018,25.453
					c-0.26,0-0.458,0.057-0.589,0.168c-0.372,0.316-0.712,0.76-1.04,1.189c-0.221,0.289-0.447,0.586-0.677,0.832
					c-0.063-0.01-0.142-0.021-0.227-0.035l-1.298-0.209l0.938,0.922l0.615,0.607c0.43,0.426,0.842,0.832,1.262,1.234
					c0.307,0.295,0.668,0.451,1.045,0.451c0.378,0,0.744-0.158,1.057-0.457c0.429-0.408,0.847-0.826,1.253-1.23l0.522-0.52
					l0.516-0.51l-0.699-0.193c-0.079-0.021-0.168-0.037-0.259-0.053c-0.077-0.014-0.205-0.035-0.243-0.057
					c-0.196-0.193-0.42-0.531-0.635-0.859c-0.256-0.387-0.52-0.785-0.828-1.07C14.531,25.48,14.197,25.453,14.018,25.453
					L14.018,25.453z"/>
			</g>
			<g>
				<path fill-rule="evenodd" clip-rule="evenodd" fill="#EB5B28" d="M14.055,24.72c-0.328,0-0.648-0.164-0.951-0.486
					c-0.402-0.428-0.796-0.863-1.168-1.275l-0.653-0.717l0.415-0.26c0.155-0.094,0.318-0.193,0.467-0.307
					c0.182-0.141,0.359-0.287,0.537-0.432c0.293-0.24,0.588-0.482,0.902-0.701c0.147-0.104,0.373-0.115,0.463-0.115
					c0.113,0,0.271,0.018,0.384,0.094c0.348,0.238,0.671,0.502,0.995,0.766c0.15,0.123,0.302,0.246,0.455,0.367
					c0.146,0.115,0.301,0.223,0.454,0.332l0.404,0.289l-0.61,0.682c-0.355,0.396-0.743,0.83-1.136,1.262
					C14.71,24.552,14.388,24.72,14.055,24.72z"/>
				<path fill="#412413" d="M14.066,20.638c0.107,0,0.21,0.018,0.266,0.055c0.506,0.348,0.961,0.75,1.439,1.125
					c0.217,0.17,0.448,0.326,0.676,0.49c-0.464,0.516-1.021,1.145-1.59,1.77c-0.262,0.289-0.531,0.434-0.803,0.434
					c-0.268,0-0.535-0.141-0.799-0.42c-0.581-0.619-1.143-1.25-1.65-1.807c0.213-0.137,0.467-0.273,0.686-0.443
					c0.482-0.371,0.93-0.777,1.432-1.127C13.795,20.666,13.935,20.638,14.066,20.638 M14.066,20.218
					c-0.137,0-0.394,0.02-0.584,0.152c-0.322,0.225-0.623,0.473-0.914,0.711c-0.176,0.145-0.352,0.289-0.533,0.428
					c-0.141,0.109-0.297,0.203-0.445,0.293c-0.072,0.043-0.143,0.086-0.209,0.127l-0.422,0.27l0.337,0.367l0.483,0.533
					c0.373,0.414,0.768,0.85,1.171,1.279c0.345,0.365,0.716,0.551,1.104,0.551c0.395,0,0.77-0.191,1.113-0.568
					c0.393-0.434,0.781-0.867,1.138-1.266l0.453-0.506l0.312-0.348l-0.378-0.273l-0.218-0.154c-0.15-0.107-0.301-0.213-0.444-0.326
					c-0.153-0.119-0.303-0.242-0.453-0.363c-0.32-0.262-0.651-0.531-1.009-0.777C14.443,20.261,14.274,20.218,14.066,20.218
					L14.066,20.218z"/>
			</g>
			<g>
				<path fill-rule="evenodd" clip-rule="evenodd" fill="#EB5B28" d="M19.207,30.404c-0.29,0-0.569-0.168-0.828-0.496
					c-0.303-0.383-0.598-0.77-0.898-1.164l-0.694-0.906l0.733,0.039l2.061-2.242l1.955,2.643l-0.496,0.561
					c-0.326,0.373-0.686,0.781-1.064,1.174C19.723,30.271,19.465,30.404,19.207,30.404z"/>
				<path fill="#412413" d="M19.563,25.962c0.607,0.822,1.127,1.523,1.703,2.303c-0.42,0.469-0.91,1.049-1.442,1.602
					c-0.212,0.219-0.417,0.328-0.616,0.328c-0.227,0-0.446-0.141-0.664-0.418c-0.438-0.557-0.862-1.119-1.313-1.705
					c0.135,0.008,0.314,0.018,0.376,0.02C18.246,27.396,18.845,26.744,19.563,25.962 M19.597,25.306l-0.344,0.373l-1.821,1.982
					l-0.143-0.008l-0.911-0.049l0.521,0.723l0.414,0.543c0.303,0.395,0.599,0.781,0.901,1.166c0.301,0.383,0.636,0.576,0.993,0.576
					c0.316,0,0.625-0.152,0.918-0.455c0.385-0.398,0.75-0.814,1.072-1.182c0.132-0.152,0.26-0.297,0.381-0.432l0.227-0.256
					l-0.203-0.273l-1.027-1.389l-0.676-0.912L19.597,25.306L19.597,25.306z"/>
			</g>
			<g>
				<path fill-rule="evenodd" clip-rule="evenodd" fill="#EB5B28" d="M8.865,30.404c-0.256,0-0.504-0.125-0.737-0.369
					c-0.382-0.398-0.739-0.813-1.075-1.203l-0.518-0.594l1.945-2.572l2.076,2.191l0.611-0.068l-0.048,0.275
					c-0.011,0.109-0.017,0.189-0.077,0.26l-0.6,0.707c-0.261,0.307-0.521,0.613-0.778,0.924C9.417,30.251,9.148,30.404,8.865,30.404
					z"/>
				<path fill="#412413" d="M8.499,25.99c0.692,0.73,1.308,1.381,1.978,2.088c0.051-0.006,0.236-0.025,0.438-0.049
					c-0.014,0.078-0.006,0.129-0.031,0.158c-0.457,0.547-0.926,1.086-1.379,1.633c-0.205,0.246-0.42,0.375-0.639,0.375
					c-0.193,0-0.39-0.1-0.586-0.305c-0.535-0.561-1.023-1.15-1.475-1.662C7.373,27.478,7.881,26.806,8.499,25.99 M8.463,25.341
					l-0.299,0.395l-1.086,1.438l-0.607,0.801l-0.207,0.273l0.227,0.258c0.131,0.148,0.266,0.305,0.403,0.465
					c0.343,0.396,0.696,0.807,1.083,1.209c0.275,0.289,0.574,0.434,0.889,0.434c0.348,0,0.672-0.176,0.961-0.525
					c0.256-0.309,0.517-0.615,0.777-0.922c0.201-0.234,0.402-0.471,0.602-0.709c0.102-0.119,0.112-0.254,0.117-0.32l0.096-0.551
					l-0.552,0.027c-0.081,0.008-0.161,0.018-0.229,0.025l-1.834-1.938L8.463,25.341L8.463,25.341z"/>
			</g>
			<g>
				<path fill-rule="evenodd" clip-rule="evenodd" fill="#EB5B28" d="M8.537,24.71c-0.316,0-0.605-0.207-0.859-0.617
					c-0.248-0.402-0.482-0.809-0.699-1.184l-0.348-0.598l0.271-0.301c0.118-0.135,0.225-0.258,0.349-0.365
					c0.338-0.293,0.686-0.58,1.031-0.867l0.544-0.453l1.503,1.352l0.709,0.615l-1.635,1.906C9.108,24.544,8.825,24.71,8.537,24.71z"
					/>
				<path fill="#412413" d="M8.82,20.603c0.456,0.41,0.91,0.82,1.368,1.23c0.179,0.16,0.362,0.314,0.554,0.48
					c-0.471,0.549-0.986,1.146-1.5,1.75c-0.248,0.291-0.482,0.438-0.705,0.438c-0.24,0-0.467-0.172-0.682-0.52
					c-0.354-0.572-0.682-1.158-0.965-1.643c0.188-0.205,0.324-0.385,0.497-0.533C7.856,21.398,8.342,21.003,8.82,20.603
					 M8.83,20.048l-0.278,0.234l-0.403,0.334C7.8,20.906,7.452,21.193,7.112,21.49c-0.139,0.119-0.251,0.248-0.369,0.385
					c-0.05,0.059-0.104,0.119-0.161,0.182l-0.21,0.229l0.157,0.268l0.268,0.461c0.217,0.377,0.453,0.785,0.702,1.189
					c0.295,0.477,0.644,0.719,1.038,0.719c0.354,0,0.688-0.191,1.024-0.586c0.339-0.398,0.679-0.793,1.006-1.174l0.493-0.574
					l0.271-0.318l-0.315-0.271l-0.177-0.152c-0.127-0.109-0.25-0.217-0.372-0.324l-0.874-0.785l-0.493-0.443L8.83,20.048
					L8.83,20.048z"/>
			</g>
			<g>
				<path fill-rule="evenodd" clip-rule="evenodd" fill="#EB5B28" d="M19.54,24.712c-0.278,0-0.553-0.15-0.795-0.434l-1.754-2.053
					l0.192-0.133c0.062-0.041,0.125-0.08,0.188-0.121c0.125-0.076,0.243-0.15,0.327-0.234c0.139-0.139,0.27-0.283,0.4-0.428
					c0.217-0.24,0.434-0.48,0.686-0.691c0.086-0.074,0.227-0.111,0.416-0.111c0.082,0,0.364,0.01,0.52,0.135
					c0.293,0.238,0.555,0.504,0.816,0.77c0.139,0.143,0.279,0.283,0.424,0.422c0.068,0.064,0.164,0.123,0.264,0.182l0.316,0.203
					l-0.434,0.723c-0.249,0.418-0.505,0.846-0.777,1.268C20.062,24.625,19.752,24.712,19.54,24.712z"/>
				<path fill="#412413" d="M19.201,20.716c0.151,0,0.316,0.031,0.387,0.09c0.445,0.361,0.816,0.787,1.229,1.18
					c0.123,0.117,0.292,0.199,0.44,0.297c-0.353,0.582-0.71,1.205-1.103,1.813c-0.176,0.273-0.391,0.408-0.614,0.408
					c-0.212,0-0.431-0.121-0.636-0.359c-0.561-0.656-1.119-1.313-1.602-1.877c0.186-0.127,0.396-0.232,0.545-0.381
					c0.366-0.365,0.675-0.773,1.072-1.107C18.969,20.736,19.081,20.716,19.201,20.716 M19.201,20.296
					c-0.24,0-0.426,0.055-0.553,0.162c-0.265,0.223-0.488,0.471-0.705,0.711c-0.128,0.143-0.256,0.283-0.392,0.42
					c-0.068,0.066-0.176,0.135-0.29,0.205c-0.066,0.041-0.133,0.082-0.196,0.127l-0.385,0.264l0.303,0.354l0.259,0.303l1.344,1.574
					c0.357,0.418,0.717,0.506,0.954,0.506c0.374,0,0.717-0.213,0.967-0.6c0.273-0.424,0.53-0.854,0.78-1.273l0.328-0.549l0.21-0.346
					l-0.338-0.221c-0.05-0.033-0.103-0.066-0.154-0.098c-0.091-0.053-0.175-0.105-0.228-0.154c-0.143-0.137-0.281-0.275-0.42-0.416
					c-0.26-0.266-0.528-0.537-0.833-0.785C19.656,20.322,19.36,20.296,19.201,20.296L19.201,20.296z"/>
			</g>
			<g>
				<path fill-rule="evenodd" clip-rule="evenodd" fill="#EB5B28" d="M21.625,27.74c-0.281,0-0.583-0.277-0.707-0.475
					c-0.328-0.521-0.633-1.055-0.895-1.512l-0.316-0.551l1.971-2.656l0.552,0.863c0.363,0.566,0.683,1.063,0.981,1.566
					c0.087,0.143,0.072,0.344-0.047,0.598c-0.282,0.609-0.535,1.152-0.83,1.672c-0.111,0.197-0.412,0.49-0.703,0.494H21.625z"/>
				<path fill="#412413" d="M21.664,22.917c0.531,0.832,0.967,1.492,1.367,2.166c0.062,0.102,0.001,0.277-0.057,0.4
					c-0.26,0.559-0.517,1.119-0.823,1.658c-0.097,0.172-0.343,0.387-0.524,0.389c0,0-0.001,0-0.002,0
					c-0.18,0-0.425-0.211-0.53-0.377c-0.437-0.695-0.831-1.408-1.138-1.936C20.495,24.492,21.012,23.796,21.664,22.917
					 M21.691,22.177l-0.363,0.49l-0.194,0.262l-1.514,2.039l-0.164,0.221l0.138,0.238l0.248,0.43
					c0.266,0.467,0.566,0.994,0.898,1.52c0.145,0.23,0.5,0.574,0.885,0.574c0.407-0.006,0.762-0.371,0.892-0.602
					c0.3-0.527,0.554-1.074,0.8-1.605l0.039-0.082c0.148-0.32,0.16-0.588,0.035-0.795c-0.3-0.504-0.619-1.002-0.984-1.57
					l-0.389-0.605L21.691,22.177L21.691,22.177z"/>
			</g>
			<g>
				<path fill-rule="evenodd" clip-rule="evenodd" fill="#EB5B28" d="M6.467,27.732c-0.291-0.004-0.602-0.279-0.714-0.479
					c-0.297-0.525-0.634-1.152-0.887-1.818c-0.1-0.264,0.077-0.559,0.22-0.795c0.261-0.436,0.508-0.813,0.785-1.238l0.527-0.816
					l0.559,0.701c0.252,0.314,0.459,0.572,0.656,0.836c0.153,0.203,0.295,0.412,0.457,0.65l0.305,0.447L8.08,25.716
					c-0.27,0.457-0.59,1-0.934,1.533c-0.105,0.168-0.385,0.482-0.678,0.482H6.467z"/>
				<path fill="#412413" d="M6.416,22.945c0.438,0.551,0.743,0.922,1.029,1.303c0.221,0.293,0.416,0.596,0.681,0.98
					c-0.306,0.512-0.712,1.219-1.155,1.908c-0.105,0.166-0.332,0.387-0.502,0.387H6.468c-0.184-0.002-0.438-0.205-0.532-0.373
					c-0.329-0.582-0.641-1.176-0.873-1.789c-0.069-0.182,0.109-0.455,0.233-0.662C5.623,24.152,5.982,23.621,6.416,22.945
					 M6.381,22.226l-0.317,0.492l-0.368,0.568c-0.279,0.428-0.527,0.809-0.759,1.195l-0.029,0.049
					c-0.157,0.262-0.373,0.621-0.237,0.979c0.258,0.68,0.6,1.314,0.9,1.848c0.137,0.24,0.504,0.58,0.893,0.584
					c0.389,0,0.723-0.363,0.861-0.578c0.345-0.537,0.673-1.094,0.938-1.539l0.225-0.381l0.138-0.23L8.471,24.99l-0.227-0.334
					c-0.164-0.24-0.308-0.453-0.463-0.66c-0.199-0.264-0.407-0.523-0.66-0.84l-0.377-0.471L6.381,22.226L6.381,22.226z"/>
			</g>
			<g>
				<path fill-rule="evenodd" clip-rule="evenodd" fill="#EB5B28" d="M16.52,32.55c-0.303,0-0.586-0.154-0.948-0.518
					c-0.291-0.291-0.593-0.574-0.87-0.834l-0.525-0.496c0,0,0.525-0.4,0.698-0.527c0.394-0.291,0.8-0.592,1.153-0.924
					c0.301-0.283,0.563-0.414,0.822-0.414c0.288,0,0.555,0.166,0.814,0.506c0.31,0.404,0.561,0.701,0.813,0.963
					c0.024,0.021,0.136,0.051,0.209,0.07c0.072,0.018,0.149,0.039,0.227,0.066l0.346,0.119l-0.734,0.631
					c-0.374,0.322-0.742,0.639-1.121,0.949C17.061,32.423,16.788,32.55,16.52,32.55z"/>
				<path fill="#412413" d="M16.85,29.046c0.225,0,0.432,0.141,0.648,0.424c0.258,0.338,0.528,0.67,0.828,0.98
					c0.094,0.098,0.303,0.115,0.518,0.189c-0.532,0.455-1.045,0.906-1.574,1.34c-0.291,0.24-0.525,0.359-0.75,0.359
					c-0.254,0-0.497-0.15-0.8-0.455c-0.419-0.42-0.862-0.822-1.222-1.164c0.539-0.418,1.156-0.828,1.674-1.316
					C16.424,29.166,16.645,29.046,16.85,29.046 M16.85,28.628L16.85,28.628c-0.316,0-0.624,0.148-0.966,0.471
					c-0.344,0.324-0.745,0.621-1.134,0.908c-0.174,0.127-0.346,0.254-0.51,0.381l-0.386,0.299l0.354,0.336l0.348,0.328
					c0.276,0.258,0.577,0.541,0.866,0.83c0.286,0.285,0.64,0.578,1.097,0.578c0.411,0,0.76-0.244,1.018-0.455
					c0.377-0.311,0.748-0.629,1.122-0.953l0.457-0.393l0.556-0.475l-0.69-0.24c-0.083-0.027-0.165-0.051-0.242-0.07
					c-0.054-0.014-0.128-0.033-0.15-0.045c-0.208-0.225-0.454-0.516-0.759-0.914C17.528,28.82,17.207,28.628,16.85,28.628
					L16.85,28.628z"/>
			</g>
			<g>
				<path fill-rule="evenodd" clip-rule="evenodd" fill="#EB5B28" d="M11.575,32.558c-0.325,0-0.628-0.205-1.042-0.561
					c-0.102-0.086-0.199-0.176-0.298-0.266c-0.132-0.121-0.265-0.242-0.405-0.354c-0.156-0.127-0.324-0.242-0.473-0.344L8.98,30.767
					c0,0,0.457-0.443,0.598-0.576c0.314-0.299,0.612-0.58,0.875-0.889c0.178-0.205,0.452-0.48,0.803-0.48
					c0.253,0,0.495,0.133,0.762,0.416c0.315,0.336,0.699,0.672,1.206,1.057c0.052,0.039,0.196,0.055,0.312,0.068
					c0.08,0.01,0.16,0.02,0.234,0.035l0.396,0.082l-0.729,0.676c-0.293,0.271-0.576,0.531-0.848,0.801
					C12.203,32.337,11.913,32.558,11.575,32.558z"/>
				<path fill="#412413" d="M11.256,29.033c0.188,0,0.385,0.109,0.609,0.35c0.366,0.389,0.793,0.746,1.232,1.078
					c0.143,0.109,0.412,0.098,0.629,0.143c-0.452,0.424-0.879,0.805-1.283,1.203c-0.367,0.361-0.611,0.543-0.868,0.543
					c-0.249,0-0.51-0.17-0.905-0.51c-0.24-0.205-0.461-0.426-0.709-0.625c-0.225-0.182-0.473-0.342-0.655-0.473
					c0.442-0.436,0.915-0.844,1.308-1.303C10.838,29.177,11.041,29.033,11.256,29.033 M11.256,28.613L11.256,28.613
					c-0.438,0-0.758,0.316-0.961,0.555c-0.257,0.299-0.551,0.576-0.861,0.871c-0.142,0.133-0.283,0.268-0.422,0.404l-0.355,0.352
					l0.406,0.289l0.176,0.123c0.145,0.1,0.309,0.211,0.46,0.334c0.138,0.111,0.267,0.229,0.396,0.346
					c0.1,0.092,0.2,0.184,0.304,0.271c0.45,0.387,0.787,0.609,1.178,0.609c0.452,0,0.808-0.313,1.162-0.662
					c0.271-0.266,0.551-0.525,0.843-0.795l0.434-0.4l0.59-0.553l-0.792-0.164c-0.08-0.018-0.166-0.027-0.252-0.037
					c-0.075-0.01-0.188-0.023-0.224-0.039c-0.483-0.367-0.858-0.695-1.165-1.021C11.865,28.771,11.566,28.613,11.256,28.613
					L11.256,28.613z"/>
			</g>
			<g>
				<path fill-rule="evenodd" clip-rule="evenodd" fill="#EB5B28" d="M16.836,21.962c-0.28,0-0.566-0.135-0.877-0.41
					c-0.41-0.365-0.809-0.742-1.168-1.08l-0.618-0.58c0,0,0.734-0.523,0.883-0.635l0.338-0.262c0.271-0.211,0.54-0.42,0.837-0.6
					c0.073-0.045,0.172-0.066,0.291-0.066c0.154,0,0.375,0.041,0.519,0.133c0.27,0.174,0.521,0.365,0.772,0.559
					c0.172,0.131,0.344,0.262,0.521,0.387c0.107,0.078,0.234,0.133,0.362,0.191l0.202,0.096l0.238,0.119l-1.354,1.6
					C17.471,21.783,17.16,21.962,16.836,21.962z"/>
				<path fill="#412413" d="M16.521,18.539c0.142,0,0.313,0.041,0.406,0.1c0.449,0.291,0.85,0.635,1.285,0.941
					c0.174,0.123,0.392,0.201,0.592,0.303c-0.363,0.428-0.771,0.912-1.182,1.396c-0.268,0.314-0.521,0.475-0.787,0.475
					c-0.229,0-0.47-0.119-0.736-0.357c-0.583-0.52-1.141-1.059-1.597-1.482c0.218-0.158,0.451-0.32,0.678-0.488
					c0.384-0.287,0.743-0.6,1.157-0.85C16.381,18.55,16.447,18.539,16.521,18.539 M16.521,18.121c-0.158,0-0.293,0.031-0.399,0.096
					c-0.312,0.188-0.589,0.404-0.857,0.615c-0.11,0.086-0.222,0.174-0.335,0.258c-0.146,0.109-0.297,0.217-0.443,0.32l-0.229,0.162
					l-0.415,0.299l0.374,0.35l0.431,0.404c0.36,0.34,0.761,0.717,1.173,1.084c0.35,0.313,0.682,0.463,1.016,0.463
					c0.39,0,0.752-0.203,1.107-0.623l0.797-0.941l0.385-0.455l0.344-0.406l-0.476-0.238c-0.069-0.035-0.14-0.066-0.21-0.1
					c-0.125-0.057-0.242-0.109-0.328-0.17c-0.177-0.125-0.346-0.254-0.516-0.385c-0.249-0.189-0.507-0.387-0.785-0.566
					C16.962,18.164,16.693,18.121,16.521,18.121L16.521,18.121z"/>
			</g>
			<g>
				<path fill-rule="evenodd" clip-rule="evenodd" fill="#EB5B28" d="M11.242,21.96c-0.315,0-0.619-0.168-0.901-0.498
					c-0.301-0.352-0.595-0.705-0.867-1.035l-0.444-0.535c0,0,0.348-0.25,0.427-0.305c0.146-0.1,0.277-0.188,0.386-0.295
					c0.607-0.594,1.135-0.871,1.659-0.871c0.559,0,1.09,0.314,1.671,0.99c0.061,0.07,0.207,0.129,0.336,0.18
					c0.078,0.031,0.154,0.061,0.221,0.094L14,19.822l-0.719,0.666c-0.393,0.363-0.809,0.752-1.242,1.125
					C11.771,21.843,11.504,21.96,11.242,21.96z"/>
				<path fill="#412413" d="M11.501,18.63c0.501,0,0.985,0.307,1.512,0.918c0.136,0.158,0.423,0.225,0.622,0.324
					c-0.527,0.482-1.112,1.047-1.732,1.582c-0.23,0.199-0.449,0.297-0.66,0.297c-0.256,0-0.501-0.145-0.742-0.426
					c-0.416-0.484-0.818-0.977-1.168-1.396c0.252-0.184,0.482-0.316,0.656-0.486C10.541,18.902,11.029,18.63,11.501,18.63
					 M11.501,18.21L11.501,18.21c-0.583,0-1.157,0.297-1.806,0.932c-0.091,0.09-0.215,0.174-0.357,0.271
					c-0.082,0.057-0.166,0.113-0.254,0.178l-0.359,0.264l0.285,0.344l0.303,0.363c0.272,0.33,0.567,0.686,0.869,1.037
					c0.324,0.379,0.682,0.57,1.061,0.57c0.313,0,0.628-0.133,0.934-0.396c0.436-0.377,0.854-0.766,1.248-1.133
					c0.17-0.158,0.334-0.311,0.494-0.457l0.449-0.412L13.823,19.5c-0.073-0.037-0.155-0.07-0.238-0.104s-0.222-0.088-0.255-0.121
					C12.707,18.55,12.125,18.21,11.501,18.21L11.501,18.21z"/>
			</g>
			<g>
				<path fill-rule="evenodd" clip-rule="evenodd" fill="#EB5B28" d="M14.055,19.679c-0.303,0-0.604-0.131-0.896-0.387l-1.49-1.32
					l0.451-0.316c0.174-0.121,0.348-0.242,0.517-0.367c0.592-0.438,0.998-0.615,1.401-0.615c0.489,0,0.939,0.27,1.464,0.674
					c0.139,0.107,0.289,0.203,0.449,0.307l0.474,0.313L15.85,18.48c-0.295,0.264-0.615,0.553-0.939,0.836
					C14.636,19.556,14.348,19.679,14.055,19.679z"/>
				<path fill="#412413" d="M14.038,16.882c0.396,0,0.79,0.209,1.337,0.631c0.212,0.164,0.451,0.305,0.708,0.477
					c-0.388,0.346-0.846,0.76-1.312,1.168c-0.24,0.211-0.479,0.311-0.717,0.311c-0.256,0-0.509-0.115-0.758-0.332
					c-0.452-0.398-0.9-0.799-1.291-1.145c0.252-0.178,0.509-0.352,0.756-0.535C13.279,17.076,13.659,16.882,14.038,16.882
					 M14.039,16.462L14.039,16.462c-0.561,0-1.065,0.316-1.527,0.658c-0.167,0.123-0.34,0.244-0.512,0.363l-0.235,0.164
					l-0.433,0.307l0.396,0.352l0.396,0.352c0.286,0.254,0.591,0.523,0.897,0.793c0.331,0.291,0.679,0.438,1.033,0.438
					c0.346,0,0.68-0.139,0.994-0.414c0.324-0.285,0.645-0.572,0.941-0.838l0.372-0.334l0.404-0.359l-0.45-0.301
					c-0.086-0.059-0.171-0.113-0.252-0.164c-0.154-0.1-0.3-0.193-0.434-0.297C15.072,16.75,14.588,16.462,14.039,16.462
					L14.039,16.462z"/>
			</g>
			<g>
				<path fill-rule="evenodd" clip-rule="evenodd" fill="#EB5B28" d="M14.035,34.218c-0.301,0-0.6-0.121-0.885-0.359
					c-0.279-0.234-0.584-0.447-0.866-0.646l-0.55-0.395l0.819-0.777c0.56-0.533,1.042-0.781,1.519-0.781
					c0.505,0,0.992,0.279,1.533,0.881c0.137,0.152,0.184,0.346,0.211,0.529l0.17-0.131l0.264,0.326l-0.697,0.588l-0.011-0.041
					c-0.208,0.16-0.417,0.32-0.628,0.477C14.613,34.111,14.326,34.218,14.035,34.218z"/>
				<path fill="#412413" d="M14.072,31.468c0.449,0,0.888,0.268,1.377,0.813c0.173,0.193,0.155,0.506,0.217,0.77
					c-0.291,0.227-0.581,0.449-0.877,0.67c-0.254,0.188-0.504,0.289-0.754,0.289c-0.248,0-0.496-0.1-0.75-0.313
					c-0.402-0.336-0.854-0.629-1.224-0.898c0.231-0.219,0.435-0.412,0.637-0.605C13.203,31.712,13.643,31.468,14.072,31.468
					 M16.114,32.705c-0.147,0.125-0.294,0.25-0.442,0.373c-0.002-0.008-0.004-0.018-0.006-0.027
					C15.814,32.935,15.965,32.82,16.114,32.705 M14.072,31.05L14.072,31.05c-0.533,0-1.062,0.266-1.663,0.838l-0.636,0.605
					l-0.367,0.346l0.408,0.297c0.111,0.08,0.229,0.164,0.35,0.248c0.285,0.201,0.581,0.408,0.852,0.635
					c0.324,0.271,0.668,0.41,1.02,0.41c0.333,0,0.67-0.125,1.004-0.373c0.123-0.092,0.244-0.184,0.366-0.275l0.007,0.031l0.53-0.414
					l0.442-0.373l-0.373-0.463c-0.035-0.188-0.097-0.391-0.25-0.561C15.178,31.351,14.641,31.05,14.072,31.05L14.072,31.05z"/>
			</g>
			<g>
				<path fill-rule="evenodd" clip-rule="evenodd" fill="#EB5B28" d="M7.392,32.433c-0.105,0-0.188-0.016-0.257-0.049
					c-0.801-0.398-1.266-0.906-1.384-1.514c-0.123-0.631,0.141-1.318,0.784-2.043l0.141-0.158l2.193,2.012l-0.22,0.439
					c-0.159,0.33-0.34,0.701-0.578,1.061C7.951,32.365,7.59,32.433,7.392,32.433z"/>
				<path fill="#412413" d="M6.691,28.968c0.631,0.578,1.254,1.15,1.918,1.76c-0.188,0.365-0.404,0.873-0.713,1.336
					c-0.059,0.09-0.314,0.16-0.505,0.16c-0.066,0-0.124-0.01-0.163-0.029C5.714,31.445,5.515,30.294,6.691,28.968 M6.66,28.371
					l-0.282,0.318c-0.688,0.775-0.969,1.523-0.833,2.223c0.131,0.674,0.635,1.232,1.496,1.66c0.098,0.047,0.213,0.07,0.351,0.07
					c0.025,0,0.63-0.004,0.855-0.348c0.245-0.367,0.437-0.764,0.591-1.082c0.051-0.105,0.099-0.205,0.145-0.295l0.146-0.283
					l-0.235-0.217l-0.296-0.271l-1.622-1.488L6.66,28.371L6.66,28.371z"/>
			</g>
			<g>
				<path fill-rule="evenodd" clip-rule="evenodd" fill="#EB5B28" d="M20.749,32.437c-0.214,0-0.603-0.123-0.747-0.322
					c-0.232-0.324-0.408-0.666-0.563-0.969l-0.23-0.434l0.381-0.379c0.216-0.215,0.43-0.428,0.649-0.635
					c0.221-0.209,0.448-0.41,0.676-0.615l0.446-0.4l0.141,0.137c0.657,0.633,0.957,1.346,0.846,2.006
					c-0.111,0.648-0.613,1.209-1.413,1.576l-0.042,0.018L20.749,32.437z"/>
				<path fill="#412413" d="M21.357,28.97c1.242,1.199,1.021,2.537-0.51,3.24c-0.025,0.012-0.06,0.018-0.099,0.018
					c-0.186,0-0.491-0.117-0.577-0.236c-0.305-0.422-0.513-0.893-0.703-1.242c0.309-0.305,0.604-0.607,0.914-0.898
					C20.699,29.552,21.029,29.265,21.357,28.97 M21.367,28.398l-0.291,0.262l-0.301,0.268c-0.229,0.205-0.458,0.41-0.68,0.619
					c-0.223,0.207-0.437,0.422-0.654,0.639l-0.268,0.268l-0.224,0.221l0.151,0.277c0.049,0.09,0.098,0.188,0.151,0.291
					c0.157,0.309,0.337,0.66,0.579,0.996c0.193,0.266,0.656,0.408,0.917,0.408c0.102,0,0.194-0.018,0.273-0.055
					c0.865-0.396,1.409-1.012,1.531-1.73c0.124-0.73-0.197-1.51-0.905-2.191L21.367,28.398L21.367,28.398z"/>
			</g>
			<g>
				<path fill-rule="evenodd" clip-rule="evenodd" fill="#EB5B28" d="M21.061,21.628c-0.248-0.191-0.496-0.383-0.73-0.586
					c-0.272-0.236-0.531-0.484-0.756-0.699l-0.385-0.363l1.455-1.906c0,0,0.504,0.441,0.664,0.578
					c0.4,0.342,0.779,0.664,1.096,1.025c0.216,0.246,0.098,0.68-0.039,1.002c-0.122,0.287-0.289,0.557-0.452,0.82
					c-0.068,0.109-0.323,0.541-0.323,0.541L21.061,21.628z"/>
				<path fill="#412413" d="M20.674,18.38c0.592,0.525,1.143,0.943,1.572,1.436c0.141,0.16,0.031,0.535-0.073,0.779
					c-0.167,0.393-0.425,0.756-0.644,1.131c-0.354-0.279-0.723-0.549-1.062-0.842c-0.377-0.326-0.728-0.674-0.997-0.928
					C19.855,19.455,20.225,18.97,20.674,18.38 M20.613,17.767l-0.273,0.359l-0.747,0.98l-0.455,0.596l-0.229,0.301l0.276,0.26
					l0.244,0.232c0.228,0.217,0.489,0.467,0.765,0.705c0.237,0.207,0.488,0.4,0.74,0.594c0.112,0.086,0.225,0.174,0.336,0.262
					l0.38,0.299l0.243-0.418c0.064-0.109,0.131-0.219,0.199-0.328c0.166-0.268,0.338-0.547,0.467-0.85
					c0.16-0.375,0.291-0.893,0.002-1.221c-0.324-0.373-0.709-0.701-1.116-1.047c-0.159-0.135-0.324-0.275-0.492-0.426L20.613,17.767
					L20.613,17.767z"/>
			</g>
			<g>
				<path fill-rule="evenodd" clip-rule="evenodd" fill="#EB5B28" d="M6.548,21.908c-0.298-0.002-0.517-0.455-0.558-0.545
					c-0.637-1.426-0.316-2.145,1.376-3.074l0.155-0.086l1.365,1.73l-0.466,0.496c-0.335,0.359-0.708,0.76-1.101,1.145
					c-0.166,0.16-0.477,0.334-0.77,0.334H6.548z"/>
				<path fill="#412413" d="M7.467,18.472c0.377,0.477,0.753,0.953,1.144,1.449c-0.413,0.436-0.905,0.982-1.437,1.502
					c-0.148,0.145-0.412,0.275-0.623,0.275c0,0-0.001,0-0.002,0c-0.125-0.002-0.293-0.258-0.367-0.422
					C5.592,19.955,5.867,19.351,7.467,18.472 M7.576,17.933l-0.311,0.17c-1.542,0.848-2.232,1.633-1.467,3.346
					c0.09,0.199,0.344,0.668,0.748,0.668c0.357,0,0.718-0.197,0.919-0.393c0.398-0.389,0.776-0.795,1.108-1.15l0.341-0.365
					l0.249-0.262l-0.225-0.285L8.37,18.939l-0.573-0.727L7.576,17.933L7.576,17.933z"/>
			</g>
			<g>
				<path fill-rule="evenodd" clip-rule="evenodd" fill="#EB5B28" d="M22.664,24.066c-0.384-0.561-0.746-1.09-1.047-1.65
					c-0.12-0.221,0.062-0.451,0.237-0.676c0.067-0.086,0.138-0.172,0.181-0.252c0.113-0.209,0.216-0.42,0.318-0.631l0.234-0.475
					l0.188,0.092c0.654,0.324,1.125,0.936,1.288,1.68c0.192,0.871-0.042,1.799-0.644,2.545l-0.179,0.223L22.664,24.066z"/>
				<path fill="#412413" d="M22.682,20.662c1.352,0.668,1.674,2.543,0.576,3.906c-0.531-0.797-1.053-1.502-1.456-2.25
					c-0.085-0.158,0.28-0.479,0.418-0.73C22.386,21.283,22.529,20.97,22.682,20.662 M22.492,20.101l-0.186,0.375l-0.142,0.289
					c-0.101,0.209-0.202,0.416-0.313,0.621c-0.039,0.072-0.102,0.148-0.162,0.225c-0.187,0.236-0.441,0.563-0.257,0.906
					c0.306,0.568,0.671,1.102,1.058,1.668c0.138,0.199,0.277,0.404,0.418,0.615l0.316,0.477l0.359-0.445
					c0.641-0.797,0.891-1.789,0.685-2.723c-0.178-0.807-0.688-1.471-1.401-1.822L22.492,20.101L22.492,20.101z"/>
			</g>
			<g>
				<path fill-rule="evenodd" clip-rule="evenodd" fill="#EB5B28" d="M9.104,19.683c-0.417,0-0.696-0.367-0.868-0.643
					c-0.14-0.223-0.27-0.449-0.396-0.668l-0.265-0.453c0,0,0.414-0.271,0.538-0.352c0.257-0.162,0.509-0.32,0.728-0.508
					c0.305-0.258,0.594-0.383,0.883-0.383c0.344,0,0.672,0.18,1.003,0.549c0.083,0.092,0.173,0.18,0.267,0.264l0.031-0.033
					l0.191,0.164l0.183,0.242l-0.312,0.279l-0.062-0.057c-0.065,0.076-0.13,0.15-0.194,0.227c-0.281,0.328-0.572,0.668-0.908,0.969
					C9.615,19.554,9.355,19.683,9.104,19.683z"/>
				<path fill="#412413" d="M9.725,16.886c0.302,0,0.576,0.178,0.848,0.48c0.133,0.148,0.285,0.283,0.438,0.42
					c-0.402,0.451-0.77,0.93-1.227,1.336c-0.262,0.234-0.48,0.352-0.679,0.352c-0.249,0-0.464-0.184-0.69-0.545
					c-0.2-0.32-0.383-0.648-0.557-0.945c0.388-0.26,0.789-0.482,1.121-0.764C9.25,16.99,9.495,16.886,9.725,16.886 M11.048,17.746
					c0.061,0.08,0.122,0.162,0.184,0.242c-0.073-0.066-0.147-0.135-0.222-0.201C11.022,17.773,11.035,17.759,11.048,17.746
					 M9.725,16.468c-0.342,0-0.675,0.141-1.018,0.434c-0.205,0.172-0.447,0.326-0.705,0.49c-0.126,0.078-0.253,0.16-0.379,0.244
					l-0.327,0.221l0.2,0.34l0.163,0.281c0.126,0.219,0.259,0.449,0.399,0.672c0.199,0.32,0.524,0.744,1.046,0.744
					c0.305,0,0.609-0.146,0.958-0.459c0.348-0.309,0.643-0.652,0.928-0.986c0.11-0.129,0.22-0.256,0.332-0.383l0.279-0.313
					l-0.066-0.059l-0.051-0.066l-0.1-0.133l-0.305-0.412l-0.097,0.107c-0.034-0.035-0.067-0.07-0.101-0.105
					C10.51,16.669,10.131,16.468,9.725,16.468L9.725,16.468z"/>
			</g>
			<g>
				<path fill-rule="evenodd" clip-rule="evenodd" fill="#EB5B28" d="M19.01,19.675c-0.221,0-0.453-0.094-0.693-0.277
					c-0.148-0.113-0.289-0.236-0.43-0.357c-0.117-0.102-0.234-0.205-0.357-0.301c-0.188-0.15-0.385-0.293-0.561-0.42l-0.398-0.293
					c0,0,0.622-0.617,0.736-0.736c0.378-0.395,0.627-0.656,0.969-0.656c0.27,0,0.535,0.16,0.98,0.445
					c0.245,0.154,0.477,0.324,0.715,0.498l0.482,0.348l-0.25,0.467c-0.132,0.252-0.271,0.516-0.424,0.773
					C19.529,19.587,19.223,19.675,19.01,19.675z"/>
				<path fill="#412413" d="M18.274,16.843c0.206,0,0.445,0.143,0.87,0.412c0.354,0.225,0.678,0.479,1.035,0.734
					c-0.18,0.332-0.366,0.707-0.581,1.068c-0.161,0.273-0.361,0.406-0.589,0.406c-0.174,0-0.363-0.078-0.564-0.232
					c-0.273-0.209-0.518-0.445-0.786-0.656c-0.267-0.213-0.55-0.41-0.769-0.572c0.215-0.215,0.395-0.389,0.567-0.568
					C17.842,17.035,18.037,16.843,18.274,16.843 M18.275,16.425L18.275,16.425c-0.431,0-0.721,0.303-1.12,0.721
					c-0.112,0.117-0.229,0.232-0.356,0.357l-0.205,0.203l-0.344,0.346l0.392,0.289l0.204,0.148c0.174,0.127,0.367,0.268,0.553,0.414
					c0.121,0.096,0.235,0.195,0.35,0.295c0.145,0.125,0.289,0.25,0.441,0.367c0.276,0.211,0.553,0.318,0.82,0.318
					s0.65-0.105,0.949-0.611c0.155-0.262,0.297-0.529,0.43-0.783l0.16-0.301l0.176-0.326l-0.301-0.215
					c-0.113-0.08-0.222-0.16-0.33-0.24c-0.241-0.176-0.477-0.348-0.725-0.506C18.89,16.597,18.603,16.425,18.275,16.425
					L18.275,16.425z"/>
			</g>
			<g>
				<path fill-rule="evenodd" clip-rule="evenodd" fill="#EB5B28" d="M5.363,30.396c-1.478-0.947-1.777-2.754-0.729-4.391
					l0.176-0.273l1.643,2.527L5.58,30.535L5.363,30.396z"/>
				<path fill="#412413" d="M4.812,26.119c0.46,0.707,0.901,1.385,1.407,2.164c-0.189,0.494-0.454,1.186-0.742,1.938
					C4.079,29.324,3.826,27.658,4.812,26.119 M4.809,25.345l-0.35,0.547c-1.115,1.74-0.791,3.666,0.791,4.682l0.434,0.277
					l0.184-0.48l0.297-0.773l0.446-1.164l0.077-0.199l-0.117-0.18L5.163,25.89L4.809,25.345L4.809,25.345z"/>
			</g>
			<g>
				<path fill-rule="evenodd" clip-rule="evenodd" fill="#EB5B28" d="M18.105,34.212c-0.299,0-0.558-0.162-0.768-0.482
					c-0.137-0.207-0.306-0.4-0.469-0.588l-0.365-0.43l2.575-1.791l1.321,1.904l-0.607,0.43c-0.346,0.248-0.695,0.498-1.055,0.736
					C18.517,34.138,18.304,34.212,18.105,34.212z"/>
				<path fill="#412413" d="M19.026,31.212c0.399,0.576,0.727,1.047,1.083,1.563c-0.488,0.344-0.978,0.703-1.487,1.041
					c-0.186,0.123-0.357,0.186-0.517,0.186c-0.223,0-0.42-0.125-0.592-0.387c-0.205-0.311-0.477-0.588-0.703-0.861
					C17.493,32.279,18.185,31.798,19.026,31.212 M19.132,30.628l-0.345,0.24l-1.705,1.186l-0.511,0.355l-0.374,0.26l0.291,0.352
					c0.07,0.086,0.146,0.172,0.223,0.26c0.16,0.184,0.326,0.373,0.453,0.564c0.312,0.477,0.684,0.576,0.941,0.576
					c0.24,0,0.492-0.086,0.748-0.256c0.361-0.238,0.713-0.49,1.063-0.738l0.435-0.311l0.341-0.238l-0.237-0.344l-0.706-1.018
					l-0.377-0.543L19.132,30.628L19.132,30.628z"/>
			</g>
			<g>
				<path fill-rule="evenodd" clip-rule="evenodd" fill="#EB5B28" d="M9.984,34.218c-0.217,0-0.447-0.09-0.703-0.27
					c-0.311-0.219-0.615-0.443-0.934-0.678l-0.63-0.461l1.273-1.867l2.608,1.76c0,0-0.284,0.334-0.358,0.416
					c-0.166,0.186-0.35,0.391-0.495,0.613C10.536,34.054,10.279,34.218,9.984,34.218z"/>
				<path fill="#412413" d="M9.047,31.234c0.814,0.549,1.531,1.033,2.242,1.514c-0.209,0.248-0.504,0.541-0.719,0.869
					c-0.177,0.273-0.372,0.391-0.586,0.391c-0.181,0-0.375-0.084-0.582-0.23c-0.456-0.32-0.9-0.654-1.396-1.018
					C8.338,32.271,8.662,31.798,9.047,31.234 M8.936,30.652L8.7,30.998l-0.894,1.309l-0.147,0.217L7.43,32.859l0.328,0.24
					l0.465,0.34c0.32,0.236,0.627,0.461,0.938,0.682c0.293,0.205,0.563,0.307,0.824,0.307c0.255,0,0.625-0.102,0.938-0.58
					c0.134-0.205,0.308-0.4,0.476-0.588c0.075-0.084,0.148-0.166,0.213-0.242l0.299-0.357l-0.386-0.26l-2.242-1.514L8.936,30.652
					L8.936,30.652z"/>
			</g>
			<g>
				<path fill-rule="evenodd" clip-rule="evenodd" fill="#EB5B28" d="M21.641,28.22l1.645-2.484l0.17,0.289
					c0.981,1.678,0.691,3.428-0.723,4.357l-0.219,0.145L21.641,28.22z"/>
				<path fill="#412413" d="M23.274,26.132c0.913,1.559,0.662,3.207-0.657,4.074c-0.27-0.711-0.529-1.398-0.742-1.959
					C22.359,27.515,22.808,26.837,23.274,26.132 M23.297,25.339L22.925,25.9l-0.464,0.701l-0.936,1.414l-0.119,0.18l0.076,0.201
					l0.742,1.959l0.186,0.49l0.438-0.287c1.489-0.98,1.813-2.887,0.789-4.639L23.297,25.339L23.297,25.339z"/>
			</g>
			<g>
				<path fill-rule="evenodd" clip-rule="evenodd" fill="#EB5B28" d="M4.793,24.685c-0.539-0.438-0.832-1.08-0.826-1.811
					c0.01-0.914,0.49-1.83,1.287-2.449l0.209-0.162l0.956,2.096l-1.436,2.48L4.793,24.685z"/>
				<path fill="#412413" d="M5.383,20.591c0.266,0.582,0.523,1.148,0.801,1.756c-0.206,0.352-0.419,0.717-0.631,1.082
					c-0.205,0.355-0.41,0.711-0.629,1.092C3.753,23.574,3.998,21.666,5.383,20.591 M5.544,19.935l-0.419,0.324
					c-0.846,0.658-1.357,1.635-1.367,2.613C3.75,23.669,4.07,24.371,4.66,24.847l0.383,0.309l0.245-0.426l0.171-0.297l0.457-0.793
					l0.555-0.955l0.074-0.127l0.109-0.188l-0.09-0.197l-0.332-0.729l-0.469-1.027L5.544,19.935L5.544,19.935z"/>
			</g>
			<g>
				<path fill-rule="evenodd" clip-rule="evenodd" fill="#EB5B28" d="M16.443,17.787c-0.504,0-1.093-0.436-2.178-1.268l-0.268-0.205
					l0.303-0.148c0.17-0.084,0.339-0.189,0.506-0.291c0.395-0.242,0.803-0.494,1.227-0.494c0.479,0.014,0.887,0.285,1.283,0.549
					c0.159,0.105,0.318,0.211,0.478,0.297L18,16.337l-0.133,0.193C17.313,17.332,16.975,17.787,16.443,17.787z"/>
				<path fill="#412413" d="M16.033,15.591c0.008,0,0.016,0,0.024,0c0.558,0.016,1.094,0.527,1.637,0.82
					c-0.534,0.773-0.831,1.164-1.251,1.164c-0.428,0-0.984-0.404-2.05-1.223C14.955,16.076,15.504,15.591,16.033,15.591
					 M16.033,15.171c-0.482,0-0.916,0.266-1.336,0.523c-0.162,0.1-0.325,0.201-0.489,0.281l-0.604,0.299l0.535,0.41
					c1.152,0.885,1.732,1.311,2.305,1.311c0.668,0,1.077-0.594,1.596-1.346l0.266-0.387l-0.411-0.221
					c-0.154-0.084-0.308-0.186-0.462-0.289c-0.42-0.279-0.854-0.566-1.361-0.582h-0.007H16.033L16.033,15.171z"/>
			</g>
			<g>
				<path fill-rule="evenodd" clip-rule="evenodd" fill="#EB5B28" d="M11.635,17.8c-0.48,0-0.77-0.381-1.17-0.908l-0.342-0.443
					l0.186-0.125c0.857-0.578,1.287-0.867,1.764-0.867c0.447,0,0.854,0.248,1.665,0.742l0.251,0.154l-0.227,0.188
					C12.617,17.482,12.08,17.8,11.635,17.8z"/>
				<path fill="#412413" d="M12.072,15.666c0.389,0,0.785,0.242,1.556,0.713c-1.041,0.857-1.593,1.213-1.993,1.213
					c-0.438,0-0.692-0.43-1.209-1.094C11.257,15.937,11.66,15.666,12.072,15.666 M12.072,15.246L12.072,15.246
					c-0.54,0-0.988,0.303-1.881,0.904L9.82,16.402l0.275,0.354l0.201,0.264c0.421,0.555,0.754,0.992,1.338,0.992
					c0.508,0,1.057-0.318,2.26-1.309l0.455-0.375l-0.503-0.307C13.029,15.521,12.579,15.246,12.072,15.246L12.072,15.246z"/>
			</g>
			<g>
				<path fill-rule="evenodd" clip-rule="evenodd" fill="#EB5B28" d="M15.898,35.39c-0.467,0-0.855-0.291-1.629-0.871l-0.245-0.184
					l0.259-0.162c0.125-0.078,0.254-0.152,0.383-0.227c0.278-0.158,0.541-0.309,0.754-0.494c0.289-0.252,0.565-0.375,0.845-0.375
					c0.433,0,0.776,0.305,1.028,0.572c0.113,0.119,0.208,0.25,0.311,0.391l0.275,0.369l-0.189,0.123
					C16.803,35.103,16.357,35.39,15.898,35.39z"/>
				<path fill="#412413" d="M16.265,33.287c0.323,0,0.603,0.219,0.876,0.506c0.156,0.166,0.276,0.355,0.435,0.564
					c-0.853,0.549-1.279,0.824-1.677,0.824s-0.766-0.277-1.504-0.83c0.393-0.246,0.83-0.451,1.164-0.742
					C15.82,33.38,16.053,33.287,16.265,33.287 M16.265,32.869L16.265,32.869c-0.333,0-0.653,0.139-0.981,0.426
					c-0.199,0.172-0.452,0.316-0.721,0.471c-0.131,0.074-0.263,0.15-0.39,0.23l-0.519,0.322l0.489,0.367
					c0.785,0.59,1.218,0.914,1.755,0.914c0.521,0,0.983-0.297,1.904-0.891l0.381-0.246l-0.275-0.361
					c-0.048-0.063-0.092-0.123-0.135-0.184c-0.1-0.137-0.203-0.279-0.329-0.412C17.164,33.208,16.777,32.869,16.265,32.869
					L16.265,32.869z"/>
			</g>
			<g>
				<path fill-rule="evenodd" clip-rule="evenodd" fill="#EB5B28" d="M12.178,35.402c-0.461,0-0.903-0.291-1.785-0.871l-0.154-0.102
					l0.096-0.195l0.068-0.111l0.279-0.303c0.477-0.518,0.715-0.777,1.069-0.777c0.304,0,0.597,0.197,1.179,0.592l0.43,0.287
					c0.086,0.057,0.187,0.098,0.285,0.139l0.471,0.215l-0.273,0.211C13.051,35.095,12.653,35.402,12.178,35.402z"/>
				<path fill="#412413" d="M11.751,33.253c0.296,0,0.658,0.291,1.493,0.844c0.141,0.092,0.313,0.15,0.47,0.223
					c-0.757,0.582-1.132,0.871-1.536,0.871c-0.398,0-0.824-0.279-1.67-0.836c0.014-0.027,0.022-0.063,0.046-0.088
					C11.199,33.578,11.438,33.253,11.751,33.253 M11.751,32.833L11.751,32.833c-0.446,0-0.723,0.301-1.224,0.844l-0.279,0.303
					c-0.069,0.072-0.102,0.152-0.117,0.191l-0.13,0.318l0.276,0.217c0.916,0.602,1.377,0.904,1.9,0.904
					c0.547,0,0.989-0.34,1.792-0.959l0.547-0.422l-0.626-0.291c-0.053-0.025-0.108-0.049-0.164-0.07
					c-0.088-0.037-0.176-0.072-0.252-0.123l-0.428-0.285C12.429,33.042,12.119,32.833,11.751,32.833L11.751,32.833z"/>
			</g>
			<g>
				<path fill-rule="evenodd" clip-rule="evenodd" fill="#EB5B28" d="M20.227,17.791c-0.166,0-0.344-0.064-0.543-0.197
					c-0.34-0.227-0.666-0.469-0.995-0.713l-0.606-0.443l0.764-1.121l0.137,0.029c0.854,0.18,1.449,0.51,1.727,0.953
					c0.168,0.27,0.215,0.578,0.135,0.895C20.713,17.712,20.4,17.791,20.227,17.791z"/>
				<path fill="#412413" d="M18.939,15.55c1.266,0.268,1.885,0.861,1.701,1.592c-0.072,0.291-0.214,0.438-0.414,0.438
					c-0.121,0-0.264-0.053-0.427-0.16c-0.489-0.326-0.948-0.684-1.43-1.033C18.584,16.072,18.764,15.808,18.939,15.55
					 M18.752,15.082l-0.159,0.232l-0.293,0.43l-0.276,0.406l-0.229,0.336l0.329,0.24c0.147,0.107,0.294,0.215,0.439,0.324
					c0.331,0.246,0.661,0.488,1.004,0.717C19.803,17.923,20.018,18,20.227,18c0.189,0,0.648-0.072,0.821-0.754
					c0.094-0.373,0.038-0.738-0.161-1.059c-0.308-0.492-0.951-0.855-1.86-1.047L18.752,15.082L18.752,15.082z"/>
			</g>
			<g>
				<path fill-rule="evenodd" clip-rule="evenodd" fill="#EB5B28" d="M7.383,17.486c0.004-0.115-0.009-0.24-0.021-0.365
					c-0.03-0.318-0.064-0.682,0.14-0.945c0.226-0.295,0.588-0.479,0.973-0.674c0.155-0.078,0.314-0.16,0.465-0.25l0.167-0.098
					l0.907,1.287c0,0-0.377,0.271-0.485,0.354C9.254,17,8.97,17.214,8.646,17.396c-0.215,0.119-0.463,0.174-0.703,0.229
					c-0.1,0.021-0.199,0.043-0.294,0.07l-0.274,0.076L7.383,17.486z"/>
				<path fill="#412413" d="M9.047,15.433c0.256,0.363,0.451,0.641,0.676,0.957c-0.358,0.256-0.74,0.576-1.179,0.822
					c-0.271,0.152-0.632,0.191-0.951,0.279c0.011-0.402-0.146-0.9,0.075-1.189C7.951,15.933,8.541,15.734,9.047,15.433
					 M9.166,14.873l-0.334,0.199c-0.146,0.088-0.302,0.166-0.453,0.242c-0.388,0.197-0.789,0.402-1.043,0.732
					C7.082,16.378,7.121,16.8,7.153,17.14c0.011,0.117,0.023,0.232,0.021,0.34l-0.016,0.57l0.547-0.154
					c0.092-0.025,0.188-0.047,0.283-0.068c0.256-0.057,0.52-0.115,0.76-0.248c0.337-0.189,0.639-0.418,0.906-0.617
					c0.106-0.08,0.209-0.158,0.311-0.23l0.341-0.242l-0.241-0.342L9.59,15.476l-0.2-0.285L9.166,14.873L9.166,14.873z"/>
			</g>
			<g>
				<path fill-rule="evenodd" clip-rule="evenodd" fill="#EB5B28" d="M7.262,34.216c-1.463-0.662-2.014-1.586-1.685-2.822
					l0.063-0.24l0.227,0.105c1.337,0.615,1.857,1.477,1.689,2.793l-0.036,0.281L7.262,34.216z"/>
				<path fill="#412413" d="M5.779,31.449c1.228,0.564,1.728,1.34,1.569,2.578C6.041,33.433,5.467,32.623,5.779,31.449
					 M5.503,30.859l-0.128,0.482c-0.355,1.332,0.25,2.363,1.801,3.066l0.517,0.234l0.072-0.563c0.179-1.404-0.396-2.361-1.81-3.012
					L5.503,30.859L5.503,30.859z"/>
			</g>
			<g>
				<path fill-rule="evenodd" clip-rule="evenodd" fill="#EB5B28" d="M5.475,19.656c-0.643-1.273,0.166-1.955,0.881-2.557
					c0.162-0.137,0.328-0.277,0.48-0.426l0.236-0.229l0.553,1.59l-0.932,0.85l-1.092,1.02L5.475,19.656z"/>
				<path fill="#412413" d="M6.982,16.824c0.154,0.441,0.271,0.777,0.399,1.148c-0.255,0.232-0.544,0.494-0.831,0.76
					c-0.273,0.252-0.545,0.508-0.889,0.828C4.961,18.173,6.156,17.628,6.982,16.824 M7.162,16.066L6.69,16.523
					c-0.149,0.146-0.312,0.281-0.471,0.416c-0.735,0.619-1.65,1.389-0.932,2.811l0.251,0.498l0.409-0.381l0.358-0.334l0.529-0.494
					c0.192-0.178,0.387-0.354,0.57-0.521l0.258-0.234l0.205-0.188l-0.092-0.26l-0.1-0.289l-0.299-0.859L7.162,16.066L7.162,16.066z"
					/>
			</g>
			<g>
				<path fill-rule="evenodd" clip-rule="evenodd" fill="#EB5B28" d="M20.287,32.107l0.434,0.434l1.367-1.625l0.146,0.277
					c0.326,0.621,0.405,1.145,0.242,1.6c-0.192,0.533-0.712,0.963-1.636,1.352l-0.251,0.105L20.287,32.107z"/>
				<path fill="#412413" d="M22.048,31.291c0.669,1.275,0.21,2.029-1.289,2.66c-0.06-0.422-0.118-0.838-0.177-1.252
					c0.051,0.051,0.102,0.102,0.152,0.152C21.151,32.357,21.566,31.861,22.048,31.291 M22.129,30.542l-0.402,0.477l-0.596,0.711
					l-0.423,0.502l-0.687-0.688l0.146,1.213l0.176,1.25l0.075,0.541l0.503-0.211c0.981-0.414,1.538-0.883,1.751-1.475
					c0.185-0.514,0.101-1.092-0.253-1.768L22.129,30.542L22.129,30.542z"/>
			</g>
			<g>
				<path fill-rule="evenodd" clip-rule="evenodd" fill="#EB5B28" d="M22.271,19.685c-0.161-0.146-0.327-0.287-0.491-0.426
					c-0.414-0.352-0.806-0.684-1.088-1.092c-0.178-0.256-0.076-0.594,0.032-0.949c0.046-0.152,0.097-0.318,0.128-0.488l0.074-0.408
					l0.284,0.301c0.19,0.203,0.41,0.383,0.623,0.557c0.702,0.576,1.498,1.229,0.759,2.461l-0.133,0.219L22.271,19.685z"/>
				<path fill="#412413" d="M21.058,16.767c0.833,0.883,2.2,1.355,1.354,2.764c-0.554-0.508-1.171-0.936-1.548-1.482
					C20.684,17.789,20.961,17.302,21.058,16.767 M20.793,15.876l-0.148,0.816c-0.029,0.162-0.077,0.318-0.121,0.465
					c-0.118,0.389-0.24,0.789-0.004,1.131c0.297,0.43,0.718,0.785,1.124,1.131c0.162,0.137,0.326,0.275,0.485,0.422l0.379,0.348
					l0.264-0.441c0.833-1.387-0.114-2.164-0.806-2.73c-0.209-0.172-0.425-0.35-0.603-0.537L20.793,15.876L20.793,15.876z"/>
			</g>
			<g>
				<path fill-rule="evenodd" clip-rule="evenodd" fill="#EB5B28" d="M9.569,35.433c-0.832-0.051-1.452-0.348-1.748-0.836
					c-0.177-0.291-0.319-0.789,0.001-1.506l0.1-0.223l2.219,1.42l-0.414,1.154L9.569,35.433z"/>
				<path fill="#412413" d="M8.014,33.177c0.662,0.422,1.258,0.803,1.873,1.197c-0.086,0.24-0.195,0.545-0.305,0.85
					C8.174,35.138,7.5,34.326,8.014,33.177 M7.83,32.56l-0.199,0.445c-0.357,0.799-0.191,1.365,0.011,1.699
					c0.332,0.549,1.013,0.883,1.915,0.938l0.313,0.02l0.106-0.295l0.291-0.813l0.113-0.314l-0.268-0.219l-0.59-0.377l-1.283-0.82
					L7.83,32.56L7.83,32.56z"/>
			</g>
			<g>
				<path fill-rule="evenodd" clip-rule="evenodd" fill="#EB5B28" d="M17.957,34.283l2.113-1.365l0.115,0.17
					c0.326,0.48,0.506,0.85,0.391,1.209c-0.148,0.461-0.752,0.752-1.965,1.193l-0.199,0.072L17.957,34.283z"/>
				<path fill="#412413" d="M20.012,33.205c0.733,1.078,0.528,1.359-1.473,2.09c-0.124-0.348-0.229-0.643-0.328-0.926
					C18.811,33.982,19.408,33.595,20.012,33.205 M20.129,32.63l-0.345,0.223l-1.075,0.693l-0.727,0.471l-0.278,0.18l0.111,0.313
					l0.077,0.217l0.252,0.709l0.142,0.396l0.396-0.145c1.304-0.475,1.916-0.779,2.093-1.326c0.157-0.488-0.133-0.975-0.416-1.393
					L20.129,32.63L20.129,32.63z"/>
			</g>
			<g>
				<path fill-rule="evenodd" clip-rule="evenodd" fill="#EB5B28" d="M3.65,27.621c-0.634-2.223-0.631-2.293,0.171-3.775
					l0.172-0.318l0.19,0.307c0.6,0.961,0.576,1.635-0.133,3.795l-0.213,0.65L3.65,27.621z"/>
				<path fill="#412413" d="M4.006,23.945c0.557,0.893,0.537,1.51-0.154,3.617C3.229,25.38,3.229,25.38,4.006,23.945 M3.98,23.111
					l-0.344,0.635c-0.834,1.541-0.838,1.652-0.188,3.932l0.375,1.316l0.426-1.301c0.681-2.072,0.785-2.891,0.111-3.971L3.98,23.111
					L3.98,23.111z"/>
			</g>
			<g>
				<path fill-rule="evenodd" clip-rule="evenodd" fill="#EB5B28" d="M14.05,36.212c-0.446,0-0.892-0.127-1.362-0.387l-0.217-0.119
					l0.154-0.193c0.537-0.68,0.974-0.982,1.418-0.982c0.495,0,0.937,0.379,1.446,0.947l0.171,0.191L15.439,35.8
					C14.965,36.078,14.512,36.212,14.05,36.212z"/>
				<path fill="#412413" d="M14.043,34.74c0.403,0,0.793,0.324,1.29,0.879c-0.438,0.258-0.859,0.385-1.283,0.385
					c-0.413,0-0.827-0.121-1.261-0.361C13.283,35.017,13.669,34.74,14.043,34.74 M14.043,34.322L14.043,34.322
					c-0.659,0-1.192,0.566-1.583,1.061l-0.307,0.387l0.433,0.24c0.502,0.277,0.98,0.412,1.464,0.412
					c0.499,0,0.989-0.145,1.495-0.441l0.443-0.26l-0.343-0.381C15.098,34.728,14.615,34.322,14.043,34.322L14.043,34.322z"/>
			</g>
			<g>
				<path fill-rule="evenodd" clip-rule="evenodd" fill="#EB5B28" d="M23.856,27.478c-0.042-0.285-0.115-0.566-0.187-0.848
					c-0.226-0.883-0.458-1.793,0.172-2.727l0.188-0.279l0.168,0.291c0.568,0.986,1.086,2.293,0.033,3.66l-0.301,0.389L23.856,27.478
					z"/>
				<path fill="#412413" d="M24.016,24.021c0.641,1.109,0.956,2.248,0.049,3.426C23.89,26.291,23.244,25.164,24.016,24.021
					 M24.043,23.23l-0.375,0.557c-0.683,1.012-0.428,2.012-0.201,2.895c0.072,0.287,0.142,0.559,0.183,0.828l0.146,0.973
					l0.601-0.779c1.142-1.482,0.537-2.932-0.018-3.893L24.043,23.23L24.043,23.23z"/>
			</g>
			<g>
				<path fill-rule="evenodd" clip-rule="evenodd" fill="#EB5B28" d="M5.256,32.38C4.018,31.857,4.008,30.949,4,30.148
					c-0.004-0.322-0.006-0.627-0.082-0.906l-0.259-0.949l0.706,0.863c0.726,0.885,1.475,1.799,1.176,3.08l-0.057,0.242L5.256,32.38z
					"/>
				<path fill="#412413" d="M4.12,29.187c0.731,0.895,1.503,1.773,1.217,3C3.764,31.523,4.402,30.222,4.12,29.187 M3.199,27.398
					l0.516,1.898c0.069,0.254,0.072,0.545,0.075,0.854c0.009,0.822,0.02,1.848,1.384,2.424l0.458,0.193l0.113-0.484
					c0.323-1.381-0.495-2.379-1.218-3.26l-0.082-0.102L3.199,27.398L3.199,27.398z"/>
			</g>
			<g>
				<path fill-rule="evenodd" clip-rule="evenodd" fill="#EB5B28" d="M22.573,32.195c-0.316-0.969,0.188-1.727,0.678-2.459
					c0.138-0.205,0.276-0.414,0.401-0.631l0.25-0.438l0.135,0.484c0.361,1.303-0.012,2.332-1.143,3.148l-0.232,0.168L22.573,32.195z
					"/>
				<path fill="#412413" d="M23.834,29.208c0.344,1.234-0.032,2.178-1.062,2.922C22.405,31.005,23.27,30.195,23.834,29.208
					 M23.97,28.128L23.471,29c-0.123,0.215-0.26,0.418-0.395,0.621c-0.492,0.736-1.051,1.574-0.702,2.639l0.179,0.547l0.465-0.336
					c1.193-0.861,1.604-1.996,1.221-3.375L23.97,28.128L23.97,28.128z"/>
			</g>
			<g>
				<path fill-rule="evenodd" clip-rule="evenodd" fill="#EB5B28" d="M16.121,36.111c-0.158,0-0.316-0.012-0.475-0.039l-0.112-0.02
					l-0.045-0.104c-0.101-0.23,0.161-0.348,0.276-0.398l-0.008-0.02l2.051-1.217l0.736,1.373l-0.29,0.047
					c-0.224,0.035-0.454,0.092-0.692,0.148C17.1,35.996,16.621,36.111,16.121,36.111z"/>
				<path fill="#412413" d="M17.727,34.607c0.174,0.322,0.304,0.564,0.494,0.92c-0.648,0.105-1.367,0.375-2.1,0.375
					c-0.146,0-0.293-0.012-0.439-0.037c-0.036-0.082,0.379-0.166,0.342-0.248C16.561,35.298,17.098,34.98,17.727,34.607
					 M17.89,34.023l-0.376,0.223l-0.612,0.363l-1.091,0.646l-0.319,0.189l0.006,0.014c-0.297,0.201-0.259,0.439-0.2,0.574
					l0.09,0.209l0.225,0.037c0.162,0.027,0.334,0.041,0.51,0.041c0.525,0,1.038-0.123,1.491-0.232
					c0.231-0.057,0.458-0.111,0.676-0.146l0.581-0.094l-0.279-0.52l-0.381-0.711l-0.112-0.209L17.89,34.023L17.89,34.023z"/>
			</g>
			<g>
				<path fill-rule="evenodd" clip-rule="evenodd" fill="#EB5B28" d="M11.826,36.054c-0.729,0-1.105-0.193-1.437-0.363
					c-0.208-0.107-0.387-0.199-0.644-0.244L9.428,35.39l0.182-0.268c0.15-0.221,0.275-0.322,0.375-0.402
					c0.08-0.064,0.143-0.115,0.219-0.225l0.11-0.164l2.005,1.186l-0.013,0.033c0.173,0.107,0.221,0.217,0.175,0.342l-0.045,0.125
					l-0.133,0.014C12.127,36.046,11.97,36.054,11.826,36.054z"/>
				<path fill="#412413" d="M10.376,34.613c0.608,0.359,1.147,0.678,1.685,0.996c-0.031,0.088,0.254,0.125,0.223,0.213
					c-0.168,0.016-0.319,0.021-0.457,0.021c-1.121,0-1.315-0.475-2.043-0.604C10.033,34.873,10.179,34.904,10.376,34.613
					 M10.25,34.052l-0.221,0.324c-0.058,0.086-0.1,0.119-0.176,0.182c-0.105,0.084-0.25,0.199-0.417,0.445l-0.364,0.537l0.639,0.111
					c0.225,0.041,0.383,0.121,0.583,0.225c0.335,0.172,0.752,0.387,1.532,0.387c0.149,0,0.314-0.008,0.496-0.025l0.265-0.023
					l0.091-0.25c0.027-0.074,0.082-0.297-0.121-0.49l0.018-0.049l-0.299-0.178l-1.123-0.662l-0.563-0.334L10.25,34.052L10.25,34.052
					z"/>
			</g>
		</g>
		<g>
			<path fill-rule="evenodd" clip-rule="evenodd" fill="#F39323" d="M11.148,27.599c-0.002,0-0.148-0.018-0.436-0.396
				c-0.342-0.449-0.688-0.895-1.047-1.357l-0.064-0.084l0.007-0.109c0.122-0.127,0.242-0.252,0.36-0.375
				c0.402-0.42,0.785-0.818,1.186-1.191c0.006,0,0.013-0.002,0.02-0.002c0.414,0.377,0.814,0.781,1.238,1.207
				c0.155,0.158,0.314,0.318,0.48,0.484c-0.06,0.066-0.121,0.133-0.182,0.199c-0.369,0.406-0.752,0.824-1.111,1.252
				C11.299,27.582,11.149,27.599,11.148,27.599z"/>
			<path fill-rule="evenodd" clip-rule="evenodd" fill="#F39323" d="M16.926,27.593c-0.041,0-0.144-0.039-0.276-0.191
				c-0.428-0.492-0.845-0.99-1.284-1.518c-0.044-0.053-0.088-0.104-0.132-0.158l1.689-1.674l1.609,1.625
				c-0.063,0.084-0.13,0.17-0.197,0.258c-0.347,0.455-0.739,0.969-1.147,1.467C17.063,27.554,16.964,27.593,16.926,27.593z"/>
			<path fill-rule="evenodd" clip-rule="evenodd" fill="#F39323" d="M14.047,30.207c-0.144,0-0.279-0.102-0.368-0.188
				c-0.425-0.406-0.841-0.818-1.28-1.252c-0.016-0.016-0.029-0.031-0.045-0.045c0.136-0.133,0.267-0.264,0.396-0.393
				c0.422-0.418,0.822-0.816,1.246-1.182c0.006,0,0.014-0.002,0.021-0.002c0.041,0,0.076,0.004,0.101,0.008
				c0.248,0.234,0.476,0.486,0.715,0.75c0.223,0.246,0.452,0.5,0.703,0.742c0.05,0.047,0.104,0.088,0.16,0.119
				c-0.007,0.006-0.013,0.014-0.019,0.02c-0.404,0.404-0.823,0.82-1.249,1.229C14.297,30.138,14.162,30.207,14.047,30.207z"/>
			<path fill-rule="evenodd" clip-rule="evenodd" fill="#F39323" d="M14.055,24.523c-0.098,0-0.244-0.096-0.396-0.254
				c-0.405-0.434-0.8-0.869-1.181-1.289c-0.048-0.055-0.096-0.107-0.144-0.16c0.101-0.064,0.205-0.133,0.304-0.209
				c0.191-0.148,0.378-0.301,0.558-0.449c0.276-0.225,0.538-0.441,0.817-0.637c0.014-0.004,0.031-0.004,0.053-0.004l0,0
				c0.303,0.211,0.586,0.443,0.886,0.686c0.155,0.127,0.312,0.254,0.47,0.379c0.104,0.082,0.213,0.16,0.319,0.238l-0.124,0.139
				c-0.364,0.406-0.764,0.854-1.168,1.297C14.299,24.425,14.151,24.523,14.055,24.523z"/>
			<path fill-rule="evenodd" clip-rule="evenodd" fill="#F39323" d="M19.209,30.205c-0.027-0.014-0.111-0.061-0.237-0.221
				c-0.299-0.381-0.588-0.758-0.893-1.156c-0.013-0.018-0.026-0.033-0.039-0.051l1.477-1.607l1.124,1.52
				c-0.057,0.066-0.113,0.131-0.173,0.197c-0.315,0.361-0.673,0.77-1.044,1.152C19.308,30.16,19.233,30.195,19.209,30.205z"/>
			<path fill-rule="evenodd" clip-rule="evenodd" fill="#F39323" d="M8.865,30.205c-0.02-0.006-0.084-0.035-0.186-0.141
				c-0.37-0.387-0.718-0.789-1.053-1.178c-0.066-0.078-0.133-0.154-0.197-0.229l1.116-1.475l1.549,1.637
				c-0.066,0.078-0.134,0.156-0.199,0.234c-0.272,0.32-0.546,0.641-0.813,0.965C8.964,30.16,8.887,30.197,8.865,30.205z"/>
			<path fill-rule="evenodd" clip-rule="evenodd" fill="#F39323" d="M8.545,24.505c-0.037-0.025-0.12-0.096-0.232-0.277
				c-0.246-0.396-0.484-0.811-0.695-1.176c-0.043-0.074-0.084-0.146-0.125-0.217c0.095-0.109,0.178-0.205,0.264-0.279
				c0.334-0.289,0.682-0.578,1.02-0.857c0.01-0.008,0.021-0.018,0.03-0.025l0.038,0.035C9.167,22,9.49,22.291,9.814,22.58
				c0.084,0.074,0.169,0.148,0.255,0.225l-0.194,0.225c-0.34,0.398-0.696,0.813-1.051,1.227C8.682,24.423,8.586,24.486,8.545,24.505
				z"/>
			<path fill-rule="evenodd" clip-rule="evenodd" fill="#F39323" d="M19.535,24.513c-0.031-0.012-0.111-0.059-0.213-0.178
				l-1.311-1.533c0.079-0.055,0.157-0.117,0.229-0.188c0.15-0.15,0.291-0.305,0.426-0.453c0.182-0.201,0.354-0.395,0.543-0.563
				c0.026,0,0.051,0.002,0.068,0.004c0.247,0.207,0.473,0.438,0.712,0.68c0.142,0.145,0.289,0.295,0.442,0.439
				c0.055,0.051,0.112,0.098,0.17,0.137c-0.041,0.068-0.083,0.137-0.124,0.207c-0.248,0.418-0.505,0.85-0.776,1.27
				C19.621,24.458,19.559,24.501,19.535,24.513z"/>
			<path fill-rule="evenodd" clip-rule="evenodd" fill="#F39323" d="M21.622,27.482c-0.027-0.025-0.055-0.057-0.073-0.084
				c-0.32-0.512-0.617-1.031-0.879-1.488c-0.043-0.074-0.085-0.148-0.125-0.219l1.087-1.463c0.335,0.52,0.628,0.977,0.905,1.438
				c-0.008,0.023-0.02,0.059-0.042,0.107l-0.046,0.098c-0.236,0.51-0.482,1.037-0.763,1.531
				C21.672,27.427,21.648,27.457,21.622,27.482z"/>
			<path fill-rule="evenodd" clip-rule="evenodd" fill="#F39323" d="M6.447,27.466c-0.02-0.018-0.037-0.039-0.047-0.055
				c-0.28-0.498-0.599-1.088-0.836-1.705c0.016-0.074,0.11-0.23,0.163-0.316l0.028-0.049c0.216-0.359,0.443-0.711,0.706-1.113
				c0.208,0.262,0.382,0.479,0.55,0.701c0.143,0.189,0.275,0.387,0.43,0.613c0.033,0.049,0.065,0.098,0.1,0.148
				c-0.04,0.066-0.082,0.139-0.125,0.211c-0.268,0.453-0.571,0.965-0.898,1.477C6.498,27.41,6.473,27.439,6.447,27.466z"/>
			<path fill-rule="evenodd" clip-rule="evenodd" fill="#F39323" d="M16.52,32.353c-0.002,0-0.109-0.004-0.406-0.301
				c-0.299-0.299-0.611-0.592-0.887-0.852c0.037-0.027,0.075-0.055,0.113-0.082c0.409-0.303,0.833-0.617,1.216-0.977
				c0.161-0.152,0.255-0.197,0.288-0.209c0.029,0.016,0.104,0.068,0.221,0.221c0.322,0.42,0.588,0.736,0.863,1.02
				c0.014,0.016,0.029,0.029,0.045,0.043c-0.361,0.311-0.705,0.607-1.062,0.9C16.627,32.351,16.523,32.353,16.52,32.353z"/>
			<path fill-rule="evenodd" clip-rule="evenodd" fill="#F39323" d="M11.573,32.359c-0.046-0.01-0.181-0.072-0.536-0.377
				c-0.096-0.082-0.188-0.166-0.279-0.25c-0.141-0.127-0.284-0.26-0.441-0.385c-0.091-0.074-0.184-0.143-0.273-0.207
				c0.02-0.018,0.039-0.037,0.059-0.055c0.315-0.299,0.642-0.607,0.93-0.943c0.115-0.135,0.189-0.193,0.228-0.217
				c0.035,0.02,0.103,0.068,0.203,0.176c0.343,0.363,0.752,0.723,1.29,1.131c0.016,0.012,0.031,0.021,0.047,0.031
				c-0.258,0.238-0.505,0.469-0.748,0.707C11.739,32.279,11.617,32.345,11.573,32.359z"/>
			<path fill-rule="evenodd" clip-rule="evenodd" fill="#F39323" d="M16.836,21.765c-0.012,0-0.122-0.006-0.363-0.221
				c-0.408-0.363-0.81-0.742-1.164-1.078c-0.022-0.021-0.045-0.043-0.067-0.063c0.094-0.068,0.188-0.137,0.28-0.205
				c0.12-0.09,0.238-0.182,0.355-0.273c0.231-0.182,0.451-0.354,0.684-0.5c0.026,0.004,0.051,0.01,0.064,0.014
				c0.244,0.158,0.473,0.334,0.715,0.518c0.175,0.135,0.355,0.273,0.543,0.404c0.056,0.039,0.113,0.074,0.171,0.107
				c-0.272,0.322-0.561,0.662-0.85,1.004C17.008,21.705,16.877,21.765,16.836,21.765z"/>
			<path fill-rule="evenodd" clip-rule="evenodd" fill="#F39323" d="M11.242,21.763c-0.043,0-0.159-0.051-0.325-0.244
				c-0.29-0.338-0.569-0.676-0.839-1.002c-0.018-0.02-0.034-0.041-0.051-0.061c0.124-0.086,0.242-0.176,0.352-0.283
				c0.447-0.438,0.825-0.66,1.121-0.66c0.306,0,0.674,0.248,1.096,0.738c0.064,0.074,0.139,0.135,0.217,0.186
				c-0.013,0.012-0.025,0.023-0.039,0.035c-0.398,0.371-0.809,0.754-1.24,1.127C11.393,21.72,11.288,21.763,11.242,21.763z"/>
			<path fill-rule="evenodd" clip-rule="evenodd" fill="#F39323" d="M14.055,19.482c-0.102,0-0.238-0.072-0.387-0.201
				c-0.311-0.271-0.619-0.547-0.908-0.803c0.115-0.082,0.23-0.162,0.342-0.246c0.437-0.324,0.726-0.467,0.937-0.467
				c0.22,0,0.524,0.158,0.988,0.518c0.096,0.072,0.192,0.141,0.292,0.207c-0.29,0.258-0.603,0.537-0.918,0.814
				C14.324,19.371,14.18,19.482,14.055,19.482z"/>
			<path fill-rule="evenodd" clip-rule="evenodd" fill="#F39323" d="M14.035,34.023c-0.109,0-0.24-0.063-0.388-0.188
				c-0.278-0.23-0.577-0.445-0.849-0.637l0.285-0.27c0.402-0.385,0.734-0.578,0.988-0.578c0.26,0,0.584,0.215,0.967,0.641
				c0.037,0.041,0.061,0.213,0.075,0.316c0.001,0.008,0.002,0.018,0.003,0.025c-0.232,0.178-0.449,0.346-0.668,0.508
				C14.338,33.923,14.176,34.023,14.035,34.023z"/>
			<path fill-rule="evenodd" clip-rule="evenodd" fill="#F39323" d="M7.423,32.234c-0.541-0.281-0.86-0.613-0.95-0.986
				c-0.077-0.328,0.021-0.713,0.288-1.127l1.246,1.145c-0.009,0.016-0.017,0.033-0.024,0.049c-0.139,0.285-0.293,0.607-0.484,0.906
				C7.476,32.226,7.448,32.232,7.423,32.234z"/>
			<path fill-rule="evenodd" clip-rule="evenodd" fill="#F39323" d="M20.701,32.228c-0.039-0.012-0.082-0.029-0.109-0.043
				c-0.195-0.277-0.352-0.584-0.492-0.857c-0.01-0.018-0.02-0.037-0.028-0.057c0.024-0.023,0.048-0.049,0.072-0.072
				c0.212-0.213,0.414-0.412,0.623-0.609c0.177-0.168,0.357-0.328,0.544-0.496c0.276,0.383,0.387,0.773,0.312,1.125
				C21.537,31.621,21.219,31.968,20.701,32.228z"/>
			<path fill-rule="evenodd" clip-rule="evenodd" fill="#F39323" d="M21.381,21.468c-0.189-0.146-0.369-0.289-0.544-0.439
				c-0.257-0.223-0.503-0.457-0.721-0.666l0.642-0.84c0.017,0.016,0.035,0.029,0.052,0.043c0.382,0.326,0.712,0.607,0.989,0.916
				c0,0.061-0.022,0.207-0.111,0.414C21.607,21.087,21.498,21.275,21.381,21.468z"/>
			<path fill-rule="evenodd" clip-rule="evenodd" fill="#F39323" d="M6.703,21.646c-0.015-0.023-0.027-0.051-0.039-0.074
				c-0.428-0.957-0.407-1.381,0.664-2.045l0.646,0.82c-0.035,0.037-0.071,0.076-0.108,0.115c-0.326,0.352-0.697,0.75-1.082,1.123
				C6.762,21.607,6.732,21.628,6.703,21.646z"/>
			<path fill-rule="evenodd" clip-rule="evenodd" fill="#F39323" d="M23.228,24.095c-0.325-0.475-0.632-0.928-0.891-1.391
				c0.032-0.047,0.078-0.104,0.112-0.146c0.085-0.109,0.174-0.223,0.239-0.342c0.069-0.129,0.136-0.26,0.199-0.387
				c0.206,0.215,0.358,0.49,0.442,0.807C23.457,23.111,23.417,23.623,23.228,24.095z"/>
			<path fill-rule="evenodd" clip-rule="evenodd" fill="#F39323" d="M9.118,19.48c-0.037-0.027-0.122-0.105-0.249-0.307
				c-0.127-0.203-0.247-0.41-0.363-0.613c0.01-0.006,0.02-0.012,0.029-0.02c0.272-0.172,0.555-0.352,0.809-0.566
				c0.219-0.186,0.339-0.205,0.381-0.205c0.102,0,0.264,0.115,0.437,0.307c0.06,0.066,0.12,0.129,0.183,0.189
				c-0.031,0.035-0.062,0.07-0.092,0.107c-0.277,0.324-0.54,0.631-0.843,0.9C9.252,19.414,9.159,19.462,9.118,19.48z"/>
			<path fill-rule="evenodd" clip-rule="evenodd" fill="#F39323" d="M19.001,19.476c-0.024-0.006-0.094-0.029-0.21-0.117
				c-0.133-0.104-0.262-0.215-0.397-0.334c-0.122-0.105-0.247-0.215-0.382-0.32c-0.133-0.105-0.268-0.205-0.396-0.301
				c0.084-0.084,0.164-0.166,0.243-0.248c0.128-0.133,0.332-0.346,0.436-0.418c0.125,0.049,0.391,0.217,0.541,0.313
				c0.227,0.145,0.445,0.305,0.677,0.475c0.014,0.01,0.027,0.02,0.041,0.029c-0.003,0.006-0.006,0.012-0.008,0.016
				c-0.129,0.244-0.262,0.498-0.406,0.742C19.072,19.421,19.021,19.462,19.001,19.476z"/>
			<path fill-rule="evenodd" clip-rule="evenodd" fill="#F39323" d="M5.246,29.855c-0.521-0.611-0.653-1.434-0.369-2.285
				l0.783,1.205L5.246,29.855z"/>
			<path fill-rule="evenodd" clip-rule="evenodd" fill="#F39323" d="M18.112,33.769c-0.018-0.012-0.072-0.047-0.149-0.164
				c-0.137-0.207-0.293-0.395-0.449-0.574l1.373-0.957l0.559,0.805c-0.037,0.025-0.073,0.053-0.11,0.078
				c-0.335,0.24-0.683,0.488-1.031,0.719C18.193,33.75,18.131,33.765,18.112,33.769z"/>
			<path fill-rule="evenodd" clip-rule="evenodd" fill="#F39323" d="M9.975,33.773c-0.025-0.006-0.102-0.029-0.242-0.127
				c-0.311-0.221-0.617-0.445-0.941-0.684c-0.042-0.031-0.084-0.063-0.127-0.094l0.529-0.777l1.385,0.936
				c-0.154,0.174-0.319,0.367-0.459,0.582C10.053,33.712,9.999,33.757,9.975,33.773z"/>
			<path fill-rule="evenodd" clip-rule="evenodd" fill="#F39323" d="M22.434,28.742l0.747-1.129
				c0.244,0.828,0.123,1.619-0.339,2.205L22.434,28.742z"/>
			<path fill-rule="evenodd" clip-rule="evenodd" fill="#F39323" d="M4.851,24.101c-0.106-0.23-0.161-0.494-0.158-0.775
				c0.007-0.508,0.193-1.016,0.521-1.445l0.407,0.893l-0.084,0.145c-0.147,0.252-0.298,0.51-0.447,0.768
				C5.011,23.824,4.931,23.962,4.851,24.101z"/>
			<path fill-rule="evenodd" clip-rule="evenodd" fill="#F39323" d="M16.443,17.589c-0.195,0-0.703-0.354-1.218-0.74
				c0.288-0.178,0.612-0.377,0.808-0.377c0.227,0.006,0.557,0.227,0.849,0.42c0.043,0.029,0.086,0.057,0.13,0.086
				C16.799,17.273,16.549,17.589,16.443,17.589z"/>
			<path fill-rule="evenodd" clip-rule="evenodd" fill="#F39323" d="M11.635,17.605c-0.086,0-0.344-0.33-0.522-0.564
				c0.458-0.305,0.774-0.492,0.96-0.492c0.154,0,0.402,0.121,0.749,0.326C12.201,17.359,11.804,17.605,11.635,17.605z"/>
			<path fill-rule="evenodd" clip-rule="evenodd" fill="#F39323" d="M15.899,34.898c-0.137,0-0.364-0.139-0.668-0.355
				c0.241-0.139,0.482-0.291,0.697-0.479c0.161-0.139,0.279-0.189,0.336-0.189c0.046,0,0.181,0.033,0.474,0.342
				c0.052,0.055,0.102,0.117,0.152,0.186C16.421,34.699,16.077,34.898,15.899,34.898z"/>
			<path fill-rule="evenodd" clip-rule="evenodd" fill="#F39323" d="M12.178,34.91c-0.176,0-0.51-0.197-0.968-0.492
				c0.012-0.014,0.022-0.025,0.034-0.037c0.205-0.225,0.418-0.455,0.526-0.529c0.136,0.053,0.433,0.254,0.721,0.449
				c0.109,0.072,0.229,0.154,0.36,0.24C12.544,34.767,12.314,34.91,12.178,34.91z"/>
			<path fill-rule="evenodd" clip-rule="evenodd" fill="#F39323" d="M20.119,17.525c-0.329-0.219-0.642-0.451-0.973-0.695
				c-0.039-0.031-0.079-0.061-0.119-0.09l0.154-0.227c0.521,0.158,1.088,0.457,0.955,0.986c-0.004,0.012-0.006,0.021-0.009,0.031
				C20.125,17.529,20.122,17.527,20.119,17.525z"/>
			<path fill-rule="evenodd" clip-rule="evenodd" fill="#F39323" d="M8.072,17.371c-0.012-0.156-0.016-0.326,0.028-0.385
				c0.132-0.172,0.424-0.32,0.733-0.477c0.014-0.008,0.027-0.014,0.042-0.021l0.185,0.262c-0.256,0.191-0.521,0.391-0.802,0.549
				C8.208,17.326,8.144,17.351,8.072,17.371z"/>
			<path fill-rule="evenodd" clip-rule="evenodd" fill="#F39323" d="M6.822,33.638c-0.346-0.275-0.541-0.584-0.595-0.945
				C6.553,32.957,6.746,33.263,6.822,33.638z"/>
			<path fill-rule="evenodd" clip-rule="evenodd" fill="#F39323" d="M5.985,19.058c0.073-0.328,0.349-0.6,0.753-0.945l0.066,0.193
				l-0.037,0.033c-0.191,0.174-0.395,0.359-0.596,0.545C6.109,18.943,6.048,19,5.985,19.058z"/>
			<path fill-rule="evenodd" clip-rule="evenodd" fill="#F39323" d="M21.158,33.546l0.676-0.803
				c0.002,0.371-0.207,0.666-0.656,0.941L21.158,33.546z"/>
			<path fill-rule="evenodd" clip-rule="evenodd" fill="#F39323" d="M22.164,19.14c-0.33-0.279-0.635-0.551-0.844-0.848
				c-0.006-0.037,0.007-0.107,0.026-0.188C21.843,18.513,22.146,18.783,22.164,19.14z"/>
			<path fill-rule="evenodd" clip-rule="evenodd" fill="#F39323" d="M9.219,35.185c-0.331-0.072-0.58-0.205-0.719-0.387
				c-0.096-0.127-0.136-0.268-0.143-0.408l0.933,0.596L9.219,35.185z"/>
			<path fill-rule="evenodd" clip-rule="evenodd" fill="#F39323" d="M18.807,34.98l1.023-0.662c0.045,0.102,0.069,0.195,0.047,0.254
				c-0.066,0.168-0.566,0.395-1.013,0.57L18.807,34.98z"/>
			<path fill-rule="evenodd" clip-rule="evenodd" fill="#F39323" d="M3.852,28.011c-0.622-2.184-0.622-2.184,0.154-3.619
				C4.563,25.285,4.543,25.902,3.852,28.011z"/>
			<path fill-rule="evenodd" clip-rule="evenodd" fill="#F39323" d="M14.051,36.015c-0.159,0-0.321-0.025-0.489-0.076
				c0.288-0.287,0.435-0.316,0.481-0.316c0.08,0,0.229,0.063,0.499,0.314C14.374,35.99,14.211,36.015,14.051,36.015z"/>
			<path fill-rule="evenodd" clip-rule="evenodd" fill="#F39323" d="M24.016,24.468c0.641,1.109,0.956,2.248,0.049,3.426
				C23.89,26.738,23.244,25.613,24.016,24.468z"/>
			<path fill-rule="evenodd" clip-rule="evenodd" fill="#F39323" d="M5.337,32.634c-1.573-0.664-0.935-1.965-1.217-3
				C4.852,30.529,5.623,31.41,5.337,32.634z"/>
			<path fill-rule="evenodd" clip-rule="evenodd" fill="#F39323" d="M23.834,29.656c0.344,1.234-0.032,2.178-1.062,2.922
				C22.405,31.453,23.27,30.642,23.834,29.656z"/>
		</g>
		<g>
			<defs>
				<path id="SVGID_1_" d="M24.033,28.773c0.059-0.246,0.088-0.504,0.086-0.766l0.145-0.188c1.151-1.496,0.545-2.949-0.011-3.912
					l-0.123-0.213c0.119-0.473,0.13-0.965,0.022-1.439c-0.183-0.813-0.701-1.48-1.422-1.838l-0.084-0.041
					c0.008-0.096,0.005-0.189-0.01-0.281l0.043-0.072c0.855-1.426-0.107-2.215-0.812-2.793c-0.202-0.164-0.411-0.336-0.58-0.516
					l-0.707-0.748l-0.026,0.145c-0.36-0.336-0.906-0.592-1.611-0.738L18.6,15.298l-0.195,0.287l-0.312,0.459l-0.172,0.25
					l-0.056-0.029c-0.141-0.076-0.287-0.174-0.443-0.277c-0.404-0.268-0.862-0.572-1.393-0.588H15.99
					c-0.504,0-0.943,0.27-1.367,0.529c-0.164,0.102-0.319,0.197-0.47,0.271l-0.179,0.088l-0.064-0.041
					c-0.818-0.5-1.268-0.775-1.797-0.775c-0.562,0-1.01,0.301-1.895,0.9l-0.357-0.506l-0.283-0.402L9.3,15.072l-0.416,0.246
					c-0.137,0.082-0.29,0.16-0.437,0.234c-0.39,0.197-0.791,0.402-1.054,0.742l-0.038-0.109l-0.588,0.568
					c-0.139,0.137-0.292,0.266-0.454,0.402c-0.706,0.594-1.673,1.408-0.938,2.863l0.103,0.203l-0.233,0.182
					c-0.852,0.66-1.366,1.645-1.376,2.631c-0.002,0.182,0.016,0.357,0.047,0.527l-0.154,0.283c-0.768,1.42-0.826,1.648-0.316,3.477
					l-0.25-0.305l0.635,2.33c0.064,0.236,0.067,0.516,0.07,0.813c0.008,0.789,0.02,1.869,1.416,2.459l0.137,0.059
					c0.225,0.707,0.832,1.287,1.82,1.736l0.367,0.166c0.018,0.033,0.032,0.066,0.052,0.1c0.347,0.559,1.04,0.896,1.952,0.953
					l0.139,0.008c0.202,0.035,0.351,0.111,0.537,0.207c0.339,0.176,0.761,0.393,1.552,0.393c0.155,0,0.322-0.01,0.497-0.025
					l0.328-0.031l0.043-0.119c0.444,0.217,0.875,0.33,1.31,0.33c0.401,0,0.794-0.092,1.193-0.275l0.038,0.086l0.276,0.047
					c0.166,0.029,0.341,0.043,0.521,0.043c0.527,0,1.037-0.123,1.486-0.23c0.23-0.057,0.448-0.109,0.651-0.143l0.708-0.113
					l-0.111-0.209c1.115-0.414,1.68-0.711,1.889-1.205l0.119-0.049c0.984-0.416,1.547-0.889,1.768-1.492
					c0.018-0.053,0.033-0.105,0.047-0.16l0.258-0.188c1.203-0.869,1.618-2.014,1.232-3.402L24.033,28.773z M16.85,28.562
					c0.004,0.006,0.008,0.01,0.012,0.016c-0.008-0.002-0.016-0.002-0.023-0.004C16.842,28.57,16.846,28.566,16.85,28.562z"/>
			</defs>
			<clipPath id="SVGID_2_">
				<use xlink:href="#SVGID_1_"  overflow="visible"/>
			</clipPath>
			<path clip-path="url(#SVGID_2_)" fill-rule="evenodd" clip-rule="evenodd" fill="#F39323" d="M14.488,14.857
				c2.035,0,3.951,0.471,5.625,1.299c-0.656-0.145-1.342-0.223-2.047-0.223c-4.835,0-8.755,3.59-8.755,8.02s3.92,8.02,8.755,8.02
				c3.787,0,7.012-2.203,8.232-5.285c-0.534,5.547-5.616,9.898-11.811,9.898c-6.551,0-11.861-4.863-11.861-10.863
				S7.938,14.857,14.488,14.857z"/>
		</g>
	</g>
</g>
</svg>
