<?xml version="1.0" encoding="utf-8"?>
<!-- Generator: Adobe Illustrator 16.0.0, SVG Export Plug-In . SVG Version: 6.00 Build 0)  -->
<!DOCTYPE svg PUBLIC "-//W3C//DTD SVG 1.1//EN" "http://www.w3.org/Graphics/SVG/1.1/DTD/svg11.dtd">
<svg version="1.1" id="Слой_1" xmlns="http://www.w3.org/2000/svg" xmlns:xlink="http://www.w3.org/1999/xlink" x="0px" y="0px"
	 width="37.076px" height="36.401px" viewBox="0 0 37.076 36.401" enable-background="new 0 0 37.076 36.401" xml:space="preserve">
<g>
	
		<ellipse transform="matrix(0.9257 -0.3783 0.3783 0.9257 -7.2732 11.8943)" fill="#009245" stroke="#055629" stroke-width="0.2591" stroke-miterlimit="10" cx="26.632" cy="24.456" rx="1.069" ry="1.465"/>
	<g>
		<g>
			<g>
				<path fill="#BB426B" d="M34.341,17.989l-0.022-0.403c0,0,0.092,0.004,0.252,0.01c0.163-0.006,0.389,0.026,0.655,0.107
					c0.526,0.152,1.177,0.587,1.527,1.242c0.359,0.64,0.411,1.439,0.191,1.967c-0.105,0.262-0.229,0.46-0.338,0.585
					c-0.091,0.138-0.178,0.185-0.173,0.189c-0.006-0.009-0.128,0.157-0.436,0.318c-0.298,0.153-0.78,0.355-1.375,0.22
					c-0.578-0.115-1.19-0.638-1.294-1.374c-0.174-0.732,0.438-1.574,1.232-1.596c0.814-0.085,1.45,0.927,0.958,1.539
					c-0.213,0.274-0.587,0.416-0.897,0.299c-0.314-0.116-0.454-0.462-0.393-0.723c0.063-0.276,0.34-0.414,0.549-0.38
					c0.221,0.036,0.329,0.235,0.333,0.381c-0.042,0.333-0.32,0.297-0.291,0.306c-0.027-0.006,0.246,0.013,0.273-0.303
					c-0.008-0.139-0.115-0.319-0.315-0.347c-0.189-0.026-0.437,0.105-0.486,0.347c-0.051,0.229,0.08,0.536,0.351,0.624
					c0.26,0.096,0.585-0.03,0.763-0.261c0.192-0.235,0.172-0.605,0.002-0.868c-0.162-0.276-0.487-0.433-0.802-0.417
					c-0.671,0.028-1.154,0.72-1.014,1.309c0.085,0.609,0.595,1.032,1.05,1.119c0.464,0.107,0.875-0.06,1.115-0.178
					c0.244-0.141,0.35-0.261,0.35-0.261s0.263-0.189,0.438-0.623c0.193-0.415,0.18-1.095-0.129-1.652
					c-0.294-0.565-0.85-0.942-1.299-1.074C34.665,17.943,34.337,18.016,34.341,17.989z"/>
			</g>
		</g>
	</g>
	<g opacity="0.4">
		<path fill="#109438" d="M30.459,12.981c0,3.357-2.723,6.08-6.08,6.08s-6.08-2.503-6.08-6.08c0-3.358,2.723-6.081,6.08-6.081
			S30.459,9.623,30.459,12.981z"/>
	</g>
	<g>
		<g>
			<defs>
				<polyline id="XMLID_882_" points="33.862,27.068 5.054,27.068 5.054,25.195 33.862,25.195 				"/>
			</defs>
			<use xlink:href="#XMLID_882_"  overflow="visible" fill="#603914"/>
			<clipPath id="XMLID_5_">
				<use xlink:href="#XMLID_882_"  overflow="visible"/>
			</clipPath>
			<g clip-path="url(#XMLID_5_)">
				<g>
					<g>
						<path fill="#754D24" d="M33.896,28.311c-2.874,0.188-2.914-1.035-5.794-1.035c-2.878,0-2.878,1.036-5.757,1.036
							c-2.881,0-2.881-1.036-5.762-1.036c-2.883,0-2.883,1.036-5.765,1.036c-2.883,0-2.855-0.85-5.732-1.035
							c-0.186-0.012-0.552,0.331-0.552,0.145c0-0.185,1.037-0.185,1.037-0.369c0-0.188-1.037-0.188-1.037-0.376
							c0-0.189,1.037-0.189,1.037-0.378s-0.74-0.882-0.553-0.895c2.874-0.188,2.914,1.035,5.794,1.035
							c2.878,0,2.878-1.036,5.757-1.036c2.881,0,2.881,1.036,5.762,1.036c2.883,0,2.883-1.036,5.765-1.036
							c2.883,0,2.855,0.85,5.732,1.035c0.186,0.012,0.552-0.331,0.552-0.145c0,0.185-1.037,0.185-1.037,0.369
							c0,0.188,1.037,0.188,1.037,0.376c0,0.189-1.063,0.282-1.029,0.468C33.434,27.968,34.084,28.299,33.896,28.311z"/>
						<path fill="none" stroke="#412413" stroke-width="0.1296" stroke-miterlimit="10" d="M33.896,28.311
							c-2.874,0.188-2.914-1.035-5.794-1.035c-2.878,0-2.878,1.036-5.757,1.036c-2.881,0-2.881-1.036-5.762-1.036
							c-2.883,0-2.883,1.036-5.765,1.036c-2.883,0-2.855-0.85-5.732-1.035c-0.186-0.012-0.552,0.331-0.552,0.145
							c0-0.185,1.037-0.185,1.037-0.369c0-0.188-1.037-0.188-1.037-0.376c0-0.189,1.037-0.189,1.037-0.378s-0.74-0.882-0.553-0.895
							c2.874-0.188,2.914,1.035,5.794,1.035c2.878,0,2.878-1.036,5.757-1.036c2.881,0,2.881,1.036,5.762,1.036
							c2.883,0,2.883-1.036,5.765-1.036c2.883,0,2.855,0.85,5.732,1.035c0.186,0.012,0.552-0.331,0.552-0.145
							c0,0.185-1.037,0.185-1.037,0.369c0,0.188,1.037,0.188,1.037,0.376c0,0.189-1.063,0.282-1.029,0.468
							C33.434,27.968,34.084,28.299,33.896,28.311z"/>
					</g>
				</g>
			</g>
			<use xlink:href="#XMLID_882_"  overflow="visible" fill="none" stroke="#412413" stroke-width="0.2591" stroke-miterlimit="10"/>
		</g>
	</g>
	<path fill="none" stroke="#754D24" stroke-width="1.814" stroke-miterlimit="10" d="M0,25.58"/>
	<path fill="none" stroke="#754D24" stroke-width="1.814" stroke-miterlimit="10" d="M36.367,25.58"/>
	<g>
		<path fill="#3AAA35" stroke="#056938" stroke-width="0.2591" stroke-miterlimit="10" d="M15.52,22.932
			c-0.42-0.754-0.662-1.631-0.661-2.568c0-1.603,0.708-3.031,1.81-3.963L16.5,16.231c-3.572-5.271-3.357-9.306-2.366-11.933
			C8.835,5.022,3.607,11.02,2.725,18.698c-0.996,8.653,8.848,6.882,15.287,6.882L15.52,22.932z"/>
	</g>
	<path opacity="0.6" fill="#055629" d="M18.037,16.069c-0.186-0.294-1.871,0.593-2.08,0.732c-0.626,0.417-1.144,0.995-1.477,1.67
		c-0.641,1.302,0.07,3.373-1.781,3.848c-0.496,0.126-0.974,0.1-1.49,0.078c-0.761-0.03-0.434,0.488-1.044,0.936
		c-1.84,1.351-4.003-1.321-4.163-3.023C5.979,20.063,5.914,19.782,6,19.653c0.084,1.291-0.416,3.801,0.296,5.083
		c0.196,0.356,0.479,0.257,0.88,0.448c1.995,0.95,4.647,0.563,6.834,0.568c1.232,0.003,2.268-0.23,3.418-0.453
		c0.715-0.139,1.303-0.289,1.947-0.63c0.41-0.217,0.852-0.844,1.281-0.915c0.008,0.036,0.016,0.073,0.022,0.108
		c0.052,0.242,1.388-1.137,1.442-1.215c0.479-0.692,0.742-1.518,0.742-2.36c0-0.493-0.092-0.964-0.253-1.404
		C20.699,18.719,19.021,17.628,18.037,16.069z"/>
	<g>
		<defs>
			<path id="XMLID_880_" d="M36.342,15.751c-1.141-0.205-2.127-1.029-2.809-1.965c-2.472-3.392-4.178-8.046-8.887-8.299
				c-4.225-0.227-7.309-3.77-7.309-3.77l-0.864-0.999c0,0-6.737,5.541,0,15.486l0.169,0.169c-1.104,0.932-1.811,2.36-1.811,3.964
				c0,2.81,2.166,5.086,4.838,5.086c1.615,0,5.355-0.682,5.355-0.682c1.385-0.167,3.133-0.842,4.45-1.765
				c1.39-0.974,2.681-2.122,3.734-3.489c-0.01,0.012,0.796-0.743,0.919-0.734c0.705,0.049,0.861-0.287,0.917-0.699L34.441,17.9
				C35.779,17.505,36.342,15.751,36.342,15.751z"/>
		</defs>
		<use xlink:href="#XMLID_880_"  overflow="visible" fill="#D7DB2D"/>
		<clipPath id="XMLID_6_">
			<use xlink:href="#XMLID_880_"  overflow="visible"/>
		</clipPath>
		<g clip-path="url(#XMLID_6_)">
			<defs>
				<path id="XMLID_881_" d="M35.912,16.453c0-0.032-0.004-0.065-0.006-0.098c-0.605,0.945-1.875,0.992-2.77,0.425
					c-0.359-0.227-0.807-0.537-1.082-0.863c-0.371-0.442-0.328-0.911-0.338-1.465c0.254,0.695-0.441,1.894-1.119,2.176
					c-1.926,0.8-0.478-2.852-0.389-3.496c0.606-4.354-3.297-7.293-7.408-6.799c-0.941,0.114-1.877,0.286-2.829,0.286
					c-1.696,0-3.237-0.612-4.611-1.609c-0.468-0.339-0.853-0.772-1.19-1.235c0.064,0.433-0.357,0.937-0.502,1.331
					c-0.146,0.396-0.261,0.805-0.352,1.217c-0.209,0.959-0.271,1.948-0.2,2.927c0.088,1.221,0.38,2.42,0.808,3.565
					c0.256,0.691,0.564,1.362,0.907,2.014c0.345,0.655,0.726,1.552,1.252,2.077l0.169,0.168c-1.104,0.932-1.811,2.361-1.811,3.964
					c0,2.81,2.166,5.086,4.838,5.086c1.615,0,5.355-0.681,5.355-0.681c1.385-0.167,3.133-0.842,4.449-1.765
					c1.391-0.974,2.682-2.122,3.734-3.49c-0.01,0.012,0.797-0.742,0.921-0.733c0.703,0.049,0.86-0.288,0.915-0.7
					c-0.201-0.052,1.182-0.052,0.979-0.098C36.537,18.364,35.953,17.49,35.912,16.453z"/>
			</defs>
			<use xlink:href="#XMLID_881_"  overflow="visible" opacity="0.6" fill="#055629"/>
			<clipPath id="XMLID_7_">
				<use xlink:href="#XMLID_881_"  overflow="visible" opacity="0.6"/>
			</clipPath>
			<path clip-path="url(#XMLID_7_)" fill="#3AAA35" d="M36.225,14.844c-0.002-0.032-0.004-0.065-0.008-0.098
				c-0.605,0.945-1.873,0.992-2.77,0.425c-0.358-0.227-0.807-0.537-1.082-0.863c-0.371-0.442-0.326-0.911-0.336-1.464
				c0.253,0.694-0.443,1.893-1.121,2.175c-1.924,0.801-0.477-2.852-0.388-3.497c0.606-4.353-3.297-7.292-7.407-6.798
				c-0.941,0.113-1.879,0.286-2.83,0.286c-1.695,0-3.238-0.613-4.611-1.61c-0.468-0.339-0.854-0.772-1.191-1.235
				c0.064,0.433-0.357,0.937-0.502,1.332c-0.145,0.396-0.26,0.805-0.351,1.217c-0.21,0.959-0.271,1.947-0.2,2.927
				c0.088,1.22,0.38,2.42,0.807,3.565c0.258,0.691,0.564,1.362,0.908,2.015c0.345,0.654,0.725,1.551,1.252,2.076l0.169,0.169
				c-1.103,0.932-1.812,2.36-1.812,3.963c0,2.81,2.166,5.087,4.838,5.087c1.615,0,5.356-0.682,5.356-0.682
				c1.385-0.168,3.132-0.842,4.449-1.765c1.39-0.975,2.681-2.122,3.735-3.49c-0.01,0.012,0.796-0.743,0.92-0.734
				c0.703,0.049,0.859-0.287,0.916-0.699c-0.202-0.052-0.402-0.106-0.605-0.152C35.266,16.701,36.265,15.881,36.225,14.844z"/>
		</g>
		<use xlink:href="#XMLID_880_"  overflow="visible" fill="none" stroke="#055629" stroke-width="0.5289" stroke-miterlimit="10"/>
	</g>
	<path fill="#D7DB2D" d="M19.074,16.426c-2.232,0.206-3.979,2.01-3.979,4.217c0,2.345,1.971,4.245,4.401,4.245
		c2.433,0,4.402-1.9,4.402-4.245c0-0.493-0.091-0.964-0.252-1.405C21.736,19.076,20.058,17.984,19.074,16.426z"/>
	<g>
		<g>
			<defs>
				<circle id="XMLID_879_" cx="24.637" cy="12.619" r="5.859"/>
			</defs>
			<clipPath id="XMLID_8_">
				<use xlink:href="#XMLID_879_"  overflow="visible"/>
			</clipPath>
			<g clip-path="url(#XMLID_8_)">
				<circle fill="none" cx="24.223" cy="12.619" r="5.859"/>
			</g>
		</g>
		<g>
			<defs>
				<circle id="SVGID_1_" cx="24.464" cy="12.766" r="5.118"/>
			</defs>
			<clipPath id="SVGID_2_">
				<use xlink:href="#SVGID_1_"  overflow="visible"/>
			</clipPath>
			<g clip-path="url(#SVGID_2_)">
				<circle fill="none" cx="24.127" cy="12.766" r="5.118"/>
			</g>
		</g>
		<g>
			<defs>
				<circle id="SVGID_3_" cx="24.292" cy="12.861" r="4.376"/>
			</defs>
			<clipPath id="SVGID_4_">
				<use xlink:href="#SVGID_3_"  overflow="visible"/>
			</clipPath>
			<g clip-path="url(#SVGID_4_)">
				<circle fill="none" cx="23.902" cy="12.861" r="4.377"/>
			</g>
		</g>
		<g>
			<defs>
				<circle id="SVGID_5_" cx="24.119" cy="12.956" r="3.635"/>
			</defs>
			<clipPath id="SVGID_6_">
				<use xlink:href="#SVGID_5_"  overflow="visible"/>
			</clipPath>
			<g clip-path="url(#SVGID_6_)">
				<circle fill="none" cx="23.729" cy="12.956" r="3.635"/>
			</g>
		</g>
		<g>
			<defs>
				<circle id="XMLID_872_" cx="23.946" cy="13.051" r="2.894"/>
			</defs>
			<clipPath id="XMLID_9_">
				<use xlink:href="#XMLID_872_"  overflow="visible"/>
			</clipPath>
			<g clip-path="url(#XMLID_9_)">
				<circle fill="none" cx="23.583" cy="13.051" r="2.894"/>
			</g>
			<use xlink:href="#XMLID_872_"  overflow="visible" fill="none" stroke="#056938" stroke-width="0.1296" stroke-miterlimit="10"/>
		</g>
		<g>
			<g>
				<g>
					<path fill="#136838" d="M22.42,11.291c0.011,0.011-0.24,0.144-0.481,0.477c-0.245,0.323-0.47,0.844-0.467,1.394
						c-0.001,0.551,0.236,1.07,0.485,1.388c0.241,0.334,0.5,0.459,0.485,0.473c0,0,0.062,0.049,0.187,0.107
						c0.121,0.067,0.295,0.155,0.526,0.205c0.448,0.12,1.104,0.098,1.64-0.209c0.543-0.292,0.902-0.822,1.033-1.248
						c0.151-0.426,0.087-0.736,0.113-0.731c-0.026-0.006,0.019,0.31-0.159,0.72c-0.156,0.41-0.541,0.895-1.068,1.131
						c-0.521,0.252-1.122,0.223-1.511,0.085c-0.397-0.131-0.606-0.323-0.606-0.323c0.01-0.011-0.209-0.125-0.418-0.415
						c-0.212-0.281-0.408-0.732-0.405-1.211c-0.001-0.48,0.206-0.928,0.422-1.205c0.208-0.292,0.436-0.397,0.422-0.411
						c-0.002-0.003,0.05-0.046,0.157-0.102c0.102-0.065,0.25-0.152,0.451-0.207c0.389-0.128,0.981-0.147,1.492,0.107
						c0.517,0.24,0.89,0.72,1.04,1.123c0.171,0.403,0.125,0.712,0.151,0.707c-0.027,0.005,0.041-0.302-0.108-0.727
						c-0.127-0.422-0.483-0.952-1.026-1.244c-0.534-0.307-1.193-0.328-1.641-0.204c-0.232,0.048-0.404,0.145-0.528,0.208
						C22.478,11.236,22.42,11.291,22.42,11.291z"/>
				</g>
			</g>
		</g>
	</g>
	<g>
		<circle fill="#055629" cx="23.6" cy="13.242" r="1.543"/>
		<path fill="#13381E" d="M23.6,11.831c0.779,0,1.411,0.632,1.411,1.411c0,0.78-0.632,1.412-1.411,1.412s-1.411-0.632-1.411-1.412
			C22.188,12.462,22.82,11.831,23.6,11.831 M23.6,11.566c-0.924,0-1.676,0.751-1.676,1.675c0,0.924,0.752,1.676,1.676,1.676
			s1.676-0.752,1.676-1.676C25.275,12.317,24.523,11.566,23.6,11.566L23.6,11.566z"/>
	</g>
	<g>
		<circle fill="#3AAA35" cx="11.87" cy="20.291" r="2.643"/>
		<g>
			<g>
				<path fill="#115529" d="M10.221,18.03c0.013,0.013-0.292,0.175-0.586,0.581c-0.299,0.393-0.574,1.027-0.569,1.698
					C9.063,20.98,9.353,21.612,9.657,22c0.293,0.407,0.608,0.559,0.591,0.576c0,0,0.075,0.06,0.227,0.131
					c0.146,0.083,0.359,0.19,0.641,0.252c0.545,0.148,1.347,0.124,2.003-0.25c0.666-0.354,1.107-1.001,1.27-1.522
					c0.037-0.132,0.071-0.253,0.101-0.36c0.009-0.111,0.016-0.208,0.022-0.288c0.012-0.158,0.019-0.249,0.019-0.249
					s-0.012,0.091-0.033,0.25c-0.01,0.079-0.023,0.174-0.038,0.284c-0.036,0.104-0.077,0.222-0.121,0.351
					c-0.189,0.504-0.66,1.103-1.31,1.397c-0.641,0.313-1.383,0.281-1.865,0.113c-0.251-0.067-0.432-0.188-0.56-0.264
					c-0.134-0.068-0.192-0.133-0.192-0.133c0.013-0.013-0.259-0.154-0.518-0.514c-0.263-0.348-0.506-0.907-0.503-1.501
					c-0.001-0.594,0.256-1.15,0.524-1.493c0.258-0.361,0.54-0.492,0.523-0.509c-0.002-0.004,0.063-0.057,0.195-0.125
					c0.126-0.08,0.311-0.187,0.56-0.253c0.481-0.157,1.214-0.177,1.843,0.14c0.637,0.298,1.094,0.891,1.276,1.388
					c0.042,0.126,0.082,0.242,0.116,0.345c0.014,0.108,0.026,0.202,0.036,0.279c0.02,0.156,0.031,0.245,0.031,0.245
					s-0.006-0.09-0.017-0.248c-0.006-0.079-0.012-0.175-0.02-0.286c-0.03-0.106-0.063-0.227-0.1-0.358
					c-0.159-0.518-0.598-1.165-1.263-1.519c-0.655-0.373-1.46-0.395-2.006-0.242c-0.283,0.059-0.492,0.178-0.642,0.256
					C10.292,17.963,10.221,18.03,10.221,18.03z"/>
			</g>
		</g>
	</g>
	<g>
		<ellipse fill="#3AAA35" cx="11.694" cy="20.817" rx="2.151" ry="2.16"/>
		<g>
			<g>
				<path fill="#115529" d="M10.333,18.948c0.01,0.011-0.241,0.145-0.483,0.481c-0.246,0.325-0.472,0.85-0.468,1.403
					c-0.002,0.554,0.236,1.077,0.486,1.397c0.242,0.336,0.501,0.463,0.487,0.477c0,0,0.062,0.05,0.188,0.108
					c0.122,0.067,0.297,0.156,0.53,0.207c0.45,0.121,1.111,0.097,1.647-0.214c0.545-0.295,0.902-0.83,1.031-1.256
					c0.15-0.428,0.085-0.739,0.111-0.734c-0.026-0.006,0.018,0.311-0.16,0.721c-0.157,0.41-0.542,0.896-1.069,1.131
					c-0.521,0.251-1.12,0.22-1.507,0.081c-0.396-0.133-0.602-0.325-0.602-0.325c0.01-0.01-0.208-0.125-0.416-0.414
					c-0.21-0.281-0.405-0.73-0.402-1.207c0-0.478,0.205-0.925,0.42-1.201c0.207-0.291,0.432-0.396,0.419-0.41
					c0,0,0.05-0.047,0.156-0.103c0.101-0.064,0.248-0.152,0.448-0.208c0.386-0.129,0.978-0.15,1.487,0.104
					c0.516,0.239,0.889,0.72,1.038,1.123c0.171,0.403,0.126,0.712,0.152,0.707c-0.027,0.005,0.042-0.302-0.105-0.728
					c-0.126-0.423-0.479-0.957-1.022-1.252c-0.535-0.312-1.198-0.334-1.649-0.209C10.592,18.744,10.333,18.948,10.333,18.948z"/>
			</g>
		</g>
	</g>
	<g>
		<g>
			<g>
				<g>
					<defs>
						<path id="XMLID_871_" d="M14.422,4.025c-1.185,0.23-2.461,0.559-3.578,1.019c-1.445,0.595-2.909,1.34-4.129,2.325
							c-1.223,0.985-2.303,2.069-3.226,3.343c-0.905,1.249-1.659,2.593-2.18,4.048c-1.091,3.049-1.026,6.399-0.226,9.509
							c0.402,1.561,0.99,3.098,1.81,4.488c0.786,1.333,1.825,2.538,2.998,3.542c2.442,2.096,5.604,3.408,8.793,3.764
							c2.326,0.26,4.69-0.161,6.747-1.299c2.285-1.266,4.08-3.42,4.469-6.052c0.436-2.961-0.834-6.29-3.652-7.599
							c-1.436-0.666-3.154-0.889-4.691-0.475c-1.385,0.374-2.574,1.315-3.269,2.57c-0.736,1.332-0.868,2.994-0.285,4.407
							c0.554,1.34,1.856,2.354,3.3,2.526c1.509,0.187,3.049-0.456,3.726-1.87c0.495-1.033,0.438-2.36-0.321-3.251
							c-0.719-0.841-2.054-1.211-3.049-0.641c-0.432,0.247-0.771,0.615-0.943,1.09c-0.158,0.436-0.184,1.069,0.072,1.484
							c0.248,0.405,0.566,0.71,1.045,0.813c0.43,0.146,0.991-0.026,1.293-0.349c0.1-0.106,0.148-0.175,0.16-0.212
							c0,0-0.027,0.023-0.276,0.194c-0.708,0.491-1.878-0.125-1.965-0.88c-0.03-0.584,0.104-1.083,0.583-1.461
							c0.197-0.157,0.432-0.237,0.676-0.294c-0.056,0.013,0.175-0.014,0.211-0.015c0.172-0.007,0.346,0.009,0.514,0.049
							c0.343,0.082,0.661,0.263,0.904,0.517c0.438,0.458,0.59,1.103,0.486,1.72c-0.262,1.557-1.923,2.267-3.33,1.729
							c-1.474-0.565-2.078-2.17-1.686-3.639c0.35-1.306,1.502-2.361,2.859-2.509c1.302-0.176,2.877,0.299,3.779,1.273
							c1.037,1.121,1.32,2.815,1.02,4.276c-0.478,2.328-2.708,3.75-4.926,4.171c-2.211,0.421-4.533-0.24-6.486-1.268
							c-1.225-0.645-2.367-1.484-3.279-2.53c-1.047-1.199-1.736-2.621-2.151-4.149l-0.325-2.224l0.11-1.986"/>
					</defs>
					<use xlink:href="#XMLID_871_"  overflow="visible" fill="#D7DB2D"/>
					<clipPath id="XMLID_10_">
						<use xlink:href="#XMLID_871_"  overflow="visible"/>
					</clipPath>
					<g clip-path="url(#XMLID_10_)">
						<g>
							<g>
								<path fill="#3AAA35" d="M15.535,4.388c-1.186,0.23-2.199,0.559-3.316,1.019c-1.445,0.595-2.909,1.34-4.13,2.325
									c-1.222,0.986-2.303,2.069-3.225,3.342c-0.904,1.25-1.659,2.593-2.18,4.048c-1.091,3.049-1.026,6.398-0.226,9.509
									c0.402,1.561,0.99,3.098,1.811,4.488c0.784,1.333,1.824,2.538,2.997,3.542c2.442,2.096,5.603,3.407,8.793,3.764
									c2.325,0.26,4.69-0.162,6.747-1.3c2.285-1.265,4.08-3.419,4.469-6.052c0.436-2.96-0.835-6.289-3.652-7.599
									c-1.436-0.666-3.154-0.889-4.691-0.474c-1.386,0.374-2.574,1.314-3.27,2.57c-0.736,1.331-0.867,2.993-0.283,4.406
									c0.552,1.34,1.855,2.354,3.299,2.526c1.509,0.188,3.049-0.456,3.726-1.869c0.493-1.033,0.438-2.361-0.322-3.251
									c-0.718-0.842-2.054-1.212-3.048-0.641c-0.432,0.248-0.771,0.616-0.943,1.091c-0.158,0.437-0.184,1.068,0.072,1.485
									c0.248,0.404,0.565,0.709,1.045,0.812c0.43,0.146,0.991-0.026,1.293-0.349c0.1-0.106,0.148-0.175,0.16-0.212
									c0,0-0.027,0.023-0.277,0.195c-0.707,0.49-1.877-0.125-1.965-0.88c-0.029-0.585,0.104-1.084,0.584-1.462
									c0.197-0.157,0.432-0.236,0.676-0.294c-0.057,0.013,0.175-0.014,0.211-0.015c0.173-0.007,0.346,0.01,0.514,0.05
									c0.343,0.082,0.66,0.262,0.904,0.516c0.438,0.458,0.59,1.103,0.486,1.72c-0.262,1.556-1.924,2.267-3.33,1.728
									c-1.474-0.565-2.078-2.169-1.686-3.639c0.35-1.306,1.502-2.362,2.859-2.508c1.301-0.177,2.877,0.298,3.779,1.273
									c1.037,1.12,1.32,2.815,1.02,4.276c-0.479,2.327-2.708,3.75-4.926,4.17c-2.211,0.421-4.533-0.24-6.486-1.268
									c-1.225-0.645-2.367-1.484-3.28-2.53c-1.046-1.199-1.735-2.621-2.15-4.149L15.535,4.388z"/>
							</g>
						</g>
					</g>
				</g>
			</g>
		</g>
	</g>
	<line fill="none" stroke="#3AAA35" stroke-width="0.4195" stroke-miterlimit="10" x1="6.146" y1="20.081" x2="13.646" y2="5.575"/>
	<g>
		<path fill="#3AAA35" d="M10.422,19.563c0,0-1.664,1.89-1.664,3.624c0,0,2.658-0.167,2.938,1.582c0,0,0.252-2.196-0.945-2.972"/>
		<g>
			<g>
				<path fill="#115529" d="M11.64,24.14c-0.296-0.491-0.813-0.785-1.319-0.929c-0.255-0.081-0.517-0.125-0.778-0.156
					c-0.131-0.016-0.262-0.025-0.393-0.031L8.939,23.02c0.003-0.025-0.003,0.04,0.008-0.06c0.014,0.002-0.015-0.229,0.069-0.564
					c0.069-0.34,0.219-0.784,0.423-1.21c0.402-0.856,0.996-1.611,0.996-1.611s-0.659,0.703-1.146,1.545
					c-0.246,0.419-0.44,0.87-0.545,1.228c-0.113,0.354-0.112,0.616-0.125,0.612l-0.042,0.397l0.376-0.013l0.187,0.004
					c0.125,0.006,0.249,0.014,0.373,0.029c0.246,0.031,0.493,0.072,0.726,0.147c0.468,0.135,0.903,0.398,1.13,0.797
					c0.09,0.142,0.141,0.302,0.187,0.468l0.248,0.902l0.037-0.908c0.022-0.564-0.019-1.117-0.17-1.654
					c-0.157-0.531-0.443-1.04-0.909-1.349c0.874,0.73,0.92,1.956,0.853,2.977c0.072-0.004,0.144-0.008,0.199-0.009
					C11.783,24.542,11.735,24.336,11.64,24.14z"/>
			</g>
		</g>
	</g>
	<g>
		<path fill="#D7DB2D" d="M9.795,22.991c0-0.777,0.342-1.586,0.695-2.219c0.006-0.962,0.651-1.763,1.509-1.952
			c-0.126-0.027-0.256-0.043-0.39-0.043c-1.044,0-1.891,0.893-1.898,1.995c-0.354,0.632-0.695,1.442-0.695,2.219H9.795z"/>
	</g>
	<g>
		<g>
			<g>
				<path fill="none" stroke="#055629" stroke-width="0.5289" stroke-miterlimit="10" d="M14.633,3.95
					c-1.186,0.23-2.672,0.633-3.789,1.094c-1.445,0.595-2.909,1.34-4.129,2.325c-1.223,0.985-2.303,2.069-3.226,3.343
					c-0.905,1.249-1.659,2.593-2.18,4.048c-1.091,3.049-1.026,6.399-0.226,9.509c0.402,1.561,0.99,3.098,1.81,4.488
					c0.786,1.333,1.825,2.538,2.998,3.542c2.442,2.096,5.604,3.408,8.793,3.764c2.326,0.26,4.69-0.161,6.747-1.299
					c2.285-1.266,4.08-3.42,4.469-6.052c0.436-2.961-0.834-6.29-3.652-7.599c-1.436-0.666-3.154-0.889-4.691-0.475
					c-1.385,0.374-2.574,1.315-3.269,2.57c-0.736,1.332-0.868,2.994-0.285,4.407c0.554,1.34,1.856,2.354,3.3,2.526
					c1.509,0.187,3.049-0.456,3.726-1.87c0.495-1.033,0.438-2.36-0.321-3.251c-0.719-0.841-2.054-1.211-3.049-0.641
					c-0.432,0.247-0.771,0.615-0.943,1.09c-0.158,0.436-0.184,1.069,0.072,1.484c0.248,0.405,0.566,0.71,1.045,0.813
					c0.43,0.146,0.991-0.026,1.293-0.349c0.1-0.106,0.148-0.175,0.16-0.212c0,0-0.027,0.023-0.276,0.194
					c-0.708,0.491-1.878-0.125-1.965-0.88c-0.03-0.584,0.104-1.083,0.583-1.461c0.197-0.157,0.432-0.237,0.676-0.294
					c-0.056,0.013,0.175-0.014,0.211-0.015c0.172-0.007,0.346,0.009,0.514,0.049c0.343,0.082,0.661,0.263,0.904,0.517
					c0.438,0.458,0.59,1.103,0.486,1.72c-0.262,1.557-1.923,2.267-3.33,1.729c-1.474-0.565-2.078-2.17-1.686-3.639
					c0.35-1.306,1.502-2.361,2.859-2.509c1.302-0.176,2.877,0.299,3.779,1.273c1.037,1.121,1.32,2.815,1.02,4.276
					c-0.478,2.328-2.708,3.75-4.926,4.171c-2.211,0.421-4.533-0.24-6.486-1.268c-1.225-0.645-2.367-1.484-3.279-2.53
					c-1.047-1.199-1.736-2.621-2.151-4.149"/>
			</g>
		</g>
	</g>
	<g>
		<path fill="#3AAA35" d="M10.002,26.862c-0.802-0.44-1.186-1.115-1.026-1.807c0.15-0.653,0.75-1.091,1.493-1.091
			c0.6,0.013,1.079,0.239,1.393,0.64c0.024,0.029,0.048,0.062,0.07,0.094c0.07,0.102,0.12,0.198,0.164,0.286
			c0.099,0.194,0.158,0.312,0.41,0.393l0.557,0.179l-0.584,0.026c-0.113,0.005-0.21,0.021-0.305,0.036
			c-0.118,0.019-0.234,0.037-0.369,0.037H11.77l-0.098-0.022c-0.145-0.106-0.287-0.16-0.422-0.16c-0.565,0-0.983,0.959-1.097,1.329
			l-0.038,0.123L10.002,26.862z"/>
		<path fill="#055629" d="M10.469,24.069c0.014,0,0.027,0,0.041,0c0.5,0.011,0.962,0.206,1.27,0.599
			c0.023,0.028,0.045,0.058,0.064,0.087c0.232,0.335,0.212,0.586,0.63,0.721c-0.252,0.011-0.428,0.073-0.669,0.073
			c-0.022,0-0.046-0.001-0.07-0.002c-0.174-0.127-0.335-0.18-0.484-0.18c-0.766,0-1.197,1.403-1.197,1.403
			c-0.632-0.347-1.148-0.938-0.975-1.691C9.229,24.423,9.826,24.069,10.469,24.069 M10.469,23.859c-0.792,0-1.434,0.471-1.596,1.172
			c-0.17,0.74,0.232,1.458,1.078,1.923l0.226,0.124l0.076-0.246c0.101-0.326,0.5-1.255,0.997-1.255c0.112,0,0.234,0.047,0.361,0.14
			l0.051,0.037l0.063,0.003l0.08,0.002c0.142,0,0.262-0.019,0.386-0.038c0.091-0.015,0.184-0.03,0.293-0.035l1.168-0.052
			l-1.114-0.357c-0.21-0.067-0.253-0.153-0.348-0.34c-0.047-0.091-0.098-0.192-0.173-0.3c-0.021-0.032-0.047-0.067-0.075-0.102
			c-0.33-0.421-0.837-0.662-1.427-0.675h-0.002L10.469,23.859L10.469,23.859z"/>
	</g>
	<g>
		<path fill="#3AAA35" d="M27.974,27.83c-0.44,0-0.874-0.186-1.222-0.523c-0.549-0.533-0.671-1.28-0.302-1.86
			c0.259-0.407,0.783-0.67,1.334-0.67c0.232,0,0.456,0.048,0.648,0.139l0.124,0.059l-0.089,0.104
			c-0.221,0.258-0.436,0.761-0.399,1.182c0.018,0.202,0.091,0.358,0.219,0.463c0.114,0.095,0.26,0.109,0.43,0.125
			c0.095,0.009,0.191,0.019,0.284,0.042c0.081,0.021,0.149,0.058,0.223,0.097c0.111,0.061,0.226,0.123,0.402,0.135l0.367,0.026
			l-0.325,0.171c-0.678,0.357-0.969,0.408-1.337,0.471l-0.174,0.027C28.094,27.826,28.033,27.83,27.974,27.83z"/>
		<path fill="#055629" d="M27.784,24.881c0.211,0,0.419,0.042,0.603,0.129c-0.36,0.422-0.666,1.383-0.167,1.795
			c0.21,0.174,0.495,0.123,0.755,0.188c0.182,0.046,0.326,0.213,0.643,0.235c-0.699,0.369-0.967,0.401-1.367,0.471
			c-0.035,0.006-0.072,0.012-0.107,0.016c-0.057,0.006-0.113,0.009-0.169,0.009c-0.432,0-0.832-0.186-1.149-0.494
			c-0.473-0.458-0.654-1.15-0.286-1.729C26.791,25.105,27.295,24.881,27.784,24.881 M27.784,24.671
			c-0.586,0-1.145,0.282-1.422,0.719c-0.396,0.623-0.269,1.423,0.317,1.992c0.368,0.357,0.828,0.553,1.295,0.553
			c0.063,0,0.128-0.003,0.192-0.011c0.04-0.004,0.082-0.011,0.121-0.018l0.06-0.01c0.377-0.065,0.676-0.117,1.368-0.482l0.65-0.343
			l-0.733-0.052c-0.153-0.011-0.253-0.065-0.359-0.123c-0.075-0.041-0.153-0.083-0.246-0.106c-0.099-0.025-0.2-0.036-0.3-0.045
			c-0.152-0.015-0.283-0.027-0.373-0.102c-0.105-0.087-0.167-0.219-0.182-0.392c-0.033-0.378,0.165-0.859,0.375-1.105l0.178-0.208
			l-0.248-0.117C28.271,24.723,28.031,24.671,27.784,24.671L27.784,24.671z"/>
	</g>
	<g>
		<g>
			<g>
				<path fill="#085729" d="M34.587,17.708l0.095,0.288c0,0-0.319,0.11-0.65,0.175c-0.326,0.086-0.665,0.115-0.665,0.115
					c0,0-0.732,0.064-1.412-0.169c-0.341-0.103-0.636-0.332-0.804-0.523c-0.153-0.21-0.254-0.351-0.254-0.351
					s0.114,0.126,0.286,0.315c0.183,0.167,0.479,0.351,0.807,0.412c0.653,0.151,1.326,0.02,1.326,0.02s0.081-0.012,0.201-0.029
					c0.121-0.013,0.281-0.042,0.439-0.082C34.278,17.816,34.587,17.709,34.587,17.708z"/>
			</g>
		</g>
	</g>
	
		<ellipse transform="matrix(0.9677 0.2522 -0.2522 0.9677 3.9995 -5.6061)" fill="#FFFFFF" cx="23.87" cy="12.8" rx="0.689" ry="0.572"/>
	<ellipse fill="#FFFFFF" cx="23.485" cy="13.375" rx="0.291" ry="0.301"/>
	<g>
		<path fill="#8EC044" stroke="#055629" stroke-width="0.2098" stroke-miterlimit="10" d="M29.223,25.802
			c-0.335,0.297-0.607-0.122-0.546-0.459c0.064-0.356,0.356-0.647,0.733-0.648c0.457-0.001,1.016,0.433,1.016,0.433
			c0.111,0.021-0.336-0.011-0.367-0.019C30.059,25.109,29.377,25.665,29.223,25.802z"/>
	</g>
	<g>
		<g>
			<g>
				<path fill="#115529" d="M30.212,18.252c0.018,0.021,0.384-0.324,0.729-0.692c0.29-0.414,0.55-0.844,0.525-0.857
					c0,0,0.05-0.136,0.126-0.341c0.096-0.198,0.128-0.488,0.173-0.772c0.093-0.569-0.018-1.144,0.008-1.141
					c-0.026-0.003,0.031,0.582-0.115,1.129c-0.068,0.274-0.128,0.548-0.24,0.731c-0.09,0.188-0.151,0.314-0.151,0.314
					c0.025,0.013-0.228,0.419-0.501,0.813c-0.33,0.349-0.677,0.676-0.695,0.654c0,0-0.111,0.083-0.277,0.208
					c-0.156,0.145-0.413,0.252-0.666,0.374c-0.504,0.246-1.081,0.305-1.073,0.33c-0.008-0.026,0.578-0.028,1.119-0.233
					c0.271-0.098,0.55-0.191,0.726-0.325C30.087,18.329,30.212,18.252,30.212,18.252z"/>
			</g>
		</g>
	</g>
	<g>
		<path opacity="0.6" fill="#055629" d="M15.414,2.222c-0.279-0.223-0.326-0.629-0.101-0.91l0,0c0.224-0.28,0.63-0.326,0.909-0.103
			l0,0c0.28,0.223,0.327,0.632,0.104,0.912l0,0c-0.129,0.161-0.318,0.243-0.508,0.243l0,0C15.676,2.364,15.534,2.318,15.414,2.222z"
			/>
		<path opacity="0.6" fill="#055629" d="M14.681,3.28c-0.28-0.223-0.327-0.629-0.101-0.91l0,0c0.223-0.28,0.629-0.327,0.909-0.104
			l0,0c0.28,0.223,0.327,0.632,0.104,0.912l0,0c-0.13,0.161-0.319,0.244-0.509,0.244l0,0C14.942,3.423,14.8,3.376,14.681,3.28z"/>
		<path opacity="0.6" fill="#055629" d="M14.098,4.403c-0.28-0.223-0.326-0.63-0.102-0.91l0,0c0.223-0.28,0.63-0.327,0.91-0.104l0,0
			c0.279,0.223,0.326,0.632,0.104,0.912l0,0c-0.129,0.16-0.318,0.244-0.508,0.244l0,0C14.359,4.546,14.217,4.499,14.098,4.403z"/>
		<path opacity="0.6" fill="#055629" d="M13.646,5.575c-0.279-0.223-0.326-0.63-0.102-0.91l0,0c0.223-0.28,0.631-0.327,0.91-0.104
			l0,0c0.28,0.223,0.326,0.632,0.104,0.913l0,0c-0.129,0.161-0.318,0.244-0.508,0.244l0,0C13.908,5.718,13.766,5.671,13.646,5.575z"
			/>
		<path opacity="0.6" fill="#055629" d="M13.432,6.85c-0.279-0.223-0.326-0.63-0.102-0.91l0,0c0.224-0.28,0.631-0.327,0.91-0.104
			l0,0c0.28,0.223,0.326,0.632,0.104,0.913l0,0c-0.129,0.16-0.318,0.243-0.508,0.243l0,0C13.693,6.992,13.551,6.945,13.432,6.85z"/>
		<path opacity="0.6" fill="#055629" d="M13.253,8.175c-0.28-0.223-0.327-0.63-0.101-0.91l0,0c0.223-0.28,0.629-0.327,0.909-0.104
			l0,0c0.28,0.223,0.327,0.632,0.104,0.912l0,0c-0.13,0.161-0.319,0.244-0.507,0.244l0,0C13.515,8.318,13.372,8.271,13.253,8.175z"
			/>
		<path opacity="0.6" fill="#055629" d="M13.309,9.454c-0.279-0.223-0.326-0.63-0.101-0.91l0,0c0.223-0.28,0.63-0.327,0.909-0.104
			l0,0c0.28,0.223,0.326,0.632,0.104,0.913l0,0c-0.129,0.16-0.318,0.243-0.508,0.243l0,0C13.57,9.596,13.428,9.549,13.309,9.454z"/>
		<path opacity="0.6" fill="#055629" d="M13.569,10.728c-0.28-0.222-0.326-0.629-0.101-0.909l0,0
			c0.223-0.28,0.629-0.327,0.908-0.104l0,0c0.28,0.223,0.327,0.632,0.104,0.912l0,0c-0.13,0.16-0.319,0.243-0.508,0.243l0,0
			C13.83,10.87,13.688,10.824,13.569,10.728z"/>
		<path opacity="0.6" fill="#055629" d="M13.91,11.95c-0.279-0.223-0.326-0.63-0.102-0.91l0,0c0.224-0.28,0.63-0.327,0.91-0.104l0,0
			c0.279,0.223,0.326,0.632,0.104,0.912l0,0c-0.129,0.161-0.318,0.244-0.508,0.244l0,0C14.172,12.093,14.029,12.046,13.91,11.95z"/>
		<path opacity="0.6" fill="#055629" d="M14.35,13.169c-0.281-0.223-0.327-0.629-0.102-0.909l0,0c0.223-0.28,0.629-0.327,0.91-0.104
			l0,0c0.279,0.222,0.326,0.632,0.104,0.912l0,0c-0.13,0.161-0.318,0.244-0.508,0.244l0,0C14.611,13.312,14.469,13.265,14.35,13.169
			z"/>
		<path opacity="0.6" fill="#055629" d="M14.912,14.292c-0.281-0.223-0.327-0.63-0.102-0.91l0,0c0.223-0.28,0.629-0.327,0.909-0.104
			l0,0c0.28,0.223,0.327,0.632,0.104,0.913l0,0c-0.131,0.16-0.319,0.243-0.509,0.243l0,0C15.174,14.435,15.031,14.388,14.912,14.292
			z"/>
		<path opacity="0.6" fill="#055629" d="M15.52,15.452c-0.28-0.223-0.326-0.63-0.102-0.91l0,0c0.223-0.28,0.63-0.326,0.91-0.104l0,0
			c0.279,0.223,0.326,0.632,0.104,0.912l0,0c-0.129,0.161-0.318,0.244-0.508,0.244l0,0C15.781,15.595,15.639,15.548,15.52,15.452z"
			/>
		<path opacity="0.6" fill="#055629" d="M16.18,16.549c-0.279-0.223-0.326-0.629-0.102-0.91l0,0c0.224-0.28,0.631-0.327,0.91-0.104
			l0,0c0.279,0.223,0.326,0.632,0.104,0.912l0,0c-0.129,0.161-0.318,0.244-0.508,0.244l0,0
			C16.441,16.692,16.299,16.646,16.18,16.549z"/>
	</g>
	<g>
		<path opacity="0.6" fill="#055629" d="M13.044,6.029c-0.28-0.223-0.326-0.629-0.101-0.909l0,0c0.223-0.28,0.629-0.326,0.91-0.104
			l0,0c0.279,0.223,0.326,0.632,0.104,0.912l0,0c-0.131,0.161-0.319,0.244-0.509,0.244l0,0C13.307,6.172,13.164,6.126,13.044,6.029z
			"/>
		<path opacity="0.6" fill="#055629" d="M12.829,7.304c-0.28-0.223-0.327-0.63-0.101-0.91l0,0c0.223-0.28,0.629-0.327,0.91-0.104
			l0,0c0.279,0.223,0.326,0.632,0.104,0.913l0,0c-0.131,0.16-0.319,0.243-0.508,0.243l0,0C13.091,7.447,12.949,7.4,12.829,7.304z"/>
		<path opacity="0.6" fill="#055629" d="M12.65,8.629C12.371,8.407,12.324,8,12.549,7.72l0,0c0.224-0.28,0.631-0.327,0.91-0.104l0,0
			c0.28,0.223,0.327,0.632,0.104,0.912l0,0c-0.129,0.161-0.318,0.243-0.508,0.243l0,0C12.912,8.772,12.77,8.726,12.65,8.629z"/>
		<path opacity="0.6" fill="#055629" d="M12.707,9.908c-0.28-0.223-0.326-0.63-0.102-0.91l0,0c0.223-0.28,0.63-0.327,0.91-0.104l0,0
			c0.279,0.223,0.326,0.632,0.104,0.913l0,0c-0.129,0.16-0.318,0.243-0.508,0.243l0,0C12.969,10.051,12.826,10.004,12.707,9.908z"/>
		<path opacity="0.6" fill="#055629" d="M12.967,11.183c-0.279-0.223-0.326-0.63-0.102-0.91l0,0c0.224-0.28,0.631-0.327,0.91-0.104
			l0,0c0.279,0.223,0.326,0.632,0.104,0.912l0,0c-0.129,0.161-0.318,0.244-0.508,0.244l0,0
			C13.229,11.325,13.086,11.278,12.967,11.183z"/>
		<path opacity="0.6" fill="#055629" d="M13.309,12.404c-0.28-0.222-0.326-0.629-0.102-0.909l0,0c0.223-0.28,0.63-0.327,0.91-0.104
			l0,0c0.279,0.223,0.326,0.632,0.104,0.912l0,0c-0.13,0.161-0.319,0.243-0.508,0.243l0,0C13.57,12.547,13.427,12.5,13.309,12.404z"
			/>
		<path opacity="0.6" fill="#055629" d="M13.746,13.624c-0.279-0.223-0.326-0.629-0.1-0.909l0,0c0.223-0.28,0.629-0.327,0.909-0.104
			l0,0c0.279,0.223,0.326,0.633,0.103,0.913l0,0c-0.129,0.161-0.318,0.244-0.508,0.244l0,0
			C14.009,13.767,13.866,13.72,13.746,13.624z"/>
		<path opacity="0.6" fill="#055629" d="M14.309,14.747c-0.279-0.223-0.326-0.63-0.101-0.91l0,0c0.223-0.28,0.63-0.327,0.909-0.104
			l0,0c0.281,0.223,0.326,0.632,0.104,0.913l0,0c-0.129,0.16-0.318,0.243-0.508,0.243l0,0
			C14.571,14.889,14.428,14.843,14.309,14.747z"/>
		<path opacity="0.6" fill="#055629" d="M14.917,15.907c-0.28-0.223-0.326-0.629-0.101-0.909l0,0
			c0.223-0.28,0.629-0.327,0.909-0.104l0,0c0.28,0.222,0.327,0.632,0.104,0.912l0,0c-0.13,0.161-0.319,0.244-0.508,0.244l0,0
			C15.179,16.049,15.036,16.003,14.917,15.907z"/>
		<path opacity="0.6" fill="#055629" d="M15.578,17.004c-0.281-0.223-0.327-0.63-0.102-0.91l0,0c0.223-0.28,0.63-0.327,0.91-0.104
			l0,0c0.279,0.223,0.326,0.632,0.104,0.913l0,0c-0.13,0.16-0.319,0.243-0.509,0.243l0,0C15.84,17.146,15.696,17.1,15.578,17.004z"
			/>
	</g>
	<g>
		<g>
			<g>
				<g>
					<path fill="#115529" d="M21.075,7.733c0,0-0.138,0.114-0.38,0.313c-0.263,0.178-0.552,0.52-0.887,0.941
						c-0.645,0.85-1.239,2.22-1.23,3.67c-0.004,1.452,0.622,2.816,1.278,3.653c0.171,0.208,0.328,0.397,0.467,0.565
						c0.158,0.15,0.312,0.264,0.431,0.366c0.242,0.2,0.38,0.313,0.38,0.313s0.041,0.032,0.117,0.092
						c0.085,0.045,0.211,0.111,0.372,0.196c0.16,0.083,0.355,0.186,0.578,0.302c0.228,0.105,0.51,0.163,0.803,0.257
						c1.179,0.332,2.923,0.3,4.364-0.5c1.462-0.758,2.449-2.168,2.817-3.31c0.085-0.29,0.163-0.556,0.232-0.792
						c0.021-0.244,0.04-0.458,0.055-0.633c0.03-0.35,0.047-0.55,0.047-0.55s-0.024,0.201-0.065,0.552
						c-0.021,0.175-0.046,0.387-0.075,0.631c-0.077,0.233-0.163,0.496-0.258,0.782c-0.405,1.125-1.434,2.475-2.881,3.156
						c-1.428,0.724-3.102,0.678-4.202,0.313c-0.572-0.146-0.985-0.412-1.281-0.581c-0.306-0.152-0.441-0.296-0.442-0.296
						c0,0-0.129-0.106-0.354-0.292c-0.247-0.165-0.515-0.486-0.827-0.878c-0.601-0.793-1.154-2.069-1.146-3.422
						c-0.003-1.354,0.583-2.623,1.194-3.404c0.159-0.193,0.305-0.371,0.435-0.528c0.147-0.139,0.292-0.245,0.402-0.34
						c0.226-0.186,0.354-0.292,0.354-0.292c-0.006-0.008,0.145-0.128,0.448-0.281c0.148-0.083,0.327-0.184,0.532-0.3
						c0.21-0.105,0.474-0.164,0.747-0.261c1.098-0.343,2.755-0.367,4.162,0.362c1.426,0.688,2.432,2.029,2.826,3.142
						c0.092,0.283,0.177,0.543,0.251,0.773c0.027,0.241,0.052,0.45,0.072,0.623c0.04,0.347,0.063,0.544,0.063,0.544
						s-0.017-0.2-0.045-0.549c-0.015-0.175-0.032-0.388-0.053-0.633c-0.069-0.235-0.146-0.501-0.23-0.791
						c-0.367-1.142-1.355-2.553-2.822-3.309c-1.446-0.799-3.199-0.822-4.379-0.476c-0.612,0.136-1.063,0.4-1.384,0.571
						C21.226,7.586,21.075,7.733,21.075,7.733z"/>
				</g>
			</g>
		</g>
		<g>
			<g>
				<g>
					<path fill="#115529" d="M21.336,8.478c0,0-0.121,0.1-0.333,0.275c-0.231,0.156-0.485,0.456-0.779,0.826
						c-0.566,0.746-1.088,1.949-1.08,3.222c-0.004,1.274,0.546,2.472,1.123,3.207c0.15,0.182,0.289,0.349,0.411,0.497
						c0.138,0.131,0.273,0.231,0.378,0.321C21.268,17,21.389,17.1,21.389,17.1s0.036,0.028,0.103,0.081
						c0.075,0.04,0.186,0.098,0.327,0.172c0.141,0.073,0.312,0.162,0.507,0.265c0.2,0.092,0.448,0.142,0.705,0.224
						c1.035,0.289,2.564,0.259,3.825-0.446c1.279-0.667,2.14-1.903,2.46-2.902c0.074-0.254,0.142-0.486,0.202-0.692
						c0.018-0.214,0.034-0.4,0.047-0.554c0.026-0.306,0.041-0.481,0.041-0.481s-0.021,0.175-0.058,0.482
						c-0.019,0.153-0.042,0.338-0.067,0.551c-0.067,0.203-0.144,0.432-0.227,0.682c-0.356,0.981-1.257,2.157-2.52,2.748
						c-1.247,0.627-2.704,0.583-3.659,0.263c-0.498-0.128-0.856-0.36-1.112-0.508c-0.266-0.133-0.383-0.259-0.383-0.258
						c0.025-0.025-0.513-0.305-1.027-1.018c-0.522-0.689-1.003-1.797-0.997-2.973c-0.002-1.178,0.506-2.279,1.038-2.958
						c0.138-0.168,0.265-0.322,0.378-0.458c0.128-0.122,0.253-0.213,0.35-0.295c0.196-0.162,0.308-0.254,0.308-0.254
						c-0.005-0.007,0.126-0.112,0.389-0.245c0.128-0.073,0.283-0.161,0.462-0.262c0.183-0.092,0.411-0.143,0.648-0.229
						c0.954-0.3,2.396-0.326,3.623,0.307c1.244,0.596,2.123,1.764,2.469,2.733c0.081,0.247,0.155,0.474,0.22,0.674
						c0.025,0.209,0.046,0.393,0.064,0.543c0.036,0.302,0.056,0.475,0.056,0.475s-0.014-0.174-0.039-0.479
						c-0.012-0.153-0.027-0.339-0.044-0.553c-0.06-0.206-0.126-0.438-0.2-0.692c-0.318-0.998-1.179-2.235-2.462-2.9
						c-1.264-0.703-2.801-0.726-3.836-0.424c-0.538,0.118-0.933,0.348-1.216,0.498C21.47,8.349,21.337,8.478,21.336,8.478z"/>
				</g>
			</g>
		</g>
		<g>
			<g>
				<g>
					<path fill="#115529" d="M21.6,9.169c0.022,0.022-0.477,0.285-0.958,0.948c-0.488,0.642-0.937,1.677-0.93,2.772
						c-0.003,1.097,0.47,2.128,0.966,2.761c0.129,0.156,0.248,0.3,0.353,0.427c0.119,0.113,0.235,0.199,0.325,0.276
						c0.183,0.151,0.288,0.237,0.288,0.237s0.03,0.024,0.088,0.069c0.065,0.034,0.16,0.083,0.281,0.147
						c0.122,0.063,0.269,0.139,0.438,0.227c0.172,0.079,0.385,0.121,0.607,0.191c0.891,0.247,2.204,0.216,3.285-0.391
						c1.097-0.576,1.832-1.637,2.104-2.494c0.063-0.218,0.12-0.417,0.171-0.594c0.015-0.183,0.028-0.343,0.039-0.474
						c0.021-0.262,0.034-0.412,0.034-0.412s-0.019,0.15-0.051,0.413c-0.016,0.13-0.036,0.289-0.059,0.471
						c-0.058,0.174-0.124,0.37-0.196,0.583c-0.308,0.838-1.081,1.838-2.159,2.338c-1.065,0.531-2.305,0.488-3.116,0.213
						c-0.423-0.11-0.727-0.31-0.944-0.436c-0.225-0.113-0.324-0.221-0.325-0.221c0.021-0.021-0.435-0.259-0.872-0.864
						c-0.443-0.585-0.852-1.526-0.846-2.524c-0.002-1,0.431-1.935,0.881-2.511c0.118-0.143,0.226-0.273,0.321-0.39
						c0.109-0.103,0.216-0.18,0.297-0.25c0.166-0.138,0.261-0.216,0.261-0.216c-0.004-0.006,0.107-0.095,0.33-0.209
						c0.108-0.062,0.24-0.137,0.392-0.224c0.155-0.079,0.349-0.122,0.55-0.196c0.81-0.257,2.037-0.283,3.083,0.253
						c1.061,0.505,1.814,1.499,2.112,2.326c0.07,0.21,0.133,0.404,0.19,0.575c0.021,0.179,0.041,0.335,0.056,0.464
						c0.031,0.258,0.049,0.406,0.049,0.406s-0.011-0.149-0.031-0.41c-0.01-0.131-0.022-0.29-0.037-0.473
						c-0.05-0.176-0.107-0.375-0.169-0.592c-0.269-0.854-1.002-1.917-2.101-2.491c-1.082-0.606-2.402-0.632-3.293-0.375
						c-0.463,0.1-0.804,0.297-1.047,0.425C21.715,9.06,21.6,9.17,21.6,9.169z"/>
				</g>
			</g>
		</g>
		<g>
			<g>
				<g>
					<path fill="#115529" d="M21.862,9.862c0.018,0.018-0.4,0.239-0.803,0.794c-0.409,0.538-0.785,1.406-0.779,2.324
						c-0.003,0.919,0.394,1.784,0.81,2.314c0.108,0.131,0.208,0.251,0.296,0.358c0.1,0.095,0.197,0.167,0.272,0.232
						c0.154,0.126,0.241,0.198,0.241,0.198s0.026,0.02,0.074,0.058c0.055,0.028,0.135,0.07,0.237,0.123
						c0.2,0.114,0.491,0.262,0.876,0.347c0.747,0.204,1.845,0.174,2.746-0.337c0.914-0.484,1.522-1.372,1.746-2.086
						c0.051-0.182,0.099-0.348,0.141-0.495c0.012-0.153,0.022-0.286,0.031-0.395c0.017-0.218,0.026-0.342,0.026-0.342
						s-0.016,0.125-0.044,0.343c-0.014,0.108-0.031,0.24-0.051,0.391c-0.049,0.144-0.104,0.306-0.165,0.483
						c-0.259,0.694-0.904,1.521-1.798,1.929c-0.883,0.435-1.906,0.394-2.573,0.164c-0.348-0.093-0.597-0.258-0.775-0.363
						c-0.185-0.094-0.266-0.183-0.266-0.183c0.018-0.018-0.358-0.213-0.717-0.711c-0.364-0.481-0.7-1.254-0.696-2.076
						c-0.001-0.822,0.354-1.591,0.725-2.064c0.097-0.118,0.186-0.225,0.264-0.321c0.089-0.084,0.178-0.148,0.245-0.206
						c0.137-0.113,0.215-0.178,0.215-0.178c-0.003-0.005,0.087-0.079,0.27-0.173c0.175-0.11,0.43-0.257,0.774-0.349
						c0.666-0.215,1.677-0.241,2.544,0.198c0.878,0.413,1.505,1.232,1.755,1.917c0.059,0.174,0.112,0.334,0.16,0.476
						c0.019,0.148,0.034,0.278,0.047,0.384c0.027,0.214,0.042,0.337,0.042,0.337s-0.009-0.124-0.024-0.34
						c-0.008-0.109-0.018-0.241-0.028-0.393c-0.041-0.146-0.087-0.312-0.138-0.493c-0.22-0.711-0.826-1.598-1.74-2.082
						c-0.9-0.51-2.003-0.537-2.75-0.325c-0.388,0.082-0.674,0.246-0.878,0.352C21.959,9.771,21.862,9.862,21.862,9.862z"/>
				</g>
			</g>
		</g>
	</g>
	<g>
		<path fill="#3AAA35" stroke="#055629" stroke-width="0.1944" stroke-miterlimit="10" d="M15.948,1.157
			c-0.228-0.278-0.188-0.685,0.089-0.913l0,0c0.276-0.228,0.684-0.187,0.912,0.088l0,0c0.225,0.278,0.186,0.685-0.092,0.913l0,0
			c-0.119,0.099-0.264,0.147-0.408,0.147l0,0C16.262,1.393,16.075,1.312,15.948,1.157z"/>
		<path fill="#3AAA35" stroke="#055629" stroke-width="0.1944" stroke-miterlimit="10" d="M15.207,2.196
			c-0.279-0.222-0.326-0.629-0.101-0.91l0,0c0.223-0.28,0.63-0.326,0.909-0.103l0,0c0.279,0.223,0.327,0.632,0.104,0.912l0,0
			c-0.129,0.161-0.318,0.244-0.508,0.244l0,0C15.469,2.338,15.326,2.292,15.207,2.196z"/>
		<path fill="#3AAA35" stroke="#055629" stroke-width="0.1944" stroke-miterlimit="10" d="M14.473,3.254
			c-0.279-0.223-0.326-0.629-0.101-0.909l0,0c0.223-0.28,0.63-0.326,0.909-0.104l0,0c0.28,0.223,0.326,0.632,0.104,0.913l0,0
			c-0.129,0.161-0.318,0.244-0.508,0.244l0,0C14.734,3.397,14.592,3.35,14.473,3.254z"/>
		<path fill="#3AAA35" stroke="#055629" stroke-width="0.1944" stroke-miterlimit="10" d="M13.89,4.377
			c-0.28-0.223-0.326-0.63-0.101-0.91l0,0c0.223-0.28,0.629-0.327,0.91-0.104l0,0c0.279,0.223,0.326,0.633,0.104,0.913l0,0
			c-0.131,0.161-0.319,0.244-0.509,0.244l0,0C14.152,4.52,14.01,4.473,13.89,4.377z"/>
		<path fill="#3AAA35" stroke="#055629" stroke-width="0.1944" stroke-miterlimit="10" d="M13.438,5.549
			c-0.279-0.223-0.325-0.629-0.101-0.909l0,0c0.223-0.28,0.63-0.327,0.91-0.104l0,0c0.279,0.223,0.326,0.632,0.104,0.912l0,0
			c-0.13,0.161-0.318,0.243-0.508,0.243l0,0C13.701,5.691,13.559,5.645,13.438,5.549z"/>
		<path fill="#3AAA35" stroke="#055629" stroke-width="0.1944" stroke-miterlimit="10" d="M13.225,6.824
			c-0.28-0.223-0.326-0.629-0.102-0.91l0,0c0.223-0.28,0.629-0.327,0.91-0.104l0,0c0.279,0.223,0.326,0.632,0.104,0.912l0,0
			c-0.13,0.161-0.318,0.244-0.508,0.244l0,0C13.486,6.966,13.344,6.919,13.225,6.824z"/>
		<path fill="#3AAA35" stroke="#055629" stroke-width="0.1944" stroke-miterlimit="10" d="M13.045,8.149
			c-0.279-0.223-0.326-0.63-0.1-0.91l0,0c0.223-0.28,0.629-0.327,0.908-0.104l0,0c0.28,0.223,0.327,0.632,0.104,0.912l0,0
			c-0.129,0.16-0.318,0.243-0.507,0.243l0,0C13.307,8.292,13.164,8.245,13.045,8.149z"/>
		<path fill="#3AAA35" stroke="#055629" stroke-width="0.1944" stroke-miterlimit="10" d="M13.102,9.428
			c-0.28-0.223-0.326-0.63-0.102-0.91l0,0c0.223-0.28,0.631-0.327,0.91-0.104l0,0c0.279,0.223,0.326,0.632,0.104,0.912l0,0
			c-0.129,0.16-0.318,0.244-0.508,0.244l0,0C13.363,9.57,13.221,9.523,13.102,9.428z"/>
		<path fill="#3AAA35" stroke="#055629" stroke-width="0.1944" stroke-miterlimit="10" d="M13.361,10.702
			c-0.279-0.223-0.326-0.63-0.102-0.91l0,0c0.224-0.28,0.631-0.327,0.91-0.104l0,0c0.28,0.223,0.327,0.632,0.104,0.912l0,0
			c-0.129,0.161-0.318,0.244-0.508,0.244l0,0C13.623,10.845,13.48,10.797,13.361,10.702z"/>
		<path fill="#3AAA35" stroke="#055629" stroke-width="0.1944" stroke-miterlimit="10" d="M13.703,11.924
			c-0.28-0.223-0.326-0.63-0.102-0.91l0,0c0.223-0.28,0.63-0.327,0.91-0.104l0,0c0.279,0.223,0.326,0.632,0.104,0.912l0,0
			c-0.13,0.161-0.318,0.244-0.508,0.244l0,0C13.965,12.067,13.822,12.02,13.703,11.924z"/>
		<path fill="#3AAA35" stroke="#055629" stroke-width="0.1944" stroke-miterlimit="10" d="M14.142,13.143
			c-0.28-0.223-0.327-0.629-0.101-0.91l0,0c0.223-0.28,0.629-0.327,0.909-0.103l0,0c0.28,0.223,0.326,0.632,0.104,0.912l0,0
			c-0.13,0.161-0.318,0.244-0.509,0.244l0,0C14.403,13.286,14.261,13.239,14.142,13.143z"/>
		<path fill="#3AAA35" stroke="#055629" stroke-width="0.1944" stroke-miterlimit="10" d="M14.704,14.266
			c-0.28-0.223-0.327-0.63-0.102-0.91l0,0c0.224-0.28,0.63-0.326,0.909-0.104l0,0c0.281,0.223,0.327,0.632,0.104,0.912l0,0
			c-0.13,0.161-0.319,0.244-0.509,0.244l0,0C14.966,14.409,14.822,14.362,14.704,14.266z"/>
		<path fill="#3AAA35" stroke="#055629" stroke-width="0.1944" stroke-miterlimit="10" d="M15.312,15.426
			c-0.279-0.223-0.326-0.63-0.101-0.91l0,0c0.223-0.28,0.63-0.326,0.909-0.104l0,0c0.28,0.223,0.327,0.633,0.104,0.912l0,0
			c-0.13,0.161-0.319,0.244-0.509,0.244l0,0C15.574,15.569,15.431,15.522,15.312,15.426z"/>
		<path fill="#3AAA35" stroke="#055629" stroke-width="0.1944" stroke-miterlimit="10" d="M15.973,16.523
			c-0.281-0.223-0.327-0.63-0.102-0.91l0,0c0.223-0.28,0.63-0.327,0.91-0.104l0,0c0.279,0.223,0.326,0.632,0.104,0.913l0,0
			c-0.13,0.161-0.318,0.244-0.508,0.244l0,0C16.234,16.666,16.092,16.619,15.973,16.523z"/>
	</g>
	<g>
		<defs>
			<path id="XMLID_870_" d="M31.357,26.918c-0.18,0.724,0.152,1.464,0.779,1.891c0.631,0.428,1.285,0.52,1.598,1.29
				c-0.073-0.812,0.311-1.519-0.271-2.219c-0.334-0.401-0.682-0.475-1.146-0.583c-0.27-0.062-0.873-0.146-0.959-0.466"/>
		</defs>
		<use xlink:href="#XMLID_870_"  overflow="visible" fill="#8EC044"/>
		<clipPath id="XMLID_11_">
			<use xlink:href="#XMLID_870_"  overflow="visible"/>
		</clipPath>
		<path clip-path="url(#XMLID_11_)" fill="#48AE4D" stroke="#055629" stroke-width="0.1296" stroke-miterlimit="10" d="
			M31.486,26.452c-0.178,0.724,0.153,1.464,0.78,1.891c0.631,0.429,1.285,0.52,1.599,1.29c-0.075-0.812,0.309-1.52-0.273-2.219
			c-0.333-0.401-0.68-0.475-1.145-0.583c-0.27-0.063-0.873-0.145-0.961-0.465"/>
		<use xlink:href="#XMLID_870_"  overflow="visible" fill="none" stroke="#055629" stroke-width="0.1296" stroke-miterlimit="10"/>
	</g>
	<g>
		<g>
			<g>
				<path fill="#085729" d="M6.602,25.153L6.21,25.282c0,0-0.183-0.594-0.301-1.197c-0.126-0.601-0.189-1.214-0.189-1.214
					s-0.124-1.305,0.125-2.582c0.132-0.633,0.332-1.251,0.577-1.667c0.096-0.221,0.236-0.371,0.307-0.49
					c0.079-0.114,0.124-0.179,0.124-0.179s-0.04,0.068-0.109,0.188c-0.061,0.124-0.186,0.28-0.263,0.504
					c-0.205,0.425-0.352,1.041-0.432,1.659c-0.141,1.248,0.075,2.49,0.074,2.49c0,0,0.061,0.601,0.186,1.193
					C6.425,24.582,6.602,25.153,6.602,25.153z"/>
			</g>
		</g>
	</g>
	<path opacity="0.6" fill="#055629" d="M11.576,23.031c0.065-0.322-0.504-0.962-0.773-1.201c0.463,0.208,0.855,0.486,1.421,0.34
		c0.512-0.132,0.929-0.567,1.027-1.082c0.25-1.3-0.976-2.042-2.007-2.322c0.58-0.261,1.389,0.107,1.811,0.498
		c0.222,0.207,0.459,0.427,0.594,0.701c0.1,0.2,0.05,0.807,0.391,0.694c0.599-0.2-0.098-1.568-0.295-1.826
		c-0.349-0.459-0.957-1.118-1.594-1.114c1.747,0.221,2.37,1.583,2.354,2.609c-0.021,1.353-0.863,2.418-2.195,2.66
		c-0.215,0.039-0.451,0.039-0.684,0.051c-0.002,0.14-0.081,0.2-0.135,0.295"/>
	<g>
		<path fill="#D7DB2D" d="M16.268,1.134c-0.117,0-0.227-0.051-0.301-0.141C15.9,0.912,15.869,0.81,15.879,0.707
			c0.01-0.103,0.061-0.196,0.141-0.262c0.07-0.058,0.155-0.088,0.246-0.088c0.117,0,0.227,0.052,0.303,0.142
			c0.133,0.165,0.108,0.411-0.057,0.547C16.442,1.102,16.355,1.134,16.268,1.134z"/>
		<path fill="#D7DB2D" d="M15.43,2.079c-0.089,0-0.172-0.029-0.242-0.085c-0.082-0.065-0.133-0.158-0.145-0.261
			c-0.012-0.102,0.019-0.203,0.084-0.284c0.074-0.095,0.186-0.148,0.305-0.148c0.088,0,0.172,0.029,0.241,0.084
			c0.081,0.064,0.133,0.157,0.145,0.261S15.8,1.853,15.735,1.934C15.66,2.026,15.549,2.079,15.43,2.079z"/>
		<path fill="#D7DB2D" d="M14.695,3.138c-0.088,0-0.172-0.029-0.242-0.085c-0.082-0.065-0.133-0.158-0.145-0.261
			c-0.012-0.103,0.019-0.204,0.084-0.284c0.074-0.095,0.186-0.148,0.305-0.148c0.088,0,0.172,0.029,0.241,0.084
			c0.081,0.065,0.133,0.158,0.144,0.261c0.013,0.104-0.017,0.206-0.081,0.287C14.926,3.084,14.814,3.138,14.695,3.138z"/>
		<path fill="#D7DB2D" d="M14.112,4.261c-0.089,0-0.173-0.029-0.241-0.085c-0.083-0.066-0.135-0.158-0.146-0.261
			c-0.011-0.103,0.019-0.204,0.083-0.284c0.076-0.094,0.187-0.148,0.306-0.148c0.089,0,0.172,0.029,0.241,0.084
			c0.082,0.064,0.133,0.157,0.145,0.261s-0.018,0.206-0.082,0.287C14.344,4.207,14.232,4.261,14.112,4.261z"/>
		<path fill="#D7DB2D" d="M13.662,5.433c-0.09,0-0.172-0.029-0.242-0.086c-0.082-0.065-0.134-0.158-0.146-0.26
			c-0.011-0.103,0.019-0.204,0.083-0.285c0.076-0.094,0.188-0.147,0.307-0.147c0.088,0,0.171,0.029,0.24,0.084
			C13.986,4.803,14.037,4.896,14.049,5c0.012,0.104-0.018,0.206-0.082,0.287C13.893,5.379,13.781,5.433,13.662,5.433z"/>
		<path fill="#D7DB2D" d="M13.447,6.707c-0.09,0-0.173-0.029-0.242-0.085c-0.083-0.065-0.134-0.158-0.145-0.261
			c-0.012-0.102,0.018-0.204,0.082-0.284c0.076-0.094,0.187-0.148,0.307-0.148c0.088,0,0.171,0.029,0.24,0.084
			c0.082,0.064,0.133,0.158,0.145,0.262c0.012,0.104-0.018,0.206-0.082,0.286C13.678,6.653,13.566,6.707,13.447,6.707z"/>
		<path fill="#D7DB2D" d="M13.268,8.033c-0.088,0-0.172-0.03-0.242-0.085c-0.082-0.066-0.133-0.158-0.145-0.261
			c-0.011-0.103,0.019-0.204,0.084-0.284c0.075-0.095,0.186-0.148,0.306-0.148c0.087,0,0.171,0.029,0.241,0.085
			c0.08,0.064,0.132,0.157,0.144,0.261s-0.017,0.206-0.082,0.287C13.499,7.979,13.388,8.033,13.268,8.033z"/>
		<path fill="#D7DB2D" d="M13.324,9.311c-0.089,0-0.172-0.029-0.242-0.085C13,9.16,12.949,9.067,12.938,8.965
			c-0.012-0.102,0.018-0.204,0.083-0.284c0.075-0.095,0.187-0.148,0.306-0.148c0.088,0,0.172,0.03,0.24,0.085
			c0.082,0.064,0.133,0.158,0.145,0.262c0.012,0.104-0.018,0.205-0.082,0.287C13.555,9.257,13.443,9.311,13.324,9.311z"/>
		<path fill="#D7DB2D" d="M13.584,10.585c-0.088,0-0.172-0.03-0.241-0.085c-0.083-0.065-0.134-0.158-0.146-0.261
			s0.019-0.204,0.084-0.284c0.075-0.095,0.186-0.148,0.305-0.148c0.088,0,0.172,0.03,0.241,0.085
			c0.081,0.064,0.133,0.157,0.145,0.261c0.012,0.104-0.017,0.206-0.082,0.287C13.814,10.532,13.703,10.585,13.584,10.585z"/>
		<path fill="#D7DB2D" d="M13.926,11.808c-0.089,0-0.173-0.03-0.242-0.086c-0.082-0.065-0.133-0.158-0.145-0.261
			c-0.012-0.103,0.018-0.204,0.083-0.284c0.075-0.094,0.187-0.148,0.306-0.148c0.088,0,0.172,0.03,0.24,0.085
			c0.082,0.064,0.133,0.157,0.145,0.261s-0.018,0.206-0.082,0.287C14.156,11.754,14.045,11.808,13.926,11.808z"/>
		<path fill="#D7DB2D" d="M14.364,13.026c-0.089,0-0.173-0.029-0.241-0.085c-0.083-0.066-0.134-0.158-0.146-0.261
			c-0.011-0.102,0.019-0.204,0.083-0.284c0.076-0.094,0.187-0.148,0.305-0.148c0.089,0,0.172,0.029,0.242,0.084
			c0.081,0.065,0.133,0.158,0.145,0.262c0.012,0.104-0.018,0.206-0.082,0.287C14.595,12.973,14.483,13.026,14.364,13.026z"/>
		<path fill="#D7DB2D" d="M14.927,14.15c-0.089,0-0.173-0.03-0.242-0.086c-0.082-0.066-0.134-0.158-0.146-0.261
			c-0.011-0.103,0.02-0.204,0.084-0.284c0.075-0.094,0.187-0.148,0.305-0.148c0.089,0,0.172,0.029,0.242,0.084
			c0.08,0.065,0.132,0.158,0.144,0.261c0.013,0.104-0.017,0.205-0.082,0.287C15.157,14.096,15.045,14.15,14.927,14.15z"/>
		<path fill="#D7DB2D" d="M15.535,15.31c-0.09,0-0.174-0.029-0.242-0.085c-0.082-0.066-0.134-0.158-0.146-0.261
			c-0.011-0.103,0.019-0.204,0.083-0.284c0.076-0.094,0.188-0.148,0.306-0.148c0.089,0,0.172,0.029,0.241,0.084
			c0.082,0.064,0.133,0.157,0.145,0.261c0.012,0.104-0.018,0.206-0.082,0.287C15.766,15.256,15.654,15.31,15.535,15.31z"/>
		<path fill="#D7DB2D" d="M16.195,16.407c-0.089,0-0.173-0.029-0.242-0.085c-0.082-0.066-0.133-0.158-0.145-0.261
			s0.018-0.203,0.083-0.284c0.075-0.095,0.187-0.148,0.306-0.148c0.088,0,0.171,0.029,0.24,0.084
			c0.082,0.064,0.133,0.158,0.145,0.262c0.012,0.104-0.018,0.205-0.082,0.286C16.426,16.353,16.314,16.407,16.195,16.407z"/>
	</g>
</g>
</svg>
