<?xml version="1.0" encoding="utf-8"?>
<!-- Generator: Adobe Illustrator 16.0.0, SVG Export Plug-In . SVG Version: 6.00 Build 0)  -->
<!DOCTYPE svg PUBLIC "-//W3C//DTD SVG 1.1//EN" "http://www.w3.org/Graphics/SVG/1.1/DTD/svg11.dtd">
<svg version="1.1" id="Слой_1" xmlns="http://www.w3.org/2000/svg" xmlns:xlink="http://www.w3.org/1999/xlink" x="0px" y="0px"
	 width="39.322px" height="37.722px" viewBox="0 0 39.322 37.722" enable-background="new 0 0 39.322 37.722" xml:space="preserve">
<g>
	<g>
		<g>
			<path fill="#F4961B" d="M16.474,6.696c1.959-0.348,3.252-2.152,2.888-4.027c-0.292-1.502-1.799-2.492-3.369-2.212
				c-1.254,0.223-2.081,1.378-1.848,2.579c0.188,0.96,1.151,1.594,2.154,1.415c0.805-0.144,1.334-0.883,1.185-1.65
				c-0.119-0.614-0.736-1.021-1.381-0.905c-0.513,0.09-0.853,0.563-0.757,1.055c0.077,0.395,0.472,0.654,0.884,0.58
				c0.329-0.059,0.547-0.36,0.485-0.676c-0.049-0.252-0.302-0.418-0.567-0.371"/>
			<g>
				<g>
					<path fill="#613915" d="M16.553,7.145l-0.159-0.896c0,0,0.105-0.03,0.289-0.083c0.092-0.025,0.204-0.056,0.332-0.091
						c0.118-0.06,0.251-0.127,0.396-0.201c0.567-0.307,1.214-0.968,1.441-1.806c0.245-0.833,0.056-1.741-0.338-2.214
						c-0.188-0.252-0.39-0.417-0.539-0.526c-0.143-0.115-0.251-0.142-0.247-0.148c-0.484-0.288-1.073-0.413-1.653-0.337
						C15.516,0.909,15,1.239,14.697,1.718c-0.302,0.466-0.392,1.12-0.157,1.627c0.225,0.523,0.781,0.88,1.374,0.922
						c0.592,0.047,1.207-0.28,1.388-0.868c0.089-0.278,0.086-0.604-0.05-0.865c-0.135-0.265-0.396-0.467-0.696-0.542
						c-0.301-0.072-0.639-0.023-0.88,0.176c-0.234,0.196-0.375,0.544-0.267,0.849c0.072,0.313,0.407,0.548,0.741,0.51
						c0.333,0.007,0.656-0.314,0.436-0.647c0.037-0.189-0.158-0.436-0.447-0.446c0.269-0.059,0.584,0.114,0.637,0.409
						c0.089,0.377-0.239,0.756-0.613,0.773c-0.367,0.064-0.767-0.176-0.886-0.542c-0.151-0.354-0.018-0.776,0.25-1.041
						c0.282-0.266,0.688-0.353,1.053-0.292c0.372,0.056,0.717,0.282,0.922,0.611c0.206,0.334,0.244,0.738,0.16,1.109
						c-0.162,0.772-0.958,1.28-1.704,1.276c-0.747,0.01-1.526-0.377-1.902-1.072c-0.4-0.692-0.347-1.538,0.006-2.221
						c0.353-0.686,1.025-1.196,1.782-1.366C16.582-0.08,17.37,0,18.062,0.33c0,0,0.128,0.069,0.351,0.19
						c0.197,0.161,0.505,0.364,0.769,0.721c0.283,0.337,0.5,0.817,0.627,1.352c0.023,0.266,0.058,0.543,0.063,0.823
						c-0.041,0.278-0.045,0.57-0.128,0.843c-0.289,1.123-1.134,1.995-1.872,2.399c-0.19,0.095-0.364,0.182-0.518,0.26
						c-0.165,0.048-0.309,0.09-0.427,0.125C16.689,7.107,16.553,7.145,16.553,7.145z"/>
				</g>
			</g>
		</g>
		<g>
			<path fill="#F4961B" d="M11.476,8.503c1.959-0.349,3.251-2.152,2.887-4.028c-0.292-1.5-1.799-2.489-3.367-2.209
				C9.741,2.489,8.913,3.642,9.146,4.842c0.188,0.96,1.152,1.595,2.155,1.415c0.804-0.143,1.333-0.882,1.184-1.65
				c-0.119-0.615-0.737-1.02-1.379-0.905c-0.514,0.091-0.853,0.565-0.758,1.056c0.077,0.394,0.472,0.654,0.884,0.58
				c0.328-0.059,0.545-0.361,0.483-0.676c-0.049-0.252-0.302-0.418-0.564-0.371"/>
			<g>
				<g>
					<path fill="#613915" d="M11.555,8.951l-0.159-0.896c0,0,0.104-0.03,0.288-0.083c0.092-0.025,0.204-0.056,0.332-0.091
						c0.118-0.06,0.251-0.127,0.396-0.201c0.567-0.307,1.213-0.967,1.441-1.805c0.244-0.833,0.057-1.741-0.337-2.214
						c-0.188-0.251-0.389-0.417-0.538-0.526c-0.143-0.115-0.251-0.141-0.246-0.148c-0.484-0.288-1.073-0.413-1.652-0.337
						c-0.56,0.068-1.077,0.398-1.38,0.876C9.397,3.99,9.307,4.644,9.542,5.151c0.226,0.523,0.781,0.88,1.374,0.922
						c0.593,0.047,1.207-0.279,1.388-0.867c0.089-0.279,0.086-0.604-0.049-0.866c-0.134-0.265-0.396-0.468-0.695-0.542
						c-0.301-0.073-0.638-0.023-0.879,0.176c-0.234,0.195-0.377,0.543-0.269,0.848c0.072,0.313,0.407,0.548,0.74,0.511
						c0.333,0.007,0.655-0.315,0.436-0.647c0.037-0.188-0.156-0.437-0.444-0.446c0.269-0.059,0.582,0.116,0.634,0.409
						c0.089,0.376-0.237,0.757-0.612,0.773c-0.367,0.063-0.766-0.177-0.885-0.543c-0.15-0.354-0.016-0.776,0.252-1.04
						c0.281-0.266,0.688-0.354,1.052-0.292c0.372,0.056,0.717,0.283,0.921,0.612c0.206,0.334,0.243,0.738,0.159,1.108
						c-0.162,0.772-0.958,1.28-1.704,1.275c-0.747,0.01-1.525-0.376-1.901-1.071C8.657,4.779,8.71,3.934,9.064,3.25
						c0.354-0.686,1.027-1.193,1.782-1.364c0.739-0.158,1.527-0.077,2.219,0.252c0,0,0.127,0.069,0.351,0.19
						c0.198,0.161,0.504,0.364,0.769,0.721c0.283,0.337,0.5,0.816,0.626,1.352c0.023,0.266,0.059,0.543,0.063,0.823
						c-0.041,0.277-0.045,0.569-0.128,0.842c-0.289,1.123-1.134,1.994-1.872,2.398c-0.19,0.095-0.364,0.182-0.518,0.259
						c-0.165,0.048-0.309,0.09-0.427,0.125C11.691,8.914,11.555,8.951,11.555,8.951z"/>
				</g>
			</g>
		</g>
		<g>
			<path fill="#F4961B" d="M8.402,11.774c1.851-0.708,2.751-2.719,2.01-4.49C9.819,5.868,8.14,5.179,6.658,5.745
				c-1.184,0.453-1.761,1.74-1.286,2.874c0.379,0.907,1.455,1.349,2.402,0.985c0.758-0.291,1.127-1.114,0.823-1.84
				c-0.242-0.58-0.93-0.861-1.537-0.63C6.576,7.32,6.341,7.848,6.534,8.312C6.689,8.683,7.13,8.864,7.518,8.716
				c0.311-0.119,0.462-0.457,0.337-0.754C7.756,7.725,7.474,7.608,7.226,7.704"/>
			<g>
				<g>
					<path fill="#613915" d="M8.565,12.199L8.24,11.35c0,0,0.097-0.049,0.267-0.136c0.085-0.042,0.189-0.094,0.308-0.152
						c0.104-0.081,0.221-0.173,0.349-0.272c0.495-0.41,0.993-1.185,1.04-2.05c0.067-0.867-0.317-1.71-0.797-2.098
						C9.171,6.431,8.939,6.309,8.772,6.229C8.609,6.144,8.498,6.138,8.501,6.13c0,0-0.203-0.102-0.596-0.138
						c-0.369-0.027-1.006-0.028-1.55,0.345c-0.546,0.341-1.008,1.14-0.77,1.976c0.154,0.833,1.187,1.43,2.097,1.11
						C8.109,9.279,8.476,8.9,8.534,8.441c0.082-0.45-0.122-0.947-0.525-1.151C7.624,7.067,7.096,7.111,6.785,7.388
						C6.464,7.667,6.43,8.18,6.677,8.47c0.235,0.308,0.671,0.34,0.943,0.187c0.289-0.164,0.342-0.513,0.245-0.73
						c-0.101-0.241-0.333-0.277-0.454-0.3c-0.133,0.02-0.204,0.03-0.204,0.03s0.07-0.014,0.203-0.041
						c0.122,0.016,0.364,0.039,0.487,0.289c0.116,0.221,0.089,0.608-0.225,0.816C7.38,8.914,6.89,8.919,6.579,8.576
						C6.26,8.246,6.251,7.636,6.621,7.257c0.366-0.381,0.979-0.469,1.487-0.239c0.527,0.217,0.863,0.839,0.797,1.423
						C8.873,9.042,8.449,9.587,7.892,9.827c-1.097,0.511-2.539-0.135-2.878-1.264c-0.418-1.08,0.102-2.252,0.819-2.788
						c0.736-0.582,1.512-0.637,2.024-0.659C8.116,5.139,8.322,5.153,8.46,5.177c0.135,0.037,0.208,0.057,0.208,0.057
						s0.138,0.043,0.379,0.119C9.27,5.474,9.61,5.611,9.938,5.908c0.344,0.272,0.651,0.695,0.889,1.19
						c0.083,0.254,0.165,0.519,0.237,0.79c0.019,0.28,0.068,0.566,0.052,0.851c-0.046,1.16-0.7,2.191-1.347,2.731
						c-0.168,0.13-0.322,0.249-0.459,0.354c-0.149,0.084-0.286,0.148-0.396,0.204C8.691,12.137,8.565,12.199,8.565,12.199z"/>
				</g>
			</g>
		</g>
		<g>
			<g>
				<path fill="#F4961B" d="M11.146,18.61c-0.749-1.768-2.855-2.619-4.702-1.902c-1.477,0.574-2.189,2.186-1.589,3.602
					c0.479,1.131,1.825,1.676,3.009,1.217c0.945-0.367,1.401-1.399,1.018-2.304c-0.308-0.725-1.17-1.073-1.926-0.78
					c-0.605,0.236-0.896,0.896-0.651,1.475c0.196,0.465,0.749,0.688,1.232,0.5c0.387-0.15,0.575-0.573,0.417-0.943
					c-0.126-0.298-0.479-0.44-0.789-0.321c-0.248,0.097-0.367,0.367-0.267,0.604"/>
				<g>
					<g>
						<path fill="#613915" d="M11.565,18.433l-0.838,0.355c0,0-0.053-0.094-0.146-0.259c-0.047-0.081-0.095-0.187-0.167-0.296
							c-0.085-0.1-0.183-0.212-0.288-0.335c-0.439-0.471-1.245-0.927-2.126-0.972c-0.88-0.06-1.752,0.271-2.19,0.707
							c-0.214,0.23-0.373,0.435-0.447,0.604c-0.102,0.153-0.118,0.258-0.118,0.258c0.02,0.005-0.122,0.194-0.153,0.58
							c-0.042,0.358-0.033,0.991,0.367,1.511c0.371,0.529,1.195,0.938,2.05,0.738c0.859-0.111,1.543-1.098,1.194-2.003
							c-0.159-0.418-0.564-0.755-1.03-0.811c-0.458-0.077-0.964,0.092-1.2,0.476c-0.257,0.367-0.197,0.906,0.1,1.197
							c0.299,0.3,0.803,0.332,1.109,0.11c0.33-0.208,0.383-0.654,0.208-0.919c-0.182-0.278-0.524-0.316-0.746-0.241
							c-0.241,0.092-0.304,0.312-0.325,0.438c0.021,0.134,0.033,0.206,0.033,0.206s-0.015-0.071-0.043-0.205
							c0.016-0.126,0.064-0.362,0.316-0.473c0.227-0.093,0.599-0.082,0.827,0.218c0.218,0.284,0.2,0.802-0.173,1.081
							c-0.35,0.285-0.926,0.293-1.328-0.044c-0.406-0.337-0.521-0.986-0.242-1.485c0.572-1.073,2.36-0.945,2.889,0.227
							c0.269,0.541,0.236,1.211-0.04,1.739c-0.269,0.535-0.79,0.922-1.324,1.068c-1.07,0.35-2.218-0.071-2.809-0.767
							c-0.629-0.709-0.705-1.511-0.709-2.03c0.023-0.536,0.145-0.821,0.145-0.821c0.008,0.003,0.028-0.148,0.148-0.375
							c0.063-0.112,0.14-0.248,0.229-0.403c0.101-0.146,0.241-0.293,0.383-0.46c0.608-0.659,1.758-1.097,2.88-1.032
							c1.14,0.044,2.189,0.623,2.772,1.243c0.139,0.163,0.266,0.312,0.379,0.444c0.098,0.142,0.163,0.281,0.226,0.388
							C11.498,18.308,11.565,18.433,11.565,18.433z"/>
					</g>
				</g>
			</g>
			<g>
				<path fill="#F4961B" d="M13.241,23.181c-0.886-1.695-3.037-2.383-4.809-1.533c-1.418,0.678-1.992,2.328-1.282,3.684
					c0.566,1.086,1.945,1.526,3.078,0.982c0.906-0.435,1.273-1.491,0.82-2.357c-0.362-0.696-1.244-0.978-1.971-0.63
					c-0.58,0.278-0.814,0.954-0.524,1.509c0.232,0.445,0.798,0.626,1.262,0.402c0.371-0.178,0.521-0.61,0.337-0.966
					c-0.149-0.284-0.511-0.399-0.809-0.257c-0.237,0.113-0.334,0.391-0.215,0.618"/>
				<g>
					<g>
						<path fill="#613915" d="M13.645,22.97l-0.807,0.422c0,0-0.06-0.089-0.165-0.245c-0.053-0.077-0.11-0.177-0.188-0.281
							c-0.093-0.092-0.198-0.196-0.312-0.31c-0.471-0.433-1.302-0.826-2.178-0.807c-0.874,0.005-1.715,0.397-2.113,0.86
							c-0.194,0.243-0.334,0.458-0.394,0.631c-0.088,0.159-0.096,0.264-0.096,0.264c0.021,0.003-0.104,0.201-0.104,0.584
							c-0.013,0.358,0.049,0.982,0.486,1.467c0.409,0.496,1.254,0.841,2.085,0.582c0.843-0.173,1.439-1.204,1.019-2.073
							c-0.191-0.402-0.616-0.706-1.082-0.727c-0.459-0.042-0.949,0.162-1.151,0.56c-0.225,0.384-0.12,0.912,0.196,1.178
							c0.32,0.274,0.82,0.271,1.106,0.027c0.311-0.231,0.327-0.678,0.133-0.926c-0.202-0.261-0.543-0.273-0.757-0.182
							c-0.232,0.11-0.277,0.333-0.288,0.46c0.033,0.131,0.05,0.201,0.05,0.201s-0.021-0.069-0.06-0.199
							c0.005-0.127,0.034-0.364,0.277-0.494c0.218-0.109,0.586-0.126,0.837,0.153c0.238,0.264,0.263,0.779-0.085,1.085
							c-0.325,0.309-0.897,0.36-1.319,0.055c-0.427-0.302-0.597-0.934-0.36-1.452c0.486-1.113,2.269-1.111,2.881,0.006
							c0.31,0.513,0.334,1.181,0.103,1.727c-0.223,0.552-0.711,0.978-1.23,1.162c-1.038,0.427-2.204,0.09-2.842-0.552
							c-0.677-0.653-0.821-1.439-0.867-1.954c-0.021-0.533,0.076-0.826,0.076-0.826c0.008,0.003,0.016-0.149,0.116-0.384
							c0.054-0.116,0.12-0.257,0.194-0.418c0.089-0.153,0.216-0.311,0.344-0.488c0.554-0.702,1.663-1.218,2.78-1.237
							c1.133-0.04,2.216,0.458,2.839,1.027c0.15,0.15,0.288,0.288,0.409,0.41c0.108,0.134,0.184,0.266,0.254,0.367
							C13.567,22.851,13.645,22.97,13.645,22.97z"/>
					</g>
				</g>
			</g>
			<g>
				<path fill="#F4961B" d="M15.338,27.75c-1.024-1.624-3.225-2.145-4.92-1.167c-1.355,0.785-1.793,2.473-0.974,3.771
					c0.654,1.039,2.066,1.373,3.15,0.746c0.864-0.502,1.144-1.582,0.622-2.413c-0.419-0.665-1.32-0.88-2.015-0.478
					c-0.556,0.32-0.734,1.012-0.399,1.544c0.27,0.426,0.847,0.563,1.291,0.306c0.355-0.205,0.47-0.647,0.255-0.988
					c-0.171-0.271-0.541-0.361-0.825-0.195c-0.228,0.132-0.302,0.414-0.163,0.633"/>
				<g>
					<g>
						<path fill="#613915" d="M15.723,27.507l-0.77,0.485c0,0-0.067-0.084-0.184-0.231c-0.059-0.073-0.124-0.167-0.21-0.266
							c-0.1-0.084-0.213-0.18-0.336-0.285c-0.504-0.396-1.361-0.727-2.234-0.644c-0.872,0.068-1.679,0.52-2.039,1.013
							c-0.174,0.257-0.296,0.483-0.342,0.659c-0.075,0.166-0.074,0.271-0.074,0.271c0.021,0.001-0.088,0.208-0.056,0.591
							c0.017,0.358,0.128,0.976,0.602,1.425c0.447,0.463,1.314,0.747,2.124,0.43c0.829-0.232,1.337-1.309,0.852-2.143
							c-0.221-0.385-0.668-0.66-1.133-0.647c-0.461-0.009-0.935,0.229-1.106,0.641c-0.197,0.403-0.044,0.912,0.288,1.16
							c0.345,0.261,0.833,0.188,1.108-0.052c0.292-0.255,0.267-0.702,0.055-0.934c-0.221-0.244-0.562-0.234-0.769-0.125
							c-0.223,0.127-0.249,0.354-0.249,0.481c0.043,0.128,0.066,0.196,0.066,0.196s-0.026-0.067-0.077-0.193
							c-0.005-0.127,0.004-0.367,0.235-0.515c0.21-0.127,0.576-0.169,0.846,0.089c0.257,0.243,0.329,0.754,0.005,1.088
							c-0.306,0.313-0.87,0.438-1.315,0.149c-0.441-0.276-0.673-0.878-0.472-1.419c0.403-1.151,2.18-1.267,2.874-0.205
							c0.345,0.489,0.425,1.149,0.238,1.713c-0.178,0.568-0.634,1.033-1.139,1.253c-1.006,0.499-2.189,0.245-2.874-0.344
							c-0.724-0.597-0.93-1.368-1.018-1.877c-0.065-0.529,0.008-0.829,0.008-0.829c0.009,0.002,0.003-0.15,0.084-0.393
							c0.044-0.12,0.098-0.266,0.16-0.434c0.077-0.159,0.191-0.327,0.304-0.514c0.496-0.746,1.568-1.343,2.68-1.442
							c1.127-0.122,2.241,0.295,2.905,0.813c0.161,0.138,0.309,0.264,0.44,0.376c0.117,0.125,0.204,0.25,0.282,0.346
							C15.636,27.396,15.723,27.507,15.723,27.507z"/>
					</g>
				</g>
			</g>
			<g>
				<path fill="#F4961B" d="M17.433,32.319c-1.16-1.552-3.407-1.908-5.026-0.797c-1.296,0.888-1.596,2.613-0.667,3.855
					c0.742,0.992,2.186,1.221,3.22,0.51c0.826-0.568,1.017-1.674,0.425-2.467c-0.473-0.637-1.395-0.781-2.058-0.328
					c-0.531,0.364-0.654,1.071-0.273,1.58c0.304,0.406,0.896,0.5,1.32,0.209c0.339-0.233,0.417-0.686,0.174-1.011
					c-0.194-0.261-0.571-0.32-0.844-0.134c-0.218,0.148-0.269,0.438-0.112,0.647"/>
				<g>
					<g>
						<path fill="#613915" d="M17.797,32.047l-0.729,0.545c0,0-0.074-0.079-0.203-0.218c-0.064-0.069-0.143-0.154-0.232-0.25
							c-0.107-0.078-0.228-0.165-0.36-0.26c-0.537-0.359-1.423-0.628-2.292-0.48c-0.869,0.133-1.646,0.65-1.967,1.172
							c-0.154,0.271-0.257,0.507-0.289,0.688c-0.062,0.172-0.051,0.278-0.051,0.278c0.02,0-0.07,0.216-0.007,0.598
							c0.048,0.358,0.211,0.969,0.723,1.384c0.486,0.431,1.378,0.651,2.166,0.273c0.815-0.296,1.234-1.419,0.677-2.217
							c-0.253-0.37-0.722-0.611-1.188-0.563c-0.464,0.025-0.921,0.3-1.058,0.729c-0.164,0.421,0.034,0.917,0.385,1.141
							c0.366,0.234,0.852,0.127,1.108-0.137c0.272-0.28,0.208-0.726-0.022-0.941c-0.241-0.228-0.581-0.191-0.781-0.067
							c-0.215,0.145-0.221,0.375-0.211,0.503c0.054,0.125,0.083,0.191,0.083,0.191s-0.032-0.065-0.092-0.188
							c-0.015-0.126-0.028-0.368,0.195-0.534c0.2-0.143,0.564-0.212,0.854,0.025c0.276,0.223,0.392,0.729,0.094,1.09
							c-0.283,0.339-0.839,0.503-1.307,0.249c-0.462-0.242-0.746-0.823-0.59-1.383c0.31-1.192,2.088-1.434,2.862-0.427
							c0.385,0.46,0.522,1.115,0.381,1.696c-0.131,0.585-0.552,1.088-1.042,1.347c-0.973,0.577-2.176,0.407-2.906-0.128
							c-0.771-0.541-1.04-1.294-1.171-1.797c-0.108-0.524-0.061-0.831-0.061-0.831c0.008,0.001-0.008-0.151,0.052-0.4
							c0.035-0.124,0.077-0.275,0.125-0.448c0.063-0.167,0.165-0.343,0.263-0.54c0.438-0.789,1.468-1.469,2.576-1.652
							c1.122-0.206,2.269,0.13,2.973,0.598c0.172,0.125,0.33,0.241,0.469,0.342c0.126,0.117,0.224,0.234,0.31,0.324
							C17.702,31.941,17.797,32.047,17.797,32.047z"/>
					</g>
				</g>
			</g>
		</g>
	</g>
	<g>
		<g>
			<path fill="#F4961B" d="M23.225,6.696c-1.959-0.348-3.253-2.152-2.887-4.027c0.291-1.502,1.798-2.492,3.368-2.212
				c1.254,0.223,2.081,1.378,1.848,2.579c-0.187,0.96-1.151,1.594-2.155,1.415c-0.804-0.144-1.333-0.883-1.185-1.65
				c0.121-0.614,0.737-1.021,1.381-0.905c0.515,0.09,0.854,0.563,0.758,1.055c-0.076,0.395-0.472,0.654-0.883,0.58
				c-0.33-0.059-0.548-0.36-0.485-0.676c0.048-0.252,0.302-0.418,0.565-0.371"/>
			<g>
				<g>
					<path fill="#613915" d="M23.304,6.248l-0.159,0.896c0,0-0.134-0.037-0.37-0.102c-0.117-0.034-0.259-0.074-0.422-0.122
						c-0.152-0.076-0.324-0.162-0.511-0.256c-0.73-0.396-1.57-1.25-1.869-2.354c-0.321-1.082-0.07-2.305,0.484-2.994
						c0.261-0.35,0.54-0.578,0.744-0.727c0.199-0.153,0.341-0.196,0.336-0.204c0,0,0.258-0.169,0.773-0.286
						c0.505-0.097,1.277-0.206,2.118,0.203c0.817,0.37,1.579,1.367,1.438,2.51c-0.037,0.558-0.35,1.129-0.825,1.466
						c-0.47,0.347-1.088,0.483-1.656,0.371c-0.575-0.116-1.099-0.536-1.258-1.094c-0.188-0.537-0.019-1.191,0.434-1.502
						c0.43-0.324,1.024-0.34,1.428-0.072c0.409,0.271,0.526,0.826,0.306,1.177c-0.207,0.367-0.653,0.441-0.936,0.325
						c-0.304-0.121-0.392-0.445-0.339-0.641c0.192-0.447,0.555-0.279,0.521-0.31c0.032,0.027-0.329-0.11-0.483,0.321
						c-0.034,0.172,0.058,0.46,0.324,0.549c0.25,0.09,0.632,0.004,0.784-0.299c0.166-0.286,0.056-0.738-0.276-0.934
						c-0.315-0.203-0.811-0.168-1.131,0.093c-0.338,0.246-0.451,0.733-0.295,1.14c0.134,0.417,0.528,0.717,0.955,0.793
						c0.917,0.182,1.815-0.555,1.825-1.372c0.091-0.84-0.487-1.547-1.071-1.793c-0.589-0.276-1.202-0.187-1.566-0.115
						c-0.183,0.064-0.326,0.114-0.424,0.148c-0.089,0.052-0.137,0.08-0.137,0.08s-0.094,0.05-0.258,0.136
						c-0.139,0.122-0.368,0.265-0.553,0.523c-0.207,0.241-0.351,0.582-0.449,0.962c-0.011,0.204-0.041,0.413-0.048,0.625
						c0.039,0.209,0.033,0.431,0.098,0.638c0.22,0.851,0.869,1.525,1.442,1.839c0.147,0.075,0.282,0.144,0.401,0.204
						c0.129,0.036,0.242,0.068,0.335,0.094C23.198,6.218,23.304,6.248,23.304,6.248z"/>
				</g>
			</g>
		</g>
		<g>
			<path fill="#F4961B" d="M28.224,8.503c-1.96-0.349-3.253-2.152-2.887-4.028c0.292-1.5,1.798-2.489,3.367-2.209
				c1.254,0.224,2.081,1.376,1.848,2.576c-0.188,0.96-1.151,1.595-2.155,1.415c-0.803-0.143-1.333-0.882-1.183-1.65
				c0.119-0.615,0.736-1.02,1.379-0.905c0.514,0.091,0.853,0.565,0.757,1.056c-0.076,0.394-0.472,0.654-0.883,0.58
				c-0.329-0.059-0.546-0.361-0.484-0.676c0.049-0.252,0.302-0.418,0.564-0.371"/>
			<g>
				<g>
					<path fill="#613915" d="M28.303,8.055l-0.159,0.896c0,0-0.134-0.037-0.369-0.102c-0.117-0.034-0.259-0.075-0.422-0.122
						c-0.152-0.076-0.324-0.162-0.511-0.256c-0.73-0.395-1.57-1.248-1.868-2.352c-0.322-1.081-0.073-2.305,0.482-2.993
						c0.262-0.35,0.539-0.579,0.744-0.727c0.198-0.154,0.341-0.196,0.336-0.204c0.683-0.352,1.476-0.462,2.217-0.317
						c0.762,0.141,1.449,0.638,1.817,1.31c0.369,0.671,0.438,1.508,0.074,2.203c-0.357,0.696-1.109,1.1-1.849,1.105
						c-0.735,0.021-1.518-0.459-1.689-1.204c-0.09-0.357-0.062-0.748,0.128-1.07c0.188-0.32,0.517-0.538,0.87-0.604
						c0.35-0.064,0.735,0.017,1,0.264c0.255,0.24,0.383,0.636,0.247,0.96c-0.102,0.337-0.469,0.553-0.801,0.496
						c-0.336-0.016-0.616-0.349-0.693-0.702c0.125-0.319,0.48-0.401,0.685-0.296c-0.224-0.037-0.458,0.119-0.495,0.334
						c-0.053,0.304,0.215,0.578,0.504,0.576c0.297,0.039,0.592-0.172,0.66-0.441c0.104-0.269-0.018-0.584-0.225-0.769
						c-0.216-0.185-0.523-0.237-0.808-0.177c-0.598,0.113-0.913,0.751-0.735,1.297c0.153,0.562,0.729,0.891,1.298,0.866
						c0.569-0.023,1.128-0.347,1.36-0.847c0.256-0.476,0.191-1.124-0.091-1.587c-0.28-0.479-0.777-0.816-1.321-0.911
						c-0.563-0.088-1.152,0.004-1.644,0.271c0,0-0.094,0.049-0.258,0.136c-0.139,0.122-0.367,0.265-0.554,0.523
						c-0.206,0.241-0.351,0.582-0.448,0.961c-0.011,0.203-0.042,0.412-0.048,0.625c0.039,0.209,0.033,0.431,0.098,0.638
						c0.22,0.851,0.869,1.524,1.441,1.838c0.147,0.075,0.282,0.144,0.401,0.204c0.13,0.036,0.243,0.068,0.335,0.094
						C28.197,8.024,28.303,8.055,28.303,8.055z"/>
				</g>
			</g>
		</g>
		<g>
			<path fill="#F4961B" d="M31.296,11.774c-1.851-0.708-2.75-2.719-2.01-4.49c0.592-1.416,2.272-2.105,3.754-1.539
				c1.184,0.453,1.76,1.74,1.286,2.874c-0.38,0.907-1.455,1.349-2.401,0.985c-0.759-0.291-1.128-1.114-0.824-1.84
				c0.243-0.58,0.931-0.861,1.537-0.63c0.485,0.186,0.721,0.713,0.527,1.177c-0.155,0.371-0.596,0.553-0.984,0.404
				c-0.31-0.119-0.462-0.457-0.338-0.754c0.1-0.237,0.381-0.354,0.63-0.258"/>
			<g>
				<g>
					<path fill="#613915" d="M31.458,11.35l-0.325,0.85c0,0-0.125-0.062-0.344-0.169c-0.109-0.055-0.241-0.123-0.392-0.2
						c-0.135-0.104-0.287-0.222-0.453-0.351c-0.642-0.53-1.293-1.542-1.353-2.686c-0.091-1.127,0.42-2.263,1.097-2.823
						c0.323-0.291,0.641-0.457,0.868-0.564c0.224-0.111,0.371-0.127,0.368-0.135c0,0,0.284-0.117,0.811-0.135
						c0.513-0.001,1.293,0.031,2.042,0.595c0.734,0.52,1.277,1.663,0.896,2.748c-0.154,0.537-0.574,1.026-1.103,1.266
						c-0.526,0.249-1.157,0.271-1.694,0.053c-0.544-0.219-0.978-0.74-1.016-1.32c-0.072-0.565,0.231-1.165,0.732-1.381
						c0.481-0.234,1.07-0.146,1.415,0.198c0.349,0.348,0.343,0.916,0.058,1.212c-0.276,0.315-0.726,0.31-0.982,0.142
						c-0.274-0.18-0.294-0.511-0.198-0.698c0.101-0.207,0.305-0.219,0.404-0.236c0.108,0.023,0.167,0.035,0.167,0.035
						s-0.058-0.009-0.166-0.024c-0.097,0.021-0.288,0.046-0.368,0.239c-0.078,0.177-0.042,0.467,0.199,0.609
						c0.227,0.135,0.617,0.119,0.829-0.147c0.222-0.246,0.208-0.71-0.077-0.967c-0.268-0.261-0.761-0.315-1.126-0.121
						c-0.378,0.177-0.592,0.63-0.526,1.059c0.044,0.435,0.37,0.806,0.774,0.959c0.864,0.347,1.885-0.206,2.068-0.999
						c0.268-0.803-0.154-1.612-0.676-1.963c-0.522-0.383-1.141-0.407-1.513-0.405c-0.191,0.029-0.342,0.051-0.445,0.066
						c-0.098,0.034-0.15,0.052-0.15,0.052s-0.102,0.031-0.28,0.085c-0.16,0.094-0.414,0.189-0.648,0.406
						c-0.252,0.195-0.463,0.501-0.64,0.851c-0.058,0.195-0.119,0.396-0.18,0.601c-0.006,0.213-0.05,0.428-0.038,0.644
						c0.036,0.877,0.534,1.667,1.032,2.084c0.129,0.101,0.248,0.194,0.354,0.276c0.12,0.06,0.224,0.113,0.31,0.156
						C31.36,11.299,31.458,11.35,31.458,11.35z"/>
				</g>
			</g>
		</g>
		<g>
			<g>
				<path fill="#F4961B" d="M28.552,18.61c0.75-1.768,2.855-2.619,4.701-1.902c1.479,0.574,2.19,2.186,1.59,3.602
					c-0.479,1.131-1.825,1.676-3.008,1.217c-0.946-0.367-1.401-1.399-1.019-2.304c0.309-0.725,1.17-1.073,1.926-0.78
					c0.605,0.236,0.896,0.896,0.651,1.475c-0.195,0.465-0.748,0.688-1.232,0.5c-0.387-0.15-0.574-0.573-0.416-0.943
					c0.126-0.298,0.479-0.44,0.789-0.321c0.248,0.097,0.367,0.367,0.267,0.604"/>
				<g>
					<g>
						<path fill="#613915" d="M28.971,18.788l-0.838-0.355c0,0,0.067-0.124,0.186-0.34c0.062-0.106,0.128-0.242,0.222-0.384
							c0.111-0.131,0.237-0.278,0.374-0.438c0.572-0.614,1.604-1.192,2.728-1.249c1.11-0.076,2.236,0.34,2.866,0.956
							c0.301,0.313,0.515,0.604,0.623,0.837c0.135,0.216,0.165,0.361,0.165,0.361c-0.022,0.005,0.146,0.282,0.165,0.82
							c0.022,0.52-0.028,1.328-0.639,2.052c-0.574,0.713-1.7,1.16-2.774,0.84c-0.531-0.127-1.059-0.497-1.335-1.017
							c-0.287-0.513-0.326-1.167-0.086-1.705c0.484-1.155,2.227-1.311,2.786-0.294c0.28,0.468,0.17,1.086-0.196,1.406
							c-0.369,0.322-0.915,0.314-1.231,0.059c-0.341-0.248-0.355-0.712-0.167-0.96c0.196-0.262,0.521-0.271,0.717-0.192
							c0.209,0.096,0.243,0.286,0.258,0.388c-0.024,0.107-0.037,0.164-0.037,0.164s0.009-0.057,0.027-0.163
							c-0.022-0.098-0.063-0.276-0.26-0.351c-0.186-0.063-0.477-0.036-0.632,0.196c-0.15,0.22-0.119,0.609,0.166,0.797
							c0.262,0.202,0.728,0.187,1.002-0.08c0.277-0.25,0.345-0.747,0.121-1.093c-0.203-0.36-0.672-0.54-1.111-0.478
							c-0.444,0.042-0.839,0.343-1.006,0.736c-0.373,0.854,0.258,1.829,1.081,1.971c0.823,0.229,1.657-0.144,2.037-0.649
							c0.41-0.498,0.445-1.111,0.428-1.472c-0.035-0.381-0.133-0.578-0.133-0.578c-0.007,0.003-0.015-0.106-0.104-0.268
							c-0.045-0.08-0.1-0.177-0.162-0.289c-0.073-0.105-0.177-0.208-0.276-0.331c-0.417-0.467-1.3-0.813-2.191-0.765
							c-0.894,0.035-1.713,0.491-2.161,0.966c-0.107,0.125-0.205,0.238-0.292,0.339c-0.075,0.109-0.121,0.217-0.17,0.299
							C29.024,18.693,28.971,18.788,28.971,18.788z"/>
					</g>
				</g>
			</g>
			<g>
				<path fill="#F4961B" d="M26.457,23.181c0.886-1.695,3.038-2.383,4.81-1.533c1.417,0.678,1.991,2.328,1.282,3.684
					c-0.566,1.086-1.946,1.526-3.079,0.982c-0.906-0.435-1.273-1.491-0.82-2.357c0.362-0.696,1.245-0.978,1.971-0.63
					c0.58,0.278,0.815,0.954,0.524,1.509c-0.232,0.445-0.798,0.626-1.262,0.402c-0.371-0.178-0.522-0.61-0.336-0.966
					c0.148-0.284,0.51-0.399,0.807-0.257c0.238,0.113,0.335,0.391,0.216,0.618"/>
				<g>
					<g>
						<path fill="#613915" d="M26.86,23.392l-0.807-0.422c0,0,0.077-0.117,0.21-0.322c0.069-0.101,0.146-0.229,0.25-0.363
							c0.12-0.121,0.256-0.257,0.404-0.405c0.613-0.564,1.678-1.063,2.796-1.036c1.106,0.006,2.193,0.5,2.772,1.161
							c0.275,0.334,0.464,0.641,0.553,0.88c0.116,0.226,0.134,0.372,0.134,0.372c-0.022,0.002,0.122,0.291,0.096,0.827
							c-0.021,0.518-0.139,1.313-0.8,1.981c-0.624,0.661-1.77,1.022-2.813,0.628c-0.518-0.166-1.014-0.574-1.247-1.111
							c-0.244-0.533-0.227-1.185,0.054-1.696c0.567-1.104,2.307-1.136,2.784-0.083c0.241,0.487,0.079,1.09-0.308,1.378
							c-0.389,0.291-0.93,0.246-1.224-0.033c-0.32-0.271-0.296-0.733-0.091-0.964c0.215-0.244,0.537-0.229,0.726-0.136
							c0.2,0.11,0.218,0.301,0.225,0.403c-0.032,0.104-0.049,0.16-0.049,0.16s0.014-0.055,0.04-0.159
							c-0.014-0.099-0.04-0.278-0.23-0.366c-0.179-0.078-0.469-0.071-0.641,0.146c-0.166,0.206-0.167,0.594,0.102,0.801
							c0.245,0.22,0.705,0.238,0.998-0.006c0.294-0.228,0.402-0.712,0.208-1.072c-0.171-0.372-0.624-0.583-1.063-0.554
							c-0.442,0.009-0.856,0.278-1.052,0.655c-0.44,0.816,0.105,1.831,0.91,2.031c0.797,0.286,1.649-0.023,2.066-0.494
							c0.444-0.462,0.529-1.064,0.543-1.423c-0.004-0.38-0.085-0.583-0.085-0.583c-0.008,0.002-0.007-0.106-0.081-0.272
							c-0.038-0.083-0.084-0.183-0.137-0.298c-0.064-0.109-0.159-0.218-0.247-0.348c-0.375-0.494-1.226-0.899-2.11-0.917
							c-0.887-0.03-1.732,0.361-2.212,0.797c-0.116,0.115-0.222,0.22-0.315,0.314c-0.083,0.103-0.137,0.206-0.192,0.283
							C26.921,23.301,26.86,23.392,26.86,23.392z"/>
					</g>
				</g>
			</g>
			<g>
				<path fill="#F4961B" d="M24.361,27.75c1.023-1.624,3.223-2.145,4.919-1.167c1.355,0.785,1.793,2.473,0.974,3.771
					c-0.654,1.039-2.065,1.373-3.149,0.746c-0.866-0.502-1.146-1.582-0.623-2.413c0.418-0.665,1.32-0.88,2.016-0.478
					c0.555,0.32,0.734,1.012,0.398,1.544c-0.269,0.426-0.847,0.563-1.291,0.306c-0.354-0.205-0.47-0.647-0.255-0.988
					c0.171-0.271,0.54-0.361,0.826-0.195c0.227,0.132,0.3,0.414,0.162,0.633"/>
				<g>
					<g>
						<path fill="#613915" d="M24.747,27.993l-0.771-0.485c0,0,0.086-0.11,0.235-0.304c0.077-0.095,0.164-0.216,0.277-0.342
							c0.129-0.111,0.275-0.235,0.434-0.372c0.654-0.514,1.75-0.932,2.864-0.825c1.102,0.085,2.153,0.66,2.677,1.366
							c0.249,0.354,0.412,0.676,0.48,0.922c0.098,0.234,0.104,0.382,0.104,0.382c-0.022,0.001,0.097,0.301,0.028,0.832
							c-0.063,0.514-0.246,1.295-0.956,1.909c-0.671,0.609-1.838,0.888-2.852,0.419c-0.505-0.202-0.969-0.649-1.158-1.204
							c-0.201-0.551-0.129-1.198,0.189-1.686c0.647-1.053,2.384-0.968,2.782,0.122c0.205,0.509-0.012,1.085-0.415,1.351
							c-0.415,0.272-0.941,0.156-1.221-0.122c-0.297-0.296-0.232-0.755-0.01-0.968c0.233-0.227,0.553-0.188,0.733-0.082
							c0.19,0.126,0.192,0.318,0.19,0.42c-0.041,0.101-0.063,0.155-0.063,0.155s0.019-0.054,0.053-0.156
							c-0.005-0.1-0.016-0.28-0.198-0.384c-0.173-0.09-0.462-0.104-0.65,0.098c-0.181,0.192-0.216,0.58,0.034,0.807
							c0.232,0.216,0.685,0.302,0.997,0.064c0.304-0.211,0.464-0.674,0.294-1.052c-0.142-0.384-0.578-0.626-1.018-0.629
							c-0.442-0.023-0.873,0.217-1.099,0.576c-0.501,0.78-0.043,1.835,0.746,2.093c0.773,0.342,1.645,0.096,2.097-0.343
							c0.479-0.427,0.614-1.021,0.657-1.377c0.027-0.379-0.037-0.587-0.037-0.587c-0.008,0.002,0.002-0.106-0.058-0.278
							c-0.031-0.085-0.069-0.189-0.112-0.308c-0.055-0.113-0.141-0.23-0.217-0.366c-0.333-0.523-1.15-0.987-2.031-1.07
							c-0.882-0.095-1.754,0.233-2.266,0.632c-0.125,0.105-0.239,0.202-0.34,0.288c-0.089,0.097-0.153,0.195-0.214,0.268
							C24.814,27.908,24.747,27.993,24.747,27.993z"/>
					</g>
				</g>
			</g>
			<g>
				<path fill="#F4961B" d="M22.267,32.319c1.16-1.552,3.406-1.908,5.026-0.797c1.296,0.888,1.595,2.613,0.666,3.855
					c-0.742,0.992-2.185,1.221-3.22,0.51c-0.825-0.568-1.016-1.674-0.425-2.467c0.473-0.637,1.395-0.781,2.059-0.328
					c0.53,0.364,0.653,1.071,0.272,1.58c-0.304,0.406-0.895,0.5-1.32,0.209c-0.338-0.233-0.416-0.686-0.174-1.011
					c0.194-0.261,0.572-0.32,0.845-0.134c0.218,0.148,0.267,0.438,0.111,0.647"/>
				<g>
					<g>
						<path fill="#613915" d="M22.631,32.592l-0.729-0.545c0,0,0.094-0.104,0.259-0.286c0.084-0.089,0.182-0.203,0.304-0.321
							c0.138-0.101,0.294-0.214,0.463-0.338c0.694-0.465,1.823-0.804,2.932-0.613c1.1,0.168,2.109,0.824,2.58,1.574
							c0.221,0.376,0.358,0.712,0.407,0.964c0.079,0.243,0.071,0.391,0.071,0.391c-0.021-0.001,0.071,0.31-0.042,0.835
							c-0.107,0.51-0.354,1.275-1.111,1.834c-0.719,0.557-1.907,0.753-2.89,0.208c-0.492-0.24-0.923-0.727-1.065-1.299
							c-0.155-0.569-0.029-1.21,0.329-1.673c0.727-1.001,2.467-0.794,2.777,0.336c0.162,0.527-0.104,1.085-0.527,1.32
							c-0.437,0.24-0.957,0.086-1.215-0.215c-0.273-0.322-0.169-0.776,0.07-0.972c0.251-0.208,0.569-0.147,0.743-0.026
							c0.183,0.141,0.167,0.334,0.156,0.437c-0.049,0.098-0.075,0.151-0.075,0.151s0.022-0.053,0.065-0.152
							c0.002-0.101,0.008-0.284-0.167-0.4c-0.167-0.104-0.456-0.14-0.661,0.049c-0.197,0.178-0.266,0.564-0.033,0.813
							c0.214,0.235,0.664,0.354,0.995,0.14c0.322-0.188,0.521-0.64,0.383-1.033c-0.109-0.398-0.528-0.674-0.969-0.709
							c-0.442-0.056-0.894,0.152-1.149,0.496c-0.567,0.743-0.197,1.842,0.575,2.16c0.75,0.4,1.643,0.217,2.133-0.188
							c0.516-0.392,0.699-0.977,0.772-1.332c0.059-0.378,0.012-0.593,0.013-0.593c-0.008,0.001,0.01-0.106-0.035-0.283
							c-0.024-0.088-0.054-0.195-0.087-0.318c-0.045-0.119-0.123-0.242-0.188-0.384c-0.291-0.55-1.079-1.079-1.955-1.228
							c-0.877-0.161-1.778,0.104-2.323,0.466c-0.133,0.096-0.256,0.185-0.364,0.263c-0.097,0.091-0.169,0.184-0.236,0.252
							C22.706,32.512,22.631,32.592,22.631,32.592z"/>
					</g>
				</g>
			</g>
		</g>
	</g>
	<g>
		<g>
			<g>
				<g>
					<path fill="#B4B4B4" d="M34.071,16.444c-2.735,0-4.96-1.544-4.96-3.441c0-1.898,2.225-3.442,4.96-3.442
						c2.734,0,4.959,1.544,4.959,3.442C39.03,14.9,36.806,16.444,34.071,16.444z"/>
					<g>
						<path fill="#603914" d="M34.071,9.853c2.578,0,4.667,1.41,4.667,3.15c0,1.739-2.089,3.149-4.667,3.149
							c-2.577,0-4.668-1.41-4.668-3.149C29.403,11.263,31.494,9.853,34.071,9.853 M34.071,9.269c-2.945,0-5.252,1.64-5.252,3.734
							c0,2.094,2.307,3.733,5.252,3.733c2.944,0,5.251-1.64,5.251-3.733C39.322,10.909,37.016,9.269,34.071,9.269L34.071,9.269z"/>
					</g>
				</g>
				<g>
					<g>
						<ellipse fill="#754D24" cx="34.071" cy="13.002" rx="2.733" ry="1.845"/>
					</g>
					<g>
						<path fill="#754D24" d="M34.076,15.065c0,0-0.002,0-0.005,0l0,0c-0.179,0-0.322-0.099-0.322-0.219l0,0
							c0-0.12,0.144-0.217,0.322-0.217l0,0c0.003,0,0.003,0,0.005,0l0,0c0.002,0,0.002,0,0.004,0l0,0
							c0.179-0.002,0.323,0.096,0.325,0.216l0,0c0,0.12-0.146,0.218-0.322,0.22l0,0C34.08,15.065,34.078,15.065,34.076,15.065z
							 M32.65,14.828c-0.156-0.057-0.217-0.187-0.135-0.294l0,0c0.083-0.105,0.279-0.146,0.437-0.092l0,0
							c0.157,0.057,0.216,0.189,0.135,0.294l0,0c-0.058,0.075-0.169,0.117-0.285,0.117l0,0C32.75,14.854,32.698,14.846,32.65,14.828
							z M35.064,14.733c-0.084-0.105-0.022-0.237,0.132-0.294l0,0c0.159-0.056,0.354-0.015,0.438,0.09l0,0
							c0.084,0.106,0.023,0.238-0.133,0.295l0,0l0,0l0,0c-0.047,0.018-0.099,0.026-0.15,0.026l0,0
							C35.234,14.851,35.122,14.808,35.064,14.733z M31.558,14.175c-0.102-0.1-0.063-0.234,0.081-0.303l0,0
							c0.146-0.068,0.349-0.044,0.449,0.055l0,0c0.102,0.099,0.065,0.235-0.082,0.303l0,0c-0.055,0.026-0.12,0.039-0.183,0.039l0,0
							C31.721,14.269,31.621,14.235,31.558,14.175z M36.144,14.224c-0.148-0.068-0.185-0.203-0.084-0.302l0,0
							c0.101-0.101,0.301-0.125,0.448-0.057l0,0c0.147,0.069,0.184,0.205,0.083,0.304l0,0c-0.063,0.061-0.164,0.094-0.268,0.094l0,0
							C36.262,14.263,36.199,14.25,36.144,14.224z M31.037,13.253c-0.021-0.119,0.106-0.228,0.281-0.242l0,0
							c0.177-0.016,0.338,0.07,0.359,0.189l0,0c0.021,0.119-0.103,0.228-0.281,0.242l0,0c-0.013,0.002-0.026,0.002-0.039,0.002l0,0
							C31.196,13.444,31.059,13.364,31.037,13.253z M36.748,13.435c-0.177-0.012-0.304-0.122-0.282-0.24l0,0
							c0.021-0.119,0.18-0.205,0.357-0.189l0,0c0.179,0.012,0.305,0.121,0.282,0.24l0,0c-0.02,0.109-0.158,0.192-0.319,0.192l0,0
							C36.772,13.438,36.761,13.437,36.748,13.435z M31.4,12.553c-0.167-0.042-0.252-0.166-0.188-0.28l0,0
							c0.063-0.112,0.249-0.168,0.416-0.125l0,0c0.165,0.042,0.249,0.168,0.187,0.279l0,0c-0.05,0.087-0.172,0.141-0.302,0.141l0,0
							C31.476,12.567,31.437,12.563,31.4,12.553z M36.323,12.423c-0.063-0.113,0.021-0.24,0.185-0.281l0,0
							c0.167-0.044,0.354,0.013,0.417,0.125l0,0c0.063,0.111-0.019,0.237-0.184,0.281l0,0c-0.039,0.01-0.077,0.014-0.117,0.014l0,0
							C36.495,12.562,36.374,12.509,36.323,12.423z M32.015,11.769c-0.117-0.091-0.105-0.229,0.028-0.307l0,0
							c0.134-0.08,0.337-0.072,0.453,0.018l0,0c0.121,0.09,0.108,0.227-0.025,0.307l0,0c-0.063,0.037-0.138,0.055-0.215,0.055l0,0
							C32.167,11.841,32.08,11.815,32.015,11.769z M35.664,11.783c-0.134-0.08-0.146-0.218-0.028-0.308l0,0
							c0.119-0.09,0.323-0.099,0.456-0.02l0,0l0,0l0,0c0.134,0.081,0.146,0.219,0.028,0.309l0,0
							c-0.064,0.047-0.152,0.072-0.243,0.072l0,0C35.802,11.837,35.727,11.819,35.664,11.783z M33.1,11.264
							c-0.042-0.116,0.063-0.233,0.234-0.263l0,0l0,0l0,0c0.173-0.028,0.349,0.041,0.392,0.158l0,0
							c0.044,0.116-0.063,0.235-0.236,0.265l0,0c-0.025,0.004-0.052,0.006-0.077,0.006l0,0C33.269,11.43,33.137,11.364,33.1,11.264z
							 M34.645,11.422L34.645,11.422c-0.173-0.028-0.281-0.146-0.238-0.263l0,0c0.043-0.117,0.218-0.188,0.39-0.16l0,0
							c0.174,0.028,0.279,0.146,0.239,0.264l0,0c-0.037,0.099-0.171,0.165-0.314,0.165l0,0
							C34.694,11.428,34.669,11.427,34.645,11.422z"/>
					</g>
				</g>
				<g>
					<path fill="#603914" d="M34.071,11.846c1.165,0,1.977,0.61,1.977,1.157s-0.812,1.157-1.977,1.157
						c-1.166,0-1.978-0.61-1.978-1.157S32.906,11.846,34.071,11.846 M34.071,11.304c-1.389,0-2.52,0.762-2.52,1.699
						s1.131,1.699,2.52,1.699s2.519-0.762,2.519-1.699S35.46,11.304,34.071,11.304L34.071,11.304z"/>
				</g>
				<g>
					<path fill="#B4B4B4" d="M5.252,16.444c-2.735,0-4.96-1.544-4.96-3.441c0-1.898,2.225-3.442,4.96-3.442s4.96,1.544,4.96,3.442
						C10.212,14.9,7.987,16.444,5.252,16.444z"/>
					<g>
						<path fill="#603914" d="M5.252,9.853c2.577,0,4.668,1.41,4.668,3.15c0,1.739-2.091,3.149-4.668,3.149
							c-2.578,0-4.668-1.41-4.668-3.149C0.584,11.263,2.674,9.853,5.252,9.853 M5.252,9.269C2.307,9.269,0,10.909,0,13.003
							c0,2.094,2.307,3.733,5.252,3.733s5.252-1.64,5.252-3.733C10.504,10.909,8.197,9.269,5.252,9.269L5.252,9.269z"/>
					</g>
				</g>
				<g>
					<g>
						<ellipse fill="#754D24" cx="5.252" cy="13.002" rx="2.733" ry="1.845"/>
					</g>
					<g>
						<path fill="#754D24" d="M5.258,15.065c-0.003,0-0.003,0-0.005,0l0,0c-0.179,0-0.325-0.099-0.325-0.219l0,0
							c0-0.12,0.146-0.217,0.325-0.217l0,0c0,0,0.002,0,0.005,0l0,0c0.002,0,0.002,0,0.004,0l0,0
							c0.178-0.002,0.321,0.096,0.324,0.216l0,0c0,0.12-0.144,0.218-0.322,0.22l0,0C5.262,15.065,5.26,15.065,5.258,15.065z
							 M3.833,14.828c-0.158-0.057-0.217-0.187-0.137-0.294l0,0c0.085-0.105,0.278-0.146,0.437-0.09l0,0
							c0.157,0.055,0.218,0.188,0.136,0.292l0,0c-0.059,0.075-0.17,0.117-0.285,0.117l0,0C3.932,14.854,3.88,14.846,3.833,14.828z
							 M6.245,14.733c-0.083-0.105-0.023-0.237,0.134-0.294l0,0c0.157-0.056,0.353-0.015,0.437,0.09l0,0
							c0.083,0.106,0.023,0.238-0.134,0.295l0,0c-0.048,0.018-0.101,0.026-0.15,0.026l0,0C6.415,14.851,6.304,14.808,6.245,14.733z
							 M2.738,14.175c-0.101-0.1-0.064-0.234,0.082-0.301l0,0c0.146-0.07,0.346-0.046,0.449,0.053l0,0
							c0.101,0.099,0.063,0.235-0.082,0.303l0,0c-0.056,0.026-0.12,0.039-0.183,0.039l0,0C2.902,14.269,2.801,14.235,2.738,14.175z
							 M7.322,14.224c-0.146-0.068-0.183-0.203-0.082-0.302l0,0c0.102-0.101,0.302-0.125,0.447-0.057l0,0
							c0.148,0.069,0.185,0.204,0.084,0.304l0,0c-0.062,0.061-0.164,0.094-0.267,0.094l0,0C7.442,14.263,7.378,14.25,7.322,14.224z
							 M2.218,13.254c-0.021-0.12,0.104-0.229,0.282-0.243l0,0c0.176-0.016,0.338,0.07,0.358,0.189l0,0
							c0.021,0.119-0.105,0.228-0.281,0.242l0,0c-0.014,0.002-0.025,0.002-0.038,0.002l0,0C2.377,13.444,2.238,13.364,2.218,13.254z
							 M7.928,13.435c-0.176-0.015-0.303-0.122-0.281-0.24l0,0c0.02-0.119,0.182-0.205,0.357-0.191l0,0
							c0.177,0.014,0.303,0.121,0.283,0.242l0,0l0,0l0,0c-0.02,0.109-0.158,0.191-0.32,0.191l0,0
							C7.955,13.437,7.941,13.437,7.928,13.435z M2.579,12.553c-0.165-0.042-0.249-0.166-0.188-0.28l0,0l0,0l0,0
							c0.063-0.111,0.25-0.168,0.418-0.125l0,0c0.165,0.042,0.248,0.168,0.187,0.279l0,0c-0.049,0.087-0.172,0.141-0.303,0.141l0,0
							C2.656,12.567,2.618,12.563,2.579,12.553z M7.505,12.421c-0.064-0.111,0.02-0.238,0.185-0.279l0,0
							c0.165-0.044,0.353,0.013,0.417,0.125l0,0c0.063,0.111-0.019,0.237-0.187,0.281l0,0c-0.037,0.008-0.077,0.014-0.114,0.014l0,0
							C7.675,12.562,7.553,12.509,7.505,12.421z M3.196,11.769c-0.118-0.091-0.107-0.229,0.025-0.307l0,0
							c0.134-0.08,0.337-0.072,0.456,0.018l0,0c0.118,0.09,0.104,0.227-0.026,0.308l0,0c-0.063,0.036-0.139,0.054-0.215,0.054l0,0
							C3.349,11.841,3.261,11.817,3.196,11.769z M6.846,11.783v-0.002c-0.134-0.078-0.146-0.216-0.028-0.306l0,0
							c0.118-0.09,0.32-0.099,0.453-0.02l0,0c0.134,0.079,0.146,0.217,0.03,0.309l0,0c-0.064,0.047-0.152,0.072-0.242,0.072l0,0
							C6.983,11.837,6.905,11.819,6.846,11.783z M4.279,11.264c-0.043-0.116,0.063-0.233,0.236-0.263l0,0
							c0.172-0.028,0.346,0.043,0.389,0.158l0,0c0.044,0.116-0.063,0.235-0.233,0.265l0,0c-0.026,0.004-0.052,0.006-0.078,0.006l0,0
							C4.447,11.43,4.316,11.364,4.279,11.264z M5.824,11.422L5.824,11.422c-0.174-0.028-0.279-0.146-0.238-0.263l0,0
							c0.043-0.117,0.217-0.189,0.391-0.16l0,0l0,0l0,0c0.172,0.028,0.28,0.146,0.237,0.264l0,0
							c-0.037,0.099-0.167,0.165-0.314,0.165l0,0C5.874,11.428,5.851,11.427,5.824,11.422z"/>
					</g>
				</g>
				<g>
					<path fill="#603914" d="M5.252,11.846c1.165,0,1.977,0.61,1.977,1.157S6.417,14.16,5.252,14.16
						c-1.166,0-1.978-0.61-1.978-1.157S4.086,11.846,5.252,11.846 M5.252,11.304c-1.39,0-2.52,0.762-2.52,1.699
						s1.13,1.699,2.52,1.699c1.389,0,2.519-0.762,2.519-1.699S6.641,11.304,5.252,11.304L5.252,11.304z"/>
				</g>
			</g>
			<g>
				<path id="XMLID_140_" fill="#B4B4B4" stroke="#603914" stroke-width="0.271" stroke-miterlimit="10" d="M19.524,4.854
					c-9.94,0-10.977,4.618-10.977,8.287c0,4.619,1.331,9.189,3.212,13.614c1.566,3.687,3.846,7.263,7.907,10.034l-0.011-0.026
					c4.063-2.772,6.341-6.321,7.907-10.008c1.881-4.425,3.212-8.995,3.212-13.614c0-3.669-1.037-8.287-10.977-8.287H19.524z"/>
			</g>
			<g>
				<path fill="#811710" d="M20.45,18.679c0,0,2.033-3.016,4.541-3.016s4.541,3.016,4.541,3.016l-4.802,1.534L20.45,18.679z"/>
			</g>
			<g>
				<path fill="#811710" d="M18.874,18.679c0,0-2.034-3.016-4.542-3.016c-2.509,0-4.542,3.016-4.542,3.016l4.803,1.534
					L18.874,18.679z"/>
			</g>
			<g>
				<defs>
					<path id="SVGID_1_" d="M19.524,4.854c-9.94,0-10.977,4.618-10.977,8.287c0,4.619,1.331,9.189,3.212,13.614
						c1.566,3.687,3.846,7.446,7.907,10.219h-0.011c4.063-2.772,6.341-6.532,7.907-10.219c1.881-4.425,3.212-8.995,3.212-13.614
						c0-3.669-1.037-8.287-10.977-8.287H19.524z"/>
				</defs>
				<clipPath id="SVGID_2_">
					<use xlink:href="#SVGID_1_"  overflow="visible"/>
				</clipPath>
				<g clip-path="url(#SVGID_2_)">
					<path fill="#F4961B" stroke="#603914" stroke-width="0.292" stroke-miterlimit="10" d="M25.217,14.233
						c-2.408,0-4.352,1.012-5.559,1.862c-0.024,0.018-0.046,0.04-0.064,0.063c-0.018-0.023-0.039-0.046-0.063-0.063
						c-1.207-0.851-3.15-1.862-5.559-1.862c-2.786,0-4.992,1.404-6.06,2.241c-0.077,0.062-0.119,0.157-0.11,0.255
						c0.008,0.1,0.066,0.186,0.153,0.232l0.134,0.072c-0.032,0.026-0.065,0.055-0.094,0.08c-0.073,0.064-0.108,0.162-0.096,0.259
						c0.015,0.097,0.076,0.181,0.165,0.223l0.176,0.083c-0.003,0.004-0.012,0.012-0.014,0.014c-0.068,0.069-0.097,0.168-0.077,0.264
						c0.02,0.095,0.084,0.173,0.175,0.211l0.377,0.156c0.037,0.015,0.074,0.021,0.112,0.021c0.076,0,0.152-0.03,0.208-0.087
						c0.021-0.022,2.18-2.202,4.899-2.202c2.137,0,3.919,1.339,4.587,1.913c0.055,0.047,0.122,0.071,0.19,0.071
						c0.043,0,0.088-0.01,0.129-0.029l0.357-0.176c0.088-0.043,0.148-0.127,0.161-0.225c0.012-0.098-0.024-0.194-0.099-0.258
						c-0.034-0.029-0.074-0.063-0.113-0.095l0.221-0.12c0.087-0.047,0.144-0.136,0.152-0.234c0.007-0.097-0.034-0.189-0.11-0.25
						l0.115-0.068c0.033-0.021,0.06-0.047,0.082-0.078c0.022,0.031,0.05,0.058,0.083,0.078l0.114,0.068
						c-0.076,0.061-0.117,0.153-0.109,0.25c0.009,0.099,0.065,0.188,0.152,0.234l0.22,0.12c-0.038,0.032-0.078,0.065-0.112,0.095
						c-0.074,0.063-0.112,0.16-0.1,0.258c0.014,0.098,0.073,0.182,0.162,0.225l0.357,0.176c0.042,0.02,0.084,0.029,0.128,0.029
						c0.069,0,0.137-0.024,0.19-0.071c0.668-0.574,2.453-1.913,4.587-1.913c2.732,0,4.877,2.179,4.899,2.201
						c0.056,0.058,0.132,0.088,0.209,0.088c0.038,0,0.075-0.007,0.112-0.021l0.377-0.156c0.09-0.038,0.155-0.116,0.176-0.211
						c0.018-0.096-0.011-0.194-0.079-0.264c-0.001-0.002-0.01-0.01-0.013-0.014l0.176-0.083c0.089-0.042,0.151-0.125,0.164-0.223
						c0.014-0.097-0.021-0.194-0.095-0.26c-0.028-0.024-0.062-0.053-0.093-0.08l0.133-0.071c0.087-0.047,0.145-0.133,0.152-0.232
						c0.009-0.098-0.032-0.193-0.11-0.255C30.208,15.638,28.003,14.233,25.217,14.233z"/>
					<path fill="#F4961B" stroke="#603914" stroke-width="0.292" stroke-miterlimit="10" d="M29.827,29.735
						c-0.04-0.299-0.267-0.561-0.639-0.787c-0.031-0.311-0.263-0.576-0.638-0.801c-0.174-1.895-7.938-1.956-8.884-1.957l0,0
						c-0.002,0-0.004,0-0.006,0c-0.001,0-0.004,0-0.005,0l0,0c-0.946,0.001-8.709,0.063-8.883,1.956
						c-0.378,0.226-0.608,0.491-0.64,0.803c-0.371,0.226-0.598,0.487-0.638,0.786c-0.413,0.258-0.651,0.556-0.651,0.901
						c0,0.161,0.13,0.292,0.292,0.292h0.429c0.162,0,0.293-0.131,0.293-0.292c0.06-0.415,3.163-1.509,9.803-1.509
						c6.641,0,9.744,1.094,9.804,1.51c0,0.162,0.131,0.291,0.292,0.291h0.43c0.161,0,0.292-0.131,0.292-0.292
						C30.479,30.292,30.238,29.993,29.827,29.735z"/>
					<path fill="#F4961B" stroke="#603914" stroke-width="0.292" stroke-miterlimit="10" d="M29.157,8.655
						c-2.536-1.082-5.897-1.681-9.467-1.687l0,0h-0.058c-3.569,0.006-6.931,0.604-9.468,1.687C7.551,9.771,6.11,11.28,6.11,12.904
						v0.655c0,0.058,0.017,0.111,0.046,0.156c-0.031,0.166-0.046,0.333-0.046,0.498v0.656c0,0.162,0.13,0.292,0.292,0.292h0.429
						c0.162,0,0.292-0.13,0.292-0.292c0-2.738,5.742-5.056,12.538-5.062C26.458,9.814,32.2,12.132,32.2,14.87
						c0,0.162,0.13,0.292,0.292,0.292h0.429c0.162,0,0.293-0.13,0.293-0.292v-1.966C33.214,11.28,31.772,9.771,29.157,8.655z"/>
				</g>
			</g>
			<path fill="none" stroke="#010202" stroke-width="0.271" stroke-miterlimit="10" d="M9.036,11.8c0,0.017,0,0.033,0,0.049"/>
			<g>
				<path fill="#901913" d="M20.194,18.478l0.158-0.167c0.084-0.09,2.103-2.199,4.64-2.199s4.555,2.109,4.64,2.199l0.163,0.172
					l-5.065,1.156L20.194,18.478z"/>
				<path fill="#811710" d="M24.991,16.247c2.508,0,4.541,2.156,4.541,2.156L24.73,19.5l-4.28-1.097
					C20.45,18.403,22.483,16.247,24.991,16.247 M24.991,15.976c-2.595,0-4.652,2.15-4.738,2.241l-0.315,0.334l0.445,0.114
					l4.28,1.097l0.064,0.016l0.064-0.015l4.802-1.097l0.461-0.105l-0.325-0.345C29.643,18.126,27.586,15.976,24.991,15.976
					L24.991,15.976z"/>
			</g>
			<g>
				<path fill="#FAF198" d="M28.295,18.351c0,0-1.556,0.314-3.475,0.314c-1.918,0-3.474-0.314-3.474-0.314s1.556-0.314,3.474-0.314
					C26.739,18.036,28.295,18.351,28.295,18.351z"/>
			</g>
			<path fill="none" stroke="#010202" stroke-width="0.271" stroke-miterlimit="10" d="M31.504,18.87"/>
			<g>
				<path fill="#901913" d="M9.529,18.483l0.163-0.172c0.084-0.09,2.103-2.199,4.641-2.199c2.537,0,4.556,2.109,4.641,2.199
					l0.158,0.167l-4.536,1.162L9.529,18.483z"/>
				<path fill="#811710" d="M14.332,16.247c2.508,0,4.542,2.156,4.542,2.156L14.593,19.5L9.79,18.403
					C9.79,18.403,11.823,16.247,14.332,16.247 M14.332,15.976c-2.596,0-4.653,2.15-4.739,2.241l-0.325,0.345l0.461,0.105
					l4.803,1.097l0.064,0.015l0.064-0.016l4.281-1.097l0.445-0.114l-0.315-0.334C18.985,18.126,16.927,15.976,14.332,15.976
					L14.332,15.976z"/>
			</g>
			<g>
				<path fill="#FAF198" d="M10.97,18.351c0,0,1.557,0.314,3.475,0.314c1.919,0,3.475-0.314,3.475-0.314s-1.556-0.314-3.475-0.314
					C12.526,18.036,10.97,18.351,10.97,18.351z"/>
			</g>
			<path fill="none" stroke="#010202" stroke-width="0.271" stroke-miterlimit="10" d="M7.819,18.87"/>
			<g>
				<g>
					<path fill="#603914" d="M19.799,4.854c9.939,0,10.977,4.618,10.977,8.287c0,4.619-1.331,9.189-3.212,13.614
						c-1.566,3.687-3.735,7.209-7.797,9.981l-0.1-0.026c-4.062-2.772-6.341-6.269-7.907-9.955
						c-1.881-4.425-3.212-8.995-3.212-13.614c0-3.669,1.036-8.287,10.977-8.287H19.799 M19.799,4.313h-0.274
						C9.2,4.313,8.006,9.352,8.006,13.142c0,4.151,1.065,8.673,3.255,13.826c1.903,4.479,4.477,7.717,8.1,10.191l0.077,0.052
						l0.09,0.024l0.1,0.026l0.24,0.063l0.205-0.14c4.555-3.11,6.663-7.094,7.99-10.217c2.19-5.153,3.255-9.675,3.255-13.826
						C31.317,9.352,30.124,4.313,19.799,4.313L19.799,4.313z"/>
				</g>
			</g>
			<g>
				<path fill="#6E150C" d="M13.169,28.884c-1.803-4.424-3.08-8.993-3.08-13.612c0-3.669,0.995-8.288,10.528-8.288h0.263
					c5.448,0,8.617,1.529,9.896,3.506C30.103,7.536,27.233,4.75,19.538,4.75h-0.273c-9.94,0-10.978,4.619-10.978,8.288
					c0,4.619,1.332,9.188,3.211,13.612c0.879,2.068,1.981,4.075,3.497,5.929C14.28,31.384,13.683,30.146,13.169,28.884z"/>
			</g>
			<g>
				<g>
					<defs>
						<polygon id="XMLID_139_" points="15.481,36.138 19.649,37.438 19.649,37.438 23.842,36.138 19.6,13.003 						"/>
					</defs>
					<use xlink:href="#XMLID_139_"  overflow="visible" fill="#B4B4B4"/>
					<clipPath id="XMLID_2_">
						<use xlink:href="#XMLID_139_"  overflow="visible"/>
					</clipPath>
					<rect x="14.445" y="36.116" clip-path="url(#XMLID_2_)" fill="#754D24" width="11.641" height="2.031"/>
					<g clip-path="url(#XMLID_2_)">
						<g>
							<g>
								<polygon fill="#F4961B" stroke="#603914" stroke-width="0.292" stroke-miterlimit="10" points="19.634,34.675 
									13.464,31.527 14.792,28.926 19.62,31.39 24.342,28.932 25.689,31.521 								"/>
							</g>
						</g>
						<g>
							<g>
								<polygon fill="#F4961B" stroke="#603914" stroke-width="0.292" stroke-miterlimit="10" points="19.634,30.501 
									13.464,27.352 14.792,24.751 19.62,27.216 24.342,24.757 25.689,27.347 								"/>
							</g>
						</g>
						<g>
							<g>
								<polygon fill="#F4961B" stroke="#603914" stroke-width="0.292" stroke-miterlimit="10" points="19.634,26.325 
									13.464,23.177 14.792,20.577 19.62,23.041 24.342,20.581 25.689,23.171 								"/>
							</g>
						</g>
						<g>
							<g>
								<polygon fill="#F4961B" stroke="#603914" stroke-width="0.292" stroke-miterlimit="10" points="19.634,22.151 
									13.464,19.003 14.792,16.401 19.62,18.865 24.342,16.407 25.689,18.997 								"/>
							</g>
						</g>
						<g>
							<g>
								<polygon fill="#F4961B" stroke="#8D1812" stroke-width="0.292" stroke-miterlimit="10" points="19.634,17.976 
									13.464,14.827 14.792,12.227 19.62,14.691 24.342,12.232 25.689,14.821 								"/>
							</g>
						</g>
					</g>
					
						<use xlink:href="#XMLID_139_"  overflow="visible" fill="none" stroke="#603914" stroke-width="0.5419" stroke-miterlimit="10"/>
				</g>
			</g>
		</g>
		<g>
			<g>
				
					<line fill="none" stroke="#603914" stroke-width="0.5419" stroke-linecap="round" stroke-linejoin="round" x1="15.966" y1="35.314" x2="15.966" y2="35.314"/>
				
					<line fill="none" stroke="#603914" stroke-width="0.5419" stroke-linecap="round" stroke-linejoin="round" stroke-dasharray="0,1.0481" x1="17.014" y1="35.314" x2="22.778" y2="35.314"/>
				
					<line fill="none" stroke="#603914" stroke-width="0.5419" stroke-linecap="round" stroke-linejoin="round" x1="23.303" y1="35.314" x2="23.303" y2="35.314"/>
			</g>
		</g>
	</g>
</g>
</svg>
