<?xml version="1.0" encoding="utf-8"?>
<!-- Generator: Adobe Illustrator 16.0.0, SVG Export Plug-In . SVG Version: 6.00 Build 0)  -->
<!DOCTYPE svg PUBLIC "-//W3C//DTD SVG 1.1//EN" "http://www.w3.org/Graphics/SVG/1.1/DTD/svg11.dtd">
<svg version="1.1" id="Слой_1" xmlns="http://www.w3.org/2000/svg" xmlns:xlink="http://www.w3.org/1999/xlink" x="0px" y="0px"
	 width="50.337px" height="39.908px" viewBox="0 0 50.337 39.908" enable-background="new 0 0 50.337 39.908" xml:space="preserve">
<g>
	<g>
		<polygon fill="#E0B807" points="27.146,0 33.629,13.137 48.127,15.243 37.636,25.469 40.113,39.908 27.146,33.09 14.179,39.908 
			16.656,25.469 6.166,15.243 20.663,13.137 		"/>
	</g>
	<g>
		<g>
			<g>
				<path fill="#B4CC05" d="M7.596,25.785c-1.414,0-2.723-0.379-3.891-1.126c-1.165-0.745-2.084-1.763-2.732-3.025
					C0.327,20.377,0,18.992,0,17.515c0-1.224,0.298-2.505,0.886-3.809c0.581-1.289,1.336-2.473,2.246-3.519
					C4.036,9.146,5.058,8.209,6.17,7.404c1.118-0.81,2.238-1.411,3.331-1.786l0.18-0.062l0.153,0.112
					c3.157,2.308,4.939,4.711,5.296,7.144l0.015,0.101l-0.04,0.094c-0.196,0.46-0.646,0.894-1.377,1.326
					c-0.698,0.413-1.374,0.654-2.007,0.716l-0.323,0.032l-0.234-1.109c-0.081-0.39-0.152-0.72-0.213-0.991
					c-0.062-0.268-0.137-0.569-0.227-0.905c-0.087-0.325-0.173-0.6-0.26-0.824c-0.045-0.118-0.086-0.205-0.119-0.269
					c-0.584,0.049-1.222,0.317-1.899,0.8c-0.783,0.558-1.495,1.256-2.116,2.076c-0.63,0.831-1.186,1.726-1.651,2.662
					c-0.441,0.885-0.729,1.69-0.855,2.396c0.246,0.653,0.729,1.125,1.475,1.44c0.822,0.348,1.842,0.524,3.03,0.524
					c2.862,0,4.825-0.987,5.999-3.019c0.14-0.251,0.407-0.752,0.797-1.493c0.396-0.752,0.709-1.327,0.94-1.723l0.231-0.396
					l0.333,0.315c0.552,0.522,0.897,1.124,1.025,1.789l0.013,0.064l-0.011,0.065c-0.186,1.104-0.561,2.337-1.113,3.666
					c-0.713,1.714-1.847,3.097-3.37,4.109C11.648,25.271,9.772,25.785,7.596,25.785z"/>
				<path fill="#EB5C2D" d="M9.62,5.962c3.09,2.259,4.807,4.56,5.151,6.903c-0.163,0.383-0.572,0.768-1.227,1.154
					c-0.655,0.388-1.275,0.61-1.858,0.668c-0.029-0.135-0.084-0.396-0.165-0.789c-0.082-0.393-0.153-0.726-0.215-0.998
					c-0.063-0.272-0.139-0.578-0.23-0.918s-0.182-0.627-0.272-0.861s-0.179-0.404-0.265-0.51c-0.718,0-1.485,0.293-2.303,0.876
					c-0.818,0.583-1.55,1.301-2.195,2.152c-0.646,0.853-1.208,1.758-1.687,2.72c-0.479,0.961-0.78,1.824-0.904,2.59
					c0.268,0.795,0.837,1.375,1.708,1.743c0.871,0.368,1.928,0.553,3.171,0.553c2.976,0,5.08-1.066,6.314-3.2
					c0.144-0.258,0.412-0.761,0.804-1.506c0.393-0.746,0.703-1.316,0.933-1.709c0.498,0.471,0.804,1,0.918,1.594
					c-0.182,1.08-0.545,2.276-1.09,3.587c-0.689,1.655-1.768,2.97-3.236,3.946c-1.469,0.976-3.26,1.464-5.374,1.464
					c-1.349,0-2.581-0.356-3.695-1.069s-1.982-1.674-2.604-2.885c-0.622-1.209-0.933-2.527-0.933-3.952
					c0-1.177,0.285-2.397,0.854-3.659c0.569-1.264,1.299-2.406,2.188-3.43c0.89-1.024,1.882-1.934,2.978-2.728
					C7.479,6.904,8.558,6.326,9.62,5.962 M9.743,5.151L9.384,5.274C8.256,5.66,7.104,6.278,5.957,7.109
					C4.822,7.931,3.779,8.886,2.856,9.949c-0.933,1.073-1.707,2.287-2.302,3.608c-0.609,1.351-0.918,2.682-0.918,3.958
					c0,1.536,0.341,2.977,1.013,4.285c0.678,1.32,1.64,2.385,2.859,3.165c1.228,0.786,2.603,1.184,4.087,1.184
					c2.25,0,4.193-0.534,5.776-1.585c1.584-1.054,2.764-2.491,3.505-4.272c0.563-1.354,0.946-2.615,1.136-3.746l0.022-0.129
					l-0.025-0.129c-0.143-0.741-0.524-1.408-1.133-1.984l-0.666-0.63l-0.462,0.791c-0.23,0.394-0.541,0.962-0.949,1.737
					c-0.388,0.738-0.653,1.236-0.795,1.491c-1.098,1.899-2.957,2.827-5.678,2.827c-1.139,0-2.111-0.167-2.888-0.495
					c-0.612-0.259-1.019-0.634-1.239-1.143c0.129-0.647,0.399-1.385,0.804-2.196c0.456-0.916,0.999-1.792,1.615-2.604
					c0.599-0.79,1.285-1.463,2.038-2c0.525-0.374,1.016-0.607,1.467-0.698c0,0,0,0.001,0.001,0.002
					c0.081,0.209,0.164,0.474,0.248,0.787c0.088,0.331,0.163,0.627,0.224,0.893c0.061,0.268,0.132,0.596,0.212,0.983
					c0.082,0.394,0.137,0.658,0.166,0.793l0.136,0.636l0.647-0.064c0.687-0.068,1.413-0.326,2.157-0.766
					c0.799-0.472,1.299-0.961,1.526-1.496l0.08-0.188l-0.03-0.202c-0.372-2.532-2.203-5.017-5.442-7.385L9.743,5.151L9.743,5.151z"
					/>
			</g>
		</g>
		<g>
			<path fill="#B4CC05" d="M18.151,22.882c-0.558,0-0.973-0.173-1.231-0.514l-0.096-0.125l0.027-0.156
				c0.404-2.376,0.65-4.897,0.73-7.494c-0.077-0.123-0.156-0.272-0.236-0.449c-0.104-0.231-0.174-0.42-0.214-0.569l-0.053-0.193
				l0.136-0.148c0.328-0.357,0.773-0.648,1.321-0.866c0.541-0.215,1.179-0.324,1.896-0.324c1.26,0,2.354,0.327,3.252,0.971
				c0.914,0.656,1.491,1.632,1.715,2.9l0.013,0.072l-0.016,0.071c-0.139,0.62-0.449,1.175-0.922,1.653
				c-0.458,0.464-1.018,0.825-1.666,1.073c-0.336,0.129-0.686,0.224-1.043,0.285c0.104,0.058,0.213,0.11,0.326,0.159
				c0.407,0.176,0.832,0.265,1.261,0.265c0.34,0,0.7-0.083,1.07-0.248c0.372-0.165,0.691-0.384,0.949-0.65
				c0.116-0.123,0.227-0.276,0.325-0.454c0.11-0.2,0.231-0.44,0.363-0.719c0.139-0.297,0.257-0.532,0.354-0.706l0.215-0.387
				l0.338,0.286c0.326,0.276,0.539,0.627,0.633,1.045l0.015,0.063l-0.008,0.064c-0.072,0.553-0.232,1.097-0.475,1.617
				c-0.243,0.519-0.553,0.991-0.923,1.403c-0.375,0.42-0.833,0.762-1.361,1.016c-0.532,0.257-1.1,0.388-1.688,0.388
				c-0.865,0-1.68-0.277-2.422-0.823c-0.413-0.303-0.776-0.656-1.085-1.056c-0.036,0.577-0.068,1.22-0.099,1.929l-0.008,0.188
				l-0.158,0.102C19.045,22.772,18.631,22.882,18.151,22.882z M20.538,15.517c-0.077,0.242-0.17,0.588-0.278,1.032
				c-0.079,0.326-0.144,0.611-0.192,0.854c0.145-0.028,0.298-0.063,0.459-0.105c0.355-0.092,0.722-0.216,1.088-0.37
				c0.342-0.142,0.637-0.327,0.877-0.552c0.206-0.192,0.315-0.381,0.333-0.577c-0.001,0.004-0.002,0.006-0.004,0.006
				c-0.013,0-0.047-0.07-0.149-0.144c-0.127-0.091-0.278-0.153-0.448-0.186c-0.2-0.039-0.428-0.058-0.679-0.058
				C21.195,15.418,20.857,15.452,20.538,15.517z"/>
			<path fill="#EB5C2D" d="M20.431,12.408c1.188,0,2.202,0.301,3.04,0.902c0.838,0.602,1.36,1.49,1.568,2.668
				c-0.125,0.555-0.4,1.047-0.825,1.477c-0.426,0.432-0.938,0.76-1.537,0.989s-1.231,0.344-1.896,0.344
				c0.322,0.321,0.709,0.579,1.164,0.774c0.454,0.196,0.922,0.295,1.405,0.295c0.394,0,0.8-0.094,1.218-0.279
				s0.772-0.43,1.063-0.729c0.14-0.147,0.267-0.323,0.382-0.53c0.114-0.207,0.238-0.453,0.374-0.74
				c0.135-0.288,0.249-0.516,0.342-0.684c0.264,0.224,0.436,0.506,0.514,0.848c-0.067,0.518-0.215,1.021-0.444,1.51
				c-0.228,0.488-0.516,0.927-0.864,1.314c-0.347,0.389-0.764,0.698-1.249,0.932c-0.485,0.234-0.996,0.352-1.53,0.352
				c-0.789,0-1.524-0.25-2.207-0.752c-0.682-0.5-1.21-1.138-1.584-1.913c-0.067,0.827-0.127,1.849-0.179,3.063
				c-0.28,0.181-0.625,0.271-1.036,0.271c-0.441,0-0.755-0.124-0.942-0.37c0.416-2.442,0.662-4.996,0.739-7.659
				c-0.088-0.124-0.179-0.289-0.272-0.495c-0.093-0.208-0.158-0.379-0.194-0.514c0.291-0.316,0.686-0.575,1.187-0.773
				C19.169,12.508,19.757,12.408,20.431,12.408 M19.622,17.834c0.291-0.025,0.623-0.086,0.996-0.184
				c0.374-0.097,0.752-0.226,1.137-0.387c0.384-0.159,0.712-0.367,0.985-0.621c0.272-0.254,0.421-0.523,0.447-0.81
				c-0.031-0.188-0.132-0.343-0.304-0.466c-0.171-0.122-0.368-0.205-0.591-0.248c-0.224-0.043-0.473-0.064-0.748-0.064
				c-0.451,0-0.879,0.051-1.284,0.152c-0.094,0.25-0.211,0.668-0.354,1.256C19.763,17.051,19.668,17.508,19.622,17.834
				 M20.431,11.681c-0.764,0-1.447,0.118-2.032,0.351c-0.599,0.237-1.088,0.559-1.454,0.957l-0.271,0.296l0.105,0.387
				c0.046,0.17,0.123,0.373,0.232,0.619c0.069,0.151,0.136,0.283,0.203,0.399c-0.083,2.542-0.327,5.009-0.723,7.337l-0.053,0.311
				l0.191,0.251c0.228,0.3,0.677,0.658,1.521,0.658c0.551,0,1.032-0.13,1.43-0.387l0.317-0.204l0.016-0.376
				c0.016-0.37,0.032-0.722,0.049-1.057c0.174,0.165,0.36,0.319,0.556,0.463c0.805,0.592,1.692,0.893,2.637,0.893
				c0.643,0,1.264-0.143,1.846-0.424c0.57-0.275,1.067-0.646,1.475-1.102c0.393-0.438,0.723-0.94,0.981-1.492
				c0.259-0.553,0.429-1.133,0.506-1.724l0.017-0.128l-0.029-0.126c-0.113-0.497-0.366-0.914-0.753-1.242l-0.676-0.572l-0.43,0.774
				c-0.099,0.179-0.221,0.421-0.365,0.729c-0.127,0.27-0.244,0.502-0.352,0.698c-0.082,0.148-0.174,0.277-0.271,0.38
				c-0.221,0.228-0.501,0.419-0.831,0.566c-0.323,0.144-0.634,0.216-0.922,0.216c-0.124,0-0.246-0.008-0.367-0.024
				c0.677-0.266,1.265-0.649,1.749-1.14c0.52-0.526,0.863-1.141,1.017-1.828l0.032-0.142l-0.025-0.144
				c-0.241-1.365-0.867-2.419-1.86-3.132C22.935,12.03,21.769,11.681,20.431,11.681L20.431,11.681z M20.822,15.835
				c0.232-0.035,0.474-0.053,0.723-0.053c0.228,0,0.433,0.017,0.61,0.051c0.094,0.018,0.177,0.048,0.25,0.089
				c-0.037,0.06-0.091,0.122-0.161,0.188c-0.208,0.194-0.467,0.356-0.767,0.481c-0.315,0.132-0.626,0.241-0.93,0.325
				c0.021-0.09,0.043-0.184,0.067-0.282C20.699,16.282,20.768,16.024,20.822,15.835L20.822,15.835z"/>
		</g>
		<g>
			<path fill="#B4CC05" d="M25.561,23.871c-0.396,0-0.776-0.055-1.129-0.164c-0.38-0.118-0.666-0.268-0.875-0.461l-0.167-0.154
				l0.065-0.218c0.521-1.746,1.335-3.574,2.422-5.431c1.08-1.848,2.182-3.442,3.275-4.74l0.08-0.095l0.121-0.026
				c0.435-0.095,0.806-0.141,1.137-0.141c0.454,0,0.856,0.103,1.195,0.306c0.345,0.206,0.631,0.552,0.848,1.029l0.053,0.115
				l-0.031,0.124c-0.061,0.244-0.186,0.5-0.372,0.763c-0.001,0.091-0.015,0.663-0.015,0.744c0,1.401,0.076,2.567,0.225,3.466
				c0.145,0.878,0.402,1.65,0.764,2.294l0.084,0.15l-0.063,0.16c-0.146,0.374-0.432,0.651-0.826,0.803
				c-0.341,0.132-0.69,0.199-1.039,0.199h-0.134l-0.102-0.087c-0.097-0.083-0.192-0.188-0.282-0.312
				c-0.08-0.109-0.164-0.243-0.25-0.402c-0.081-0.15-0.143-0.272-0.188-0.366l-0.245-0.534c-0.102-0.003-0.224-0.004-0.367-0.004
				c-0.896,0-1.85,0.114-2.837,0.339c-0.129,0.217-0.298,0.556-0.502,1.011c-0.243,0.542-0.408,0.996-0.49,1.35l-0.065,0.281H25.561
				z M28.309,18.425c0.405,0.028,0.794,0.084,1.164,0.168c-0.05-0.216-0.103-0.47-0.158-0.763c-0.048-0.253-0.086-0.483-0.116-0.693
				C28.917,17.492,28.62,17.922,28.309,18.425z"/>
			<path fill="#EB5C2D" d="M30.489,12.805c0.39,0,0.726,0.085,1.008,0.254c0.282,0.168,0.517,0.457,0.704,0.867
				c-0.057,0.229-0.185,0.473-0.381,0.731c0,0.104-0.002,0.253-0.007,0.447c-0.005,0.194-0.008,0.334-0.008,0.417
				c0,1.427,0.077,2.603,0.23,3.525c0.153,0.924,0.421,1.729,0.806,2.413c-0.109,0.28-0.315,0.479-0.618,0.596
				c-0.303,0.117-0.606,0.175-0.909,0.175c-0.078-0.066-0.152-0.15-0.224-0.249c-0.072-0.099-0.147-0.219-0.224-0.361
				c-0.077-0.144-0.137-0.261-0.181-0.351c-0.043-0.091-0.105-0.225-0.185-0.4c-0.08-0.177-0.128-0.285-0.147-0.328
				c-0.13-0.01-0.333-0.016-0.607-0.016c-0.978,0-2,0.129-3.065,0.383c-0.15,0.223-0.352,0.617-0.606,1.182
				c-0.254,0.566-0.425,1.039-0.513,1.417c-0.36,0-0.701-0.049-1.023-0.147c-0.322-0.1-0.567-0.226-0.736-0.381
				c0.515-1.729,1.311-3.512,2.387-5.352c1.076-1.84,2.156-3.403,3.24-4.689C29.831,12.85,30.184,12.805,30.489,12.805
				 M29.998,19.117c-0.096-0.264-0.205-0.717-0.325-1.354c-0.121-0.639-0.181-1.137-0.181-1.495
				c-0.549,0.528-1.152,1.362-1.811,2.499C28.527,18.768,29.299,18.883,29.998,19.117 M30.489,12.077
				c-0.357,0-0.755,0.049-1.215,0.15l-0.242,0.053l-0.159,0.189c-1.107,1.313-2.221,2.925-3.312,4.791
				c-1.101,1.882-1.928,3.737-2.457,5.511l-0.13,0.436l0.335,0.308c0.25,0.23,0.582,0.407,1.013,0.54
				c0.391,0.12,0.806,0.18,1.238,0.18h0.578l0.131-0.563c0.077-0.331,0.234-0.763,0.468-1.284c0.18-0.401,0.312-0.665,0.406-0.839
				c0.905-0.196,1.778-0.295,2.601-0.295c0.045,0,0.089,0,0.13,0c0.068,0.15,0.117,0.254,0.153,0.33
				c0.048,0.1,0.113,0.226,0.196,0.381c0.093,0.172,0.186,0.321,0.278,0.447c0.105,0.145,0.22,0.27,0.338,0.372l0.204,0.175h0.269
				c0.394,0,0.788-0.075,1.171-0.224c0.491-0.188,0.849-0.538,1.033-1.009l0.125-0.321l-0.168-0.3
				c-0.341-0.607-0.584-1.339-0.722-2.176c-0.146-0.88-0.22-2.026-0.22-3.407c0-0.079,0.003-0.212,0.008-0.397
				c0.002-0.086,0.004-0.164,0.005-0.232c0.176-0.268,0.298-0.532,0.362-0.79l0.062-0.246l-0.105-0.231
				c-0.248-0.545-0.583-0.946-0.994-1.191C31.474,12.197,31.009,12.077,30.489,12.077L30.489,12.077z"/>
		</g>
		<g>
			<path fill="#B4CC05" d="M34.675,22.867c-0.5,0-0.935-0.291-1.293-0.863c-0.324-0.52-0.488-1.033-0.488-1.528v-0.124l0.075-0.098
				c0.984-1.28,2.87-2.793,5.744-4.604c-2.256,0.252-4.114,0.689-5.536,1.304l-0.525,0.227l0.018-0.572
				c0.016-0.512,0.101-1.009,0.251-1.478c0.159-0.495,0.334-0.836,0.536-1.045l0.061-0.063l0.082-0.028
				c1.189-0.411,2.46-0.751,3.777-1.013c1.304-0.257,2.54-0.438,3.673-0.539l0.104-0.009l0.093,0.047
				c0.454,0.229,0.788,0.583,0.994,1.05c0.191,0.436,0.288,0.906,0.288,1.4c0,0.037-0.016,0.288-0.016,0.288v0.193l-0.16,0.108
				c-1.068,0.72-2.126,1.506-3.146,2.336c-0.666,0.542-1.241,1.067-1.718,1.567c1.188-0.166,2.148-0.25,2.862-0.25
				c1.251,0,1.976,0.111,1.976,0.68c0,0.3-0.063,0.634-0.188,0.992c-0.122,0.35-0.265,0.64-0.426,0.861l-0.118,0.162l-0.2-0.014
				c-0.699-0.047-1.163-0.07-1.392-0.07c-1.894,0-3.635,0.353-5.175,1.05l-0.071,0.032H34.675z"/>
			<path fill="#EB5C2D" d="M41.082,12.805c0.378,0.191,0.653,0.482,0.825,0.872c0.171,0.39,0.257,0.806,0.257,1.253
				c0,0.031-0.003,0.079-0.008,0.144c-0.005,0.065-0.008,0.113-0.008,0.145c-1.09,0.735-2.147,1.521-3.172,2.355
				c-1.025,0.835-1.831,1.62-2.417,2.356c1.64-0.262,2.903-0.393,3.791-0.393c1.074,0,1.612,0.105,1.612,0.316
				c0,0.262-0.056,0.552-0.168,0.872c-0.111,0.32-0.237,0.575-0.377,0.767c-0.711-0.048-1.184-0.071-1.417-0.071
				c-1.957,0-3.731,0.361-5.325,1.082c-0.369,0-0.696-0.231-0.984-0.692c-0.288-0.462-0.433-0.907-0.433-1.335
				c1.09-1.419,3.413-3.194,6.967-5.328c-3.015,0.213-5.412,0.703-7.192,1.472c0.015-0.482,0.094-0.942,0.233-1.378
				c0.14-0.437,0.291-0.737,0.451-0.903c1.188-0.41,2.432-0.742,3.729-1C38.744,13.082,39.956,12.904,41.082,12.805 M41.225,12.062
				l-0.207,0.019c-1.147,0.102-2.396,0.285-3.711,0.544c-1.334,0.265-2.621,0.61-3.826,1.026l-0.165,0.057l-0.121,0.125
				c-0.245,0.253-0.442,0.63-0.621,1.187c-0.161,0.501-0.25,1.031-0.268,1.577l-0.036,1.145l1.052-0.454
				c1.039-0.449,2.32-0.801,3.828-1.054c-2.154,1.451-3.626,2.704-4.468,3.799l-0.151,0.196v0.247c0,0.564,0.183,1.143,0.543,1.72
				c0.535,0.855,1.166,1.035,1.602,1.035h0.157l0.143-0.065c1.493-0.675,3.183-1.017,5.025-1.017c0.151,0,0.512,0.012,1.368,0.07
				l0.4,0.027l0.236-0.324c0.185-0.253,0.341-0.566,0.476-0.957c0.14-0.401,0.208-0.765,0.208-1.111
				c0-1.044-1.408-1.044-2.339-1.044c-0.506,0-1.113,0.039-1.832,0.117c0.282-0.257,0.589-0.521,0.918-0.789
				c1.011-0.822,2.061-1.602,3.119-2.316l0.321-0.216v-0.387c0-0.02,0.003-0.05,0.006-0.09c0.006-0.088,0.01-0.154,0.01-0.198
				c0-0.544-0.107-1.064-0.318-1.545c-0.241-0.548-0.632-0.961-1.163-1.229L41.225,12.062L41.225,12.062z"/>
		</g>
		<g>
			<path fill="#B4CC05" d="M45.927,25.654c-0.543,0-1.086-0.105-1.616-0.313c-0.532-0.208-0.994-0.507-1.374-0.888
				c-0.397-0.397-0.639-0.841-0.72-1.321l-0.019-0.11l0.047-0.102c0.097-0.212,0.259-0.411,0.495-0.61
				c0.228-0.191,0.479-0.33,0.747-0.412l0.122-0.038c-1.326-0.664-1.997-2.089-1.997-4.253c0-1.387,0.16-2.737,0.477-4.01
				l0.035-0.141l0.122-0.078c0.251-0.161,0.577-0.296,0.995-0.414c0.412-0.115,0.826-0.173,1.233-0.173
				c0.314,0,0.627,0.044,0.93,0.13l0.339,0.096l-0.381,1.518c-0.17,0.676-0.291,1.173-0.363,1.49
				c-0.071,0.313-0.147,0.723-0.229,1.227c-0.079,0.49-0.119,0.908-0.119,1.241c0,0.476,0.068,1.057,0.383,1.219
				c0.671-0.159,1.287-0.971,1.832-2.414c0.076-0.46,0.124-1.171,0.124-2.05c0-0.367-0.01-0.677-0.03-0.929l-0.02-0.243l0.218-0.111
				c0.489-0.248,1.064-0.373,1.71-0.373c0.514,0,0.914,0.087,1.222,0.268l0.245,0.143l-0.08,0.272
				c-0.17,0.587-0.303,1.232-0.393,1.916c-0.093,0.698-0.153,1.366-0.18,1.983c-0.029,0.64-0.06,1.282-0.092,1.929
				c-0.033,0.654-0.103,1.344-0.207,2.048c-0.107,0.717-0.264,1.396-0.464,2.018l-0.018,0.056l-0.034,0.047
				C48.199,25.189,47.209,25.654,45.927,25.654z M43.862,22c0.273,0.299,0.672,0.567,1.186,0.796
				c0.447,0.201,0.85,0.321,1.201,0.358c0.266-0.323,0.5-0.824,0.695-1.492c0.096-0.325,0.174-0.649,0.235-0.972
				c-0.168,0.188-0.346,0.365-0.533,0.529c-0.55,0.481-1.159,0.812-1.808,0.981l-0.078,0.02l-0.079-0.014
				c-0.309-0.056-0.595-0.138-0.857-0.248L43.862,22z"/>
			<path fill="#EB5C2D" d="M44.475,13.155c0.279,0,0.557,0.038,0.831,0.116c-0.026,0.104-0.124,0.496-0.295,1.176
				s-0.292,1.18-0.365,1.498c-0.073,0.319-0.15,0.736-0.233,1.25s-0.124,0.946-0.124,1.299c0,0.924,0.238,1.457,0.714,1.596
				c0.849-0.129,1.584-1.017,2.206-2.662c0.098-0.549,0.147-1.277,0.147-2.179c0-0.379-0.01-0.698-0.031-0.958
				c0.439-0.223,0.955-0.334,1.546-0.334c0.443,0,0.79,0.072,1.039,0.218c-0.176,0.606-0.312,1.264-0.405,1.97
				c-0.093,0.705-0.155,1.377-0.183,2.016c-0.029,0.639-0.06,1.28-0.092,1.926c-0.033,0.646-0.101,1.317-0.204,2.014
				c-0.104,0.693-0.253,1.348-0.451,1.96c-0.599,0.819-1.481,1.23-2.647,1.23c-0.501,0-0.996-0.097-1.483-0.288
				c-0.488-0.191-0.904-0.461-1.249-0.807c-0.345-0.345-0.551-0.72-0.619-1.124c0.074-0.161,0.207-0.321,0.398-0.482
				s0.399-0.275,0.619-0.343c0.307,0.336,0.742,0.631,1.306,0.883c0.563,0.253,1.063,0.387,1.5,0.401
				c0.354-0.356,0.653-0.944,0.894-1.765c0.241-0.82,0.375-1.627,0.404-2.422c-0.352,0.623-0.783,1.156-1.292,1.604
				c-0.509,0.445-1.063,0.746-1.66,0.902c-1.847-0.332-2.77-1.746-2.77-4.242c0-1.365,0.155-2.672,0.466-3.923
				c0.22-0.141,0.52-0.264,0.898-0.37C43.719,13.209,44.096,13.155,44.475,13.155 M44.475,12.428c-0.439,0-0.887,0.063-1.33,0.186
				c-0.455,0.128-0.812,0.277-1.094,0.458l-0.245,0.156l-0.07,0.282c-0.323,1.302-0.487,2.681-0.487,4.098
				c0,2.217,0.696,3.479,1.589,4.187c-0.115,0.069-0.226,0.148-0.332,0.238c-0.279,0.234-0.472,0.475-0.592,0.737l-0.093,0.203
				l0.037,0.22c0.093,0.555,0.37,1.066,0.822,1.518c0.414,0.416,0.918,0.742,1.497,0.969c0.572,0.225,1.161,0.338,1.749,0.338
				c1.405,0,2.494-0.514,3.235-1.529l0.069-0.095l0.036-0.111c0.207-0.642,0.367-1.34,0.478-2.075
				c0.106-0.718,0.177-1.418,0.211-2.085c0.033-0.646,0.063-1.29,0.092-1.93c0.027-0.608,0.086-1.265,0.177-1.953
				c0.088-0.666,0.216-1.292,0.382-1.862l0.158-0.545l-0.49-0.286c-0.365-0.213-0.825-0.317-1.406-0.317
				c-0.704,0-1.334,0.139-1.875,0.413l-0.436,0.221l0.04,0.487c0.019,0.237,0.029,0.54,0.029,0.899c0,0.821-0.042,1.488-0.125,1.985
				c-0.425,1.107-0.904,1.821-1.371,2.057c-0.055-0.118-0.116-0.357-0.116-0.797c0-0.314,0.039-0.712,0.115-1.183
				c0.083-0.512,0.156-0.906,0.224-1.205c0.072-0.314,0.191-0.81,0.361-1.482l0.294-1.172l0.171-0.683l-0.676-0.198
				C45.169,12.476,44.823,12.428,44.475,12.428L44.475,12.428z M45.21,22.471c0.463-0.154,0.904-0.384,1.317-0.688
				c-0.151,0.464-0.306,0.774-0.441,0.98C45.825,22.712,45.532,22.614,45.21,22.471L45.21,22.471z"/>
		</g>
		<path fill="#010202" d="M4.625,31.58c0.313-1.625,0.671-3.152,1.077-4.577s0.807-2.481,1.204-3.171
			c0.341-0.094,0.748-0.141,1.223-0.141c0.454,0,0.782,0.063,0.985,0.189c-0.324,1.24-0.486,2.465-0.486,3.673
			c0,0.588,0.04,1.138,0.121,1.647c0.285-0.248,0.555-0.582,0.813-1.006c0.258-0.424,0.482-0.882,0.673-1.374
			c0.191-0.493,0.355-0.978,0.493-1.454s0.252-0.943,0.341-1.401c0.208-0.073,0.43-0.109,0.667-0.109
			c0.404,0,0.743,0.106,1.017,0.319c0.273,0.212,0.41,0.479,0.41,0.8c-0.689,1.544-1.034,2.72-1.034,3.526
			c0,0.662,0.113,1.061,0.341,1.199c0.028-0.025,0.056-0.053,0.085-0.084c0.028-0.029,0.053-0.059,0.076-0.084
			c0.022-0.027,0.048-0.061,0.076-0.107c0.028-0.043,0.05-0.078,0.067-0.102c0.016-0.025,0.04-0.064,0.07-0.117
			c0.031-0.053,0.051-0.088,0.061-0.109c0.01-0.02,0.031-0.061,0.064-0.121c0.032-0.061,0.052-0.1,0.061-0.115
			c0.446-0.912,0.695-1.42,0.748-1.521c0.223,0.195,0.359,0.42,0.407,0.676c-0.012,0.094-0.045,0.242-0.1,0.447
			c-0.055,0.205-0.137,0.455-0.246,0.75c-0.11,0.297-0.233,0.58-0.371,0.85s-0.307,0.512-0.508,0.727s-0.407,0.348-0.617,0.4
			c-0.458-0.053-0.814-0.318-1.067-0.795c-0.254-0.479-0.381-1.09-0.381-1.832c0-0.242,0.021-0.537,0.063-0.881
			c-0.134,0.418-0.363,0.941-0.688,1.57c-0.325,0.631-0.602,1.088-0.833,1.367c-0.292,0-0.624-0.088-0.995-0.262
			c-0.371-0.174-0.633-0.354-0.788-0.535C7.366,29.1,7.208,28.27,7.18,27.328c-0.207,0.52-0.414,1.38-0.62,2.582
			c-0.207,1.201-0.341,2.174-0.401,2.916c-0.178,0-0.349-0.033-0.511-0.102c-0.163-0.066-0.298-0.148-0.408-0.246
			c-0.109-0.096-0.21-0.205-0.301-0.326c-0.091-0.123-0.16-0.23-0.207-0.324S4.65,31.652,4.625,31.58z"/>
		<path fill="#010202" d="M20.074,31.295c0.152-2.742,0.394-4.964,0.724-6.666c0.117-0.272,0.348-0.479,0.692-0.621
			c0.344-0.142,0.688-0.213,1.03-0.213c0.146,0,0.284,0.017,0.414,0.049c0.073,0.674,0.187,1.338,0.341,1.994
			c0.154,0.657,0.381,1.328,0.682,2.014c0.301,0.686,0.646,1.234,1.036,1.648c0.142-0.441,0.253-1.165,0.335-2.169
			c0.081-1.003,0.125-1.868,0.134-2.594c0.092-0.218,0.243-0.383,0.453-0.492s0.439-0.164,0.688-0.164
			c0.197,0,0.378,0.036,0.543,0.109c-0.056,1.33-0.276,3.128-0.659,5.394c-0.101,0.313-0.318,0.59-0.65,0.834
			c-0.333,0.242-0.665,0.396-0.996,0.461c-0.337-0.186-0.679-0.471-1.026-0.854s-0.658-0.787-0.932-1.211
			c-0.274-0.422-0.565-0.918-0.874-1.486c-0.28,1.213-0.442,2.693-0.487,4.439c-0.108,0.025-0.222,0.037-0.342,0.037
			c-0.228,0-0.443-0.047-0.646-0.141S20.178,31.447,20.074,31.295z"/>
		<path fill="#010202" d="M26.806,31.318c0.158-2.193,0.408-4.689,0.748-7.486c0.381-0.239,0.825-0.359,1.332-0.359
			c0.386,0,0.704,0.084,0.955,0.25c-0.231,0.641-0.588,1.83-1.07,3.569c0.458-0.665,1.002-1.285,1.633-1.861
			c0.631-0.575,1.25-1.005,1.858-1.288c0.264,0.064,0.516,0.206,0.757,0.426c0.24,0.219,0.361,0.463,0.361,0.735
			c-1.419,0.827-2.751,1.774-3.995,2.839c0.125,0.297,0.421,0.551,0.888,0.764s0.929,0.32,1.387,0.32c0.271,0,0.5-0.029,0.688-0.086
			c0.186-0.057,0.358-0.174,0.516-0.352c0.158-0.18,0.279-0.338,0.362-0.475c0.083-0.139,0.216-0.381,0.398-0.73
			c0.056-0.105,0.099-0.187,0.127-0.244c0.219,0.191,0.353,0.416,0.401,0.676c-0.041,0.33-0.178,0.771-0.414,1.326
			c-0.198,0.482-0.509,0.883-0.933,1.201c-0.424,0.318-0.889,0.477-1.396,0.477c-0.279,0-0.552-0.039-0.814-0.115
			c-0.264-0.076-0.497-0.176-0.7-0.297c-0.203-0.121-0.396-0.266-0.581-0.43c-0.184-0.166-0.34-0.328-0.468-0.486
			c-0.128-0.156-0.245-0.32-0.35-0.49c-0.005,0.063-0.035,0.379-0.091,0.951c-0.057,0.57-0.089,0.99-0.097,1.262
			c-0.227,0.102-0.438,0.154-0.632,0.154C27.355,31.568,27.065,31.484,26.806,31.318z"/>
		<path fill="#010202" d="M33.039,30.096c0-0.816,0.499-1.404,1.496-1.766c-0.872-0.276-1.307-0.744-1.307-1.402
			c0-0.342,0.101-0.676,0.304-1.007c0.202-0.331,0.456-0.618,0.76-0.864c0.304-0.244,0.646-0.473,1.027-0.68
			c0.381-0.209,0.738-0.377,1.071-0.503c0.332-0.126,0.638-0.222,0.918-0.292c0.271,0.139,0.54,0.348,0.806,0.629
			c0.266,0.283,0.482,0.568,0.65,0.855c0.168,0.287,0.304,0.551,0.408,0.791c0.104,0.238,0.155,0.406,0.155,0.504
			c-0.296,0.342-0.795,0.504-1.496,0.493c-0.134-0.67-0.308-1.142-0.523-1.415c-0.385,0.036-0.784,0.131-1.198,0.284
			s-0.788,0.349-1.122,0.587c-0.335,0.239-0.561,0.487-0.678,0.744c0.401,0.141,0.995,0.212,1.782,0.212
			c0.543,0,1.02-0.032,1.429-0.097c0.142,0.152,0.212,0.398,0.212,0.736c0,0.283-0.041,0.528-0.121,0.736
			c-0.856,0.049-1.538,0.168-2.046,0.352c-0.509,0.186-0.923,0.465-1.244,0.836c0.369,0.129,0.86,0.193,1.472,0.193
			c0.336,0,0.626-0.012,0.869-0.035c0.244-0.021,0.515-0.066,0.815-0.133c0.3-0.068,0.581-0.18,0.842-0.338
			c0.261-0.158,0.501-0.361,0.721-0.604c0.121-0.135,0.229-0.279,0.325-0.436c0.095-0.156,0.206-0.365,0.331-0.625
			c0.126-0.26,0.211-0.432,0.255-0.516c0.207,0.168,0.343,0.389,0.408,0.664c-0.102,0.451-0.185,0.773-0.249,0.965
			c-0.167,0.471-0.373,0.879-0.618,1.221s-0.508,0.617-0.788,0.822c-0.28,0.209-0.605,0.373-0.976,0.496
			c-0.371,0.121-0.739,0.205-1.104,0.246c-0.365,0.043-0.781,0.064-1.247,0.064c-0.401,0-0.776-0.064-1.125-0.191
			c-0.349-0.127-0.638-0.326-0.869-0.592C33.154,30.766,33.039,30.453,33.039,30.096z"/>
		<path fill="#010202" d="M39.449,27.943c0-1.066,0.121-2.088,0.364-3.065c0.172-0.109,0.406-0.206,0.702-0.289
			s0.591-0.124,0.886-0.124c0.218,0,0.435,0.03,0.649,0.091c-0.02,0.081-0.097,0.388-0.23,0.919c-0.133,0.53-0.228,0.92-0.285,1.17
			c-0.056,0.25-0.117,0.574-0.182,0.976c-0.064,0.401-0.097,0.739-0.097,1.017c0,0.721,0.186,1.137,0.558,1.246
			c0.664-0.102,1.237-0.795,1.723-2.08c0.077-0.43,0.115-0.997,0.115-1.703c0-0.295-0.008-0.545-0.024-0.748
			c0.344-0.174,0.747-0.262,1.208-0.262c0.346,0,0.617,0.058,0.811,0.172c-0.138,0.474-0.243,0.986-0.316,1.538
			c-0.073,0.552-0.121,1.076-0.143,1.575c-0.022,0.498-0.046,1-0.072,1.504c-0.026,0.506-0.079,1.029-0.16,1.572
			c-0.081,0.545-0.198,1.055-0.351,1.533c-0.468,0.641-1.158,0.961-2.069,0.961c-0.391,0-0.777-0.076-1.159-0.225
			c-0.381-0.15-0.707-0.361-0.976-0.631c-0.269-0.27-0.43-0.563-0.483-0.879c0.058-0.125,0.162-0.25,0.312-0.377
			c0.15-0.125,0.311-0.215,0.484-0.266c0.239,0.262,0.579,0.492,1.02,0.689c0.44,0.197,0.832,0.301,1.172,0.313
			c0.277-0.277,0.51-0.738,0.698-1.379c0.188-0.641,0.294-1.271,0.315-1.893c-0.275,0.486-0.611,0.904-1.009,1.252
			c-0.397,0.35-0.83,0.584-1.297,0.707C40.17,30.998,39.449,29.893,39.449,27.943z"/>
		<g>
			<g>
				<g>
					<g>
						<path fill="#422515" d="M14.717,30.885l0.046-0.048c0,0,0.074,0.105,0.186,0.264c0.082,0.175,0.124,0.437,0.05,0.689
							c-0.039,0.12-0.128,0.222-0.187,0.327c-0.084,0.083-0.187,0.144-0.267,0.195c-0.19,0.049-0.318,0.066-0.318,0.051
							c0.015-0.01-0.322,0.023-0.567-0.329c-0.105-0.166-0.139-0.453,0.036-0.652c0.142-0.217,0.498-0.271,0.7-0.074
							c0.208,0.189,0.113,0.596-0.166,0.62c-0.123,0.012-0.251-0.051-0.297-0.16c-0.048-0.109,0.007-0.232,0.09-0.282
							c0.209-0.11,0.341,0.161,0.226,0.235c-0.104,0.07-0.163-0.016-0.163,0.002c0-0.017,0.061,0.066,0.16-0.004
							c0.111-0.073-0.018-0.33-0.214-0.227c-0.079,0.046-0.13,0.163-0.085,0.264c0.041,0.101,0.16,0.161,0.273,0.152
							c0.257-0.021,0.349-0.393,0.162-0.568c-0.183-0.188-0.51-0.138-0.641,0.055c-0.168,0.181-0.126,0.441-0.045,0.594
							c0.216,0.324,0.524,0.3,0.511,0.304c-0.03,0.043,0.577,0.015,0.728-0.512c0.069-0.238,0.034-0.482-0.042-0.648
							C14.787,30.985,14.717,30.885,14.717,30.885z"/>
					</g>
				</g>
			</g>
			<g>
				<g>
					<g>
						<g>
							<path fill="#422515" d="M14.592,25.271l0.011,0.104c0.004,0.012-0.115,0.007-0.204,0.09
								c-0.095,0.068-0.181,0.165-0.181,0.165c0.003-0.018-0.192,0.249-0.504,0.21c-0.169-0.06-0.115-0.311,0.02-0.278
								c0.11,0.033,0.056,0.139,0.068,0.127c-0.008,0.012,0.024-0.096-0.068-0.111c-0.117-0.014-0.125,0.182-0.008,0.211
								c0.247,0.012,0.419-0.239,0.415-0.228c0,0,0.083-0.096,0.194-0.179C14.438,25.286,14.599,25.28,14.592,25.271z"/>
						</g>
					</g>
				</g>
				<g>
					<g>
						<g>
							<path fill="#422515" d="M13.838,26.187l0.009,0.104c0,0-0.084,0.025-0.168,0.049c-0.065,0.055-0.13,0.11-0.13,0.11
								s-0.101,0.176-0.245,0.339c-0.076,0.083-0.196,0.111-0.27,0.073c-0.06-0.05-0.1-0.083-0.1-0.083s0.042,0.027,0.106,0.067
								c0.073,0.023,0.164-0.009,0.224-0.09c0.111-0.162,0.196-0.358,0.196-0.358c-0.002-0.012,0.083-0.078,0.168-0.149
								C13.729,26.21,13.838,26.187,13.838,26.187z"/>
						</g>
					</g>
				</g>
				<g>
					<g>
						<g>
							<path fill="#422515" d="M13.47,27.308l0.056,0.088c-0.006-0.01-0.144,0.148-0.135,0.162c0,0-0.073,0.104-0.146,0.208
								c-0.081,0.116-0.216,0.127-0.216,0.127s0.124-0.039,0.172-0.155c0.052-0.106,0.098-0.229,0.098-0.229
								C13.282,27.503,13.455,27.298,13.47,27.308z"/>
						</g>
					</g>
				</g>
				<g>
					<g>
						<g>
							<path fill="#422515" d="M13.346,28.439l0.036,0.098c0.006,0.009-0.104,0.042-0.163,0.149
								c-0.065,0.097-0.088,0.217-0.083,0.216c0.009-0.001-0.029,0.063-0.005,0.149c0.028,0.097,0.066,0.226,0.104,0.355
								c0.035,0.128,0.064,0.279,0.006,0.368c-0.059,0.087-0.153,0.053-0.144,0.067c-0.01-0.013,0.086,0.008,0.129-0.075
								c0.045-0.081,0.006-0.221-0.04-0.342c-0.051-0.126-0.101-0.252-0.139-0.346c-0.043-0.111-0.004-0.184-0.014-0.185
								c0,0,0.018-0.144,0.097-0.263C13.198,28.502,13.353,28.444,13.346,28.439z"/>
						</g>
					</g>
				</g>
				<g>
					<g>
						<g>
							<path fill="#422515" d="M19.264,25.218l0.028-0.101c-0.005,0.007,0.118,0.03,0.202,0.112
								c0.092,0.072,0.148,0.168,0.148,0.168c0.006-0.007,0.094,0.215,0.225,0.375c0.064,0.076,0.209,0.074,0.219-0.027
								c0.014-0.083-0.031-0.134-0.023-0.135c-0.008,0.002,0.044,0.044,0.04,0.137c0.005,0.116-0.175,0.152-0.267,0.067
								c-0.172-0.167-0.268-0.359-0.276-0.354c0,0-0.054-0.09-0.13-0.149C19.36,25.241,19.259,25.226,19.264,25.218z"/>
						</g>
					</g>
				</g>
				<g>
					<g>
						<g>
							<path fill="#422515" d="M19.925,26.823l0.021-0.103c-0.008,0.005,0.121,0.032,0.181,0.112
								c0.062,0.069,0.124,0.138,0.124,0.138s0.033,0.025,0.082,0.063c0.058,0.018,0.162,0.066,0.198-0.018
								c0.034-0.076,0.007-0.184-0.037-0.238c-0.064-0.06-0.104,0.029-0.105,0.014c0.002,0.019,0.028-0.084,0.116-0.027
								c0.055,0.056,0.103,0.157,0.075,0.269c-0.172,0.245-0.412-0.019-0.396,0.014c0,0-0.063-0.07-0.127-0.14
								C19.998,26.836,19.922,26.833,19.925,26.823z"/>
						</g>
					</g>
				</g>
				<g>
					<g>
						<g>
							<path fill="#422515" d="M16.619,24.121l-0.052,0.091c0.002-0.01-0.237-0.078-0.242-0.058c0-0.014-0.132,0.006-0.296-0.02
								c-0.076-0.029-0.136-0.098-0.123-0.161c0.021-0.057,0.073-0.052,0.066-0.058c0.007,0.003-0.044,0.014-0.05,0.06
								c-0.003,0.048,0.062,0.099,0.118,0.108c0.123-0.001,0.282-0.047,0.283-0.033C16.327,24.026,16.622,24.106,16.619,24.121z"/>
						</g>
					</g>
				</g>
				<g>
					<g>
						<g>
							<path fill="#422515" d="M17.294,31.856l-0.042-0.096c0.002,0.005,0.089-0.042,0.189-0.049
								c0.099-0.023,0.203,0.026,0.202,0.02c0.002-0.006,0.05,0.027,0.109,0.087c0.067,0.072,0.046,0.178,0.093,0.247
								c0.04,0.057,0.173-0.051,0.128-0.108c-0.065-0.044-0.102,0.042-0.104,0.024c0.005,0.021,0.025-0.078,0.116-0.037
								c0.056,0.064-0.043,0.238-0.176,0.157c-0.074-0.085-0.075-0.203-0.12-0.224c-0.05-0.032-0.077-0.056-0.081-0.05
								c-0.002,0.008-0.07-0.034-0.154-0.014C17.373,31.819,17.294,31.862,17.294,31.856z"/>
						</g>
					</g>
				</g>
			</g>
			<path fill="#603914" stroke="#412413" stroke-width="0.0891" stroke-miterlimit="10" d="M18.154,24.188
				c-0.009-0.117-0.16-0.303-0.16-0.303s-0.209,0.141-0.423,0.15c-1.767-0.267-3.641,1.161-4.168,3.184
				c-0.557,2.135,0.4,4.123,2.247,4.605c1.847,0.48,3.912-0.77,4.469-2.904C20.645,26.901,19.809,24.816,18.154,24.188z"/>
			<path opacity="0.5" fill="#412413" d="M18.017,30.545c-1.575,0.064-2.809-1.273-2.883-3.094
				c-0.065-1.588,0.893-3.051,2.182-3.441c-1.688-0.102-3.411,1.283-3.913,3.209c-0.557,2.135,0.4,4.123,2.247,4.605
				c1.577,0.41,3.312-0.441,4.132-2.029C19.293,30.24,18.677,30.518,18.017,30.545z"/>
			<g>
				<g>
					<path fill="none" stroke="#2E170E" stroke-width="0.0891" stroke-miterlimit="10" d="M14.347,31.393"/>
				</g>
			</g>
			<g>
				<defs>
					<path id="XMLID_71_" d="M18.154,24.188c-0.009-0.117-0.16-0.303-0.16-0.303s-0.209,0.141-0.423,0.15
						c-1.767-0.267-3.641,1.161-4.168,3.184c-0.557,2.135,0.4,4.123,2.247,4.605c1.847,0.48,3.912-0.77,4.469-2.904
						C20.645,26.901,19.809,24.816,18.154,24.188z"/>
				</defs>
				<clipPath id="XMLID_2_">
					<use xlink:href="#XMLID_71_"  overflow="visible"/>
				</clipPath>
				<g clip-path="url(#XMLID_2_)">
					<g>
						<g>
							<g>
								<path fill="#402619" d="M18.926,26.501c0,0-0.017-0.28-0.06-0.567c-0.025-0.285-0.106-0.573-0.106-0.573
									s-0.111-0.325-0.324-0.596c-0.099-0.14-0.25-0.242-0.375-0.278c-0.127-0.015-0.213,0.007-0.212,0.002
									c-0.001,0.005,0.09-0.004,0.204,0.028c0.111,0.053,0.231,0.162,0.304,0.308c0.158,0.28,0.215,0.6,0.215,0.6
									c0,0,0.072,0.259,0.098,0.542c0.041,0.274,0.059,0.562,0.059,0.562c0,0,0.052,0.327,0.13,0.651
									c0.092,0.321,0.229,0.622,0.229,0.622s-0.092-0.323-0.133-0.645C18.928,26.831,18.927,26.501,18.926,26.501z"/>
							</g>
						</g>
					</g>
					<g>
						<g>
							<g>
								<path fill="#402619" d="M15.141,27.921c0,0,0.012-0.126,0.069-0.307c0.068-0.177,0.129-0.423,0.239-0.652
									c0.201-0.466,0.487-0.886,0.487-0.886c0,0,0.297-0.509,0.711-0.926c0.209-0.203,0.45-0.383,0.66-0.44
									c0.214-0.061,0.343,0.047,0.344,0.036c-0.001,0.013-0.122-0.11-0.354-0.065c-0.226,0.042-0.489,0.209-0.722,0.4
									c-0.462,0.395-0.813,0.897-0.813,0.897c0,0-0.294,0.435-0.502,0.917c-0.11,0.237-0.177,0.493-0.246,0.677
									c-0.056,0.188-0.071,0.32-0.071,0.32s-0.023,0.15-0.057,0.375c-0.005,0.226-0.025,0.528-0.006,0.828
									c0.028,0.602,0.168,1.183,0.168,1.183c0,0-0.091-0.596-0.069-1.191c0.009-0.297,0.05-0.592,0.076-0.81
									C15.107,28.063,15.141,27.921,15.141,27.921z"/>
							</g>
						</g>
					</g>
					<g>
						<g>
							<g>
								<path fill="#402619" d="M15.279,26.25c-0.019-0.01,0.181-0.307,0.381-0.603c0.171-0.321,0.484-0.516,0.468-0.53
									c0.009,0.016,0.255-0.341,0.612-0.544c0.172-0.105,0.382-0.149,0.511-0.067c0.131,0.072,0.167,0.188,0.176,0.178
									c-0.011,0.01-0.029-0.11-0.161-0.205c-0.13-0.108-0.38-0.084-0.575,0.008c-0.406,0.175-0.696,0.508-0.708,0.494
									c0.015,0.013-0.311,0.227-0.49,0.559c-0.211,0.308-0.414,0.62-0.396,0.63c0,0-0.156,0.403-0.289,0.806
									c-0.074,0.418-0.147,0.836-0.147,0.836s0.121-0.406,0.243-0.812C15.093,26.625,15.279,26.25,15.279,26.25z"/>
							</g>
						</g>
					</g>
					<g>
						<g>
							<g>
								<path fill="#422515" d="M16.208,32.035l-0.066-0.188c-0.01-0.014,0.242-0.093,0.423-0.268
									c0.196-0.165,0.302-0.405,0.302-0.405c0.017,0.015,0.263-0.488,0.325-1.061c0.077-0.566,0.033-1.144,0.033-1.144
									s0.093,0.566,0.066,1.145c-0.011,0.58-0.218,1.149-0.242,1.139c0,0-0.115,0.271-0.346,0.468
									C16.494,31.928,16.197,32.022,16.208,32.035z"/>
							</g>
						</g>
					</g>
					<g>
						<g>
							<g>
								<path fill="#422515" d="M16.711,32.098l-0.006-0.199c0,0,0.073-0.01,0.178-0.039c0.101-0.046,0.233-0.128,0.332-0.261
									c0.209-0.25,0.331-0.573,0.331-0.574c0,0,0.291-0.658,0.384-1.385c0.107-0.721,0.096-1.457,0.096-1.457
									s0.061,0.727,0.004,1.459c-0.044,0.733-0.294,1.444-0.294,1.444c0,0-0.123,0.341-0.362,0.633
									c-0.11,0.152-0.278,0.265-0.416,0.325C16.815,32.089,16.711,32.098,16.711,32.098z"/>
							</g>
						</g>
					</g>
					<g>
						<g>
							<g>
								<path fill="#422515" d="M15.905,31.8l-0.115,0.162c0.021-0.01-0.241-0.173-0.326-0.431c-0.131-0.245-0.113-0.51-0.129-0.508
									c-0.022-0.001-0.002-0.545,0.119-1.057c0.118-0.513,0.285-1.009,0.285-1.009s-0.118,0.508-0.186,1.02
									c-0.07,0.513-0.042,1.019-0.022,1.013c0.016-0.007-0.002,0.251,0.112,0.452C15.714,31.668,15.925,31.784,15.905,31.8z"/>
							</g>
						</g>
					</g>
					<g>
						<g>
							<g>
								<path fill="#422515" d="M14.84,31.436l-0.124,0.155c0.016-0.01-0.269-0.219-0.42-0.512
									c-0.187-0.276-0.272-0.592-0.272-0.592s-0.062-0.161-0.097-0.415c-0.055-0.249-0.076-0.588-0.071-0.924
									c0.005-0.337,0.066-0.668,0.123-0.912c0.084-0.235,0.141-0.391,0.141-0.391s-0.044,0.158-0.11,0.396
									c-0.039,0.244-0.074,0.57-0.055,0.897c0.02,0.326,0.063,0.651,0.133,0.884c0.051,0.239,0.119,0.385,0.119,0.385
									s0.027,0.073,0.067,0.182c0.031,0.114,0.109,0.247,0.188,0.378C14.602,31.246,14.855,31.422,14.84,31.436z"/>
							</g>
						</g>
					</g>
					<g>
						<g>
							<g>
								<path fill="#422515" d="M14.292,31.035l-0.157,0.122c0,0-0.419-0.715-0.372-0.732c0,0-0.132-0.413-0.147-0.838
									c-0.03-0.209-0.021-0.42-0.018-0.578c0.002-0.157,0.004-0.261,0.004-0.261s0.011,0.104,0.027,0.258
									c0.017,0.155,0.031,0.361,0.084,0.561c0.064,0.41,0.234,0.78,0.234,0.78C13.904,30.371,14.292,31.034,14.292,31.035z"/>
							</g>
						</g>
					</g>
					<g>
						<g>
							<g>
								<path fill="#402619" d="M19.488,26.143c0,0-0.057-0.178-0.113-0.356c-0.088-0.168-0.177-0.335-0.177-0.335
									s-0.102-0.197-0.283-0.33c-0.16-0.142-0.321-0.284-0.321-0.284s0.123,0.175,0.246,0.35c0.138,0.158,0.181,0.372,0.188,0.367
									c0,0,0.082,0.156,0.164,0.312c0.054,0.17,0.108,0.34,0.108,0.34c0.019-0.011,0.29,0.792,0.29,0.792
									S19.51,26.143,19.488,26.143z"/>
							</g>
						</g>
					</g>
					<g>
						<g>
							<g>
								<path fill="#402619" d="M18.021,25.527c0,0-0.003-0.09-0.006-0.181C18.008,25.255,18,25.164,18,25.164
									c0.021-0.01-0.198-0.399-0.229-0.371c0.043,0.003,0.052,0.401,0.032,0.4c0,0,0.007,0.084,0.015,0.168
									c0.002,0.085,0.005,0.171,0.005,0.171l0.085,0.405L18.021,25.527z"/>
							</g>
						</g>
					</g>
					<g>
						<g>
							<g>
								<path fill="#422515" d="M18.369,29.188h-0.199l-0.03-0.829c0,0,0.002-0.11,0.007-0.275c0-0.166-0.039-0.384-0.047-0.609
									c-0.021-0.221-0.006-0.451,0.027-0.611c0.045-0.159,0.076-0.266,0.076-0.266c0,0-0.106,0.429-0.005,0.86
									c0.033,0.214,0.094,0.429,0.115,0.593c0.015,0.166,0.025,0.276,0.025,0.276L18.369,29.188z"/>
							</g>
						</g>
					</g>
				</g>
				<path opacity="0.5" clip-path="url(#XMLID_2_)" fill="#412413" d="M18.761,31.303c-0.421,0-0.967-0.109-1.181-0.623
					c-0.019-0.041-0.419-0.922,0.369-1.951c0.008-0.012,0.529-0.773,1.199-0.773c0.025,0,0.05,0.002,0.076,0.004l0.039,0.003
					l0.723-0.685l0.714,0.278l0.067,0.102l0.044,0.003c0.486,0.023,1.807,0.131,2.077,0.339l0.013,0.01l0.015,0.005
					c0.156,0.049,0.415,0.175,0.443,0.311c0.013,0.061-0.024,0.129-0.11,0.204c-0.076,0.076-0.3,0.267-0.483,0.3l-0.432-0.063
					l-0.055,0.053l-0.169-0.043l-0.124,0.279h-0.112l-0.022,0.055c-0.061,0.152-0.251,0.572-0.402,0.686l-0.012,0.01l-0.009,0.014
					c-0.006,0.01-0.663,1.008-2.287,1.453l0,0C19.141,31.271,18.979,31.303,18.761,31.303z"/>
				<use xlink:href="#XMLID_71_"  overflow="visible" fill="none" stroke="#412413" stroke-width="0.341" stroke-miterlimit="10"/>
			</g>
		</g>
	</g>
</g>
</svg>
