<?xml version="1.0" encoding="utf-8"?>
<!-- Generator: Adobe Illustrator 16.0.0, SVG Export Plug-In . SVG Version: 6.00 Build 0)  -->
<!DOCTYPE svg PUBLIC "-//W3C//DTD SVG 1.1//EN" "http://www.w3.org/Graphics/SVG/1.1/DTD/svg11.dtd">
<svg version="1.1" id="Слой_1" xmlns="http://www.w3.org/2000/svg" xmlns:xlink="http://www.w3.org/1999/xlink" x="0px" y="0px"
	 width="37px" height="459px" viewBox="0 0 37 459" enable-background="new 0 0 37 459" xml:space="preserve">
<g>
	<g>
		<g>
			<g>
				<defs>
					<path id="XMLID_160_" d="M8.544,2.651C8.646,3.63,8.727,4.477,8.978,6.302c0.404,3.658,1.225,8.875,2.57,15.097
						c1.344,6.224,3.274,13.436,5.513,21.152c2.241,7.716,4.766,15.95,6.994,24.3c1.102,4.18,2.117,8.389,2.994,12.563
						c0.848,4.183,1.537,8.331,2.04,12.367c0.929,8.085,1.05,15.717,0.38,22.168c-0.641,6.454-1.784,11.729-2.822,15.333
						c-0.225,0.912-0.471,1.711-0.7,2.402c-0.222,0.693-0.409,1.283-0.562,1.76c-0.304,0.955-0.467,1.464-0.467,1.464
						s0.139-0.517,0.398-1.486c0.131-0.484,0.291-1.082,0.479-1.784c0.197-0.699,0.406-1.508,0.587-2.428
						c0.868-3.638,1.761-8.937,2.097-15.336c0.369-6.399-0.1-13.894-1.375-21.776c-0.678-3.938-1.541-7.976-2.563-12.043
						c-1.053-4.062-2.244-8.156-3.521-12.228c-2.58-8.138-5.467-16.2-8.075-23.837c-2.605-7.64-4.909-14.869-6.585-21.197
						C4.682,16.468,3.573,11.076,2.972,7.262C2.623,5.364,2.465,3.253,2.31,2.229L8.544,2.651z"/>
				</defs>
				<use xlink:href="#XMLID_160_"  overflow="visible" fill="#329437"/>
				<clipPath id="XMLID_2_">
					<use xlink:href="#XMLID_160_"  overflow="visible"/>
				</clipPath>
				<g clip-path="url(#XMLID_2_)">
					<path fill="#1D4721" stroke="#0A692F" stroke-width="0.5118" d="M4.426,2.411c0.139,0.974,0.25,1.817,0.567,3.631
						c0.538,3.639,1.55,8.818,3.124,14.982c1.57,6.165,3.766,13.293,6.285,20.913c2.523,7.621,5.349,15.747,7.883,24
						c1.254,4.132,2.424,8.297,3.454,12.433c1.001,4.146,1.841,8.263,2.493,12.276c1.225,8.042,1.627,15.663,1.193,22.137
						c-0.402,6.475-1.352,11.792-2.256,15.435c-0.19,0.92-0.407,1.729-0.611,2.429c-0.195,0.701-0.361,1.298-0.496,1.781
						c-0.269,0.967-0.412,1.482-0.412,1.482s0.119-0.522,0.344-1.501c0.111-0.49,0.25-1.093,0.412-1.802
						c0.172-0.707,0.35-1.523,0.496-2.45c0.734-3.67,1.431-9.001,1.532-15.409c0.133-6.41-0.61-13.879-2.175-21.705
						c-0.822-3.908-1.832-7.907-3.004-11.93c-1.2-4.017-2.541-8.06-3.967-12.077c-2.879-8.028-6.059-15.967-8.947-23.494
						c-2.884-7.529-5.451-14.66-7.359-20.916C1.074,16.374-0.232,11.031-0.973,7.243C-1.392,5.361-1.627,3.258-1.82,2.241
						L4.426,2.411z"/>
				</g>
				<use xlink:href="#XMLID_160_"  overflow="visible" fill="none" stroke="#0A692F" stroke-width="0.5118"/>
			</g>
		</g>
		<path fill="#329437" stroke="#0A692F" stroke-width="0.5118" d="M14.805,31.894c-2.85-1.422-4.801-3.367-4.357-4.343
			c0.445-0.977,3.115-0.615,5.965,0.807c2.851,1.423,4.357,4.344,4.357,4.344S17.656,33.316,14.805,31.894z"/>
		<path fill="#1D4721" stroke="#0A692F" stroke-width="0.5118" d="M7.138,34.03c1.823-2.7,2.62-5.396,1.777-6.02
			c-0.843-0.625-3.004,1.057-4.829,3.757c-1.822,2.701-1.776,6.021-1.776,6.021S5.313,36.73,7.138,34.03z"/>
		<path fill="#329437" stroke="#0A692F" stroke-width="0.5118" d="M26.906,69.998c-2.326-1.007-3.92-2.386-3.557-3.078
			c0.362-0.691,2.543-0.435,4.869,0.572c2.328,1.008,3.559,3.078,3.559,3.078S29.234,71.006,26.906,69.998z"/>
		<path fill="#329437" stroke="#0A692F" stroke-width="0.5118" d="M30.836,113.611c-1.256-1.973-1.787-3.837-1.186-4.164
			c0.602-0.326,2.106,1.009,3.363,2.982c1.255,1.974,1.184,4.165,1.184,4.165S32.092,115.585,30.836,113.611z"/>
		<path fill="#1D4721" stroke="#0A692F" stroke-width="0.5118" d="M20.646,71.512c1.489-1.914,2.139-3.824,1.451-4.266
			c-0.688-0.443-2.452,0.749-3.941,2.662s-1.451,4.266-1.451,4.266S19.158,73.425,20.646,71.512z"/>
	</g>
	<g>
		<g>
			<g>
				<defs>
					<path id="XMLID_159_" d="M10.736,357.922c-0.373,2.579-0.68,5.504-0.849,8.703c-0.368,6.4,0.101,13.895,1.376,21.778
						c0.677,3.938,1.54,7.976,2.563,12.042c1.052,4.063,2.243,8.156,3.521,12.228c2.581,8.139,5.467,16.2,8.075,23.838
						c2.605,7.64,4.342,13.681,6.019,20.007l-5.755-0.389c-1.344-6.224-2.142-10.463-4.379-18.179
						c-2.242-7.718-4.766-15.95-6.994-24.301c-1.102-4.179-2.118-8.389-2.995-12.563c-0.848-4.183-1.536-8.331-2.04-12.368
						c-0.929-8.085-1.05-15.716-0.379-22.168c0.365-3.678,0.893-6.973,1.473-9.794L10.736,357.922z"/>
				</defs>
				<use xlink:href="#XMLID_159_"  overflow="visible" fill="#1D4721"/>
				<clipPath id="XMLID_3_">
					<use xlink:href="#XMLID_159_"  overflow="visible"/>
				</clipPath>
				<g clip-path="url(#XMLID_3_)">
					<path fill="#329437" stroke="#0A692F" stroke-width="0.5118" d="M33.941,478.09c-0.139-0.974-0.25-1.817-0.568-3.631
						c-0.538-3.64-1.549-8.818-3.123-14.982c-1.571-6.164-3.766-13.293-6.286-20.913c-2.522-7.62-5.349-15.746-7.882-24
						c-1.254-4.132-2.425-8.298-3.455-12.433c-1-4.146-1.841-8.264-2.492-12.277c-1.226-8.04-1.627-15.662-1.193-22.135
						c0.401-6.476,1.351-11.793,2.256-15.436c0.189-0.92,0.406-1.729,0.611-2.43c0.195-0.701,0.361-1.297,0.496-1.78
						c0.268-0.967,0.412-1.481,0.412-1.481s-0.119,0.521-0.344,1.5c-0.111,0.49-0.25,1.093-0.412,1.803
						c-0.172,0.706-0.351,1.522-0.497,2.45c-0.734,3.669-1.431,9.001-1.532,15.408c-0.133,6.41,0.611,13.88,2.176,21.705
						c0.821,3.908,1.832,7.907,3.004,11.931c1.199,4.018,2.541,8.06,3.967,12.076c2.878,8.029,6.059,15.968,8.946,23.494
						c2.884,7.529,5.452,14.66,7.359,20.915c1.909,6.253,3.215,11.596,3.956,15.384c0.418,1.882,0.654,3.984,0.847,5.002
						L33.941,478.09z"/>
				</g>
				<use xlink:href="#XMLID_159_"  overflow="visible" fill="none" stroke="#0A692F" stroke-width="0.5118"/>
			</g>
		</g>
		<path fill="#329437" stroke="#0A692F" stroke-width="0.5118" d="M30.093,447.611c-2.851-1.422-4.802-3.367-4.357-4.344
			c0.444-0.978,3.114-0.615,5.965,0.808c2.851,1.422,4.357,4.344,4.357,4.344S32.943,449.033,30.093,447.611z"/>
		<path fill="#1D4721" stroke="#0A692F" stroke-width="0.5118" d="M22.426,449.747c1.823-2.7,2.619-5.396,1.777-6.021
			c-0.844-0.625-3.004,1.058-4.829,3.758c-1.823,2.7-1.776,6.021-1.776,6.021S20.602,452.447,22.426,449.747z"/>
		<path fill="#329437" stroke="#0A692F" stroke-width="0.5118" d="M18.311,409.669c-2.498-0.328-4.382-1.219-4.206-1.986
			s2.344-1.121,4.842-0.792c2.499,0.331,4.206,1.987,4.206,1.987S20.809,409.999,18.311,409.669z"/>
		<path fill="#329437" stroke="#0A692F" stroke-width="0.5118" d="M10.316,370.588c-0.684-0.81-1.032-1.618-0.779-1.805
			c0.252-0.186,1.01,0.319,1.693,1.13c0.684,0.812,0.779,1.804,0.779,1.804S11,371.398,10.316,370.588z"/>
		<path fill="#1D4721" stroke="#0A692F" stroke-width="0.5118" d="M8.093,370.756c0.581-0.69,0.878-1.377,0.663-1.536
			c-0.214-0.158-0.859,0.271-1.44,0.962c-0.581,0.689-0.663,1.534-0.663,1.534S7.512,371.444,8.093,370.756z"/>
		<path fill="#1D4721" stroke="#0A692F" stroke-width="0.5118" d="M12.652,412.858c0.955-2.257,1.102-4.278,0.327-4.516
			c-0.776-0.238-2.178,1.398-3.134,3.656c-0.955,2.257-0.327,4.516-0.327,4.516S11.696,415.115,12.652,412.858z"/>
	</g>
	<g>
		<g>
			<g>
				<defs>
					<path id="XMLID_158_" d="M25.59,317.647c0.117-0.51,0.838-3.632,0.87-3.819c0.24-1.506,0.602-3.195,0.83-5.062
						c0.528-3.726,0.945-8.106,1.123-12.819c0.147-4.711,0.087-9.749-0.222-14.769c-0.328-5.016-0.858-10.012-1.467-14.675
						c-0.638-4.654-1.317-8.983-1.959-12.672c-0.633-3.692-1.198-6.756-1.597-8.896c-0.399-2.14-0.628-3.362-0.628-3.362
						s-1.186-4.811-2.965-12.026c-1.734-7.207-4.014-16.804-5.553-26.524c-1.59-9.71-2.285-19.559-2.08-26.949
						c0.02-0.924,0.039-1.809,0.057-2.651c0.052-0.841,0.314-5.196,0.447-6.266c0.224-2.147,0.918-5.157,0.918-5.157
						s-0.784,2.997-1.165,5.123c-0.212,1.062-1.073,7.978-1.161,8.904c-0.752,7.414-0.779,17.44,0.114,27.408
						c0.842,9.976,2.438,19.857,3.653,27.23c1.25,7.353,4.283,20.626,5.175,24.218c0.899,3.591,1.878,7.791,2.838,12.313
						c0.931,4.524,1.808,9.377,2.487,14.268c0.662,4.892,1.08,9.822,1.273,14.466c0.162,4.644,0.065,8.998-0.189,12.724
						c-0.092,1.867-2.1,13.775-2.18,14.301C24.074,324.037,25.375,318.719,25.59,317.647z"/>
				</defs>
				<use xlink:href="#XMLID_158_"  overflow="visible" fill="#329437"/>
				<clipPath id="XMLID_4_">
					<use xlink:href="#XMLID_158_"  overflow="visible"/>
				</clipPath>
				<g clip-path="url(#XMLID_4_)">
					<path fill="#1D4721" stroke="#0A692F" stroke-width="0.5118" d="M24.463,317.536c0.109-0.513,0.782-3.646,0.813-3.834
						c0.217-1.509,0.553-3.204,0.752-5.074c0.471-3.733,0.822-8.121,0.929-12.837c0.075-4.713-0.062-9.749-0.446-14.763
						c-0.404-5.01-1.011-9.996-1.689-14.648c-0.709-4.644-1.454-8.96-2.151-12.638c-0.689-3.682-1.301-6.735-1.731-8.868
						c-0.433-2.133-0.68-3.352-0.68-3.352s-1.259-4.79-3.146-11.975c-1.844-7.177-4.269-16.736-5.955-26.428
						c-1.738-9.683-2.582-19.519-2.49-26.911c0.006-0.924,0.012-1.81,0.018-2.652c0.038-0.842,0.234-5.2,0.352-6.272
						c0.191-2.151,0.84-5.172,0.84-5.172s-0.739,3.01-1.088,5.142c-0.195,1.066-0.951,7.995-1.025,8.922
						c-0.639,7.425-0.514,17.451,0.531,27.402c0.993,9.96,2.74,19.814,4.066,27.166c1.361,7.331,4.596,20.552,5.542,24.129
						c0.954,3.575,1.995,7.757,3.024,12.264c0.999,4.508,1.949,9.345,2.704,14.225c0.735,4.88,1.229,9.803,1.493,14.443
						c0.232,4.641,0.202,8.995,0.004,12.726c-0.063,1.868-1.891,13.81-1.962,14.335C23.045,323.95,24.265,318.61,24.463,317.536z"/>
				</g>
				<use xlink:href="#XMLID_158_"  overflow="visible" fill="none" stroke="#0A692F" stroke-width="0.5118"/>
			</g>
		</g>
		<g>
			<path fill="#329437" stroke="#0A692F" stroke-width="0.5118" d="M23.092,238.992c-2.85-1.422-4.801-3.367-4.357-4.343
				c0.445-0.977,3.115-0.615,5.965,0.808c2.851,1.423,4.357,4.344,4.357,4.344S25.943,240.414,23.092,238.992z"/>
			<path fill="#1D4721" stroke="#0A692F" stroke-width="0.5118" d="M15.425,241.128c1.823-2.7,2.62-5.396,1.777-6.02
				c-0.843-0.625-3.004,1.057-4.829,3.758c-1.822,2.7-1.776,6.021-1.776,6.021S13.601,243.829,15.425,241.128z"/>
		</g>
		<g>
			<path fill="#329437" stroke="#0A692F" stroke-width="0.5118" d="M29.83,279.575c-2.327-1.007-3.92-2.386-3.558-3.077
				c0.362-0.692,2.542-0.436,4.87,0.572c2.326,1.008,3.557,3.078,3.557,3.078S32.157,280.583,29.83,279.575z"/>
			<path fill="#1D4721" stroke="#0A692F" stroke-width="0.5118" d="M23.57,281.089c1.488-1.914,2.139-3.823,1.451-4.266
				c-0.689-0.443-2.453,0.749-3.943,2.662c-1.488,1.914-1.45,4.266-1.45,4.266S22.08,283.002,23.57,281.089z"/>
		</g>
	</g>
</g>
</svg>
