<?xml version="1.0" encoding="utf-8"?>
<!-- Generator: Adobe Illustrator 16.0.0, SVG Export Plug-In . SVG Version: 6.00 Build 0)  -->
<!DOCTYPE svg PUBLIC "-//W3C//DTD SVG 1.1//EN" "http://www.w3.org/Graphics/SVG/1.1/DTD/svg11.dtd">
<svg version="1.1" id="Слой_1" xmlns="http://www.w3.org/2000/svg" xmlns:xlink="http://www.w3.org/1999/xlink" x="0px" y="0px"
	 width="19px" height="68px" viewBox="0 0 19 68" enable-background="new 0 0 19 68" xml:space="preserve">
<g>
	<g>
		<g>
			<defs>
				<path id="XMLID_184_" d="M3.683,4.235c0.006,0-0.1,0.059-0.22,0.173C3.351,4.524,3.198,4.695,3.129,4.917
					C3.045,5.139,3.046,5.414,3.155,5.737C3.251,6.059,3.43,6.429,3.708,6.845C3.974,7.259,4.341,7.719,4.575,8.22
					c0.257,0.499,0.273,1.04,0.353,1.619c0.144,1.156,0.306,2.459,0.481,3.883c0.354,2.847,0.697,6.167,0.883,9.725
					c0.095,1.779,0.151,3.618,0.188,5.485c0.033,1.869,0.043,3.766,0.036,5.664c-0.003,1.897-0.029,3.795-0.082,5.663
					c-0.044,1.868-0.132,3.706-0.218,5.485c-0.2,3.558-0.455,6.878-0.682,9.725c-0.112,1.422-0.215,2.728-0.307,3.885
					c-0.041,0.578-0.074,1.119-0.254,1.618c-0.172,0.501-0.41,0.961-0.59,1.375c-0.361,0.831-0.508,1.483-0.412,1.929
					c0.084,0.444,0.342,0.682,0.342,0.682h9.816c0,0,0.259-0.238,0.344-0.682c0.094-0.445-0.053-1.098-0.414-1.929
					c-0.179-0.414-0.418-0.874-0.59-1.375c-0.179-0.499-0.213-1.041-0.255-1.618c-0.09-1.157-0.192-2.462-0.305-3.885
					c-0.228-2.846-0.481-6.167-0.683-9.725c-0.087-1.779-0.173-3.618-0.219-5.485c-0.051-1.868-0.077-3.766-0.08-5.663
					c-0.006-1.897,0.003-3.795,0.036-5.664c0.036-1.867,0.093-3.706,0.187-5.485c0.188-3.558,0.529-6.878,0.883-9.725
					c0.177-1.424,0.338-2.728,0.481-3.883c0.079-0.579,0.097-1.12,0.353-1.619c0.235-0.501,0.602-0.961,0.867-1.375
					c0.279-0.416,0.457-0.786,0.551-1.107c0.109-0.323,0.111-0.598,0.029-0.821c-0.069-0.222-0.223-0.393-0.334-0.508
					c-0.121-0.115-0.227-0.173-0.221-0.173L9.506,3.822L3.683,4.235z"/>
			</defs>
			<use xlink:href="#XMLID_184_"  overflow="visible" fill="#612415"/>
			<clipPath id="XMLID_2_">
				<use xlink:href="#XMLID_184_"  overflow="visible"/>
			</clipPath>
			<path clip-path="url(#XMLID_2_)" fill="#A53A17" stroke="#010202" stroke-miterlimit="10" d="M1.118,4.235
				c0.006,0-0.098,0.059-0.219,0.173C0.786,4.524,0.634,4.695,0.565,4.917C0.481,5.139,0.483,5.414,0.593,5.737
				c0.094,0.322,0.272,0.692,0.551,1.107C1.409,7.259,1.776,7.719,2.012,8.22c0.257,0.499,0.272,1.04,0.352,1.619
				c0.144,1.156,0.306,2.459,0.483,3.883c0.352,2.847,0.695,6.167,0.882,9.725c0.093,1.779,0.151,3.618,0.187,5.485
				c0.032,1.869,0.042,3.766,0.035,5.664c-0.003,1.897-0.027,3.795-0.08,5.663c-0.045,1.868-0.132,3.706-0.218,5.485
				c-0.2,3.558-0.454,6.878-0.684,9.725c-0.112,1.422-0.215,2.728-0.305,3.885c-0.04,0.578-0.076,1.119-0.255,1.618
				c-0.172,0.501-0.411,0.961-0.59,1.375c-0.361,0.831-0.508,1.483-0.412,1.929c0.084,0.444,0.343,0.682,0.343,0.682h9.815
				c0,0,0.258-0.238,0.343-0.682c0.095-0.445-0.05-1.098-0.413-1.929c-0.178-0.414-0.418-0.874-0.59-1.375
				c-0.178-0.499-0.213-1.041-0.253-1.618c-0.091-1.157-0.194-2.462-0.308-3.885c-0.227-2.846-0.481-6.167-0.682-9.725
				c-0.086-1.779-0.174-3.618-0.218-5.485c-0.053-1.868-0.077-3.766-0.081-5.663c-0.006-1.897,0.004-3.795,0.037-5.664
				c0.034-1.867,0.092-3.706,0.186-5.485c0.187-3.558,0.529-6.878,0.883-9.725c0.177-1.424,0.339-2.728,0.481-3.883
				c0.079-0.579,0.096-1.12,0.353-1.619c0.234-0.501,0.602-0.961,0.867-1.375c0.279-0.416,0.457-0.786,0.553-1.107
				c0.109-0.323,0.11-0.598,0.026-0.821c-0.068-0.222-0.222-0.393-0.334-0.508c-0.119-0.115-0.226-0.173-0.22-0.173l-2.114-0.65
				L1.118,4.235z"/>
			<use xlink:href="#XMLID_184_"  overflow="visible" fill="none" stroke="#010202" stroke-miterlimit="10"/>
		</g>
	</g>
	<g>
		<g>
			<g>
				<g>
					<path fill="#A97D50" d="M12.805,19.471l-0.079-0.314l-0.095-0.184l0.111-0.207l0.012-0.031l0.075-0.108
						c0.097-0.135,0.354-0.492,0.337-1.042c0.01-0.667-0.407-1.515-1.145-2.35c-0.538-0.617-1.255-1.241-2.135-1.855
						c-0.625-0.434-1.075-0.683-1.08-0.685l-0.082-0.045l-0.061-0.072c-0.003-0.004-0.334-0.397-0.883-0.93
						c-0.769-0.743-1.521-1.344-2.237-1.786c-0.902-0.579-1.847-0.957-2.6-1.04C2.827,8.809,2.711,8.804,2.603,8.804
						c-0.252,0-0.445,0.029-0.562,0.054L1.669,8.965L1.29,8.047L1.663,7.84c0.284-0.132,0.699-0.286,1.255-0.36
						c0.215-0.028,0.442-0.042,0.68-0.042c0.853,0,1.849,0.176,2.804,0.496c2.314,0.738,4.271,2.131,4.354,2.19
						c0.07,0.06,0.511,0.477,1.104,1.164c0.842,0.98,1.472,1.896,1.928,2.798c0.407,0.791,1.042,2.322,0.708,3.654
						c-0.201,0.938-0.742,1.409-0.919,1.563l-0.232-0.224l-0.094-0.043l-0.063,0.444L12.805,19.471z"/>
					<path fill="#612415" d="M3.599,7.939c0.812,0,1.757,0.172,2.646,0.47c2.272,0.725,4.221,2.123,4.221,2.123
						s0.434,0.409,1.017,1.084c0.58,0.676,1.314,1.616,1.86,2.697c0.546,1.061,0.917,2.323,0.669,3.307
						c-0.202,0.938-0.786,1.306-0.813,1.356c0.022-0.058,0.494-0.559,0.468-1.405c0.014-0.882-0.564-1.866-1.271-2.666
						c-0.708-0.813-1.568-1.477-2.223-1.934c-0.66-0.458-1.125-0.713-1.125-0.713s-0.341-0.407-0.918-0.968
						c-0.577-0.558-1.395-1.279-2.322-1.853C4.89,8.847,3.857,8.419,2.999,8.325C2.861,8.31,2.728,8.304,2.603,8.304
						c-0.26,0-0.487,0.027-0.664,0.064C1.68,8.442,1.531,8.485,1.531,8.485S1.667,8.41,1.906,8.277
						c0.247-0.114,0.619-0.24,1.079-0.301C3.178,7.951,3.383,7.939,3.599,7.939 M13.198,18.975
						c-0.001,0.002-0.001,0.003-0.001,0.004C13.197,18.978,13.197,18.977,13.198,18.975 M13.197,18.979c0,0,0.001,0.001,0.002,0.001
						C13.198,18.98,13.198,18.98,13.197,18.979 M3.599,6.939c-0.261,0-0.511,0.015-0.743,0.045C2.234,7.067,1.769,7.239,1.487,7.369
						L1.453,7.385L1.42,7.403L1.048,7.609l0.758,1.837L2.174,9.34C2.26,9.325,2.409,9.304,2.603,9.304
						c0.092,0,0.19,0.005,0.292,0.016c0.664,0.073,1.553,0.432,2.373,0.958c0.7,0.433,1.424,1.012,2.167,1.73
						c0.526,0.51,0.844,0.887,0.847,0.891l0.12,0.142l0.164,0.091C8.569,13.135,9,13.374,9.603,13.792
						c0.843,0.589,1.53,1.185,2.039,1.769c0.651,0.738,1.033,1.481,1.024,1.993c0.012,0.427-0.16,0.667-0.243,0.782
						c-0.033,0.046-0.074,0.104-0.114,0.18l-0.244,0.449l0.187,0.364l0.15,0.632l0.774,0.02l0.127-0.883l0.021,0.01l0.565,0.587
						c0.575-0.501,0.94-1.125,1.099-1.865c0.367-1.458-0.317-3.118-0.758-3.975c-0.471-0.932-1.123-1.88-1.991-2.891
						c-0.611-0.708-1.071-1.142-1.09-1.16l-0.049-0.046l-0.054-0.039c-0.085-0.061-2.105-1.499-4.5-2.263
						C5.556,7.124,4.504,6.939,3.599,6.939L3.599,6.939z"/>
				</g>
			</g>
			<g>
				<g>
					<path fill="#A97D50" d="M5.121,18.322C4.885,18.255,4.486,18.112,4,17.829c-0.606-0.339-1.061-0.88-1.272-1.518
						c-0.222-0.675-0.127-1.535,0.261-2.36c0.665-1.412,1.78-2.481,2.379-3.055c0.749-0.688,1.281-1.098,1.303-1.115L6.8,9.683
						l0.067-0.002c0.593-0.251,2.74-1.118,4.986-1.53c1.074-0.216,2.155-0.336,3.036-0.336c0.202,0,0.394,0.006,0.574,0.019
						c0.397,0.019,0.791,0.083,1.193,0.196l0.416,0.167l-0.259,0.958l-0.377-0.053l-0.118,0.001c-0.265,0-0.519,0.023-0.776,0.07
						c-0.833,0.132-1.935,0.49-3.034,0.983c-0.962,0.423-2.011,0.979-2.879,1.527c-0.74,0.468-1.206,0.81-1.212,0.815
						c-0.095,0.055-0.617,0.299-1.356,0.725c-0.675,0.402-1.652,1.034-2.272,1.832c-0.271,0.348-0.41,0.682-0.392,0.939
						c0.017,0.259,0.175,0.55,0.411,0.761c0.348,0.332,0.638,0.506,0.747,0.566l0.371,0.221L5.52,18.448L5.121,18.322z"/>
					<path fill="#612415" d="M14.889,8.315c0.189,0,0.37,0.006,0.539,0.018c0.471,0.022,0.845,0.109,1.093,0.179
						c0.231,0.094,0.363,0.148,0.363,0.148s-0.137-0.02-0.378-0.053c-0.057-0.002-0.119-0.003-0.187-0.003
						c-0.231,0-0.524,0.016-0.865,0.078c-0.88,0.14-2.041,0.522-3.149,1.019c-1.112,0.489-2.177,1.079-2.941,1.561
						c-0.765,0.483-1.243,0.835-1.243,0.835s-0.54,0.251-1.309,0.694c-0.75,0.446-1.761,1.113-2.417,1.958
						c-0.326,0.419-0.524,0.872-0.495,1.281c0.027,0.408,0.261,0.816,0.576,1.099c0.302,0.289,0.61,0.506,0.84,0.632
						c0.227,0.135,0.356,0.212,0.356,0.212s-0.145-0.046-0.399-0.126c-0.26-0.074-0.616-0.213-1.019-0.448
						c-0.404-0.226-0.844-0.624-1.05-1.243c-0.206-0.625-0.051-1.374,0.239-1.99c0.592-1.257,1.557-2.22,2.273-2.907
						c0.733-0.674,1.261-1.08,1.261-1.08l0,0c0.002,0,2.435-1.071,4.968-1.535C12.977,8.435,14.026,8.315,14.889,8.315
						 M14.889,7.315L14.889,7.315c-0.913,0-2.029,0.124-3.143,0.347c-2.17,0.397-4.262,1.22-4.973,1.516H6.636L6.367,9.385
						c-0.023,0.018-0.572,0.44-1.329,1.136c-0.638,0.611-1.797,1.722-2.501,3.217c-0.26,0.553-0.642,1.641-0.284,2.728
						c0.252,0.759,0.789,1.398,1.512,1.803c0.515,0.301,0.957,0.459,1.235,0.538l0.37,0.118l0.813-1.813L5.825,16.9
						c-0.102-0.057-0.359-0.208-0.66-0.495c-0.176-0.158-0.263-0.336-0.27-0.442c-0.005-0.076,0.048-0.294,0.287-0.602
						c0.633-0.816,1.767-1.491,2.139-1.712c0.703-0.405,1.214-0.645,1.22-0.647l0.09-0.042l0.081-0.059
						c0.004-0.003,0.463-0.34,1.184-0.795c0.848-0.535,1.872-1.079,2.81-1.491c1.052-0.472,2.135-0.825,2.904-0.947
						c0.249-0.044,0.474-0.065,0.708-0.065c0.036,0,0.07,0,0.103,0.001l0.321,0.045l0.519-1.917l-0.362-0.147l-0.053-0.021
						l-0.054-0.015c-0.439-0.124-0.87-0.194-1.316-0.216C15.306,7.322,15.103,7.315,14.889,7.315L14.889,7.315L14.889,7.315z"/>
				</g>
			</g>
		</g>
		<g>
			<g>
				<g>
					<path fill="#A97D50" d="M12.805,60.876l-0.079-0.314l-0.096-0.184l0.112-0.207l0.012-0.031l0.075-0.108
						c0.097-0.135,0.354-0.492,0.337-1.042c0.01-0.667-0.407-1.515-1.145-2.35c-0.538-0.617-1.255-1.241-2.135-1.855
						c-0.58-0.402-1.005-0.643-1.074-0.682l-0.214-0.121L8.58,53.885c-0.131-0.149-0.411-0.456-0.799-0.833
						c-0.769-0.743-1.521-1.344-2.237-1.786c-0.902-0.579-1.847-0.957-2.6-1.04c-0.118-0.013-0.233-0.018-0.342-0.018
						c-0.252,0-0.445,0.029-0.562,0.054L1.669,50.37L1.29,49.452l0.374-0.207c0.284-0.132,0.699-0.286,1.255-0.36
						c0.215-0.028,0.442-0.042,0.68-0.042c0.853,0,1.849,0.176,2.804,0.496c2.314,0.738,4.271,2.131,4.354,2.19
						c0.07,0.06,0.511,0.477,1.104,1.164c0.842,0.98,1.472,1.896,1.928,2.798c0.407,0.791,1.042,2.322,0.708,3.654
						c-0.201,0.938-0.742,1.409-0.919,1.563l-0.232-0.224l-0.094-0.043l-0.063,0.444L12.805,60.876z"/>
					<path fill="#612415" d="M3.599,49.344c0.812,0,1.757,0.172,2.646,0.47c2.272,0.725,4.221,2.123,4.221,2.123
						s0.434,0.409,1.017,1.084c0.58,0.676,1.314,1.616,1.86,2.697c0.546,1.061,0.917,2.323,0.669,3.307
						c-0.202,0.938-0.786,1.306-0.813,1.356c0.022-0.058,0.494-0.559,0.468-1.405c0.014-0.882-0.564-1.866-1.271-2.666
						c-0.708-0.813-1.568-1.477-2.223-1.934c-0.66-0.458-1.125-0.713-1.125-0.713c0,0-0.341-0.407-0.918-0.968
						c-0.577-0.558-1.395-1.279-2.322-1.853c-0.917-0.589-1.95-1.017-2.808-1.111c-0.138-0.015-0.271-0.021-0.396-0.021
						c-0.26,0-0.487,0.027-0.664,0.064C1.68,49.847,1.531,49.89,1.531,49.89s0.136-0.075,0.375-0.208
						c0.247-0.114,0.619-0.24,1.079-0.301C3.178,49.355,3.383,49.344,3.599,49.344 M13.198,60.379
						c-0.001,0.002-0.001,0.003-0.001,0.004C13.197,60.383,13.197,60.381,13.198,60.379 M13.197,60.384c0,0,0.001,0.001,0.002,0.001
						C13.198,60.385,13.198,60.385,13.197,60.384 M3.599,48.344c-0.261,0-0.511,0.015-0.743,0.045
						c-0.621,0.083-1.086,0.255-1.368,0.385L1.453,48.79L1.42,48.808l-0.373,0.206l0.758,1.837l0.368-0.106
						c0.086-0.016,0.234-0.037,0.428-0.037c0.092,0,0.19,0.005,0.292,0.016c0.664,0.073,1.553,0.432,2.373,0.958
						c0.7,0.433,1.424,1.012,2.167,1.73c0.292,0.283,0.52,0.525,0.665,0.686l0.027,0.191l0.439,0.249
						c0.142,0.08,0.527,0.305,1.037,0.659c0.843,0.589,1.53,1.185,2.039,1.769c0.651,0.738,1.033,1.481,1.024,1.993
						c0.012,0.427-0.16,0.667-0.243,0.782c-0.033,0.046-0.074,0.104-0.114,0.18l-0.244,0.449l0.187,0.363l0.15,0.633l0.774,0.02
						l0.127-0.883l0.021,0.01l0.565,0.587c0.575-0.501,0.94-1.125,1.099-1.865c0.367-1.458-0.317-3.118-0.758-3.975
						c-0.471-0.932-1.123-1.88-1.991-2.891c-0.611-0.708-1.071-1.142-1.09-1.16l-0.049-0.046l-0.054-0.039
						c-0.085-0.061-2.105-1.499-4.5-2.263C5.556,48.529,4.504,48.344,3.599,48.344L3.599,48.344z"/>
				</g>
			</g>
			<g>
				<g>
					<path fill="#A97D50" d="M5.121,59.727C4.885,59.66,4.486,59.517,4,59.234c-0.606-0.339-1.061-0.88-1.272-1.518
						c-0.222-0.675-0.127-1.535,0.261-2.36c0.665-1.412,1.78-2.481,2.379-3.055c0.749-0.688,1.281-1.098,1.303-1.115L6.8,51.087
						l0.067-0.002c0.593-0.251,2.74-1.118,4.986-1.53c1.074-0.216,2.155-0.336,3.036-0.336c0.202,0,0.394,0.006,0.574,0.019
						c0.397,0.019,0.791,0.083,1.193,0.196l0.416,0.167l-0.259,0.958l-0.377-0.053l-0.118,0.001c-0.265,0-0.519,0.023-0.776,0.07
						c-0.833,0.132-1.935,0.49-3.034,0.983c-0.962,0.423-2.011,0.979-2.879,1.527c-0.74,0.468-1.206,0.81-1.212,0.815
						c-0.095,0.055-0.617,0.299-1.356,0.725c-0.675,0.402-1.652,1.034-2.272,1.832c-0.271,0.348-0.41,0.682-0.392,0.939
						c0.017,0.259,0.175,0.55,0.411,0.761c0.348,0.332,0.638,0.506,0.747,0.566l0.371,0.221L5.52,59.853L5.121,59.727z"/>
					<path fill="#612415" d="M14.889,49.72c0.189,0,0.37,0.006,0.539,0.018c0.471,0.022,0.845,0.109,1.093,0.179
						c0.231,0.094,0.363,0.148,0.363,0.148s-0.137-0.02-0.378-0.053c-0.057-0.002-0.119-0.003-0.187-0.003
						c-0.231,0-0.524,0.016-0.865,0.078c-0.88,0.14-2.041,0.522-3.149,1.019c-1.112,0.489-2.177,1.079-2.941,1.561
						C8.597,53.148,8.119,53.5,8.119,53.5s-0.54,0.251-1.309,0.694c-0.75,0.446-1.761,1.113-2.417,1.958
						c-0.326,0.419-0.524,0.872-0.495,1.281c0.027,0.408,0.261,0.816,0.576,1.099c0.302,0.289,0.61,0.506,0.84,0.632
						c0.227,0.135,0.356,0.212,0.356,0.212S5.525,59.33,5.271,59.25c-0.26-0.074-0.616-0.213-1.019-0.448
						c-0.404-0.226-0.844-0.624-1.05-1.243c-0.206-0.625-0.051-1.374,0.239-1.99c0.592-1.257,1.557-2.22,2.273-2.907
						c0.733-0.674,1.261-1.08,1.261-1.08l0,0c0.002,0,2.435-1.071,4.968-1.535C12.977,49.839,14.026,49.72,14.889,49.72
						 M14.889,48.72L14.889,48.72c-0.913,0-2.029,0.123-3.143,0.347c-2.17,0.397-4.262,1.22-4.973,1.516H6.636L6.367,50.79
						c-0.023,0.018-0.572,0.44-1.329,1.136c-0.638,0.611-1.797,1.722-2.501,3.217c-0.26,0.553-0.642,1.641-0.284,2.728
						c0.252,0.759,0.789,1.398,1.512,1.803c0.515,0.3,0.957,0.459,1.235,0.538l0.37,0.118l0.813-1.813l-0.356-0.211
						c-0.102-0.057-0.359-0.208-0.66-0.495c-0.176-0.158-0.263-0.336-0.27-0.442c-0.005-0.076,0.048-0.294,0.287-0.602
						c0.633-0.816,1.767-1.491,2.139-1.712c0.703-0.405,1.214-0.645,1.22-0.647l0.09-0.042l0.081-0.059
						c0.004-0.003,0.463-0.34,1.184-0.795c0.848-0.535,1.872-1.079,2.81-1.491c1.052-0.472,2.135-0.825,2.904-0.947
						c0.249-0.045,0.474-0.065,0.708-0.065c0.036,0,0.07,0,0.103,0.001l0.321,0.045l0.519-1.917l-0.362-0.147l-0.053-0.021
						l-0.054-0.015c-0.439-0.124-0.87-0.194-1.316-0.216C15.306,48.727,15.103,48.72,14.889,48.72L14.889,48.72L14.889,48.72z"/>
				</g>
			</g>
		</g>
	</g>
</g>
</svg>
