<?xml version="1.0" encoding="utf-8"?>
<!-- Generator: Adobe Illustrator 16.0.0, SVG Export Plug-In . SVG Version: 6.00 Build 0)  -->
<!DOCTYPE svg PUBLIC "-//W3C//DTD SVG 1.1//EN" "http://www.w3.org/Graphics/SVG/1.1/DTD/svg11.dtd">
<svg version="1.1" id="Слой_1" xmlns="http://www.w3.org/2000/svg" xmlns:xlink="http://www.w3.org/1999/xlink" x="0px" y="0px"
	 width="20.5px" height="16.5px" viewBox="0 0 20.5 16.5" enable-background="new 0 0 20.5 16.5" xml:space="preserve">
<g>
	<g>
		<g>
			<path fill="#A97D50" d="M13.632,14.533l-0.078-0.314l-0.096-0.185l0.113-0.208l0.012-0.03l0.074-0.107
				c0.097-0.135,0.354-0.492,0.337-1.043c0.01-0.665-0.408-1.514-1.146-2.351c-0.541-0.62-1.259-1.243-2.135-1.854
				c-0.625-0.434-1.075-0.683-1.08-0.685L9.552,7.711L9.491,7.639C9.488,7.635,9.157,7.241,8.608,6.708
				C7.835,5.963,7.083,5.362,6.372,4.923c-0.903-0.58-1.848-0.958-2.6-1.04C3.653,3.871,3.537,3.866,3.428,3.866
				c-0.252,0-0.443,0.029-0.558,0.053L2.498,4.027L2.114,3.111l0.378-0.21c0.233-0.109,0.66-0.279,1.252-0.359
				C3.96,2.514,4.187,2.5,4.424,2.5c0.855,0,1.852,0.176,2.807,0.497c2.314,0.738,4.271,2.131,4.353,2.19
				c0.07,0.06,0.511,0.477,1.104,1.164c0.842,0.98,1.472,1.896,1.928,2.797c0.407,0.792,1.043,2.323,0.708,3.654
				c-0.201,0.938-0.742,1.409-0.919,1.563l-0.231-0.224l-0.094-0.044l-0.063,0.444L13.632,14.533z"/>
			<path fill="#612415" d="M4.424,3c0.812,0,1.758,0.172,2.647,0.471c2.272,0.725,4.221,2.122,4.221,2.122s0.435,0.409,1.018,1.084
				c0.58,0.676,1.314,1.616,1.86,2.696c0.546,1.061,0.917,2.323,0.669,3.307c-0.201,0.939-0.786,1.306-0.813,1.356
				c0.022-0.059,0.494-0.559,0.468-1.405c0.014-0.881-0.564-1.865-1.271-2.666C12.515,9.152,11.655,8.488,11,8.031
				c-0.659-0.457-1.125-0.713-1.125-0.713S9.534,6.91,8.956,6.35C8.379,5.793,7.562,5.07,6.635,4.498
				c-0.918-0.59-1.95-1.018-2.809-1.111C3.687,3.372,3.554,3.366,3.428,3.366c-0.26,0-0.486,0.027-0.661,0.064
				c-0.26,0.074-0.408,0.117-0.408,0.117s0.136-0.076,0.375-0.208C2.979,3.225,3.352,3.1,3.812,3.037C4.004,3.012,4.209,3,4.424,3
				 M14.026,14.036c-0.001,0.002-0.001,0.003-0.001,0.004C14.024,14.04,14.025,14.038,14.026,14.036 M14.025,14.041
				c0,0,0.001,0.001,0.002,0.001C14.026,14.042,14.025,14.042,14.025,14.041 M4.424,2L4.424,2c-0.26,0-0.509,0.016-0.741,0.045
				C3.053,2.131,2.59,2.303,2.313,2.432L2.281,2.446l-0.03,0.017L1.869,2.675l0.767,1.833l0.367-0.105
				c0.083-0.016,0.23-0.037,0.424-0.037c0.093,0,0.191,0.005,0.294,0.016c0.664,0.072,1.552,0.431,2.373,0.958
				c0.695,0.429,1.419,1.008,2.167,1.73c0.526,0.51,0.843,0.887,0.846,0.891l0.12,0.143l0.165,0.091
				c0.004,0.002,0.436,0.241,1.038,0.659c0.84,0.586,1.527,1.182,2.04,1.77c0.65,0.737,1.032,1.481,1.024,1.993
				c0.012,0.427-0.16,0.667-0.243,0.781c-0.032,0.045-0.073,0.102-0.112,0.177l-0.248,0.452l0.192,0.37l0.155,0.627l0.766,0.019
				l0.124-0.884l0.026,0.012l0.564,0.587c0.575-0.501,0.94-1.125,1.099-1.866c0.368-1.456-0.316-3.117-0.757-3.974
				c-0.471-0.932-1.124-1.879-1.991-2.89c-0.612-0.708-1.072-1.143-1.091-1.161l-0.048-0.046L11.875,4.78
				c-0.085-0.061-2.104-1.499-4.5-2.262C6.385,2.186,5.332,2,4.424,2L4.424,2L4.424,2z"/>
		</g>
	</g>
	<g>
		<g>
			<path fill="#A97D50" d="M5.948,13.383c-0.234-0.066-0.634-0.209-1.121-0.492c-0.606-0.34-1.061-0.881-1.273-1.519
				c-0.222-0.676-0.126-1.536,0.261-2.36c0.665-1.411,1.78-2.48,2.379-3.055C7.068,5.155,7.42,4.881,7.604,4.789L7.602,4.783
				c0.102-0.045,2.522-1.103,5.079-1.569c1.073-0.216,2.153-0.336,3.033-0.336c0.202,0,0.395,0.006,0.575,0.019
				c0.393,0.018,0.787,0.082,1.193,0.196l0.414,0.165L17.64,4.216l-0.376-0.053l-0.117,0.002c-0.267,0-0.522,0.022-0.778,0.069
				c-0.833,0.133-1.935,0.491-3.034,0.983c-0.959,0.421-2.007,0.978-2.879,1.527C9.715,7.212,9.25,7.554,9.243,7.56l-0.041,0.03
				L9.157,7.61c-0.01,0.005-0.531,0.248-1.27,0.674c-0.387,0.23-1.581,0.941-2.273,1.832c-0.266,0.344-0.409,0.686-0.391,0.938
				c0.017,0.259,0.174,0.55,0.412,0.763c0.245,0.234,0.519,0.441,0.744,0.564l0.376,0.224l-0.414,0.903L5.948,13.383z"/>
			<path fill="#612415" d="M15.714,3.377c0.19,0,0.371,0.005,0.54,0.018c0.471,0.021,0.846,0.109,1.093,0.179
				c0.231,0.095,0.363,0.147,0.363,0.147s-0.138-0.02-0.378-0.053c-0.056-0.002-0.118-0.003-0.185-0.003
				c-0.231,0-0.525,0.015-0.868,0.077c-0.88,0.141-2.04,0.522-3.149,1.02c-1.112,0.488-2.177,1.078-2.941,1.561
				S8.946,7.157,8.946,7.157s-0.54,0.251-1.309,0.694C6.888,8.298,5.876,8.965,5.22,9.81c-0.325,0.42-0.523,0.872-0.494,1.28
				c0.026,0.408,0.261,0.816,0.576,1.1c0.302,0.289,0.609,0.506,0.839,0.631c0.228,0.135,0.356,0.213,0.356,0.213
				s-0.145-0.047-0.398-0.127c-0.26-0.073-0.616-0.213-1.02-0.447c-0.403-0.227-0.844-0.625-1.05-1.244
				C3.824,10.59,3.979,9.842,4.269,9.226c0.592-1.257,1.556-2.22,2.272-2.907C7.273,5.646,7.801,5.24,7.803,5.24l0,0
				c0,0,2.433-1.072,4.968-1.535C13.803,3.497,14.852,3.377,15.714,3.377 M15.714,2.377L15.714,2.377
				c-0.912,0-2.027,0.124-3.141,0.348c-2.297,0.419-4.489,1.31-5.043,1.544C7.28,4.344,6.919,4.613,5.864,5.582
				C5.226,6.194,4.067,7.305,3.364,8.8c-0.26,0.551-0.642,1.639-0.285,2.727c0.253,0.759,0.789,1.398,1.51,1.804
				c0.519,0.302,0.961,0.459,1.238,0.538l0.361,0.116l0.827-1.806L6.65,11.96c-0.102-0.056-0.355-0.204-0.657-0.493
				c-0.177-0.159-0.263-0.337-0.27-0.442c-0.006-0.079,0.048-0.295,0.287-0.604c0.633-0.815,1.767-1.489,2.139-1.711
				c0.704-0.406,1.214-0.645,1.219-0.647l0.09-0.042l0.082-0.06c0.004-0.003,0.462-0.34,1.182-0.794
				c0.852-0.537,1.875-1.081,2.81-1.491c1.053-0.472,2.136-0.825,2.905-0.948c0.248-0.044,0.473-0.064,0.71-0.064l0.106,0.001
				l0.316,0.044l0.512-1.918l-0.356-0.145l-0.053-0.022L17.617,2.61c-0.443-0.124-0.874-0.194-1.317-0.215
				C16.133,2.383,15.928,2.377,15.714,2.377L15.714,2.377z"/>
		</g>
	</g>
</g>
</svg>
